<svg width="21" height="16" viewBox="0 0 21 16" fill="none" xmlns="http://www.w3.org/2000/svg">
<g id="Group 7">
<path id="Vector" d="M7.77265 15.0308C7.15692 15.0308 7.2616 14.8162 7.04923 14.275L5.23877 8.7751L19.1751 1.14319" fill="#D3D3D3"/>
<path id="Vector_2" d="M7.77283 15.0308C8.24793 15.0308 8.45777 14.8302 8.72303 14.5922L11.2569 12.3179L8.09621 10.5585" fill="#F5F5F5"/>
<path id="Vector_3" d="M8.09597 10.559L15.7546 15.7821C16.6287 16.2272 17.2593 15.9967 17.477 15.0332L20.5945 1.47253C20.9136 0.291351 20.1067 -0.244566 19.2706 0.105841L0.96483 6.62148C-0.284692 7.08416 -0.277249 7.72767 0.737097 8.01434L5.43476 9.36787L16.3104 3.03438C16.8238 2.74698 17.2951 2.90135 16.9083 3.21828" fill="white"/>
</g>
</svg>
