<svg width="167" height="167" viewBox="0 0 167 167" fill="none" xmlns="http://www.w3.org/2000/svg">
<g id="Group 12">
<path id="Subtract" fill-rule="evenodd" clip-rule="evenodd" d="M83.5 167C129.616 167 167 129.616 167 83.5C167 37.3842 129.616 0 83.5 0C37.3842 0 0 37.3842 0 83.5C0 129.616 37.3842 167 83.5 167ZM83.5001 147.186C118.673 147.186 147.187 118.673 147.187 83.5C147.187 48.3269 118.673 19.8135 83.5001 19.8135C48.327 19.8135 19.8137 48.3269 19.8137 83.5C19.8137 118.673 48.327 147.186 83.5001 147.186Z" fill="url(#paint0_linear_14_268)"/>
<g id="&#209;&#136;&#208;&#181;&#209;&#132; 2" clip-path="url(#clip0_14_268)">
<g id="&#208;&#161;&#208;&#187;&#208;&#190;&#208;&#185;_x0020_1">
<g id="_2225048732880">
<g id="Group">
<path id="Vector" d="M36.714 114.955C36.714 114.955 24.7973 121.951 13.6379 129.535C19.2975 138.119 26.5029 145.595 34.859 151.562C41.9424 147.233 47.8223 144.235 47.8223 144.235L36.714 114.956V114.955Z" fill="#FAC7A2"/>
<path id="Vector_2" d="M109.897 145.274C109.897 145.274 106.337 153.206 103.647 164.449C111.224 162.529 118.385 159.567 124.973 155.726C116.139 149.567 109.896 145.274 109.896 145.274H109.897Z" fill="#D42326"/>
<path id="Vector_3" d="M110.696 106.198C104.073 102.483 98.4796 97.6824 98.4796 92.8727C98.4796 83.9343 98.4796 75.7344 98.4796 75.7344H84.6322C84.6322 75.7344 84.2559 76.3841 83.6206 77.535C82.9814 76.385 82.6051 75.7344 82.6051 75.7344H68.7606C68.7606 75.7344 68.7606 83.9343 68.7606 92.8727C68.7606 97.9774 64.8218 102.826 59.2852 106.483C63.154 108.481 72.0197 112.279 83.8484 112.459C95.404 112.637 104.915 109.081 110.697 106.197L110.696 106.198Z" fill="#F4B28A"/>
<path id="Vector_4" d="M123.642 111.75C119.717 110.565 114.993 108.609 110.696 106.198C104.914 109.081 95.4021 112.638 83.8475 112.46C72.0187 112.279 63.154 108.482 59.2842 106.484C55.4551 109.017 50.8629 110.98 46.249 112.042C52.197 143.021 118.754 141.907 123.641 111.751L123.642 111.75Z" fill="#FAC7A2"/>
<path id="Vector_5" d="M83.8474 87.8399C71.2415 87.8399 60.9312 77.5283 60.9312 64.9188V45.37C60.9312 32.7623 71.2405 22.4498 83.8474 22.4498C96.4496 22.4498 106.764 32.7614 106.764 45.37V64.9188C106.764 77.5274 96.4496 87.8399 83.8474 87.8399Z" fill="#FAC7A2"/>
<path id="Vector_6" d="M62.2303 62.7599C62.2303 62.7599 56.7759 60.5196 57.1559 53.5907C57.5351 46.6618 64.7178 50.3357 64.7178 50.3357L62.2303 62.7599Z" fill="#FAC7A2"/>
<path id="Vector_7" d="M105.461 62.7599C105.461 62.7599 110.915 60.5196 110.532 53.5907C110.153 46.6618 102.97 50.3357 102.97 50.3357L105.462 62.7599H105.461Z" fill="#FAC7A2"/>
<path id="Vector_8" d="M51.7969 121.839C51.7969 121.839 63.7675 133.123 75.1386 134.446C86.5164 135.767 94.8914 133.184 94.8914 133.184C94.8914 133.184 63.8232 130.411 51.7969 121.839Z" fill="#F5CFB4"/>
<path id="Vector_9" d="M61.7623 50.3366C61.7623 50.3366 64.6753 44.465 65.46 36.2471C69.3033 40.3854 80.5071 43.524 80.5071 43.524C80.5071 43.524 80.9761 39.644 79.8047 36.6906C81.5793 38.3125 89.7103 42.7505 89.7103 42.7505C89.7103 42.7505 90.5972 39.7972 89.5647 36.3928C92.0778 39.2004 97.7951 42.4412 97.7951 42.4412C97.7951 42.4412 100.485 37.5711 101.901 38.0609C102.97 44.3789 105.386 50.3357 105.386 50.3357H108.786C108.786 50.3357 116.404 30.0312 106.097 21.0067C98.697 14.5327 70.6941 9.09796 60.5379 22.4489C50.3769 35.8027 58.3406 50.3357 58.3406 50.3357H61.7623V50.3366Z" fill="#B9B7B7"/>
<path id="Vector_10" d="M139.322 114.955L126.702 110.546L104.886 111.204L86.4587 110.038V166.929C106.051 166.159 123.901 158.617 137.736 146.575C139.693 136.406 139.322 114.956 139.322 114.956V114.955Z" fill="#B9B7B7"/>
<path id="Vector_11" d="M47.8223 107.597L30.542 115.751C30.542 115.751 32.4471 136.623 34.4383 146.73C34.8221 148.68 35.3554 150.564 35.9661 152.335C49.3729 161.583 65.6227 167.001 83.1394 167.001C84.2522 167.001 85.3575 166.972 86.4589 166.929V110.038L47.8223 107.597Z" fill="#C5C3C2"/>
<path id="Vector_12" d="M89.04 166.789V141.521H83.873V166.991C85.608 166.975 87.3316 166.909 89.04 166.789Z" fill="#A19F9F"/>
<path id="Vector_13" d="M34.3957 144.061C34.3957 144.061 34.3466 147.498 35.1984 151.803C45.8964 159.361 58.4579 164.453 72.0556 166.264C75.2806 165.27 77.0506 164.359 77.0506 164.359C77.0506 164.359 61.4995 165.479 51.7961 160.397C42.0966 155.309 34.3948 144.061 34.3948 144.061H34.3957Z" fill="#A19F9F"/>
<path id="Vector_14" d="M137.547 144.061C137.547 144.061 137.563 145.14 137.427 146.843C135.41 148.582 133.31 150.226 131.13 151.766C135.059 147.695 137.546 144.061 137.546 144.061H137.547ZM98.0662 165.663C96.0013 164.931 94.8914 164.359 94.8914 164.359C94.8914 164.359 99.0684 164.659 104.443 164.243C102.349 164.796 100.222 165.273 98.0662 165.663Z" fill="#A19F9F"/>
<path id="Vector_15" d="M148.13 135.736C147.416 134.892 147.114 134.54 147.346 134.823L119.358 137.706C119.358 137.706 123.407 145.201 128.425 153.601C135.913 148.73 142.565 142.69 148.129 135.736H148.13Z" fill="#FAC7A2"/>
<path id="Vector_16" d="M46.25 107.406C46.25 107.406 59.2493 135.165 78.7694 149.672C85.4718 154.655 92.613 160.245 100.148 165.258C122.243 160.668 141.124 147.311 153 128.991C152.701 128.74 152.406 128.518 152.116 128.331C146.2 124.547 147.549 118.626 142.438 116.263C137.328 113.899 137.548 109.753 129.081 106.409C126.277 105.297 115.236 105.387 111.794 101.95C108.344 98.5136 102.971 97.0828 102.971 97.0828C102.971 97.0828 87.3514 107.487 73.3462 106.198C56.1339 104.62 52.4608 99.011 46.25 107.406Z" fill="#E02B2C"/>
<path id="Vector_17" d="M36.8926 152.967C35.0868 147.731 33.3481 140.81 32.5359 132.236C31.649 122.878 32.4054 114.981 32.4054 114.981C32.4054 114.981 16.7929 116.891 11 125.27C17.3961 136.372 26.2816 145.858 36.8926 152.968V152.967Z" fill="#E02B2C"/>
<path id="Vector_18" d="M47.3741 106.894C47.3741 106.894 43.041 111.97 41.4545 126.17C39.868 140.369 39.4851 145.274 39.4851 145.274H61.1657C61.1657 145.274 61.3113 124.838 58.351 117.295C55.3955 109.752 47.3741 106.894 47.3741 106.894Z" fill="#D42326"/>
<path id="Vector_19" d="M39.4851 154.124H61.1704V145.272H39.4851V154.124Z" fill="#F9CA57"/>
<path id="Vector_20" d="M47.8223 107.597C47.8223 107.597 59.5158 119.521 75.8195 119.521C84.4006 119.521 96.4997 112.467 96.4997 112.467C96.4997 112.467 80.9335 115.317 71.373 114.867C61.8162 114.416 47.8223 107.597 47.8223 107.597Z" fill="#D42326"/>
<path id="Vector_21" d="M111.793 101.95C111.793 101.95 112.267 110.004 106.092 114.981C99.9137 119.958 86.9778 126.085 86.9778 126.085C86.9778 126.085 102.138 125.694 109.897 120.511C118.183 114.981 119.419 105.321 119.419 105.321L111.793 101.949V101.95Z" fill="#D42326"/>
<path id="Vector_22" d="M73.3462 129.797C73.3462 129.797 94.9672 141.341 106.092 141.522C117.215 141.699 128.65 135.931 134.467 132.825C140.283 129.719 145.606 128.331 145.606 128.331C145.606 128.331 135.404 125.164 126.975 128.331C118.545 131.494 113.57 134.736 102.97 134.228C92.3718 133.712 73.3452 129.797 73.3452 129.797H73.3462Z" fill="#D42326"/>
<path id="Vector_23" d="M82.3469 144.061C82.3469 144.061 94.8148 154.873 108.677 163.001C111.809 161.992 114.861 160.803 117.819 159.445C104.935 154.134 82.3469 144.061 82.3469 144.061Z" fill="#D42326"/>
<path id="Vector_24" d="M131.283 151.61L131.468 151.528C136.445 147.968 141.01 143.875 145.087 139.331C142.672 140.09 140.322 140.857 138.445 141.522C131.678 143.919 131.283 151.61 131.283 151.61Z" fill="#D42326"/>
<path id="Vector_25" d="M53.7419 106.894C53.7419 109.971 51.2468 112.467 48.1741 112.467C45.0966 112.467 42.5986 109.971 42.5986 106.894C42.5986 103.816 45.0966 101.32 48.1741 101.32C51.2478 101.32 53.7419 103.816 53.7419 106.894Z" fill="#F9CA57"/>
</g>
<g id="Group_2">
<path id="Vector_26" d="M57.78 42.5803C57.78 42.5803 54.1815 38.7437 55.2471 34.8882C56.3117 31.0337 57.0851 30.0785 57.0851 30.0785C57.0851 30.0785 63.4225 35.3317 57.78 42.5803Z" fill="#F4B520"/>
<path id="Vector_27" d="M59.135 34.8314C59.135 34.8314 56.3922 30.3443 58.2216 26.7876C60.0511 23.2272 61.0032 22.4498 61.0032 22.4498C61.0032 22.4498 66.1371 28.8898 59.135 34.8314Z" fill="#F9CA57"/>
<path id="Vector_28" d="M62.4931 27.4023C62.4931 27.4023 60.9738 22.3647 63.6428 19.3897C66.3119 16.408 67.4304 15.8973 67.4304 15.8973C67.4304 15.8973 70.7707 23.4267 62.4931 27.4023Z" fill="#F4B520"/>
<path id="Vector_29" d="M68.3691 21.0805C68.3691 21.0805 68.6878 15.8302 72.2229 13.9596C75.758 12.0891 76.9852 12.0002 76.9852 12.0002C76.9852 12.0002 77.508 20.2143 68.3691 21.0805Z" fill="#F9CA57"/>
<path id="Vector_30" d="M66.0586 23.2811C66.0586 23.2811 70.9788 25.145 74.1338 22.6881C77.2908 20.2323 77.876 19.1495 77.876 19.1495C77.876 19.1495 70.6016 15.2978 66.0586 23.2811Z" fill="#F4B520"/>
<path id="Vector_31" d="M61.0881 30.2677C61.0881 30.2677 66.3477 30.3102 68.459 26.9124C70.5674 23.5156 70.7432 22.2976 70.7432 22.2976C70.7432 22.2976 62.5829 21.2034 61.0872 30.2667L61.0881 30.2677Z" fill="#F9CA57"/>
<path id="Vector_32" d="M58.5004 37.9559C58.5004 37.9559 63.6012 36.6708 64.7821 32.8512C65.964 29.0279 65.8288 27.807 65.8288 27.807C65.8288 27.807 57.6571 28.8113 58.5014 37.9559H58.5004Z" fill="#F4B520"/>
<path id="Vector_33" d="M57.7978 45.7681C57.7978 45.7681 62.5271 43.4682 62.9052 39.4851C63.2825 35.5029 62.9005 34.334 62.9005 34.334C62.9005 34.334 55.1051 36.9866 57.7978 45.7681Z" fill="#F9CA57"/>
<path id="Vector_34" d="M109.461 42.5803C109.461 42.5803 113.063 38.7437 111.997 34.8882C110.932 31.0337 110.157 30.0785 110.157 30.0785C110.157 30.0785 103.82 35.3317 109.461 42.5803Z" fill="#F4B520"/>
<path id="Vector_35" d="M108.108 34.8314C108.108 34.8314 110.85 30.3443 109.02 26.7876C107.193 23.2272 106.239 22.4498 106.239 22.4498C106.239 22.4498 101.106 28.8898 108.108 34.8314Z" fill="#F9CA57"/>
<path id="Vector_36" d="M104.749 27.4023C104.749 27.4023 106.268 22.3647 103.599 19.3897C100.93 16.408 99.8128 15.8973 99.8128 15.8973C99.8128 15.8973 96.4734 23.4267 104.749 27.4023Z" fill="#F4B520"/>
<path id="Vector_37" d="M98.8759 21.0805C98.8759 21.0805 98.5554 15.8302 95.0202 13.9596C91.4842 12.0891 90.257 12.0002 90.257 12.0002C90.257 12.0002 89.7341 20.2143 98.8768 21.0805H98.8759Z" fill="#F9CA57"/>
<path id="Vector_38" d="M101.184 23.2811C101.184 23.2811 96.2653 25.145 93.1093 22.6881C89.9543 20.2323 89.3652 19.1495 89.3652 19.1495C89.3652 19.1495 96.6406 15.2978 101.184 23.2811Z" fill="#F4B520"/>
<path id="Vector_39" d="M106.153 30.2677C106.153 30.2677 100.893 30.3102 98.7849 26.9124C96.6736 23.5156 96.4968 22.2976 96.4968 22.2976C96.4968 22.2976 104.656 21.2034 106.153 30.2667V30.2677Z" fill="#F9CA57"/>
<path id="Vector_40" d="M108.745 37.9559C108.745 37.9559 103.644 36.6708 102.462 32.8512C101.279 29.0279 101.414 27.807 101.414 27.807C101.414 27.807 109.585 28.8113 108.745 37.9559Z" fill="#F4B520"/>
<path id="Vector_41" d="M109.446 45.7681C109.446 45.7681 104.716 43.4682 104.338 39.4851C103.96 35.5029 104.342 34.334 104.342 34.334C104.342 34.334 112.137 36.9866 109.446 45.7681Z" fill="#F9CA57"/>
</g>
</g>
</g>
</g>
</g>
<defs>
<linearGradient id="paint0_linear_14_268" x1="83.5" y1="-84" x2="83.5" y2="167" gradientUnits="userSpaceOnUse">
<stop stop-color="#EEC800"/>
<stop offset="0.1622" stop-color="#C3A400" stop-opacity="0.657798"/>
<stop offset="0.3126" stop-color="#BE9F00" stop-opacity="0.677083"/>
<stop offset="0.3127" stop-color="#C0A200" stop-opacity="0.667193"/>
<stop offset="0.361624" stop-color="#BB9D00" stop-opacity="0.6875"/>
<stop offset="0.514124" stop-color="#C2A300" stop-opacity="0.661398"/>
<stop offset="0.67249" stop-color="#FFD600" stop-opacity="0.4375"/>
<stop offset="1" stop-color="#4A3E00" stop-opacity="0.4"/>
</linearGradient>
<clipPath id="clip0_14_268">
<rect width="142" height="155" fill="white" transform="translate(11 12)"/>
</clipPath>
</defs>
</svg>
