<svg width="95" height="95" viewBox="0 0 95 95" fill="none" xmlns="http://www.w3.org/2000/svg">
<g id="person">
<path id="Subtract" fill-rule="evenodd" clip-rule="evenodd" d="M47.5 95C21.2665 95 0 73.7335 0 47.5C0 21.2665 21.2665 0 47.5 0C73.7335 0 95 21.2665 95 47.5C95 73.7335 73.7335 95 47.5 95ZM47.4999 83.7288C27.4913 83.7288 11.2711 67.5086 11.2711 47.5C11.2711 27.4914 27.4913 11.2712 47.4999 11.2712C67.5086 11.2712 83.7288 27.4914 83.7288 47.5C83.7288 67.5086 67.5086 83.7288 47.4999 83.7288Z" fill="#05FF00"/>
<g id="&#208;&#177;&#209;&#128;&#208;&#184;&#208;&#179;&#208;&#176;&#208;&#180;&#208;&#184;&#209;&#128; 1" clip-path="url(#clip0_58_406)">
<g id="&#208;&#161;&#208;&#187;&#208;&#190;&#208;&#185;_x0020_1">
<g id="_2225054631344">
<path id="Vector" d="M33.5477 56.3768C37.2395 54.3383 40.3532 51.7038 40.3532 49.0655C40.3532 44.161 40.3532 39.6607 40.3532 39.6607H48.0702C48.0702 39.6607 48.2782 40.0194 48.6328 40.6496C48.9873 40.0194 49.1973 39.6607 49.1973 39.6607H56.9104C56.9104 39.6607 56.9104 44.161 56.9104 49.0655C56.9104 51.8651 59.1051 54.5262 62.188 56.5324C60.0319 57.6295 55.0934 59.7116 48.5056 59.8122C42.0662 59.9071 36.7693 57.9559 33.5477 56.3768Z" fill="#F4B28A"/>
<path id="Vector_2" d="M26.3317 59.4231C28.5225 58.7702 31.1546 57.6978 33.5458 56.3767C36.7693 57.9559 42.0642 59.9071 48.5037 59.8122C55.0915 59.7116 60.03 57.6294 62.1861 56.5324C64.321 57.9217 66.8798 58.9998 69.4502 59.5825C66.1361 76.5776 29.0563 75.9664 26.3298 59.4231H26.3317Z" fill="#FAC7A2"/>
<path id="Vector_3" d="M7.00014 71.4776C8.76511 67.8827 11.0523 64.4548 13.5379 63.6045C17.1102 62.3822 30.8985 58.3431 30.8985 58.3431C32.8639 61.9684 42.0009 65.0698 46.6503 65.1685C51.9973 65.2843 62.0572 61.9684 64.0226 58.3431C64.0226 58.3431 77.8109 62.3803 81.3833 63.6045C83.9035 64.4681 86.2234 67.9852 87.998 71.637C80.0634 85.5762 64.9224 95 47.5424 95C30.0989 95 14.9078 85.506 6.99821 71.4776H7.00014Z" fill="#C5C3C2"/>
<path id="Vector_4" d="M62.188 56.5324C62.188 56.5324 58.9548 51.0167 57.0087 50.5517C55.7408 51.5709 51.7118 56.1471 47.8929 55.014C44.072 53.8827 41.9294 52.687 40.018 50.5915C37.4823 49.9025 30.8964 58.345 30.8964 58.345C30.8964 58.345 39.0276 65.0261 46.6482 65.1704C54.2649 65.3165 62.1861 59.7989 62.1861 59.7989V56.5343L62.188 56.5324Z" fill="#E73A3E"/>
<path id="Vector_5" d="M62.7876 64.229C62.7876 64.229 56.1227 68.3382 47.4597 68.3382C38.8006 68.3382 31.4362 64.229 31.4362 64.229L33.5461 59.797C33.5461 59.797 41.292 64.229 47.4597 64.229C53.6294 64.229 62.1884 59.797 62.1884 59.797L62.7876 64.229Z" fill="#E02B2C"/>
<path id="Vector_6" d="M76.9378 80.6109C75.2556 75.2566 75.377 75.2205 75.377 75.2205C75.377 75.2205 74.3905 81.5144 73.2305 87.3509C74.7797 86.3335 76.2634 85.227 77.6719 84.0369C77.5139 82.8336 77.273 81.6852 76.9358 80.6109H76.9378Z" fill="#B9B7B7"/>
<path id="Vector_7" d="M18.2779 80.6109C19.962 75.2566 19.8386 75.2205 19.8386 75.2205C19.8386 75.2205 20.8367 81.5827 22.0044 87.4458C20.4456 86.4303 18.9504 85.3219 17.5303 84.1318C17.6883 82.8943 17.9311 81.7137 18.2779 80.6109Z" fill="#B9B7B7"/>
<path id="Vector_8" d="M62.0823 65.1324C62.8858 65.1324 63.7027 65.2482 64.5081 65.4797C68.3945 66.5996 70.7857 70.1091 69.8377 73.3035C68.8878 76.4979 64.9532 78.1928 61.0707 77.0673C59.1593 76.5188 57.5542 75.3818 56.5504 73.8691C55.5754 72.4057 55.2902 70.7639 55.7392 69.2455V69.2436C56.192 67.7251 57.3307 66.4933 58.9493 65.7758C59.9165 65.345 60.984 65.1324 62.0784 65.1324H62.0823ZM63.4792 79.3601C67.3232 79.3601 70.7337 77.2229 71.7357 73.8501C72.9919 69.6232 69.9957 65.0318 65.065 63.6102C62.7046 62.9307 60.2441 63.0673 58.1438 63.9993C55.9897 64.9559 54.4636 66.6224 53.847 68.6988C53.2304 70.7734 53.6042 72.9903 54.8991 74.9377C56.1611 76.8357 58.1554 78.2574 60.5177 78.9388C61.51 79.2254 62.5081 79.362 63.4792 79.362V79.3601Z" fill="#A19F9F"/>
<path id="Vector_9" d="M32.1431 65.1324C31.3416 65.1324 30.5227 65.2482 29.7173 65.4797C25.8328 66.5996 23.4416 70.1091 24.3877 73.3035C25.3395 76.4979 29.276 78.1928 33.1566 77.0673C35.0661 76.5188 36.6712 75.3818 37.677 73.8691C38.65 72.4057 38.9352 70.7639 38.4862 69.2455V69.2436C38.0334 67.7251 36.8947 66.4933 35.2761 65.7758C34.3108 65.345 33.2433 65.1324 32.147 65.1324H32.1431ZM30.7481 79.3601C26.9022 79.3601 23.4917 77.2229 22.4897 73.8501C21.2334 69.6232 24.2297 65.0318 29.1604 63.6102C31.5208 62.9307 33.9832 63.0673 36.0816 63.9993C38.2377 64.9559 39.7618 66.6224 40.3784 68.6988C40.995 70.7734 40.6211 72.9903 39.3282 74.9377C38.0643 76.8357 36.07 78.2574 33.7096 78.9388C32.7154 79.2254 31.7173 79.362 30.7481 79.362V79.3601Z" fill="#A19F9F"/>
<path id="Vector_10" d="M76.9551 62.4638C76.9551 62.4638 73.4116 66.3092 69.452 69.0595C65.4924 71.8116 56.3747 66.9223 59.2822 61.7273C62.1879 56.5343 62.1879 56.5343 62.1879 56.5343C62.1879 56.5343 68.4231 53.0514 76.9551 62.4638Z" fill="#D42326"/>
<path id="Vector_11" d="M18.7881 62.4638C18.7881 62.4638 22.3315 66.3092 26.2912 69.0595C30.2527 71.8116 39.3685 66.9223 36.4609 61.7273C33.5553 56.5343 33.5553 56.5343 33.5553 56.5343C33.5553 56.5343 27.3201 53.0514 18.7881 62.4638Z" fill="#D42326"/>
<g id="Group">
<path id="Vector_12" d="M47.8681 50.5365C54.8895 50.5365 60.6353 44.8784 60.6353 37.962V27.2361C60.6353 20.3197 54.8914 14.6597 47.8681 14.6597C40.8468 14.6597 35.101 20.3197 35.101 27.2361V37.962C35.101 44.8803 40.8468 50.5365 47.8681 50.5365Z" fill="#FAC7A2"/>
<path id="Vector_13" d="M59.9106 36.7776C59.9106 36.7776 62.9492 35.5495 62.7353 31.7459C62.5234 27.9441 58.5233 29.9598 58.5233 29.9598L59.9106 36.7776Z" fill="#FAC7A2"/>
<path id="Vector_14" d="M35.8251 36.7776C35.8251 36.7776 32.7865 35.5495 33.0004 31.7459C33.2123 27.9441 37.2124 29.9598 37.2124 29.9598L35.8251 36.7776Z" fill="#FAC7A2"/>
</g>
<path id="Vector_15" d="M60.5465 29.1721L54.1186 21.7793C54.1186 21.7793 52.186 24.7193 45.7042 25.712C40.2243 26.549 35.2415 28.1832 35.2415 28.1832C35.2415 28.1832 32.0121 15.4018 41.5037 11.2774C50.9952 7.14915 54.8739 14.3541 54.8739 14.3541C54.8739 14.3541 60.5388 12.8964 61.8953 20.3045C63.2517 27.7125 60.5465 29.1721 60.5465 29.1721Z" fill="#B4322A"/>
</g>
</g>
</g>
</g>
<defs>
<clipPath id="clip0_58_406">
<rect width="81" height="85" fill="white" transform="matrix(-1 0 0 1 88 10)"/>
</clipPath>
</defs>
</svg>
