<svg width="14" height="14" viewBox="0 0 14 14" fill="none" xmlns="http://www.w3.org/2000/svg">
<g id="fluent:camera-24-regular">
<path id="Vector" d="M8.12275 1.46067C8.35145 1.46065 8.57618 1.52039 8.77467 1.63396C8.97317 1.74753 9.13855 1.911 9.25442 2.10817L9.72925 2.91725H10.9373C11.44 2.91725 11.9222 3.11691 12.2777 3.47232C12.6332 3.82773 12.833 4.30979 12.8332 4.8125V10.3542C12.8332 10.6031 12.7841 10.8497 12.6889 11.0797C12.5936 11.3097 12.4539 11.5187 12.2779 11.6947C12.1019 11.8708 11.8929 12.0104 11.6628 12.1057C11.4328 12.201 11.1863 12.25 10.9373 12.25H3.06234C2.55953 12.25 2.07732 12.0503 1.72178 11.6947C1.36624 11.3392 1.1665 10.857 1.1665 10.3542V4.8125C1.1665 4.30969 1.36624 3.82748 1.72178 3.47194C2.07732 3.11641 2.55953 2.91667 3.06234 2.91667H4.27567L4.78609 2.086C4.90345 1.89479 5.06786 1.73686 5.26363 1.62729C5.4594 1.51771 5.67999 1.46014 5.90434 1.46008H8.12275V1.46067ZM8.12275 2.33567H5.90434C5.8405 2.33572 5.77745 2.34974 5.7196 2.37675C5.66176 2.40375 5.61053 2.44309 5.5695 2.492L5.53159 2.5445L4.894 3.58283C4.85491 3.6466 4.80011 3.69929 4.73486 3.73585C4.6696 3.77241 4.59606 3.79163 4.52125 3.79167H3.06292C2.92881 3.79159 2.79601 3.81794 2.67209 3.86921C2.54817 3.92047 2.43556 3.99565 2.34071 4.09046C2.24585 4.18526 2.1706 4.29782 2.11927 4.42171C2.06793 4.5456 2.0415 4.67839 2.0415 4.8125V10.3542C2.0415 10.9177 2.49884 11.375 3.06234 11.375H10.9373C11.2081 11.375 11.4677 11.2674 11.6592 11.076C11.8506 10.8846 11.9582 10.6249 11.9582 10.3542V4.8125C11.9582 4.54176 11.8506 4.28211 11.6592 4.09066C11.4677 3.89922 11.2081 3.79167 10.9373 3.79167H9.479C9.40274 3.79171 9.32779 3.77181 9.26159 3.73395C9.19538 3.69609 9.14023 3.64158 9.10159 3.57583L8.49959 2.55092C8.461 2.48525 8.40593 2.4308 8.33984 2.39294C8.27375 2.35509 8.19892 2.33514 8.12275 2.33508V2.33567ZM6.99984 4.66667C7.69603 4.66667 8.36371 4.94323 8.85599 5.43551C9.34828 5.92779 9.62484 6.59547 9.62484 7.29167C9.62484 7.98786 9.34828 8.65554 8.85599 9.14782C8.36371 9.64011 7.69603 9.91667 6.99984 9.91667C6.30364 9.91667 5.63597 9.64011 5.14368 9.14782C4.6514 8.65554 4.37484 7.98786 4.37484 7.29167C4.37484 6.59547 4.6514 5.92779 5.14368 5.43551C5.63597 4.94323 6.30364 4.66667 6.99984 4.66667ZM6.99984 5.54167C6.77002 5.54167 6.54246 5.58693 6.33014 5.67488C6.11782 5.76282 5.9249 5.89173 5.7624 6.05423C5.5999 6.21673 5.47099 6.40965 5.38305 6.62197C5.2951 6.83429 5.24984 7.06185 5.24984 7.29167C5.24984 7.52148 5.2951 7.74904 5.38305 7.96136C5.47099 8.17368 5.5999 8.3666 5.7624 8.5291C5.9249 8.69161 6.11782 8.82051 6.33014 8.90846C6.54246 8.9964 6.77002 9.04167 6.99984 9.04167C7.46397 9.04167 7.90909 8.85729 8.23727 8.5291C8.56546 8.20091 8.74984 7.7558 8.74984 7.29167C8.74984 6.82754 8.56546 6.38242 8.23727 6.05423C7.90909 5.72604 7.46397 5.54167 6.99984 5.54167Z" fill="#333333"/>
</g>
</svg>
