<svg width="370" height="112" viewBox="0 0 370 112" fill="none" xmlns="http://www.w3.org/2000/svg">
<g id="Group 185">
<path id="Union" fill-rule="evenodd" clip-rule="evenodd" d="M187.241 54.9019C226.498 54.7653 291.251 60.8458 293.741 66.5742C293.741 66.5746 293.741 66.575 293.741 66.5754L293.742 66.5751C293.742 66.5748 293.741 66.5745 293.741 66.5742C293.741 54.7914 295.543 44.5275 302.305 31.4257C306.28 23.737 305.033 18.0679 293.658 14.3891C258.895 3.14958 221.863 -0.127656 185.435 0.00377107C159.996 0.0964405 134.849 1.66308 110.726 6.1861C109.357 6.44284 106.412 7.84657 109.021 13.6005C106.787 9.05069 104.293 7.46337 103.13 7.7166C93.3962 9.82061 83.847 12.4384 74.5303 15.6734C64.7304 19.0756 67.019 29.4109 70.1597 35.5014C75.9301 46.6899 77.8552 56.4304 77.8552 66.8373C78.7792 62.6798 109.106 58.8337 140.123 56.6834C140.741 56.6409 141.356 50.8022 141.444 47.1982C141.632 50.6489 142.456 56.5901 143.102 56.5487C158.598 55.5652 174.617 54.8568 187.241 54.9019ZM34.0811 48.2709C34.8956 45.3372 37.7341 42.885 42.7578 40.7728C49.898 37.7727 57.3018 35.1039 65.0691 32.735C65.5684 34.8507 66.378 36.8786 67.2537 38.5767C73.0241 49.7652 74.9492 59.5057 74.9492 69.9127C75.7337 66.3842 97.6949 63.0808 123.283 60.8471L126.624 70.7674C126.68 71.1437 126.788 71.5012 126.889 71.836L126.889 71.8361C127.236 72.9859 127.503 73.8675 125.324 74.3209C123.912 74.6169 122.087 74.8275 120.461 75.0152H120.461L120.46 75.0153C119.949 75.0742 119.458 75.1309 119.006 75.1872C117.488 75.3748 115.98 75.5207 114.474 75.6663H114.473L114.473 75.6663C112.446 75.8623 110.423 76.0578 108.391 76.3541C101.808 77.3169 95.2518 78.377 88.744 79.5698C78.5771 81.4395 68.7014 83.707 58.7284 86.1286C55.9141 86.8126 51.2041 88.2189 50.0018 90.1659L49.9482 90.7907L49.8728 90.2959C48.0236 77.865 44.2561 68.4439 36.8661 57.7709C34.2636 54.0099 33.3506 50.9026 34.0807 48.2711L34.0811 48.2709ZM328.486 40.9983C333.514 43.1096 336.351 45.5619 337.164 48.4952L337.163 48.4955C337.894 51.1267 336.979 54.2346 334.378 57.9956C326.989 68.6671 323.222 78.0897 321.373 90.5214L321.302 91.3982L321.202 90.6062C320.237 88.5675 316.157 87.3526 313.382 86.5689C303.151 83.6889 292.673 81.6647 282.5 79.7965C275.994 78.5994 269.437 77.5424 262.858 76.5799C260.828 76.2825 258.808 76.0877 256.785 75.8924L256.784 75.8923C255.274 75.7466 253.761 75.6006 252.239 75.4116C251.798 75.357 251.321 75.3019 250.825 75.2446L250.824 75.2445C249.189 75.0556 247.347 74.8428 245.922 74.5452C243.742 74.0932 244.009 73.2101 244.357 72.062L244.357 72.0618L244.357 72.0617C244.458 71.7267 244.566 71.3692 244.622 70.9932L247.927 61.1804C273.497 63.4578 295.076 66.8312 296.489 70.091C296.489 58.3077 298.29 48.0435 305.053 34.9413C305.412 34.2463 305.729 33.5679 305.999 32.9055C313.831 35.2878 321.292 37.9749 328.486 40.9983ZM95.9123 87.5018C95.9123 87.4989 94.5024 85.2669 92.3554 81.8696C89.9416 82.2756 87.533 82.6978 85.1313 83.1379C74.9644 85.0076 65.0887 87.2751 55.1156 89.6967C52.3014 90.3807 47.5913 91.787 46.3891 93.7339L46.3355 94.3587L46.2601 93.8639C44.4108 81.4331 40.6434 72.012 33.2534 61.339C32.7111 60.5554 32.2422 59.8 31.8463 59.0718C23.0836 62.1806 14.9286 65.593 7.22498 69.368C2.6382 71.6139 0.285178 73.9572 0.0235518 76.5307C-0.132613 78.0798 0.487179 79.7482 1.9024 81.5747C0.84007 79.2501 0.65105 76.239 5.31084 74.5645C10.9275 72.5473 23.3606 74.4205 31.5834 79.033C31.5834 79.033 15.0425 87.9176 23.5622 110.913V111.12C23.5599 111.195 23.5599 111.271 23.5622 111.347V111.12C23.7999 103.35 48.5261 99.5495 62.5458 97.3947L62.5462 97.3946L62.5489 97.3942L62.5522 97.3937C63.8072 97.2008 64.9762 97.0211 66.0342 96.8529C67.0153 96.6969 68.4065 96.5149 70.0583 96.2989L70.0586 96.2989L70.0588 96.2989C79.6411 95.0458 97.9913 92.646 95.9123 87.5018ZM274.084 88.1563C274.084 88.1528 275.686 85.616 278.077 81.8335C280.28 82.2068 282.479 82.5947 284.672 82.998C294.846 84.8662 305.323 86.8904 315.554 89.7704C318.33 90.554 322.409 91.7689 323.374 93.8077L323.474 94.5997L323.545 93.7229C325.394 81.2912 329.162 71.8686 336.551 61.1971C336.944 60.6285 337.298 60.0748 337.614 59.5354C346.58 62.6949 354.911 66.1697 362.772 70.0225C367.358 72.267 369.715 74.6117 369.976 77.1852C370.13 78.732 369.513 80.4006 368.096 82.2283C369.158 79.9046 369.348 76.8934 364.686 75.2181C359.07 73.2018 346.636 75.0753 338.412 79.6875C338.412 79.6875 354.956 88.571 346.434 111.569V111.773C346.196 104.002 321.462 100.201 307.446 98.048L307.444 98.0479C306.19 97.8552 305.022 97.6757 303.965 97.5077C302.984 97.3518 301.594 97.1701 299.944 96.9543C290.361 95.7012 272.005 93.301 274.083 88.1566L274.084 88.1563ZM346.434 112C346.436 111.924 346.436 111.848 346.434 111.773V112Z" fill="#E31E24"/>
<path id="&#208;&#154;&#208;&#190;&#208;&#189;&#208;&#186;&#209;&#131;&#209;&#128;&#209;&#129;" d="M152.478 25.998C152.958 26.178 153.438 26.58 153.918 27.204C154.398 27.816 154.974 28.65 155.646 29.706C156.102 30.45 156.456 30.996 156.708 31.344C156.96 31.68 157.176 31.872 157.356 31.92L158.04 32.118V33H155.808C155.532 33 155.22 32.766 154.872 32.298C154.536 31.818 154.098 31.092 153.558 30.12C152.946 29.028 152.436 28.2 152.028 27.636C151.62 27.072 151.23 26.79 150.858 26.79H149.706V31.92L151.308 32.136V33H146.376V32.1L147.834 31.92V20.742L146.376 20.526V19.626H151.2V20.526L149.706 20.742V25.926H151.254L154.89 20.742L153.378 20.526V19.626H157.806V20.526L156.384 20.742L152.478 25.998ZM158.959 27.978C158.959 26.898 159.181 25.962 159.625 25.17C160.069 24.378 160.651 23.778 161.371 23.37C162.103 22.95 162.883 22.74 163.711 22.74C165.223 22.74 166.357 23.22 167.113 24.18C167.881 25.14 168.265 26.4 168.265 27.96C168.265 29.052 168.043 29.994 167.599 30.786C167.155 31.578 166.567 32.178 165.835 32.586C165.115 32.994 164.341 33.198 163.513 33.198C162.001 33.198 160.861 32.718 160.093 31.758C159.337 30.798 158.959 29.538 158.959 27.978ZM163.621 32.172C164.449 32.172 165.085 31.83 165.529 31.146C165.973 30.462 166.195 29.448 166.195 28.104C166.195 26.772 165.991 25.716 165.583 24.936C165.175 24.156 164.521 23.766 163.621 23.766C162.793 23.766 162.151 24.108 161.695 24.792C161.251 25.476 161.029 26.49 161.029 27.834C161.029 29.166 161.239 30.222 161.659 31.002C162.079 31.782 162.733 32.172 163.621 32.172ZM174.645 23.01V23.892L173.151 24.144V27.294H178.119V24.144L176.607 23.892V23.01H181.287V23.892L179.973 24.144V31.956L181.359 32.118V33H176.571V32.118L178.119 31.956V28.338H173.151V31.956L174.699 32.118V33H169.929V32.118L171.297 31.956V24.144L169.947 23.892V23.01H174.645ZM189.127 27.546C189.571 27.75 189.979 28.08 190.351 28.536C190.723 28.992 191.149 29.592 191.629 30.336C191.941 30.828 192.199 31.206 192.403 31.47C192.607 31.722 192.793 31.872 192.961 31.92L193.663 32.1V33H191.773C191.449 33 191.131 32.802 190.819 32.406C190.507 32.01 190.135 31.428 189.703 30.66C189.247 29.856 188.857 29.25 188.533 28.842C188.209 28.434 187.867 28.23 187.507 28.23H186.193V31.956L187.759 32.118V33H182.989V32.118L184.357 31.956V24.144L183.007 23.892V23.01H187.615V23.892L186.193 24.144V27.366H188.011L190.405 24.144L189.037 23.892V23.01H193.231V23.892L191.899 24.144L189.127 27.546ZM195.96 37.482C195.756 37.482 195.552 37.47 195.348 37.446C195.156 37.422 195.018 37.386 194.934 37.338V35.772C195.006 35.82 195.144 35.856 195.348 35.88C195.564 35.904 195.768 35.916 195.96 35.916C196.536 35.916 197.04 35.712 197.472 35.304C197.916 34.908 198.342 34.14 198.75 33H197.886L194.466 24.09L193.638 23.856V23.01H197.976V23.856L196.59 24.072L198.354 29.382L199.182 32.01L199.956 29.364L201.558 24.072L200.352 23.856V23.01H203.97V23.856L203.07 24.072C201.306 29.472 200.268 32.538 199.956 33.27C199.548 34.302 199.176 35.106 198.84 35.682C198.504 36.27 198.108 36.714 197.652 37.014C197.196 37.326 196.632 37.482 195.96 37.482ZM214.541 27.654C214.541 28.674 214.331 29.61 213.911 30.462C213.491 31.302 212.891 31.968 212.111 32.46C211.331 32.952 210.419 33.198 209.375 33.198C209.087 33.198 208.775 33.174 208.439 33.126C208.103 33.078 207.833 33.018 207.629 32.946L207.683 34.458V36.276L209.555 36.474V37.356H204.533V36.474L205.829 36.276V24.396L204.515 24.072V23.1L207.071 22.776H207.107L207.485 23.1V24.162C207.845 23.766 208.289 23.43 208.817 23.154C209.357 22.878 209.957 22.74 210.617 22.74C211.325 22.74 211.973 22.914 212.561 23.262C213.161 23.61 213.641 24.15 214.001 24.882C214.361 25.614 214.541 26.538 214.541 27.654ZM209.879 24C209.423 24 208.997 24.096 208.601 24.288C208.205 24.48 207.899 24.69 207.683 24.918V31.704C207.767 31.848 207.977 31.98 208.313 32.1C208.661 32.208 209.039 32.262 209.447 32.262C210.371 32.262 211.115 31.896 211.679 31.164C212.255 30.432 212.543 29.328 212.543 27.852C212.543 26.556 212.291 25.59 211.787 24.954C211.295 24.318 210.659 24 209.879 24ZM215.89 28.068C215.89 27.072 216.082 26.172 216.466 25.368C216.862 24.564 217.438 23.928 218.194 23.46C218.962 22.98 219.88 22.74 220.948 22.74C221.464 22.74 221.908 22.788 222.28 22.884C222.652 22.98 223.096 23.112 223.612 23.28L223.54 26.052H222.37L221.974 24.216C221.902 23.88 221.446 23.712 220.606 23.712C219.766 23.712 219.1 24.054 218.608 24.738C218.128 25.41 217.888 26.37 217.888 27.618C217.888 29.034 218.158 30.114 218.698 30.858C219.25 31.59 219.964 31.956 220.84 31.956C221.344 31.956 221.818 31.878 222.262 31.722C222.718 31.566 223.108 31.38 223.432 31.164L223.774 31.884C223.45 32.22 222.97 32.526 222.334 32.802C221.71 33.066 221.074 33.198 220.426 33.198C219.442 33.198 218.608 32.976 217.924 32.532C217.252 32.088 216.742 31.482 216.394 30.714C216.058 29.934 215.89 29.052 215.89 28.068Z" fill="white"/>
</g>
</svg>
