<svg width="16" height="17" viewBox="0 0 16 17" fill="none" xmlns="http://www.w3.org/2000/svg">
<g id="fluent:emoji-laugh-16-regular">
<path id="Vector" d="M6 6.375C5.86739 6.375 5.74021 6.43097 5.64645 6.5306C5.55268 6.63023 5.5 6.76535 5.5 6.90625C5.5 7.04715 5.44732 7.18227 5.35355 7.2819C5.25979 7.38153 5.13261 7.4375 5 7.4375C4.86739 7.4375 4.74021 7.38153 4.64645 7.2819C4.55268 7.18227 4.5 7.04715 4.5 6.90625C4.5 6.48356 4.65804 6.07818 4.93934 5.7793C5.22064 5.48041 5.60218 5.3125 6 5.3125C6.39782 5.3125 6.77936 5.48041 7.06066 5.7793C7.34196 6.07818 7.5 6.48356 7.5 6.90625C7.5 7.04715 7.44732 7.18227 7.35355 7.2819C7.25979 7.38153 7.13261 7.4375 7 7.4375C6.86739 7.4375 6.74021 7.38153 6.64645 7.2819C6.55268 7.18227 6.5 7.04715 6.5 6.90625C6.5 6.76535 6.44732 6.63023 6.35355 6.5306C6.25979 6.43097 6.13261 6.375 6 6.375ZM10 6.375C9.86739 6.375 9.74021 6.43097 9.64645 6.5306C9.55268 6.63023 9.5 6.76535 9.5 6.90625C9.5 7.04715 9.44732 7.18227 9.35355 7.2819C9.25979 7.38153 9.13261 7.4375 9 7.4375C8.86739 7.4375 8.74021 7.38153 8.64645 7.2819C8.55268 7.18227 8.5 7.04715 8.5 6.90625C8.5 6.48356 8.65804 6.07818 8.93934 5.7793C9.22064 5.48041 9.60218 5.3125 10 5.3125C10.3978 5.3125 10.7794 5.48041 11.0607 5.7793C11.342 6.07818 11.5 6.48356 11.5 6.90625C11.5 7.04715 11.4473 7.18227 11.3536 7.2819C11.2598 7.38153 11.1326 7.4375 11 7.4375C10.8674 7.4375 10.7402 7.38153 10.6464 7.2819C10.5527 7.18227 10.5 7.04715 10.5 6.90625C10.5 6.76535 10.4473 6.63023 10.3536 6.5306C10.2598 6.43097 10.1326 6.375 10 6.375ZM4.535 8.5C4.46343 8.50001 4.3927 8.51635 4.32758 8.5479C4.26247 8.57946 4.20449 8.6255 4.15756 8.68292C4.11063 8.74033 4.07585 8.80778 4.05557 8.8807C4.03529 8.95363 4.02998 9.03033 4.04 9.10562C4.17586 10.1187 4.65118 11.0457 5.37865 11.7163C6.10612 12.3869 7.03689 12.7561 8 12.7561C8.96311 12.7561 9.89388 12.3869 10.6213 11.7163C11.3488 11.0457 11.8241 10.1187 11.96 9.10562C11.97 9.03024 11.9647 8.95345 11.9444 8.88045C11.924 8.80745 11.8891 8.73995 11.8421 8.68251C11.7951 8.62508 11.737 8.57906 11.6717 8.54757C11.6065 8.51608 11.5357 8.49986 11.464 8.5H4.535ZM8 11.6875C7.37942 11.6875 6.77408 11.4832 6.26728 11.1027C5.76048 10.7221 5.37714 10.1841 5.17 9.5625H10.83C10.6229 10.1841 10.2395 10.7221 9.73272 11.1027C9.22592 11.4832 8.62058 11.6875 8 11.6875ZM14 8.5C14 7.66282 13.8448 6.83384 13.5433 6.06039C13.2417 5.28694 12.7998 4.58417 12.2426 3.99219C11.6855 3.40022 11.0241 2.93064 10.2961 2.61027C9.56815 2.28989 8.78793 2.125 8 2.125C7.21207 2.125 6.43185 2.28989 5.7039 2.61027C4.97595 2.93064 4.31451 3.40022 3.75736 3.99219C3.20021 4.58417 2.75825 5.28694 2.45672 6.06039C2.15519 6.83384 2 7.66282 2 8.5C2 10.1908 2.63214 11.8123 3.75736 13.0078C4.88258 14.2034 6.4087 14.875 8 14.875C9.5913 14.875 11.1174 14.2034 12.2426 13.0078C13.3679 11.8123 14 10.1908 14 8.5ZM3 8.5C3 7.09104 3.52678 5.73978 4.46447 4.7435C5.40215 3.74721 6.67392 3.1875 8 3.1875C9.32608 3.1875 10.5979 3.74721 11.5355 4.7435C12.4732 5.73978 13 7.09104 13 8.5C13 9.90896 12.4732 11.2602 11.5355 12.2565C10.5979 13.2528 9.32608 13.8125 8 13.8125C6.67392 13.8125 5.40215 13.2528 4.46447 12.2565C3.52678 11.2602 3 9.90896 3 8.5Z" fill="#333333"/>
</g>
</svg>
