<svg width="95" height="95" viewBox="0 0 95 95" fill="none" xmlns="http://www.w3.org/2000/svg">
<g id="person">
<path id="Subtract" fill-rule="evenodd" clip-rule="evenodd" d="M47.5 95C21.2665 95 0 73.7335 0 47.5C0 21.2665 21.2665 0 47.5 0C73.7335 0 95 21.2665 95 47.5C95 73.7335 73.7335 95 47.5 95ZM47.4999 83.7288C27.4913 83.7288 11.2711 67.5086 11.2711 47.5C11.2711 27.4914 27.4913 11.2712 47.4999 11.2712C67.5086 11.2712 83.7288 27.4914 83.7288 47.5C83.7288 67.5086 67.5086 83.7288 47.4999 83.7288Z" fill="#05FF00"/>
<g id="&#208;&#191;&#208;&#181;&#209;&#128;&#209;&#129;&#208;&#190;&#208;&#189;&#208;&#176;&#208;&#182; 1">
<g id="&#208;&#161;&#208;&#187;&#208;&#190;&#208;&#185;_x0020_1">
<g id="_1987589140464">
<path id="Vector" d="M31.156 60.0455C36.2396 58.5099 40.1621 55.212 40.1621 51.1771C40.1621 46.6224 40.1621 42.4456 40.1621 42.4456H47.2094C47.2094 42.4456 47.4029 42.7764 47.7239 43.3623C48.0496 42.7764 48.2384 42.4456 48.2384 42.4456H55.2856C55.2856 42.4456 55.2856 46.6224 55.2856 51.1771C55.2856 55.5711 59.9445 59.0863 65.689 60.4093C62.6633 76.1853 33.6388 75.401 31.1512 60.0408L31.156 60.0455Z" fill="#F4B28A"/>
<path id="Vector_2" d="M47.5732 47.5626C53.9879 47.5626 59.2368 42.3086 59.2368 35.8877V25.9325C59.2368 19.5115 53.9879 14.2576 47.5732 14.2576C41.1584 14.2576 35.9096 19.5115 35.9096 25.9325V35.8877C35.9096 42.3086 41.1584 47.5626 47.5732 47.5626Z" fill="#FAC7A2"/>
<path id="Vector_3" d="M58.571 34.7868C58.571 34.7868 61.3465 33.6481 61.1529 30.114C60.9594 26.5845 57.306 28.4556 57.306 28.4556L58.571 34.7821V34.7868Z" fill="#FAC7A2"/>
<path id="Vector_4" d="M36.5701 34.7868C36.5701 34.7868 33.7946 33.6481 33.9882 30.114C34.1817 26.5845 37.8398 28.4556 37.8398 28.4556L36.5701 34.7821V34.7868Z" fill="#FAC7A2"/>
<path id="Vector_5" d="M59.2367 30.9122C59.2367 30.9122 58.5051 30.8413 58.118 28.5357C57.7498 26.3528 57.1881 23.0974 56.7444 21.9257C55.7485 19.2892 52.6237 20.7681 48.1065 20.787C43.5892 20.8059 40.8137 19.6436 39.459 21.5288C38.7321 22.5352 38.2271 25.3889 37.84 27.3828C37.3822 29.7499 35.9095 30.9122 35.9095 30.9122C35.9095 30.9122 34.4934 29.4428 34.786 26.8678C33.6485 25.6772 33.2095 23.5557 34.7105 21.3067C34.1299 18.9727 34.2621 16.615 36.2021 15.8591C36.221 14.881 37.1178 13.1707 39.6337 13.0998C39.7847 11.5926 42.0127 10.005 44.4955 11.2146C46.1523 9.63179 49.0883 9.55619 50.4571 11.2618C52.6331 10.1279 54.7856 10.5673 55.5408 12.9769C57.6602 12.0745 59.8456 14.2668 59.232 16.5016C61.1625 17.0922 61.6062 19.5019 60.7472 21.765C62.404 23.7258 61.3278 26.0646 60.3412 27.4726C61.1531 30.1232 59.232 30.9169 59.232 30.9169L59.2367 30.9122Z" fill="#B4322A"/>
<path id="Vector_6" d="M60.0439 58.165C60.0439 58.165 57.4006 65.9704 47.5731 66.1121C35.9095 66.2728 33.979 58.9493 33.979 58.9493C33.979 58.9493 26.8986 61.1511 22.6552 62.7953C19.4879 64.0238 14.9046 74.749 12.7852 80.1022C21.5412 89.2825 33.8893 94.9994 47.5684 94.9994C63.2725 94.9994 77.2207 87.4634 85.9956 75.8026C83.6685 72.0937 78.0137 63.3339 75.8708 62.3559C71.3866 60.3053 60.0392 58.165 60.0392 58.165H60.0439Z" fill="#FDE7D4"/>
<path id="Vector_7" d="M42.5509 94.7396C41.3095 93.0103 40.1295 91.1251 39.1477 89.1313C34.6493 80.003 29.6459 76.2184 29.6459 76.2184C29.6459 76.2184 31.5765 84.2553 34.4983 93.1993C37.0991 93.9316 39.7943 94.4561 42.5557 94.7396H42.5509Z" fill="#F5CFB4"/>
<path id="Vector_8" d="M42.5177 79.0297C42.5177 79.0297 42.9708 86.1168 46.7139 94.99C47.0018 94.9947 47.2898 94.9994 47.5777 94.9994C48.4982 94.9994 49.4092 94.9711 50.3154 94.9191C46.459 87.1185 42.5224 79.0297 42.5224 79.0297H42.5177Z" fill="#F5CFB4"/>
<path id="Vector_9" d="M28.2861 60.7967C28.2861 60.7967 35.0454 84.2033 38.9443 94.2293C27.2902 92.1173 17.104 85.8003 10 76.9082C11.8929 71.0684 12.785 68.3847 14.4701 66.2775C16.2213 64.0899 19.1856 63.9434 19.1856 63.9434C19.1856 63.9434 20.9934 61.392 22.4331 60.192C24.8545 58.1745 28.2908 60.8014 28.2908 60.8014L28.2861 60.7967Z" fill="#E02B2C"/>
<path id="Vector_10" d="M70.3668 70.5109C70.3668 70.5109 76.555 75.4483 79.4863 78.1603C80.3264 78.9399 81.1194 79.8045 81.8228 80.6456C80.0952 82.4032 78.2307 84.0285 76.2529 85.5026C74.766 83.6033 72.675 80.6975 71.5846 78.1603C69.7768 73.96 70.3668 70.5109 70.3668 70.5109Z" fill="#F5CFB4"/>
<path id="Vector_11" d="M65.6939 79.0297C65.6939 79.0297 67.2327 85.8334 67.8794 90.5062C66.6097 91.0968 65.3116 91.6401 63.9852 92.122C64.3534 85.4554 65.6939 79.0297 65.6939 79.0297Z" fill="#F5CFB4"/>
<path id="Vector_12" d="M68.4082 60.0077C68.4082 60.0077 63.4567 73.4875 59.2368 90.3881C58.9489 91.5456 58.6563 92.6796 58.3636 93.7852C57.1316 94.0687 55.8855 94.3002 54.6205 94.4845C55.6117 90.6763 56.5605 86.9106 57.3063 83.6694C60.9031 68.1107 65.6941 59.3604 65.6941 59.3604L68.4082 60.0077Z" fill="#D42326"/>
<path id="Vector_13" d="M14.5267 72.3394C14.6778 72.0512 14.7722 71.9047 14.7722 71.9047C14.7722 71.9047 16.4478 78.165 19.1147 85.6633C17.3588 84.3734 15.6973 82.9654 14.1349 81.4535C13.8989 78.4391 14.0075 75.3963 14.5267 72.3394Z" fill="#D42326"/>
<path id="Vector_14" d="M23.9954 88.8242C23.8727 88.3942 23.7594 87.9737 23.6509 87.5579C21.0925 77.7256 22.2962 66.8775 22.2962 66.8775C22.2962 66.8775 25.0528 80.2865 28.4891 88.947C28.8006 89.736 29.1593 90.5912 29.5464 91.4984C27.63 90.7235 25.7749 89.8258 23.9954 88.8194V88.8242Z" fill="#D42326"/>
<path id="Vector_15" d="M62.626 63.5655C62.626 63.5655 57.5234 71.9094 46.8935 71.9094C38.6143 71.9094 33.9791 66.0649 33.9791 66.0649C33.9791 66.0649 38.4066 69.4573 46.8935 68.9895C55.3757 68.5218 62.626 63.5655 62.626 63.5655Z" fill="#F5CFB4"/>
</g>
</g>
</g>
</g>
</svg>
