<svg width="55" height="68" viewBox="0 0 55 68" fill="none" xmlns="http://www.w3.org/2000/svg">
<g id="&#208;&#161;&#208;&#187;&#208;&#190;&#208;&#185; 2">
<g id="&#208;&#161;&#208;&#187;&#208;&#190;&#208;&#185; 1">
<path id="Vector" d="M7.74648 7.80005H8.87866C8.87866 7.80005 7.6273 8.54004 6.35609 9.36004C5.08487 10.18 3.37667 11.06 2.52257 9.82004C1.66847 8.58004 3.35681 7.82005 3.35681 7.82005C3.1468 7.69298 2.90924 7.61929 2.66463 7.60534C2.42002 7.5914 2.17571 7.63761 1.9528 7.73999C1.72989 7.84237 1.53508 7.99784 1.38519 8.19298C1.23529 8.38812 1.13482 8.61707 1.09245 8.86004C0.985115 9.23008 0.960836 9.61951 1.02138 10.0002C1.08192 10.3808 1.22576 10.7431 1.44249 11.0609C1.65922 11.3787 1.94342 11.6439 2.27451 11.8375C2.60559 12.0311 2.97528 12.1481 3.35681 12.18C5.4424 12.58 5.95883 11.36 7.01156 10C8.06428 8.64005 13.4272 8.00005 13.4272 8.00005C11.6057 7.31274 9.61123 7.24252 7.74648 7.80005V7.80005Z" fill="#F4B22F"/>
<path id="Vector_2" d="M2.52257 9.82005C3.37667 11.06 5.10473 10.16 6.35609 9.36005C7.60744 8.56005 8.87866 7.80005 8.87866 7.80005H7.74648C7.39155 7.90365 7.04601 8.03746 6.71362 8.20005C4.4294 9.32005 3.77393 10.2 3.15818 9.60005C2.54244 9.00005 3.35681 7.82005 3.35681 7.82005C3.35681 7.82005 1.66847 8.58005 2.52257 9.82005Z" fill="#EFA226"/>
<path id="Vector_3" d="M47.4919 7.80006H46.3597C46.3597 7.80006 47.611 8.54006 48.8624 9.36006C50.1138 10.1801 51.8418 11.0601 52.7158 9.82006C53.5897 8.58006 51.8815 7.82006 51.8815 7.82006C52.0916 7.69299 52.3291 7.6193 52.5737 7.60536C52.8183 7.59141 53.0626 7.63762 53.2856 7.74C53.5085 7.84238 53.7033 7.99785 53.8532 8.19299C54.0031 8.38813 54.1035 8.61708 54.1459 8.86006C54.2532 9.23009 54.2775 9.61952 54.217 10.0002C54.1564 10.3808 54.0126 10.7431 53.7959 11.0609C53.5791 11.3787 53.2949 11.6439 52.9638 11.8375C52.6328 12.0311 52.2631 12.1481 51.8815 12.1801C49.796 12.5801 48.8823 11.2601 47.6706 10.0001C46.459 8.74006 41.7118 8.00006 41.7118 8.00006C43.5632 7.29025 45.5964 7.2199 47.4919 7.80006V7.80006Z" fill="#F4B22F"/>
<path id="Vector_4" d="M52.7158 9.82005C51.8418 11.06 50.1336 10.16 48.8624 9.36005C47.5912 8.56005 46.3597 7.80005 46.3597 7.80005H47.4919C47.8457 7.90706 48.1909 8.04077 48.5247 8.20005C50.7891 9.32005 51.4644 10.2 52.0603 9.60005C52.6562 9.00005 51.8815 7.82005 51.8815 7.82005C51.8815 7.82005 53.6295 8.58005 52.7158 9.82005Z" fill="#EFA226"/>
<path id="Vector_5" d="M15.1354 48.5001C15.1354 48.5001 13.1492 32.2201 11.9772 29.4801C11.8267 29.0971 11.583 28.7584 11.2687 28.4949C10.9543 28.2315 10.5793 28.0517 10.178 27.972C9.77671 27.8924 9.36198 27.9155 8.97185 28.0392C8.58173 28.1629 8.22868 28.3833 7.94511 28.6801C7.57496 29.1731 7.31112 29.7385 7.17046 30.3401C6.90711 29.6947 6.84015 28.9852 6.97807 28.3015C7.116 27.6178 7.45259 26.9908 7.94511 26.5001C9.67317 25.1001 14.0827 26.2801 14.0827 26.2801L19.0484 18.5601H26.7154V48.5601L15.1354 48.5001Z" fill="#EFA226"/>
<path id="Vector_6" d="M38.0968 48.5001C38.0968 48.5001 40.0831 32.2201 41.2351 29.4801C41.3828 29.0814 41.6299 28.7277 41.9525 28.453C42.2752 28.1783 42.6627 27.9918 43.0776 27.9114C43.4926 27.8311 43.9211 27.8596 44.322 27.9942C44.7228 28.1288 45.0826 28.365 45.3666 28.6801C45.7367 29.1731 46.0005 29.7385 46.1412 30.3401C46.4046 29.6947 46.4715 28.9852 46.3336 28.3015C46.1957 27.6178 45.8591 26.9908 45.3666 26.5001C43.6385 25.1001 39.229 26.2801 39.229 26.2801L34.2633 18.5601H26.5962V48.5601L38.0968 48.5001Z" fill="#EFA226"/>
<path id="Vector_7" d="M26.9736 30.8601C27.327 30.9491 27.6629 31.0978 27.9668 31.3001C27.687 30.4365 27.5856 29.5245 27.6688 28.6201C27.8008 28.6143 27.9325 28.6362 28.0556 28.6844C28.1787 28.7326 28.2905 28.8061 28.3839 28.9001L28.5428 29.0401C28.2647 28.2601 27.9866 27.0401 28.5428 26.5001C28.9835 26.6714 29.3638 26.9707 29.6352 27.3601C29.7011 27.1262 29.8015 26.9037 29.9332 26.7001C30.4695 25.7401 31.3037 25.1201 30.688 23.8801C30.5807 23.6815 30.4335 23.5078 30.2556 23.3701C30.0777 23.2323 29.8732 23.1335 29.6551 23.0801C29.3406 22.982 29.0041 22.9811 28.689 23.0773C28.374 23.1736 28.0947 23.3626 27.8873 23.6201C27.649 23.9001 27.6291 25.1001 28.6024 24.9201C28.7519 24.854 28.8849 24.7551 28.9914 24.6304C29.098 24.5058 29.1755 24.3588 29.2181 24.2001C29.2181 24.2001 29.2181 24.2001 29.3373 24.2001C29.3878 24.4014 29.3605 24.6146 29.261 24.7965C29.1614 24.9784 28.997 25.1155 28.801 25.1801C28.5615 25.2655 28.3028 25.2802 28.0553 25.2224C27.8078 25.1645 27.582 25.0365 27.4044 24.8535C27.2268 24.6705 27.105 24.4402 27.0533 24.1897C27.0016 23.9393 27.0222 23.6791 27.1127 23.4401C27.2725 22.9479 27.6041 22.5307 28.046 22.2659C28.4879 22.0011 29.0102 21.9067 29.5161 22.0001C29.9148 22.0393 30.2999 22.1673 30.6434 22.3748C30.987 22.5824 31.2804 22.8642 31.5023 23.2001C31.5023 23.0201 31.5023 22.7801 31.5023 22.1601C32.5352 21.9801 32.9722 23.1401 32.8133 24.1601C32.5153 25.8801 30.827 26.4601 30.0921 28.0201C30.2019 28.3794 30.2816 28.7473 30.3304 29.1201C30.4496 30.5801 29.3174 31.2601 28.6818 32.5001C28.6818 32.5001 28.6818 32.7401 28.8209 33.0201C29.1784 34.3801 27.8873 35.5001 28.0462 36.8201C28.1056 37.2386 28.1919 37.6528 28.3044 38.0601C28.3044 38.1801 28.0661 38.3001 27.9866 38.2001C27.491 37.3936 27.2809 36.442 27.3908 35.5001C27.4756 35.0881 27.5817 34.6809 27.7086 34.2801C28.1058 33.0201 27.0134 32.0001 26.9736 30.8601Z" fill="#F4B22F"/>
<path id="Vector_8" d="M31.264 10.5001H24.61C22.3973 9.20643 19.9422 8.3892 17.3998 8.10006C14.7349 7.74905 12.0264 7.97405 9.45468 8.76006C7.4728 9.5263 5.81777 10.9635 4.77387 12.8249C3.72997 14.6862 3.36237 16.8555 3.7342 18.9601C4.23077 22.9601 6.65403 26.4201 11.0834 26.5001C13.0302 26.6489 14.9592 26.0385 16.4714 24.7951C17.9836 23.5517 18.9631 21.7705 19.2073 19.8201H31.264V10.5001Z" fill="#F9C85A"/>
<path id="Vector_9" d="M45.4857 8.77995C42.8731 7.96211 40.1209 7.69656 37.4016 7.99995C34.799 8.30679 32.2889 9.15835 30.0325 10.4999H28.8407V19.82H35.6139C35.881 21.7447 36.8647 23.4953 38.3658 24.7171C39.8668 25.9389 41.773 26.5404 43.6981 26.4C45.6418 26.3852 47.504 25.6121 48.8932 24.2432C50.2823 22.8743 51.0901 21.0163 51.1466 19.0599C51.5306 16.9515 51.1761 14.7743 50.1438 12.8996C49.1115 11.0249 47.4652 9.5689 45.4857 8.77995V8.77995Z" fill="#F9C85A"/>
<path id="Vector_10" d="M55 2.83997H0V4.51997H55V2.83997Z" fill="#F9C85A"/>
<path id="Vector_11" d="M38.0571 50.04H15.0361V68H38.0571V50.04Z" fill="#D3D3D3"/>
<path id="Vector_12" d="M19.3463 68V53.52C19.3463 53.2123 19.225 52.9173 19.0089 52.6997C18.7929 52.4822 18.4998 52.36 18.1943 52.36C17.8888 52.36 17.5957 52.4822 17.3797 52.6997C17.1636 52.9173 17.0423 53.2123 17.0423 53.52V68H19.3463Z" fill="#B2B2B2"/>
<path id="Vector_13" d="M24.6497 68V53.52C24.6131 53.2411 24.4771 52.9851 24.267 52.7996C24.0569 52.6142 23.787 52.512 23.5076 52.512C23.2282 52.512 22.9583 52.6142 22.7482 52.7996C22.5381 52.9851 22.4021 53.2411 22.3655 53.52V68H24.6497Z" fill="#B2B2B2"/>
<path id="Vector_14" d="M30.4099 68V53.52C30.4099 53.2123 30.2885 52.9173 30.0725 52.6997C29.8564 52.4822 29.5634 52.36 29.2579 52.36C28.9523 52.36 28.6593 52.4822 28.4432 52.6997C28.2272 52.9173 28.1058 53.2123 28.1058 53.52V68H30.4099Z" fill="#B2B2B2"/>
<path id="Vector_15" d="M35.753 68V53.52C35.7164 53.2411 35.5804 52.9851 35.3703 52.7996C35.1601 52.6142 34.8903 52.512 34.6109 52.512C34.3315 52.512 34.0616 52.6142 33.8515 52.7996C33.6414 52.9851 33.5054 53.2411 33.4688 53.52V68H35.753Z" fill="#B2B2B2"/>
<path id="Vector_16" d="M55 4.52002H0V7.94002H55V4.52002Z" fill="#F4B22F"/>
<path id="Vector_17" d="M11.9177 27.46C11.9177 27.46 11.7588 25.16 13.6457 24.82C15.5327 24.48 16.3471 26.66 16.3471 26.66C16.428 26.0332 16.6984 25.4467 17.1217 24.98L17.9758 25.12C18.4128 24.52 19.3463 24.82 19.3463 24.82C19.3221 25.3082 19.2146 25.7885 19.0285 26.24C19.2192 26.5059 19.342 26.815 19.3861 27.14C19.2073 27.44 17.9162 27.84 17.6381 28.38C17.8452 28.5843 17.9958 28.8393 18.0751 29.12C18.5091 28.781 18.9143 28.4064 19.2867 28C19.4655 28 19.7237 28.16 19.9819 28.24C20.7566 27.02 21.6306 27.56 22.3258 27.68C22.2009 28.4579 21.8069 29.1663 21.2134 29.68C21.4271 29.9726 21.5575 30.3183 21.5908 30.68C20.8731 31.0531 20.2057 31.5168 19.6046 32.06C19.6971 32.3253 19.8032 32.5857 19.9224 32.84C20.3625 32.2786 20.8772 31.7806 21.4518 31.36C21.5511 31.36 21.9682 31.66 22.0278 31.92C22.623 31.8977 23.2168 31.9928 23.7757 32.2L22.7826 33.58C22.8557 33.7221 22.8939 33.8799 22.8939 34.04C22.8939 34.2001 22.8557 34.3578 22.7826 34.5C22.2593 34.7561 21.7982 35.1247 21.4319 35.58C20.9111 37.0064 20.7942 38.5505 21.0943 40.04C21.3127 42.14 21.0943 48.38 21.0943 48.38H18.6511C18.6511 48.38 18.0354 38.72 17.6977 37.66C17.3601 36.6 16.4066 36.1 15.7114 35.66C15.5128 35.54 14.5991 35.4 14.4402 35.22C14.448 34.9741 14.495 34.731 14.5793 34.5C14.0812 34.3033 13.638 33.9876 13.2882 33.58C13.7066 33.49 14.1319 33.4365 14.5594 33.42C14.7382 33.42 14.7779 33.02 14.9567 32.8C15.4111 32.9908 15.8495 33.2182 16.2676 33.48C16.0916 33.2304 15.9574 32.9534 15.8704 32.66C15.2321 32.391 14.5748 32.1704 13.9039 32C13.7649 31.54 13.7252 31.42 13.9039 31.24C13.357 31.0716 12.8638 30.7612 12.4738 30.34C12.8622 30.0141 13.3595 29.8495 13.8642 29.88C14.0525 29.7366 14.214 29.5605 14.3409 29.36C14.5715 29.3277 14.8055 29.3277 15.0361 29.36C14.8772 28.16 14.1224 26.8 11.9177 27.46Z" fill="#F4B22F"/>
<path id="Vector_18" d="M15.8902 28C15.9085 29.2528 16.1718 30.4897 16.6649 31.64C17.4395 33.2 18.81 37.42 18.81 37.42C18.7163 35.4772 18.4031 33.5514 17.8765 31.68C17.4484 30.3392 16.7747 29.0911 15.8902 28V28Z" fill="#E59A17"/>
<path id="Vector_19" d="M16.7443 27.74C16.9098 27.3361 17.1528 26.9691 17.4594 26.66C17.7803 26.3725 18.1186 26.1053 18.4724 25.86C18.2629 26.2913 17.965 26.673 17.5984 26.98C17.2902 27.2053 17.0042 27.4598 16.7443 27.74V27.74Z" fill="#E59A17"/>
<path id="Vector_20" d="M18.3532 30.76C18.7024 30.318 19.1179 29.9334 19.5847 29.62C19.9953 29.3398 20.4348 29.1051 20.8956 28.92C20.5256 29.3568 20.0979 29.7403 19.6244 30.06C19.2184 30.3246 18.7935 30.5586 18.3532 30.76V30.76Z" fill="#E59A17"/>
<path id="Vector_21" d="M13.6854 30.54C14.107 30.8692 14.5673 31.1446 15.056 31.36C15.4844 31.535 15.8857 31.7707 16.2477 32.06C16.0338 31.6116 15.6868 31.2412 15.2546 31C14.7564 30.7711 14.2278 30.6161 13.6854 30.54V30.54Z" fill="#E59A17"/>
<path id="Vector_22" d="M14.9567 34.4C15.5323 34.6695 16.0896 34.9768 16.6251 35.32C17.0549 35.5891 17.4545 35.9043 17.8169 36.26C17.6152 35.691 17.2397 35.2009 16.7443 34.86C16.178 34.6075 15.5738 34.4521 14.9567 34.4V34.4Z" fill="#E59A17"/>
<path id="Vector_23" d="M19.1874 35.5601C19.5047 34.8016 19.9787 34.1198 20.5778 33.5601C21.0126 33.176 21.5401 32.9139 22.1073 32.8C22.1073 32.8 20.9552 33.7401 20.4586 34.2001C19.9621 34.6601 19.1874 35.5601 19.1874 35.5601Z" fill="#E59A17"/>
<path id="Vector_24" d="M40.8974 27.46C40.8974 27.46 41.0762 25.16 39.1694 24.82C37.2625 24.48 36.468 26.66 36.468 26.66C36.3992 26.0337 36.1349 25.4456 35.7132 24.98L34.8393 25.12C34.4023 24.52 33.4886 24.82 33.4886 24.82C33.5022 25.3096 33.6101 25.7919 33.8064 26.24C33.5988 26.4981 33.468 26.8101 33.429 27.14C33.6078 27.44 34.8989 27.84 35.177 28.38C34.9797 28.5918 34.8306 28.8443 34.74 29.12C34.3198 28.7793 33.9278 28.4048 33.5681 28C33.3893 28 33.1311 28.16 32.8729 28.24C32.1181 27.02 31.2243 27.56 30.5291 27.68C30.6656 28.4584 31.0657 29.1651 31.6612 29.68C31.4405 29.9705 31.3031 30.3164 31.264 30.68C31.9817 31.0531 32.6492 31.5168 33.2503 32.06C33.1311 32.42 32.9523 32.84 32.9523 32.84C32.5121 32.2786 31.9975 31.7806 31.4229 31.36C31.3037 31.36 30.8866 31.66 30.8469 31.92C30.2451 31.8966 29.6446 31.9917 29.0791 32.2L30.0722 33.58C30.0036 33.7235 29.9679 33.8807 29.9679 34.04C29.9679 34.1993 30.0036 34.3565 30.0722 34.5C30.5982 34.761 31.0648 35.1287 31.4428 35.58C31.983 37.0438 32.1001 38.6319 31.7804 40.16C31.5619 42.26 31.7804 48.5 31.7804 48.5H34.2235C34.2235 48.5 34.8393 38.84 35.177 37.78C35.5146 36.72 36.468 36.22 37.1632 35.78C37.3619 35.66 38.2755 35.52 38.4344 35.34C38.5934 35.16 38.3351 34.86 38.3153 34.62C38.8058 34.4198 39.2417 34.1044 39.5865 33.7C39.1681 33.61 38.7428 33.5565 38.3153 33.54C38.1365 33.54 38.0968 33.14 37.918 32.92C37.4701 33.1111 37.0383 33.3385 36.6269 33.6C36.7872 33.3413 36.9204 33.0664 37.0242 32.78C37.6637 32.4487 38.3278 32.1678 39.0105 31.94C39.1694 31.48 39.1892 31.36 39.0105 31.18C39.5602 31.0179 40.055 30.7066 40.4406 30.28C40.0573 29.9589 39.568 29.7947 39.0701 29.82C38.8746 29.6784 38.7063 29.5022 38.5735 29.3C38.3428 29.2689 38.109 29.2689 37.8783 29.3C37.9776 28.16 38.7523 26.8 40.8974 27.46Z" fill="#F4B22F"/>
<path id="Vector_25" d="M36.9845 28C36.9661 29.2528 36.7029 30.4897 36.2098 31.64C35.4352 33.2 34.0646 37.42 34.0646 37.42C34.1662 35.4649 34.4792 33.5268 34.9982 31.64C35.4308 30.3133 36.1043 29.0791 36.9845 28V28Z" fill="#E59A17"/>
<path id="Vector_26" d="M36.1304 27.74C35.9538 27.3373 35.7046 26.9711 35.3954 26.66C35.0745 26.3725 34.7362 26.1053 34.3824 25.86C34.6002 26.286 34.8969 26.6661 35.2564 26.98C35.5677 27.209 35.86 27.4632 36.1304 27.74V27.74Z" fill="#E59A17"/>
<path id="Vector_27" d="M34.5016 30.76C34.1566 30.3212 33.7482 29.9369 33.29 29.62C32.8714 29.3413 32.4255 29.1068 31.9592 28.92C32.3292 29.3568 32.7569 29.7403 33.2304 30.06C33.6393 30.3198 34.0638 30.5536 34.5016 30.76V30.76Z" fill="#E59A17"/>
<path id="Vector_28" d="M39.1694 30.54C38.7572 30.8724 38.303 31.1482 37.8187 31.36C37.386 31.5388 36.9787 31.7741 36.6071 32.06C36.821 31.6116 37.1681 31.2412 37.6002 31C38.0993 30.7734 38.6275 30.6186 39.1694 30.54V30.54Z" fill="#E59A17"/>
<path id="Vector_29" d="M37.8982 34.4C37.3249 34.6742 36.7678 34.9814 36.2297 35.32C35.8046 35.5958 35.4056 35.9105 35.0379 36.26C35.2424 35.6868 35.6256 35.1957 36.1304 34.86C36.6893 34.6064 37.2872 34.4509 37.8982 34.4V34.4Z" fill="#E59A17"/>
<path id="Vector_30" d="M33.7667 35.5601C33.4494 34.8016 32.9754 34.1198 32.3763 33.5601C31.9415 33.176 31.4141 32.9139 30.8469 32.8C30.8469 32.8 31.9989 33.7401 32.4955 34.2001C32.9921 34.6601 33.7667 35.5601 33.7667 35.5601Z" fill="#E59A17"/>
<path id="Vector_31" d="M38.7125 50.76H14.3608C14.064 50.7548 13.7811 50.6323 13.573 50.4191C13.365 50.2059 13.2484 49.9189 13.2485 49.62V49.62C13.2485 49.323 13.3657 49.0381 13.5743 48.828C13.7829 48.618 14.0658 48.5 14.3608 48.5H38.7125C39.0094 48.5 39.2944 48.6173 39.5062 48.8268C39.7179 49.0363 39.8395 49.3211 39.8447 49.62C39.8396 49.9207 39.7187 50.2077 39.5075 50.4204C39.2962 50.6331 39.0112 50.7549 38.7125 50.76V50.76Z" fill="#C1C1C1"/>
<path id="Vector_32" d="M9.65331 23.66C9.70898 23.979 9.84638 24.2777 10.0519 24.5268C10.2575 24.7758 10.524 24.9665 10.8252 25.08C11.322 25.2832 11.8629 25.3521 12.3944 25.28C12.3944 25.28 12.7718 24 9.65331 23.66Z" fill="#F4B22F"/>
<path id="Vector_33" d="M29.1784 15.66C29.1784 17.1 28.3442 18.28 27.3312 18.28C26.3182 18.28 25.4641 17.1 25.4641 15.66C25.4641 14.22 26.2983 13.04 27.3312 13.04C28.364 13.04 29.1784 14.22 29.1784 15.66Z" fill="#EFA226"/>
<path id="Vector_34" d="M35.753 15.66C35.753 17.1 34.9187 18.28 33.8859 18.28C32.853 18.28 32.0386 17.1 32.0386 15.66C32.0386 14.22 32.8729 13.04 33.8859 13.04C34.8989 13.04 35.753 14.22 35.753 15.66Z" fill="#EFA226"/>
<path id="Vector_35" d="M21.0943 18.28C22.1145 18.28 22.9415 17.107 22.9415 15.66C22.9415 14.2131 22.1145 13.04 21.0943 13.04C20.0741 13.04 19.247 14.2131 19.247 15.66C19.247 17.107 20.0741 18.28 21.0943 18.28Z" fill="#EFA226"/>
<path id="Vector_36" d="M35.753 19.8201H19.108C19.108 20.0001 19.108 20.2001 18.9491 20.4001V21.6801H35.9119V20.7601C35.8105 20.457 35.7568 20.1398 35.753 19.8201V19.8201Z" fill="#F4B22F"/>
<path id="Vector_37" d="M35.9119 21.6801H18.6511V21.8801H35.9119V21.6801Z" fill="#DD931D"/>
<path id="Vector_38" d="M35.753 19.62H19.1477C19.1477 19.62 19.1477 19.74 19.1477 19.82H35.753C35.7442 19.7536 35.7442 19.6864 35.753 19.62V19.62Z" fill="#DD931D"/>
<path id="Vector_39" d="M24.6894 10.1601C20.9567 8.25561 16.7484 7.50415 12.593 8.00006C10.7113 8.11558 8.88209 8.67019 7.24991 9.62006C5.88779 10.6294 4.85145 12.0208 4.2705 13.6201C3.49384 15.2891 3.1904 17.1418 3.3937 18.9735C3.597 20.8053 4.29913 22.5448 5.42254 24.0001C6.55416 25.2168 8.02567 26.0593 9.64278 26.4164C11.2599 26.7735 12.9465 26.6283 14.48 26.0001C15.9111 25.5034 17.1573 24.5783 18.0519 23.3487C18.9464 22.1192 19.4466 20.6438 19.4854 19.1201C19.4983 17.5655 18.9894 16.052 18.0413 14.8251C17.0931 13.5981 15.7612 12.7295 14.2615 12.3601C13.4733 12.1972 12.6609 12.1936 11.8714 12.3493C11.0818 12.5051 10.3309 12.8171 9.662 13.2674C8.99313 13.7176 8.4197 14.297 7.97496 14.9721C7.53021 15.6472 7.223 16.4045 7.07115 17.2001C6.94277 17.8646 6.96703 18.55 7.14207 19.2036C7.31711 19.8573 7.63829 20.462 8.08105 20.9715C8.52381 21.481 9.07643 21.8819 9.69664 22.1433C10.3169 22.4048 10.9882 22.52 11.6594 22.4801C14.3608 22.2401 16.2676 18.4801 13.8443 16.7601C13.6284 16.5714 13.3746 16.4319 13.1002 16.3511C12.8258 16.2703 12.5373 16.2501 12.2544 16.2919C11.9715 16.3336 11.701 16.4364 11.4612 16.5932C11.2214 16.7499 11.018 16.9569 10.8649 17.2001C10.74 17.417 10.678 17.665 10.686 17.9157C10.6941 18.1664 10.7719 18.4098 10.9106 18.6182C11.0492 18.8266 11.2432 18.9916 11.4704 19.0944C11.6976 19.1973 11.9489 19.2339 12.1957 19.2001C12.3149 19.2001 12.1957 19.0001 12.1957 19.0401C9.93138 17.8001 12.1957 16.0001 13.7649 17.1801C14.0979 17.4375 14.3412 17.7946 14.4601 18.2001C14.6378 18.8708 14.5599 19.5842 14.2416 20.2001C13.8722 20.9444 13.2372 21.5208 12.4638 21.8138C11.6903 22.1068 10.8354 22.0947 10.0704 21.7801C9.42536 21.5207 8.85365 21.1053 8.40576 20.5707C7.95788 20.0362 7.64761 19.3988 7.50234 18.7148C7.35706 18.0309 7.38127 17.3215 7.5728 16.6492C7.76434 15.9769 8.11732 15.3624 8.60058 14.8601C9.56423 13.6739 10.9536 12.9183 12.4671 12.7573C13.9807 12.5963 15.4962 13.0429 16.6847 14.0001C17.5554 14.8538 18.1949 15.9175 18.5426 17.0902C18.8902 18.2628 18.9344 19.5054 18.671 20.7001C17.4792 25.8001 10.7259 27.5601 6.75334 24.3601C5.81051 23.568 5.0671 22.5625 4.58382 21.4259C4.10053 20.2893 3.89108 19.0537 3.97255 17.8201C3.94368 16.4086 4.21195 15.007 4.75971 13.7074C5.30747 12.4078 6.1223 11.2398 7.1506 10.2801C9.35536 8.46006 12.9903 8.28006 15.7313 8.28006C18.7712 8.41082 21.7436 9.22397 24.4312 10.6601C24.4971 10.6945 24.5738 10.7013 24.6446 10.6788C24.7154 10.6563 24.7744 10.6064 24.8086 10.5401C24.8428 10.4738 24.8495 10.3965 24.8272 10.3252C24.8048 10.2539 24.7553 10.1945 24.6894 10.1601V10.1601Z" fill="#F4B22F"/>
<path id="Vector_40" d="M13.3676 14.52C12.8285 14.204 12.2206 14.026 11.5973 14.0016C10.974 13.9771 10.3542 14.1071 9.79234 14.38C10.2079 14.6973 10.6704 14.947 11.1629 15.12C11.0206 15.1688 10.8962 15.2594 10.8053 15.38C10.4667 15.2466 10.096 15.2191 9.74168 15.3012C9.38732 15.3832 9.06578 15.571 8.81907 15.84C8.59053 16.1622 8.43462 16.5308 8.36222 16.92C8.28365 17.3706 8.14327 17.8082 7.94511 18.22C8.19283 18.2142 8.43388 18.138 8.6403 18C8.50103 18.4014 8.50103 18.8385 8.6403 19.24C8.93824 19.98 9.89166 20.22 10.6266 21.24C10.6705 21.0239 10.6666 20.8008 10.6151 20.5865C10.5636 20.3721 10.4658 20.1719 10.3286 20C10.7019 20.0799 11.0876 20.0799 11.4608 20C11.221 19.6188 10.8436 19.3463 10.4081 19.24C9.67317 19.04 8.93824 18.76 8.89852 17.92C9.10257 17.7292 9.25326 17.4878 9.3355 17.22C9.3355 17.4 9.3355 17.58 9.3355 17.78C9.79918 17.5362 10.1746 17.1512 10.4081 16.68C10.504 16.5078 10.5838 16.327 10.6464 16.14C10.7804 15.8876 10.9733 15.6719 11.2087 15.5116C11.4441 15.3513 11.7147 15.2512 11.9971 15.22C11.8581 15.36 11.6197 15.7 11.5999 15.72C12.2207 15.9551 12.885 16.0506 13.5464 16C14.1103 15.9043 14.6423 15.6708 15.0957 15.32C14.8784 15.0734 14.6126 14.8749 14.3151 14.7372C14.0176 14.5995 13.695 14.5255 13.3676 14.52V14.52Z" fill="#F4B22F"/>
<path id="Vector_41" d="M14.8573 16.24C15.3793 16.4066 15.8538 16.697 16.241 17.0868C16.6281 17.4767 16.9166 17.9545 17.082 18.48C17.2806 18.48 17.082 18.64 17.3005 18.48C17.3375 17.7398 17.2638 16.9982 17.082 16.28C16.7642 15.38 15.5923 15.02 14.8971 13.66C14.8134 13.923 14.7896 14.2016 14.8274 14.4751C14.8652 14.7486 14.9637 15.0101 15.1156 15.24C14.6719 15.1307 14.2086 15.1307 13.7649 15.24C13.9879 15.7023 14.3791 16.0604 14.8573 16.24Z" fill="#F4B22F"/>
<path id="Vector_42" d="M17.7573 20.8801C17.8668 20.4267 17.8668 19.9535 17.7573 19.5001C17.6544 18.9465 17.6211 18.382 17.658 17.8201C17.3059 17.9495 17.0089 18.1972 16.8172 18.5215C16.6254 18.8458 16.5505 19.2267 16.6053 19.6001L16.2676 19.0201C15.83 19.485 15.5576 20.0828 15.493 20.7201C15.493 20.9601 15.493 21.2001 15.493 21.4401C15.4439 21.7755 15.3178 22.0948 15.1247 22.3725C14.9316 22.6503 14.6768 22.8788 14.3806 23.0401C14.3806 22.8201 14.5793 22.3201 14.5991 22.3201C13.8408 22.2831 13.0831 22.4057 12.3745 22.6801C11.7588 23.0001 10.9047 23.6201 10.1499 23.9601C11.1047 24.4075 12.1772 24.5338 13.2087 24.3201C13.9509 24.4491 14.7133 24.3906 15.4275 24.1497C16.1416 23.9089 16.7852 23.4932 17.3005 22.9401C16.6925 22.7714 16.0639 22.6906 15.4334 22.7001C15.5676 22.5807 15.67 22.4295 15.7313 22.2601C16.1691 22.2682 16.5986 22.14 16.9612 21.893C17.3239 21.646 17.6019 21.2922 17.7573 20.8801V20.8801Z" fill="#F4B22F"/>
<path id="Vector_43" d="M7.6273 23.7801C8.0393 23.9897 8.49665 24.0928 8.95811 24.0801C9.51478 24.0982 10.0677 24.1787 10.6067 24.3201C10.6067 24.1401 10.428 23.1601 9.07728 22.9401L9.71289 22.7001C9.33433 22.1853 8.79615 21.8123 8.18346 21.6401C7.96497 21.6401 7.72661 21.5201 7.50812 21.4601C7.1793 21.3653 6.88035 21.1866 6.64024 20.9413C6.40013 20.696 6.22699 20.3925 6.13759 20.0601C6.33622 20.2001 6.79306 20.4001 6.81293 20.4201C6.9772 19.6691 6.9772 18.8911 6.81293 18.1401C6.57835 17.4892 6.18975 16.9057 5.68075 16.4401C5.42919 16.7499 5.24451 17.1091 5.1385 17.4947C5.03248 17.8804 5.00745 18.2841 5.065 18.6801C4.804 19.3861 4.72002 20.1461 4.82049 20.8927C4.92097 21.6393 5.20281 22.3494 5.64102 22.9601C5.93123 22.4019 6.13232 21.8012 6.23691 21.1801C6.32591 21.339 6.45642 21.4704 6.6143 21.5601C6.53508 21.9901 6.58991 22.4343 6.77127 22.8318C6.95263 23.2292 7.25164 23.5604 7.6273 23.7801V23.7801Z" fill="#F4B22F"/>
<path id="Vector_44" d="M13.3081 20.22C13.5976 19.9591 13.8048 19.6183 13.9039 19.24C13.7649 19.08 13.5067 19.24 13.2882 19.24C13.3876 19.0383 13.4219 18.8103 13.3863 18.588C13.3507 18.3656 13.2469 18.1601 13.0896 18L12.8909 18.22C12.9066 18.0958 12.8899 17.9696 12.8423 17.8539C12.7948 17.7382 12.7181 17.637 12.6198 17.5602C12.5215 17.4835 12.4051 17.4339 12.2819 17.4163C12.1588 17.3987 12.0332 17.4138 11.9177 17.46C11.9177 17.78 12.2951 18.16 12.6129 18.12C12.6536 18.2032 12.7001 18.2834 12.7519 18.36C12.6644 18.4454 12.6083 18.5583 12.593 18.68C12.5835 18.7763 12.5965 18.8735 12.631 18.9637C12.6655 19.054 12.7205 19.135 12.7916 19.2C12.6588 19.2764 12.553 19.3926 12.4889 19.5324C12.4249 19.6722 12.4057 19.8287 12.4341 19.98C12.2752 19.98 12.0368 20.16 12.0368 20.36C11.5601 20.18 10.3882 20.06 10.0506 19.76C10.0506 20.38 11.004 20.92 11.4608 20.94C11.582 20.9556 11.7051 20.9378 11.8171 20.8885C11.929 20.8392 12.0255 20.7602 12.0964 20.66C12.3252 20.7718 12.5772 20.8267 12.8313 20.82C13.1094 20.82 13.5464 20.7 13.6656 20.42C13.7848 20.14 13.3279 20.24 13.3081 20.22Z" fill="#F4B22F"/>
<path id="Vector_45" d="M19.0484 10.36C18.6909 10.18 18.3135 10.04 17.9758 9.83999C17.6381 9.63999 16.8635 9.13999 16.4265 8.85999C16.0293 9.29999 16.4265 9.93999 16.7443 10.32C16.8635 10.4311 16.9971 10.5253 17.1416 10.6C16.69 10.7368 16.2663 10.9536 15.8902 11.24C15.8902 11.02 15.7313 10.78 15.632 10.56C15.4707 10.3221 15.252 10.1294 14.9964 9.99999C14.2252 9.61154 13.3758 9.40628 12.5135 9.39999C12.4338 9.80269 12.4338 10.2173 12.5135 10.62C12.2628 10.3696 11.9746 10.1604 11.6594 9.99999C10.9587 9.74478 10.1987 9.70304 9.47454 9.87999C9.6225 10.153 9.80993 10.4024 10.0307 10.62C9.27268 10.5411 8.50695 10.6471 7.79821 10.9291C7.08948 11.2111 6.45858 11.6607 5.95883 12.24C6.15868 12.4029 6.38803 12.5251 6.63416 12.6C6.05667 12.9723 5.57068 13.4717 5.21284 14.0607C4.855 14.6497 4.63466 15.3128 4.56844 16C5.42479 15.7769 6.22314 15.3701 6.9088 14.8075C7.59446 14.2448 8.15124 13.5395 8.54099 12.74C9.6692 12.6146 10.7413 12.1787 11.6396 11.48C12.083 11.5783 12.5362 11.6253 12.9902 11.62C13.3299 11.7929 13.6905 11.9207 14.0628 12C14.4598 12.02 14.8576 12.02 15.2546 12L15.0957 12.2C16.0029 12.7455 17.0698 12.9576 18.1148 12.8C19.684 12.56 20.8956 11.58 22.286 11.6C21.8646 11.1739 21.3579 10.843 20.7997 10.6293C20.2415 10.4155 19.6445 10.3237 19.0484 10.36Z" fill="#F4B22F"/>
<path id="Vector_46" d="M21.4716 17.26C21.0148 17.38 20.4586 17.64 20.1011 16.82C19.8799 16.3374 19.6278 15.8698 19.3463 15.42L19.9621 16.14C20.172 16.423 20.4744 16.6223 20.816 16.7027C21.1575 16.7832 21.5163 16.7398 21.8292 16.58C22.1076 16.4721 22.3335 16.2596 22.4595 15.9873C22.5855 15.715 22.6016 15.4041 22.5045 15.12C22.3853 14.82 22.0079 14.78 21.6901 15.12C21.3723 15.46 20.9751 15.8 20.3792 15.24C20.2004 15.06 19.9025 14.84 19.6244 14.62L19.7833 14.74C20.0788 14.9568 20.4415 15.0598 20.8059 15.0304C21.1702 15.0011 21.5121 14.8413 21.7696 14.58C21.887 14.4881 21.9853 14.3738 22.0588 14.2437C22.1323 14.1135 22.1796 13.9701 22.1981 13.8215C22.2165 13.6729 22.2057 13.5221 22.1663 13.3777C22.1268 13.2334 22.0595 13.0982 21.9682 12.98C21.7696 12.74 21.4121 12.8 21.1737 13.12C20.9354 13.44 20.697 14 19.9621 13.64C19.4596 13.4108 18.9419 13.217 18.4128 13.06C17.5984 12.84 16.0293 12.26 15.3936 12.54C15.9431 12.7167 16.4699 12.9584 16.9628 13.26C18.252 14.2688 19.1398 15.7091 19.4655 17.32C19.684 18.04 20.1607 18.78 20.9751 18.72C21.7895 18.66 22.2264 18.44 22.2264 17.72C22.2463 17.38 21.849 17.16 21.4716 17.26Z" fill="#F4B22F"/>
<path id="Vector_47" d="M5.70061 14.64C5.43349 15.1128 5.20753 15.608 5.02528 16.12C4.87116 16.5698 4.66446 16.9995 4.40953 17.4C4.79633 17.4219 5.18104 17.3295 5.51632 17.134C5.85159 16.9386 6.12278 16.6487 6.2965 16.3C6.63391 15.6368 6.81728 14.9051 6.83279 14.16L5.70061 14.64Z" fill="#F4B22F"/>
<path id="Vector_48" d="M20.6176 12.76C20.6176 12.76 21.2929 10.14 23.6566 10.76C24.2453 10.8248 24.813 11.0175 25.3206 11.3248C25.8281 11.6321 26.2634 12.0467 26.5962 12.54C25.4965 12.4479 24.4066 12.2605 23.3388 11.98C22.8646 11.7795 22.3368 11.7476 21.8423 11.8893C21.3477 12.0311 20.9158 12.3382 20.6176 12.76V12.76Z" fill="#F4B22F"/>
<path id="Vector_49" d="M30.1715 10.16C33.8976 8.25719 38.0991 7.50572 42.2481 8.00001C44.1366 8.11247 45.9729 8.66718 47.611 9.62001C48.9732 10.6294 50.0095 12.0207 50.5905 13.62C51.3711 15.2915 51.6767 17.1481 51.4733 18.9839C51.27 20.8196 50.5656 22.5627 49.4384 24.02C48.3068 25.2368 46.8353 26.0793 45.2182 26.4364C43.6011 26.7934 41.9145 26.6483 40.381 26.02C38.9374 25.5186 37.6823 24.5814 36.7866 23.336C35.891 22.0906 35.3983 20.5975 35.3756 19.06C35.3627 17.5054 35.8715 15.992 36.8197 14.765C37.7679 13.5381 39.0998 12.6695 40.5995 12.3C41.3918 12.1378 42.2083 12.1365 43.0012 12.296C43.7941 12.4555 44.5474 12.7727 45.217 13.229C45.8866 13.6853 46.4591 14.2716 46.9008 14.9534C47.3426 15.6353 47.6448 16.3991 47.7898 17.2C47.9182 17.8646 47.8939 18.5499 47.7189 19.2036C47.5439 19.8573 47.2227 20.462 46.7799 20.9715C46.3371 21.481 45.7845 21.8818 45.1643 22.1433C44.5441 22.4047 43.8727 22.5199 43.2015 22.48C40.5002 22.24 38.5934 18.48 41.0166 16.76C41.2326 16.5714 41.4864 16.4319 41.7608 16.3511C42.0352 16.2703 42.3237 16.2501 42.6066 16.2918C42.8894 16.3336 43.16 16.4364 43.3998 16.5931C43.6396 16.7498 43.843 16.9569 43.996 17.2C44.1132 17.4179 44.1691 17.664 44.1575 17.9115C44.146 18.1591 44.0674 18.3988 43.9304 18.6047C43.7934 18.8106 43.6032 18.9748 43.3802 19.0798C43.1572 19.1847 42.91 19.2263 42.6652 19.2C42.546 19.2 42.6652 19 42.6652 19.04C44.9693 17.84 42.6652 16.08 41.0961 17.22C40.7557 17.4745 40.5052 17.8319 40.381 18.24C40.2188 18.9138 40.3034 19.624 40.6194 20.24C40.9887 20.9844 41.6237 21.5608 42.3972 21.8538C43.1707 22.1467 44.0255 22.1347 44.7905 21.82C45.4356 21.5606 46.0073 21.1453 46.4552 20.6107C46.9031 20.0761 47.2134 19.4387 47.3586 18.7548C47.5039 18.0709 47.4797 17.3614 47.2882 16.6891C47.0966 16.0169 46.7436 15.4024 46.2604 14.9C45.3024 13.7078 43.9159 12.9446 42.4021 12.776C40.8884 12.6075 39.3697 13.0474 38.1762 14C37.3055 14.8538 36.666 15.9175 36.3184 17.0901C35.9708 18.2627 35.9265 19.5054 36.19 20.7C37.3817 25.8 44.1351 27.56 48.1076 24.36C49.0662 23.5659 49.8223 22.5526 50.313 21.4045C50.8036 20.2564 51.0145 19.0069 50.9281 17.76C50.9385 16.3526 50.6537 14.9588 50.0924 13.6699C49.531 12.3809 48.7058 11.2258 47.6706 10.28C45.4659 8.46001 41.831 8.28001 39.0899 8.28001C36.0532 8.3984 33.0809 9.19783 30.39 10.62C30.3366 10.6211 30.2841 10.6066 30.2386 10.5784C30.1931 10.5502 30.1567 10.5094 30.1336 10.4609C30.1106 10.4124 30.1019 10.3582 30.1086 10.3048C30.1154 10.2515 30.1372 10.2012 30.1715 10.16V10.16Z" fill="#F4B22F"/>
<path id="Vector_50" d="M41.4933 14.52C42.0324 14.204 42.6403 14.026 43.2636 14.0016C43.887 13.9771 44.5068 14.1071 45.0686 14.38C44.653 14.6973 44.1906 14.947 43.6981 15.12C43.8403 15.1688 43.9648 15.2594 44.0556 15.38C44.3942 15.2466 44.7649 15.2191 45.1193 15.3012C45.4736 15.3832 45.7952 15.571 46.0419 15.84C46.2728 16.1587 46.4228 16.5295 46.4789 16.92C46.5735 17.369 46.7201 17.8053 46.9159 18.22C46.6681 18.2142 46.4271 18.138 46.2207 18C46.3599 18.4014 46.3599 18.8385 46.2207 19.24C45.9227 19.98 44.9693 20.22 44.2344 21.24C44.198 21.0149 44.2131 20.7844 44.2785 20.5661C44.3439 20.3477 44.4579 20.1473 44.6118 19.98C44.2386 20.0599 43.8528 20.0599 43.4796 19.98C43.7194 19.5988 44.0968 19.3263 44.5323 19.22C45.2672 19.02 46.0022 18.74 46.0419 17.9C45.8378 17.7092 45.6871 17.4678 45.6049 17.2C45.6049 17.38 45.6049 17.56 45.5056 17.76C45.0419 17.5162 44.6665 17.1312 44.433 16.66C44.3371 16.4878 44.2573 16.307 44.1947 16.12C44.0607 15.8676 43.8678 15.6519 43.6324 15.4916C43.397 15.3313 43.1264 15.2312 42.844 15.2C42.983 15.34 43.2214 15.68 43.2412 15.7C42.6281 15.939 41.9708 16.0413 41.3146 16C40.7404 15.9225 40.1944 15.7026 39.7255 15.36C39.9437 15.1011 40.2142 14.8922 40.5191 14.7473C40.8241 14.6024 41.1562 14.5249 41.4933 14.52V14.52Z" fill="#F4B22F"/>
<path id="Vector_51" d="M40.0036 16.24C39.4743 16.401 38.9918 16.689 38.5974 17.0792C38.203 17.4693 37.9085 17.95 37.7393 18.48C37.5406 18.48 37.7393 18.64 37.5208 18.48C37.4838 17.7398 37.5574 16.9982 37.7393 16.28C38.0571 15.38 39.229 15.02 39.9242 13.66C40.0078 13.923 40.0316 14.2016 39.9938 14.4751C39.956 14.7486 39.8575 15.0101 39.7057 15.24C40.1493 15.1307 40.6127 15.1307 41.0563 15.24C40.8428 15.6948 40.4669 16.0519 40.0036 16.24Z" fill="#F4B22F"/>
<path id="Vector_52" d="M37.1036 20.8801C36.9941 20.4267 36.9941 19.9535 37.1036 19.5001C37.1819 18.9428 37.1819 18.3773 37.1036 17.8201C37.4617 17.9426 37.7654 18.1881 37.9615 18.5136C38.1577 18.8391 38.2337 19.2238 38.1762 19.6001L38.5139 19.0201C38.9535 19.4816 39.2203 20.0825 39.2687 20.7201C39.2885 20.9597 39.2885 21.2005 39.2687 21.4401C39.3178 21.7755 39.4438 22.0948 39.6369 22.3725C39.83 22.6503 40.0848 22.8788 40.381 23.0401C40.2817 22.8201 40.1824 22.3201 40.1625 22.3201C40.9208 22.2831 41.6785 22.4057 42.3871 22.6801C43.0029 23.0001 43.857 23.6201 44.6118 23.9601C43.6569 24.4075 42.5845 24.5338 41.5529 24.3201C40.8107 24.4491 40.0483 24.3906 39.3342 24.1497C38.62 23.9089 37.9764 23.4932 37.4612 22.9401C38.0691 22.7714 38.6978 22.6906 39.3283 22.7001C39.194 22.5807 39.0916 22.4295 39.0303 22.2601C38.6089 22.2507 38.1999 22.1141 37.8564 21.8681C37.5129 21.6221 37.2507 21.2779 37.1036 20.8801V20.8801Z" fill="#F4B22F"/>
<path id="Vector_53" d="M47.2337 23.7801C46.8217 23.9897 46.3643 24.0928 45.9029 24.0801C45.3462 24.0982 44.7932 24.1787 44.2542 24.3201C44.2542 24.1401 44.433 23.1601 45.7837 22.9401L45.1481 22.7001C45.5266 22.1853 46.0648 21.8123 46.6775 21.6401C46.896 21.6401 47.1343 21.5201 47.3528 21.4601C47.6817 21.3653 47.9806 21.1866 48.2207 20.9413C48.4608 20.696 48.634 20.3925 48.7234 20.0601C48.5247 20.2001 48.0679 20.4001 48.048 20.4201C47.8838 19.6691 47.8838 18.8911 48.048 18.1401C48.2826 17.4892 48.6712 16.9057 49.1802 16.4401C49.4318 16.7499 49.6164 17.1091 49.7225 17.4947C49.8285 17.8804 49.8535 18.2841 49.796 18.6801C50.057 19.3861 50.1409 20.1461 50.0405 20.8927C49.94 21.6393 49.6582 22.3494 49.2199 22.9601C48.9297 22.4019 48.7286 21.8012 48.624 21.1801C48.535 21.339 48.4045 21.4704 48.2467 21.5601C48.3259 21.9901 48.271 22.4343 48.0897 22.8318C47.9083 23.2292 47.6093 23.5604 47.2337 23.7801V23.7801Z" fill="#F4B22F"/>
<path id="Vector_54" d="M41.5529 20.22C41.2852 19.9513 41.0991 19.6114 41.0166 19.24C41.1556 19.08 41.4139 19.24 41.6324 19.24C41.5172 19.0502 41.463 18.8292 41.4772 18.6073C41.4915 18.3854 41.5734 18.1733 41.7118 18L41.9104 18.22C41.8948 18.0923 41.9135 17.9627 41.9644 17.8448C42.0154 17.7268 42.0968 17.6247 42.2002 17.5492C42.3036 17.4737 42.4253 17.4274 42.5524 17.4152C42.6796 17.403 42.8077 17.4254 42.9234 17.48C42.8241 17.8 42.546 18.18 42.2282 18.14C42.1875 18.2231 42.141 18.3033 42.0892 18.38C42.1767 18.4653 42.2328 18.5782 42.2481 18.7C42.2576 18.7962 42.2446 18.8934 42.2101 18.9837C42.1756 19.074 42.1206 19.1549 42.0495 19.22V19.22C42.1823 19.2964 42.2881 19.4126 42.3522 19.5524C42.4162 19.6922 42.4354 19.8487 42.407 20C42.5659 20 42.8043 20.18 42.8043 20.38C43.281 20.2 44.4529 20.08 44.7905 19.78C44.7905 20.4 43.8371 20.94 43.3803 20.96C43.2591 20.9755 43.136 20.9577 43.024 20.9084C42.9121 20.8591 42.8156 20.7802 42.7447 20.68C42.5159 20.7917 42.2639 20.8466 42.0097 20.84C41.7317 20.84 41.2947 20.72 41.1755 20.44C41.0563 20.16 41.533 20.24 41.5529 20.22Z" fill="#F4B22F"/>
<path id="Vector_55" d="M35.753 10.36C36.1105 10.18 36.4879 10.04 36.8256 9.83999C37.1632 9.63999 37.9379 9.13999 38.3749 8.85999C38.7721 9.29999 38.3749 9.93999 38.0571 10.32C37.9379 10.4311 37.8042 10.5253 37.6598 10.6C38.1113 10.7368 38.5351 10.9536 38.9112 11.24C39.0105 11.02 39.0701 10.78 39.1694 10.56C39.3472 10.3141 39.5873 10.1207 39.8646 9.99999C40.6358 9.61154 41.4851 9.40628 42.3474 9.39999C42.4371 9.80164 42.4371 10.2183 42.3474 10.62C42.7798 10.2798 43.2846 10.0449 43.8221 9.93391C44.3597 9.82288 44.9155 9.83865 45.446 9.97999C45.298 10.253 45.1106 10.5024 44.8899 10.72C45.6574 10.6311 46.435 10.7322 47.1549 11.0145C47.8749 11.2968 48.5156 11.7518 49.0213 12.34C48.8215 12.5029 48.5921 12.6251 48.346 12.7C48.9112 13.0829 49.3834 13.5893 49.7273 14.1814C50.0712 14.7736 50.278 15.4362 50.3323 16.12C49.4759 15.8969 48.6775 15.4901 47.9919 14.9275C47.3062 14.3648 46.7494 13.6595 46.3597 12.86V12.86C45.2315 12.7346 44.1594 12.2987 43.2611 11.6C42.8177 11.6983 42.3645 11.7453 41.9104 11.74C41.5534 11.8819 41.1795 11.976 40.7981 12.02C40.4011 12.04 40.0034 12.04 39.6064 12.02L39.7255 12.2C38.8184 12.7455 37.7514 12.9576 36.7064 12.8C35.1372 12.56 33.9256 11.58 32.5352 11.6C32.9544 11.1765 33.4578 10.8472 34.0124 10.6335C34.5669 10.4197 35.1601 10.3266 35.753 10.36V10.36Z" fill="#F4B22F"/>
<path id="Vector_56" d="M33.3893 17.26C33.8462 17.38 34.4023 17.64 34.7598 16.82C34.9811 16.3374 35.2332 15.8698 35.5146 15.42L34.8989 16.14C34.6889 16.423 34.3865 16.6223 34.045 16.7027C33.7034 16.7832 33.3446 16.7398 33.0318 16.58C32.7534 16.4721 32.5274 16.2596 32.4015 15.9873C32.2755 15.715 32.2594 15.4041 32.3564 15.12C32.4756 14.82 32.8332 14.78 33.1708 15.12C33.5085 15.46 33.8859 15.8 34.4619 15.24C34.6605 15.06 34.9585 14.84 35.2365 14.62L35.0776 14.74C34.7822 14.9568 34.4194 15.0598 34.0551 15.0304C33.6907 15.0011 33.3488 14.8413 33.0914 14.58C32.974 14.4881 32.8757 14.3738 32.8022 14.2437C32.7287 14.1135 32.6813 13.9701 32.6629 13.8215C32.6444 13.6729 32.6552 13.5221 32.6947 13.3777C32.7341 13.2334 32.8014 13.0982 32.8927 12.98C33.0914 12.74 33.4489 12.8 33.6872 13.12C33.9256 13.44 34.164 14 34.8989 13.64C35.4014 13.4108 35.919 13.217 36.4482 13.06C37.2625 12.84 38.8317 12.26 39.4673 12.54C38.9178 12.7167 38.3911 12.9584 37.8982 13.26C36.559 14.2801 35.6398 15.761 35.316 17.42C35.0975 18.14 34.6208 18.88 33.8064 18.82C32.9921 18.76 32.5551 18.54 32.5551 17.82C32.6147 17.38 32.9523 17.16 33.3893 17.26Z" fill="#F4B22F"/>
<path id="Vector_57" d="M49.1603 14.64C49.4275 15.1128 49.6534 15.608 49.8357 16.12C49.9898 16.5698 50.1965 16.9995 50.4514 17.4C50.0646 17.4219 49.6799 17.3295 49.3446 17.134C49.0094 16.9386 48.7382 16.6487 48.5645 16.3C48.2271 15.6368 48.0437 14.9051 48.0282 14.16L49.1603 14.64Z" fill="#F4B22F"/>
<path id="Vector_58" d="M34.2434 12.76C34.2434 12.76 33.5681 10.14 31.2044 10.76C30.6157 10.8248 30.0479 11.0175 29.5404 11.3248C29.0328 11.6321 28.5976 12.0467 28.2647 12.54C29.3645 12.4479 30.4544 12.2605 31.5222 11.98C31.9969 11.7832 32.5235 11.7532 33.0172 11.8947C33.5109 12.0362 33.9428 12.341 34.2434 12.76V12.76Z" fill="#F4B22F"/>
<path id="Vector_59" d="M26.0202 18.58C25.3849 17.7912 25.0597 16.7946 25.1065 15.78C25.148 14.8543 25.2879 13.9358 25.5237 13.04H22.862C23.0978 13.9358 23.2377 14.8543 23.2792 15.78C23.3169 16.7934 22.9928 17.7867 22.3655 18.58C21.8929 18.8943 21.357 19.0992 20.7963 19.18C21.1669 19.337 21.576 19.3771 21.9697 19.295C22.3633 19.2129 22.723 19.0124 23.0011 18.72C23.7152 17.6743 24.013 16.3965 23.8353 15.14C23.8353 14.56 23.8353 14 23.8353 13.66H24.749C24.749 14.04 24.61 14.56 24.5702 15.14C24.4155 16.4067 24.7419 17.6854 25.4839 18.72C25.762 19.0124 26.1217 19.2129 26.5153 19.295C26.909 19.3771 27.3181 19.337 27.6887 19.18C27.0936 19.114 26.5222 18.9085 26.0202 18.58V18.58Z" fill="#F4B22F"/>
<path id="Vector_60" d="M32.4558 18.56C31.8203 17.78 31.501 16.787 31.5619 15.78C31.5898 14.8544 31.7231 13.9351 31.9592 13.04H29.2976C29.5705 13.9303 29.7372 14.8501 29.7942 15.78C29.855 16.787 29.5358 17.78 28.9003 18.56C28.4327 18.884 27.8945 19.0898 27.3312 19.16C27.6992 19.3126 28.1043 19.3503 28.4939 19.2683C28.8834 19.1863 29.2396 18.9883 29.5161 18.7C30.2545 17.6632 30.5869 16.3884 30.4496 15.12C30.4496 14.56 30.3304 14.04 30.2709 13.66H31.1647C31.1647 14.04 31.0256 14.56 30.9859 15.12C30.8155 16.3707 31.0975 17.6414 31.7804 18.7C32.0585 18.9924 32.4182 19.1929 32.8118 19.275C33.2055 19.3571 33.6146 19.317 33.9852 19.16C33.4357 19.0836 32.9118 18.8781 32.4558 18.56V18.56Z" fill="#F4B22F"/>
<path id="Vector_61" d="M31.5222 3.52001C31.3927 3.45487 31.2499 3.42096 31.1051 3.42096C30.9603 3.42096 30.8175 3.45487 30.688 3.52001C31.0357 3.27955 31.3272 2.96558 31.5421 2.60001C31.6764 2.44089 31.7502 2.23885 31.7502 2.03001C31.7502 1.82116 31.6764 1.61912 31.5421 1.46001C31.1747 1.2292 30.7366 1.1405 30.3092 1.21039C29.8818 1.28028 29.4941 1.504 29.2181 1.84001C29.2181 1.46001 29.6551 0.860008 29.0592 0.380008C28.4633 -0.099992 25.5832 -0.419992 26.0798 1.56001C25.7083 1.28543 25.2595 1.13736 24.7987 1.13736C24.3378 1.13736 23.889 1.28543 23.5175 1.56001C22.6833 2.60001 24.888 3.84001 24.888 3.84001C22.4648 3.74001 24.888 7.08001 26.5168 7.98001C26.8473 8.14209 27.2037 8.24367 27.5695 8.28001C28.8326 8.13442 30.0022 7.53848 30.8667 6.60001C31.3574 6.00848 31.7345 5.3303 31.9791 4.60001C32.0439 4.39473 32.0334 4.17286 31.9496 3.97469C31.8657 3.77652 31.7141 3.61519 31.5222 3.52001V3.52001Z" fill="#EFA226"/>
<path id="Vector_62" d="M21.5511 6.95997C21.3922 7.35997 21.8093 7.99997 22.1271 8.23997C21.6842 8.23153 21.2459 8.33292 20.8511 8.5352C20.4562 8.73749 20.1168 9.03447 19.8628 9.39997C20.0891 9.62926 20.3584 9.81099 20.655 9.93459C20.9517 10.0582 21.2698 10.1212 21.5908 10.12C21.3568 10.3452 21.1379 10.5857 20.9354 10.84C21.4263 11.0947 21.997 11.145 22.5244 10.98C22.6972 10.9247 22.8637 10.8509 23.0209 10.76C22.9096 11.1284 22.8168 11.5022 22.7429 11.88C24.4771 11.7908 26.1537 11.2235 27.5894 10.24C27.0413 9.13334 26.167 8.22427 25.0861 7.63714C24.0052 7.05 22.7706 6.8135 21.5511 6.95997V6.95997Z" fill="#EFA226"/>
<path id="Vector_63" d="M22.4251 3.69995C22.1668 4.03995 22.4251 4.75995 22.6038 5.09995C22.1924 4.9626 21.7535 4.93091 21.3268 5.00775C20.9002 5.08459 20.4993 5.26753 20.1607 5.53995C20.3072 5.82977 20.5117 6.08597 20.7612 6.29248C21.0107 6.49898 21.2999 6.65132 21.6107 6.73995C21.3152 6.88714 21.0298 7.05418 20.7566 7.23995C21.1513 7.62343 21.6779 7.83842 22.2264 7.83995H22.7826C22.6833 7.99995 22.2264 8.67995 22.1668 8.81995C23.7522 9.31183 25.4479 9.31183 27.0332 8.81995C26.0401 4.99995 23.5771 3.69995 22.4251 3.69995Z" fill="#EFA226"/>
<path id="Vector_64" d="M33.5085 6.96007C33.6475 7.36007 33.2304 8.00007 32.9325 8.24007C33.3626 8.24124 33.7861 8.34739 34.1666 8.54941C34.5472 8.75144 34.8734 9.04332 35.1174 9.40007C34.8924 9.63119 34.6234 9.81412 34.3264 9.93785C34.0294 10.0616 33.7107 10.1236 33.3893 10.1201C33.6233 10.3453 33.8423 10.5858 34.0448 10.8401C33.8065 10.9699 33.5444 11.0493 33.2746 11.0734C33.0047 11.0975 32.7328 11.0657 32.4756 10.9801C32.295 10.929 32.1214 10.855 31.9592 10.7601C31.9592 10.9201 32.2373 11.7201 32.2571 11.8801C30.5161 11.7946 28.8322 11.2271 27.3908 10.2401C27.8396 9.03754 28.7086 8.04105 29.8347 7.43726C30.9609 6.83347 32.267 6.66382 33.5085 6.96007V6.96007Z" fill="#EFA226"/>
<path id="Vector_65" d="M32.5352 3.69995C32.7934 4.03995 32.5352 4.75995 32.3763 5.09995C32.7847 4.96433 33.2202 4.93354 33.6434 5.01038C34.0666 5.08721 34.464 5.26925 34.7996 5.53995C34.6543 5.82703 34.4526 6.08141 34.2068 6.28769C33.9609 6.49396 33.6761 6.64782 33.3694 6.73995C33.5085 6.85995 34.0845 7.07995 34.2037 7.23995C33.8113 7.62705 33.2831 7.84266 32.7338 7.83995C32.5555 7.85855 32.3758 7.85855 32.1975 7.83995C32.1975 7.99995 32.7338 8.67995 32.7934 8.81995C31.2079 9.31059 29.5126 9.31059 27.927 8.81995C28.9202 4.99995 31.403 3.69995 32.5352 3.69995Z" fill="#EFA226"/>
<path id="Vector_66" d="M28.3839 10.66C28.3159 10.4782 28.2003 10.3182 28.0496 10.1969C27.8988 10.0757 27.7183 9.99762 27.5271 9.971C27.336 9.94438 27.1412 9.97018 26.9634 10.0457C26.7856 10.1212 26.6313 10.2436 26.5168 10.4C26.3902 10.6107 26.3111 10.8467 26.2852 11.0915C26.2593 11.3363 26.2871 11.5839 26.3666 11.8167C26.4462 12.0494 26.5757 12.2618 26.7458 12.4386C26.9159 12.6155 27.1225 12.7525 27.351 12.84C28.1853 12.82 28.5428 11.32 28.3839 10.66Z" fill="#DD931D"/>
<path id="Vector_67" d="M28.2647 8.35997C28.2088 8.21075 28.1136 8.07964 27.9894 7.98065C27.8652 7.88166 27.7167 7.81852 27.5596 7.79798C27.4025 7.77744 27.2428 7.80027 27.0976 7.86403C26.9525 7.92779 26.8272 8.03008 26.7353 8.15997C26.1791 9.11997 26.9538 10.16 27.4106 10.16C27.8675 10.16 28.3839 8.89997 28.2647 8.35997Z" fill="#DD931D"/>
<path id="Vector_68" d="M28.2647 6.16C28.2045 6.01338 28.1061 5.88587 27.9798 5.79097C27.8535 5.69607 27.7041 5.63732 27.5474 5.62092C27.3906 5.60453 27.2324 5.6311 27.0895 5.69783C26.9465 5.76456 26.8241 5.86897 26.7353 6C26.6282 6.17133 26.5605 6.36455 26.5371 6.56558C26.5136 6.7666 26.535 6.97037 26.5997 7.162C26.6645 7.35364 26.7708 7.52832 26.9111 7.67329C27.0514 7.81826 27.222 7.92988 27.4106 8C28.1058 8 28.3839 6.7 28.2647 6.16Z" fill="#DD931D"/>
<path id="Vector_69" d="M22.584 9.12003C23.0222 9.42914 23.514 9.65299 24.0339 9.78003C24.7808 9.84348 25.5316 9.84348 26.2784 9.78003C25.8194 9.42961 25.2795 9.20249 24.7093 9.12003C24.0038 9.02835 23.2895 9.02835 22.584 9.12003V9.12003Z" fill="#DD931D"/>
<path id="Vector_70" d="M22.9614 6C23.4906 6.56439 24.1341 7.00772 24.8483 7.3L26.2784 7.74C26.2784 7.74 26.1195 7.14 25.0867 6.7C24.3924 6.42501 23.6828 6.19127 22.9614 6V6Z" fill="#DD931D"/>
<path id="Vector_71" d="M32.277 9.12003C31.8388 9.42914 31.347 9.65299 30.827 9.78003C30.0802 9.84348 29.3294 9.84348 28.5825 9.78003C29.0415 9.42961 29.5815 9.20249 30.1517 9.12003C30.8572 9.02835 31.5715 9.02835 32.277 9.12003Z" fill="#DD931D"/>
<path id="Vector_72" d="M31.8996 6C31.3703 6.56439 30.7268 7.00772 30.0126 7.3L28.5825 7.74C28.5825 7.74 28.7414 7.14 29.7743 6.7C30.4685 6.42501 31.1782 6.19127 31.8996 6V6Z" fill="#DD931D"/>
<path id="Vector_73" d="M26.7353 5.15999C26.7353 5.15999 26.5367 3.85999 27.4305 3.85999C28.3243 3.85999 28.1257 5.15999 28.1257 5.15999C27.6741 5.01041 27.1868 5.01041 26.7353 5.15999V5.15999Z" fill="#DD931D"/>
<path id="Vector_74" d="M27.0531 3.53997C27.0531 3.53997 27.0531 2.83997 27.4503 2.83997C27.8476 2.83997 27.8079 3.53997 27.8079 3.53997C27.5634 3.45462 27.2975 3.45462 27.0531 3.53997Z" fill="#DD931D"/>
<path id="Vector_75" d="M23.9744 2.32007C24.0581 2.58783 24.1969 2.83484 24.3817 3.04504C24.5665 3.25523 24.7931 3.4239 25.0469 3.54007C25.4759 3.72328 25.888 3.94414 26.2784 4.20007C26.2647 3.95428 26.1903 3.71583 26.062 3.50629C25.9337 3.29676 25.7555 3.12277 25.5435 3.00007C25.0457 2.71837 24.5197 2.49044 23.9744 2.32007V2.32007Z" fill="#DD931D"/>
<path id="Vector_76" d="M30.8866 2.32007C30.8029 2.58783 30.6641 2.83484 30.4793 3.04504C30.2945 3.25523 30.0678 3.4239 29.814 3.54007C29.3851 3.72328 28.973 3.94414 28.5825 4.20007C28.5962 3.95428 28.6706 3.71583 28.799 3.50629C28.9273 3.29676 29.1055 3.12277 29.3174 3.00007C29.8152 2.71837 30.3412 2.49044 30.8866 2.32007V2.32007Z" fill="#DD931D"/>
<path id="Vector_77" d="M27.0531 2.32003C27.0531 2.32003 26.0401 0.460029 27.5894 0.580029C29.1387 0.700029 27.9271 2.32003 27.9271 2.32003C27.9271 2.32003 27.4106 2.00003 27.0531 2.32003Z" fill="#DD931D"/>
<path id="Vector_78" d="M21.571 20.74C21.571 21.16 21.1141 21.5 20.5182 21.5C19.9224 21.5 19.4655 21.16 19.4655 20.74C19.4655 20.32 19.8628 20 20.5182 20C21.1737 20 21.571 20.34 21.571 20.74Z" fill="#DD931D"/>
<path id="Vector_79" d="M26.0997 20.74C26.0997 21.16 25.6428 21.5 25.0469 21.5C24.4511 21.5 23.9942 21.16 23.9942 20.74C23.9942 20.32 24.4709 20 25.0469 20C25.623 20 26.0997 20.34 26.0997 20.74Z" fill="#DD931D"/>
<path id="Vector_80" d="M22.584 20.74C22.584 21.06 22.4251 21.2999 22.2463 21.2999C22.0675 21.2999 21.9285 21.06 21.9285 20.74C21.9285 20.42 22.0675 20.2 22.2463 20.2C22.4251 20.2 22.584 20.44 22.584 20.74Z" fill="#DD931D"/>
<path id="Vector_81" d="M23.5572 20.74C23.5572 21.06 23.3983 21.2999 23.2196 21.2999C23.0408 21.2999 22.9018 21.06 22.9018 20.74C22.9018 20.42 23.0408 20.2 23.2196 20.2C23.3983 20.2 23.5572 20.44 23.5572 20.74Z" fill="#DD931D"/>
<path id="Vector_82" d="M30.7277 20.74C30.7277 21.16 30.251 21.5 29.6551 21.5C29.0592 21.5 28.6024 21.16 28.6024 20.74C28.6024 20.32 29.0791 20 29.6551 20C30.2311 20 30.7277 20.34 30.7277 20.74Z" fill="#DD931D"/>
<path id="Vector_83" d="M27.1921 20.74C27.1921 21.06 27.0531 21.2999 26.8743 21.2999C26.6956 21.2999 26.5367 21.06 26.5367 20.74C26.5367 20.42 26.6956 20.2 26.8743 20.2C27.0531 20.2 27.1921 20.44 27.1921 20.74Z" fill="#DD931D"/>
<path id="Vector_84" d="M28.1654 20.74C28.1654 21.06 28.0264 21.2999 27.8476 21.2999C27.6688 21.2999 27.5099 21.06 27.5099 20.74C27.5099 20.42 27.6688 20.2 27.8476 20.2C28.0264 20.2 28.1654 20.44 28.1654 20.74Z" fill="#DD931D"/>
<path id="Vector_85" d="M35.177 20.74C35.177 21.16 34.7003 21.5 34.1242 21.5C33.5482 21.5 33.0715 21.16 33.0715 20.74C33.0715 20.32 33.5482 20 34.1242 20C34.7003 20 35.177 20.34 35.177 20.74Z" fill="#DD931D"/>
<path id="Vector_86" d="M31.6612 20.74C31.6612 21.06 31.5023 21.2999 31.3236 21.2999C31.1448 21.2999 31.0058 21.06 31.0058 20.74C31.0058 20.42 31.1448 20.2 31.3236 20.2C31.5023 20.2 31.6612 20.44 31.6612 20.74Z" fill="#DD931D"/>
<path id="Vector_87" d="M32.6345 20.74C32.6345 21.06 32.4756 21.2999 32.2969 21.2999C32.1181 21.2999 31.979 21.06 31.979 20.74C31.979 20.42 32.1181 20.2 32.2969 20.2C32.4756 20.2 32.6345 20.44 32.6345 20.74Z" fill="#DD931D"/>
<path id="Vector_88" d="M20.2004 42C19.9945 41.8115 19.742 41.6823 19.4694 41.6259C19.1968 41.5696 18.9141 41.5883 18.6511 41.68C18.7519 41.5366 18.8172 41.371 18.8413 41.197C18.8655 41.023 18.848 40.8458 18.7902 40.68C18.0426 40.769 17.3127 40.9713 16.6251 41.28C17.315 40.9178 17.8923 40.3711 18.2936 39.7C18.0462 39.4911 17.7637 39.3285 17.4594 39.22C17.6081 38.7543 17.6884 38.2691 17.6977 37.78C16.7443 37.78 16.6053 38.16 16.1882 38.3C16.1705 38.049 16.0775 37.8094 15.9214 37.6129C15.7653 37.4164 15.5535 37.2724 15.3142 37.2L14.758 38.46C14.758 38.46 14.3211 36.16 12.9108 36C12.6076 36.2957 12.4058 36.681 12.3348 37.1C11.8769 36.7123 11.3311 36.4444 10.7458 36.32C9.61358 36.72 9.15673 37.94 10.3088 39.96C10.3088 39.96 11.7389 37.18 13.7053 38.78C15.6717 40.38 15.2149 43.3 15.4731 45C15.632 46.02 15.9697 47.5 16.1882 48.48H18.1744C18.7389 48.3507 19.2472 48.0422 19.6244 47.6C19.6244 47.28 19.6244 47.18 19.1477 46.78C19.6443 46.6 19.6244 46.54 20.0018 45.98C19.5862 45.8601 19.1809 45.7063 18.7902 45.52C19.1676 45.36 19.4258 45.26 19.4258 44.82C18.8766 44.5579 18.2956 44.3696 17.6977 44.26C18.3969 44.2326 19.0788 44.0335 19.684 43.68C19.4456 43.38 19.4456 43.12 18.9888 42.76C19.8628 42.64 20.0813 42.32 20.2004 42Z" fill="#F9C85A"/>
<path id="Vector_89" d="M13.7053 38.8C11.719 37.2 10.3088 39.98 10.3088 39.98C10.8451 38.9 13.7053 38.52 13.7848 40.46C13.8025 43.1554 14.1291 45.8399 14.758 48.46H16.1882C15.8902 47.52 15.632 46 15.4731 45.02C15.2149 43.32 15.6717 40.38 13.7053 38.8Z" fill="#F4B22F"/>
<path id="Vector_90" d="M15.8902 43.02C16.2944 42.581 16.847 42.3099 17.4395 42.26C17.9702 42.1495 18.5177 42.1495 19.0484 42.26C19.0484 42.26 18.0553 42.46 17.4792 42.62L15.8902 43.02Z" fill="#F4B22F"/>
<path id="Vector_91" d="M15.5724 40.34C15.6824 39.927 15.8942 39.5486 16.1882 39.24C16.645 38.82 16.9231 38.6 16.9231 38.6C16.7382 39.0279 16.512 39.4366 16.2477 39.82C16.0723 40.0505 15.8393 40.2299 15.5724 40.34V40.34Z" fill="#F4B22F"/>
<path id="Vector_92" d="M16.1882 46.12C16.6709 46.0853 17.1554 46.0853 17.6381 46.12L18.9888 46.26C18.5343 46.3766 18.0674 46.4371 17.5984 46.44C17.1185 46.3833 16.6458 46.2761 16.1882 46.12V46.12Z" fill="#F4B22F"/>
<path id="Vector_93" d="M32.8133 42C33.0138 41.8094 33.263 41.6785 33.533 41.622C33.8031 41.5655 34.0834 41.5856 34.3427 41.68C34.2462 41.5347 34.1835 41.3692 34.1595 41.1961C34.1354 41.0229 34.1505 40.8465 34.2037 40.68C34.9513 40.769 35.6812 40.9713 36.3687 41.28C35.6862 40.9149 35.116 40.3684 34.7201 39.7C34.9589 39.4895 35.2353 39.3266 35.5345 39.22C35.3858 38.7543 35.3055 38.2691 35.2961 37.78C35.8377 37.8078 36.3607 37.988 36.8057 38.3C36.8274 38.0413 36.9291 37.796 37.0966 37.5987C37.2641 37.4013 37.4889 37.2619 37.7393 37.2L38.2756 38.46C38.2756 38.46 38.7125 36.16 40.1228 36.02C40.4333 36.313 40.6422 36.6985 40.7187 37.12C41.1737 36.728 41.7207 36.4595 42.3077 36.34C43.4399 36.74 43.8769 37.96 42.7447 39.98C42.7447 39.98 41.2947 37.2 39.3283 38.8C37.3619 40.4 37.8187 43.32 37.5605 45.02C37.4016 46.04 37.0838 47.52 36.8454 48.5H34.8592C34.288 48.3733 33.7726 48.0648 33.3893 47.62C33.3893 47.3 33.3893 47.2 33.8859 46.8C33.3694 46.62 33.4092 46.56 33.0318 46C33.4397 45.8764 33.8381 45.7227 34.2235 45.54C33.8462 45.38 33.5879 45.28 33.5879 44.84C34.1382 44.5806 34.7188 44.3924 35.316 44.28C34.6168 44.2527 33.9349 44.0535 33.3297 43.7C33.5681 43.4 33.5681 43.14 34.0448 42.78C33.1112 42.64 32.9325 42.32 32.8133 42Z" fill="#F9C85A"/>
<path id="Vector_94" d="M39.2886 38.8C41.2748 37.2 42.7049 39.98 42.7049 39.98C42.1687 38.9 39.2886 38.52 39.229 40.46C39.2002 43.1559 38.867 45.8398 38.2358 48.46H36.8057C37.0441 47.48 37.3619 46 37.5208 44.98C37.7393 43.32 37.3221 40.38 39.2886 38.8Z" fill="#F4B22F"/>
<path id="Vector_95" d="M37.1831 43.02C36.7755 42.5856 36.2248 42.3154 35.6338 42.26C35.0967 42.1467 34.5421 42.1467 34.0051 42.26C34.0051 42.26 34.9982 42.46 35.5941 42.62L37.1831 43.02Z" fill="#F4B22F"/>
<path id="Vector_96" d="M37.4413 40.34C37.3195 39.9276 37.1016 39.5504 36.8057 39.24C36.5733 39.0124 36.3279 38.7987 36.0708 38.6C36.2572 39.0312 36.4903 39.4404 36.766 39.82C36.9414 40.0505 37.1745 40.2299 37.4413 40.34V40.34Z" fill="#F4B22F"/>
<path id="Vector_97" d="M36.8057 46.12C36.323 46.0853 35.8384 46.0853 35.3557 46.12L34.0051 46.26C34.4663 46.3765 34.9398 46.4369 35.4153 46.44C35.8889 46.3843 36.3551 46.277 36.8057 46.12V46.12Z" fill="#F4B22F"/>
<path id="Vector_98" d="M2.28422 8.00003V5.66003C2.28422 5.52743 2.2319 5.40025 2.13878 5.30648C2.04565 5.21271 1.91935 5.16003 1.78765 5.16003C1.65595 5.16003 1.52965 5.21271 1.43652 5.30648C1.3434 5.40025 1.29108 5.52743 1.29108 5.66003V8.00003H2.28422Z" fill="#DD931D"/>
<path id="Vector_99" d="M5.2835 8.00005V5.66005C5.29814 5.58743 5.29657 5.51244 5.2789 5.44051C5.26124 5.36857 5.22791 5.30149 5.18134 5.24412C5.13477 5.18675 5.07611 5.14051 5.00962 5.10877C4.94312 5.07702 4.87045 5.06055 4.79686 5.06055C4.72327 5.06055 4.65059 5.07702 4.5841 5.10877C4.51761 5.14051 4.45895 5.18675 4.41238 5.24412C4.36581 5.30149 4.33248 5.36857 4.31481 5.44051C4.29714 5.51244 4.29558 5.58743 4.31022 5.66005V8.00005H5.2835Z" fill="#DD931D"/>
<path id="Vector_100" d="M8.28278 8.00005V5.66005C8.29742 5.58743 8.29585 5.51244 8.27818 5.44051C8.26052 5.36857 8.22719 5.30149 8.18062 5.24412C8.13405 5.18675 8.07539 5.14051 8.0089 5.10877C7.9424 5.07702 7.86973 5.06055 7.79614 5.06055C7.72255 5.06055 7.64987 5.07702 7.58338 5.10877C7.51688 5.14051 7.45823 5.18675 7.41166 5.24412C7.36508 5.30149 7.33176 5.36857 7.31409 5.44051C7.29642 5.51244 7.29486 5.58743 7.3095 5.66005V8.00005H8.28278Z" fill="#DD931D"/>
<path id="Vector_101" d="M11.3019 8.00003V5.66003C11.3019 5.52743 11.2496 5.40025 11.1565 5.30648C11.0633 5.21271 10.937 5.16003 10.8053 5.16003C10.6752 5.16498 10.5517 5.21925 10.4597 5.31197C10.3676 5.40469 10.3137 5.52901 10.3088 5.66003V8.00003H11.3019Z" fill="#DD931D"/>
<path id="Vector_102" d="M14.3012 8.00005V5.66005C14.3158 5.58743 14.3143 5.51244 14.2966 5.44051C14.2789 5.36857 14.2456 5.30149 14.199 5.24412C14.1525 5.18675 14.0938 5.14051 14.0273 5.10877C13.9608 5.07702 13.8881 5.06055 13.8146 5.06055C13.741 5.06055 13.6683 5.07702 13.6018 5.10877C13.5353 5.14051 13.4766 5.18675 13.4301 5.24412C13.3835 5.30149 13.3502 5.36857 13.3325 5.44051C13.3148 5.51244 13.3133 5.58743 13.3279 5.66005V8.00005H14.3012Z" fill="#DD931D"/>
<path id="Vector_103" d="M17.3005 8.00005V5.66005C17.3151 5.58743 17.3135 5.51244 17.2959 5.44051C17.2782 5.36857 17.2449 5.30149 17.1983 5.24412C17.1517 5.18675 17.0931 5.14051 17.0266 5.10877C16.9601 5.07702 16.8874 5.06055 16.8138 5.06055C16.7402 5.06055 16.6676 5.07702 16.6011 5.10877C16.5346 5.14051 16.4759 5.18675 16.4293 5.24412C16.3828 5.30149 16.3495 5.36857 16.3318 5.44051C16.3141 5.51244 16.3125 5.58743 16.3272 5.66005V8.00005H17.3005Z" fill="#DD931D"/>
<path id="Vector_104" d="M20.3196 8.00005V5.66005C20.3343 5.58743 20.3327 5.51244 20.315 5.44051C20.2973 5.36857 20.264 5.30149 20.2175 5.24412C20.1709 5.18675 20.1122 5.14051 20.0457 5.10877C19.9792 5.07702 19.9066 5.06055 19.833 5.06055C19.7594 5.06055 19.6867 5.07702 19.6202 5.10877C19.5537 5.14051 19.4951 5.18675 19.4485 5.24412C19.4019 5.30149 19.3686 5.36857 19.3509 5.44051C19.3333 5.51244 19.3317 5.58743 19.3463 5.66005V8.00005H20.3196Z" fill="#DD931D"/>
<path id="Vector_105" d="M35.753 8.00005V5.66005C35.7676 5.58743 35.7661 5.51244 35.7484 5.44051C35.7307 5.36857 35.6974 5.30149 35.6508 5.24412C35.6043 5.18675 35.5456 5.14051 35.4791 5.10877C35.4126 5.07702 35.3399 5.06055 35.2663 5.06055C35.1928 5.06055 35.1201 5.07702 35.0536 5.10877C34.9871 5.14051 34.9284 5.18675 34.8819 5.24412C34.8353 5.30149 34.802 5.36857 34.7843 5.44051C34.7666 5.51244 34.7651 5.58743 34.7797 5.66005V8.00005H35.753Z" fill="#DD931D"/>
<path id="Vector_106" d="M38.7324 8.00005V5.66005C38.747 5.58743 38.7455 5.51244 38.7278 5.44051C38.7101 5.36857 38.6768 5.30149 38.6302 5.24412C38.5837 5.18675 38.525 5.14051 38.4585 5.10877C38.392 5.07702 38.3193 5.06055 38.2458 5.06055C38.1722 5.06055 38.0995 5.07702 38.033 5.10877C37.9665 5.14051 37.9079 5.18675 37.8613 5.24412C37.8147 5.30149 37.7814 5.36857 37.7637 5.44051C37.746 5.51244 37.7445 5.58743 37.7591 5.66005V8.00005H38.7324Z" fill="#DD931D"/>
<path id="Vector_107" d="M41.7118 8.00005V5.66005C41.7265 5.58743 41.7249 5.51244 41.7072 5.44051C41.6896 5.36857 41.6562 5.30149 41.6097 5.24412C41.5631 5.18675 41.5044 5.14051 41.4379 5.10877C41.3714 5.07702 41.2988 5.06055 41.2252 5.06055C41.1516 5.06055 41.0789 5.07702 41.0124 5.10877C40.9459 5.14051 40.8873 5.18675 40.8407 5.24412C40.7941 5.30149 40.7608 5.36857 40.7431 5.44051C40.7255 5.51244 40.7239 5.58743 40.7385 5.66005V8.00005H41.7118Z" fill="#DD931D"/>
<path id="Vector_108" d="M44.7309 8.00005V5.66005C44.7456 5.58743 44.744 5.51244 44.7264 5.44051C44.7087 5.36857 44.6754 5.30149 44.6288 5.24412C44.5822 5.18675 44.5236 5.14051 44.4571 5.10877C44.3906 5.07702 44.3179 5.06055 44.2443 5.06055C44.1707 5.06055 44.098 5.07702 44.0316 5.10877C43.9651 5.14051 43.9064 5.18675 43.8598 5.24412C43.8133 5.30149 43.7799 5.36857 43.7623 5.44051C43.7446 5.51244 43.743 5.58743 43.7577 5.66005V8.00005H44.7309Z" fill="#DD931D"/>
<path id="Vector_109" d="M47.6706 8.00005V5.66005C47.6853 5.58743 47.6837 5.51244 47.6661 5.44051C47.6484 5.36857 47.6151 5.30149 47.5685 5.24412C47.5219 5.18675 47.4633 5.14051 47.3968 5.10877C47.3303 5.07702 47.2576 5.06055 47.184 5.06055C47.1104 5.06055 47.0377 5.07702 46.9713 5.10877C46.9048 5.14051 46.8461 5.18675 46.7995 5.24412C46.753 5.30149 46.7196 5.36857 46.702 5.44051C46.6843 5.51244 46.6827 5.58743 46.6974 5.66005V8.00005H47.6706Z" fill="#DD931D"/>
<path id="Vector_110" d="M50.7494 8.00005V5.66005C50.764 5.58743 50.7624 5.51244 50.7448 5.44051C50.7271 5.36857 50.6938 5.30149 50.6472 5.24412C50.6006 5.18675 50.542 5.14051 50.4755 5.10877C50.409 5.07702 50.3363 5.06055 50.2627 5.06055C50.1891 5.06055 50.1165 5.07702 50.05 5.10877C49.9835 5.14051 49.9248 5.18675 49.8782 5.24412C49.8317 5.30149 49.7983 5.36857 49.7807 5.44051C49.763 5.51244 49.7614 5.58743 49.7761 5.66005V8.00005H50.7494Z" fill="#DD931D"/>
<path id="Vector_111" d="M53.7685 8.00003V5.66003C53.7636 5.52901 53.7097 5.40469 53.6176 5.31197C53.5255 5.21925 53.4021 5.16498 53.2719 5.16003C53.1402 5.16003 53.0139 5.21271 52.9208 5.30648C52.8277 5.40025 52.7754 5.52743 52.7754 5.66003V8.00003H53.7685Z" fill="#DD931D"/>
<path id="Vector_112" d="M26.5565 35.3201C25.5237 35.3201 24.9278 35.7601 25.4442 36.4001C25.0271 36.6401 24.9278 36.8201 24.9874 37.2001C25.1178 37.7036 25.3401 38.1783 25.6428 38.6001C25.233 38.2677 24.7942 37.9732 24.3319 37.7201C24.0141 37.9401 23.9148 38.0201 23.6764 38.1601C23.3957 37.7699 22.9756 37.5046 22.5045 37.4201C22.5045 37.4201 22.3655 38.4801 22.862 38.8801C22.6436 39.2001 22.6237 39.0801 22.3059 39.4601C22.8819 40.0201 23.2394 40.4401 23.7956 40.5001C23.7121 40.772 23.6719 41.0555 23.6764 41.3401C23.3216 41.0685 22.9164 40.8713 22.4846 40.7601C22.3758 40.8812 22.2932 41.0237 22.2419 41.1786C22.1906 41.3335 22.1718 41.4975 22.1867 41.6601C21.8864 41.5423 21.555 41.5316 21.2478 41.6298C20.9406 41.7281 20.6761 41.9293 20.4984 42.2001C20.9739 42.4932 21.489 42.7155 22.0278 42.8601C22.0278 43.1601 21.8888 43.2001 21.7895 43.7001C22.2789 43.9629 22.8098 44.1388 23.3586 44.2201C23.2672 44.465 23.2672 44.7351 23.3586 44.9801C22.8169 44.7523 22.2592 44.5651 21.6901 44.4201C21.4915 44.6401 21.6901 45.0201 21.6901 45.3801C21.1658 45.2894 20.6264 45.3811 20.1607 45.6401C20.1607 45.6401 20.7367 46.5801 21.5511 46.4601C21.5511 46.8201 21.2929 46.9601 21.2929 47.4001C22.1918 47.9272 23.172 48.299 24.1928 48.5001H26.8545L26.5565 35.3201Z" fill="#F9C85A"/>
<path id="Vector_113" d="M26.5565 35.3201C27.5695 35.3201 28.2051 35.7601 27.6688 36.4001C28.1058 36.6401 28.2051 36.8201 28.1257 37.2001C27.9983 37.7011 27.7831 38.1753 27.4901 38.6001C27.8999 38.2677 28.3387 37.9732 28.801 37.7201C29.1188 37.9401 29.2181 38.0201 29.4565 38.1601C29.731 37.7727 30.1439 37.5074 30.6085 37.4201C30.6085 37.4201 30.7674 38.4801 30.2709 38.8801C30.4893 39.2001 30.5092 39.0801 30.827 39.4601C30.251 40.0201 29.8736 40.4401 29.3373 40.5001C29.4208 40.772 29.461 41.0555 29.4565 41.3401C29.8056 41.0714 30.2038 40.8743 30.6284 40.7601C30.7416 40.8782 30.8271 41.0203 30.8787 41.1761C30.9302 41.3318 30.9465 41.4972 30.9263 41.6601C31.2296 41.5409 31.5641 41.5294 31.8747 41.6276C32.1853 41.7258 32.4534 41.9277 32.6345 42.2001C32.159 42.4932 31.6438 42.7155 31.1051 42.8601C31.1051 43.1601 31.2441 43.2001 31.3434 43.7001C30.8526 43.9597 30.3223 44.1354 29.7743 44.2201C29.8657 44.465 29.8657 44.7351 29.7743 44.9801C30.3101 44.7546 30.861 44.5675 31.4229 44.4201C31.6215 44.6401 31.4229 45.0201 31.4229 45.3801C31.9408 45.2925 32.4729 45.3841 32.9325 45.6401C32.9325 45.6401 32.3763 46.5801 31.5421 46.4601C31.5421 46.8201 31.8003 46.9601 31.8003 47.4001C30.9095 47.9293 29.9354 48.3013 28.9202 48.5001H26.9339L26.5565 35.3201Z" fill="#F9C85A"/>
<path id="Vector_114" d="M26.5367 38.88C26.0815 40.4504 25.8016 42.0671 25.7024 43.7C25.7482 45.3061 25.8808 46.9085 26.0997 48.5H26.9736C27.2658 46.9173 27.4055 45.3098 27.3908 43.7C27.3772 42.0564 27.0884 40.4269 26.5367 38.88V38.88Z" fill="#F4B22F"/>
<path id="Vector_115" d="M23.597 39.08C23.597 39.08 24.0538 39.9 24.5702 40.1C24.8542 40.2049 25.1466 40.2852 25.4442 40.34C25.2899 40.0756 25.0711 39.8553 24.8086 39.7C24.4252 39.4549 24.0195 39.2473 23.597 39.08V39.08Z" fill="#F4B22F"/>
<path id="Vector_116" d="M22.6038 42.38C22.9134 42.7075 23.3157 42.9309 23.7559 43.02C24.256 43.0993 24.7599 43.1527 25.2654 43.18C24.9362 42.9263 24.5669 42.7302 24.173 42.6C23.6564 42.4859 23.1318 42.4123 22.6038 42.38V42.38Z" fill="#F4B22F"/>
<path id="Vector_117" d="M22.2066 46C22.7145 46.3918 23.3062 46.6589 23.9346 46.78C24.6894 46.78 25.4442 46.88 25.4442 46.88C25.0116 46.5646 24.5276 46.3277 24.0141 46.18C23.4381 46.1 22.2066 46 22.2066 46Z" fill="#F4B22F"/>
<path id="Vector_118" d="M29.4168 39.08C29.183 39.4972 28.8481 39.848 28.4435 40.1C28.1532 40.2064 27.8541 40.2867 27.5497 40.34C27.7087 40.0725 27.9347 39.8518 28.2051 39.7C28.5861 39.4508 28.9923 39.243 29.4168 39.08V39.08Z" fill="#F4B22F"/>
<path id="Vector_119" d="M30.4099 42.38C30.1003 42.7075 29.6981 42.9309 29.2579 43.02C28.7577 43.0993 28.2539 43.1527 27.7483 43.18C28.0687 42.9239 28.4319 42.7275 28.8209 42.6C29.3441 42.4854 29.8754 42.4118 30.4099 42.38Z" fill="#F4B22F"/>
<path id="Vector_120" d="M30.7873 46C30.2879 46.3936 29.7022 46.661 29.0791 46.78C28.3243 46.78 27.5497 46.88 27.5497 46.88C27.985 46.5693 28.4682 46.3328 28.9798 46.18C29.5757 46.1 30.7873 46 30.7873 46Z" fill="#F4B22F"/>
<path id="Vector_121" d="M25.7024 36.98C25.8072 37.1301 25.9533 37.2461 26.1227 37.3136C26.2921 37.3811 26.4774 37.3972 26.6558 37.36C26.9804 37.3097 27.2875 37.1791 27.5497 36.98C27.4669 37.2026 27.3171 37.3936 27.1212 37.5263C26.9254 37.659 26.6932 37.7267 26.4572 37.72C26.3576 37.7288 26.2573 37.7159 26.1631 37.6821C26.0688 37.6483 25.983 37.5944 25.9113 37.5242C25.8397 37.454 25.7839 37.369 25.7479 37.2751C25.7118 37.1811 25.6963 37.0805 25.7024 36.98V36.98Z" fill="#F4B22F"/>
<path id="Vector_122" d="M38.4345 50.76H14.6587V51.82H38.4345V50.76Z" fill="#A0A0A0"/>
</g>
</g>
</svg>
