<svg width="38" height="34" viewBox="0 0 38 34" fill="none" xmlns="http://www.w3.org/2000/svg">
<path id="Vector" d="M29.146 5.882C28.6951 5.882 28.2542 6.00164 27.8793 6.2258C27.5044 6.44996 27.2121 6.76856 27.0396 7.14133C26.867 7.51409 26.8218 7.92426 26.9098 8.31998C26.9978 8.71571 27.2149 9.0792 27.5338 9.3645C27.8527 9.6498 28.2589 9.84409 28.7012 9.9228C29.1435 10.0015 29.6019 9.96112 30.0185 9.80671C30.4351 9.65231 30.7912 9.39084 31.0417 9.05536C31.2923 8.71989 31.426 8.32547 31.426 7.922C31.426 7.38096 31.1858 6.86208 30.7582 6.4795C30.3306 6.09693 29.7507 5.882 29.146 5.882ZM37.886 9.996C37.849 8.58551 37.5538 7.18998 37.012 5.865C36.5289 4.73133 35.777 3.70477 34.808 2.856C33.8672 1.98462 32.7172 1.3161 31.445 0.901C29.968 0.401473 28.4066 0.131257 26.828 0.102C24.814 -9.49949e-08 24.168 0 19 0C13.832 0 13.186 -9.49949e-08 11.172 0.102C9.59339 0.131257 8.03195 0.401473 6.555 0.901C5.28518 1.3203 4.13617 1.98825 3.192 2.856C2.21811 3.6978 1.47094 4.72675 1.007 5.865C0.448705 7.18648 0.146699 8.58356 0.114 9.996C-1.06171e-07 11.798 0 12.376 0 17C0 21.624 -1.06171e-07 22.202 0.114 24.004C0.146699 25.4164 0.448705 26.8135 1.007 28.135C1.47094 29.2733 2.21811 30.3022 3.192 31.144C4.13617 32.0117 5.28518 32.6797 6.555 33.099C8.03195 33.5985 9.59339 33.8687 11.172 33.898C13.186 34 13.832 34 19 34C24.168 34 24.814 34 26.828 33.898C28.4066 33.8687 29.968 33.5985 31.445 33.099C32.7172 32.6839 33.8672 32.0154 34.808 31.144C35.7813 30.2984 36.5338 29.2709 37.012 28.135C37.5538 26.81 37.849 25.4145 37.886 24.004C37.886 22.202 38 21.624 38 17C38 12.376 38 11.798 37.886 9.996ZM34.466 23.8C34.4522 24.8791 34.2337 25.9483 33.82 26.962C33.5166 27.7018 33.0294 28.3703 32.395 28.917C31.7787 29.4789 31.0331 29.9139 30.21 30.192C29.077 30.5622 27.8821 30.7576 26.676 30.77C24.776 30.855 24.073 30.872 19.076 30.872C14.079 30.872 13.376 30.872 11.476 30.77C10.2237 30.791 8.97673 30.6184 7.79 30.26C7.00299 29.9677 6.29158 29.5337 5.7 28.985C5.06937 28.4389 4.5882 27.7698 4.294 27.03C3.83013 26.0018 3.57284 24.9083 3.534 23.8C3.534 22.1 3.42 21.471 3.42 17C3.42 12.529 3.42 11.9 3.534 10.2C3.54252 9.0968 3.76761 8.00351 4.199 6.97C4.53349 6.25245 5.0469 5.61282 5.7 5.1C6.27725 4.51549 6.99065 4.05126 7.79 3.74C8.94815 3.36607 10.1688 3.17064 11.4 3.162C13.3 3.162 14.003 3.06 19 3.06C23.997 3.06 24.7 3.06 26.6 3.162C27.8061 3.17438 29.001 3.36982 30.134 3.74C30.9974 4.02671 31.7724 4.49284 32.395 5.1C33.0176 5.6222 33.5041 6.26065 33.82 6.97C34.2423 8.00519 34.4608 9.09803 34.466 10.2C34.561 11.9 34.58 12.529 34.58 17C34.58 21.471 34.561 22.1 34.466 23.8ZM19 8.279C17.073 8.28236 15.1904 8.79669 13.59 9.75701C11.9897 10.7173 10.7433 12.0805 10.0085 13.6744C9.27369 15.2682 9.08338 17.0212 9.46161 18.7118C9.83984 20.4024 10.7696 21.9547 12.1335 23.1727C13.4974 24.3906 15.2342 25.2195 17.1244 25.5547C19.0146 25.8898 20.9735 25.7161 22.7534 25.0555C24.5333 24.3949 26.0545 23.2771 27.1246 21.8434C28.1948 20.4096 28.766 18.7241 28.766 17C28.7685 15.8527 28.5175 14.7162 28.0274 13.656C27.5372 12.5958 26.8177 11.6328 25.9101 10.8223C25.0024 10.0118 23.9247 9.36985 22.7388 8.93338C21.5529 8.49691 20.2823 8.27452 19 8.279ZM19 22.661C17.7486 22.661 16.5254 22.329 15.4849 21.707C14.4444 21.0849 13.6335 20.2008 13.1546 19.1664C12.6757 18.132 12.5504 16.9937 12.7946 15.8956C13.0387 14.7975 13.6413 13.7888 14.5261 12.9971C15.411 12.2054 16.5383 11.6662 17.7657 11.4478C18.993 11.2293 20.2651 11.3415 21.4212 11.7699C22.5773 12.1984 23.5655 12.924 24.2607 13.8549C24.9559 14.7859 25.327 15.8804 25.327 17C25.327 17.7434 25.1633 18.4795 24.8454 19.1664C24.5274 19.8532 24.0614 20.4773 23.4739 21.0029C22.8863 21.5286 22.1889 21.9456 21.4212 22.2301C20.6536 22.5146 19.8309 22.661 19 22.661Z" fill="#8D8D8D"/>
</svg>
