<svg width="264" height="135" viewBox="0 0 264 135" fill="none" xmlns="http://www.w3.org/2000/svg">
<g id="Group 1">
<g id="Babylon">
<path d="M62.2481 37.4621H62.5337C62.8002 37.4621 63.0476 37.3479 63.276 37.1195C63.5045 36.891 63.6948 36.6245 63.8471 36.32C64.0375 36.0154 64.1707 35.6918 64.2469 35.3492C64.323 34.9684 64.3611 34.6258 64.3611 34.3212V3.94037C64.3611 3.67387 64.323 3.3693 64.2469 3.02666C64.1707 2.68402 64.0375 2.36041 63.8471 2.05584C63.6948 1.7132 63.4854 1.4467 63.2189 1.25635C62.9905 1.02792 62.724 0.913708 62.4194 0.913708H62.1339V0.34264H71.4994C75.0401 0.34264 77.8002 1.1231 79.7799 2.68402C81.7977 4.24494 82.8066 6.31983 82.8066 8.90867C82.8066 10.0127 82.6162 11.0026 82.2355 11.8782C81.8548 12.7539 81.3599 13.5343 80.7507 14.2196C80.1797 14.9049 79.5515 15.495 78.8662 15.9899C78.1809 16.4468 77.5337 16.8275 76.9246 17.1321C78.5236 17.4366 79.8561 17.9506 80.9221 18.6739C81.9881 19.3973 82.8447 20.2349 83.4919 21.1866C84.1772 22.1004 84.6531 23.0902 84.9196 24.1562C85.1861 25.2222 85.3193 26.2692 85.3193 27.2971C85.3193 29.2768 84.9576 30.9519 84.2343 32.3225C83.5109 33.655 82.5401 34.759 81.3218 35.6347C80.1416 36.4723 78.771 37.0814 77.2101 37.4621C75.6873 37.8428 74.1073 38.0332 72.4703 38.0332H62.2481V37.4621ZM81.436 27.6397C81.1315 24.7082 80.1416 22.443 78.4665 20.844C76.7913 19.245 74.4309 18.4455 71.3852 18.4455H68.1872V36.1486H71.4994C74.5832 36.1486 77.0007 35.4634 78.752 34.0928C80.5414 32.6842 81.436 30.7425 81.436 28.2679V27.6397ZM79.0947 9.42263C78.9804 7.2145 78.2 5.46322 76.7533 4.1688C75.3446 2.87438 73.4411 2.22717 71.0426 2.22717H68.1872V16.6181H71.1568C72.7558 16.6181 74.0502 16.4087 75.0401 15.9899C76.068 15.5711 76.8865 15.0381 77.4957 14.3909C78.1048 13.7056 78.5236 12.9633 78.752 12.1638C78.9804 11.3643 79.0947 10.5838 79.0947 9.82238V9.42263Z" fill="url(#paint0_linear_2_321)"/>
<path d="M105.264 38.0332V35.1207L104.979 35.4063C104.027 36.358 102.923 37.1004 101.667 37.6334C100.448 38.1664 98.9635 38.4329 97.2122 38.4329C95.8798 38.4329 94.7376 38.2806 93.7858 37.9761C92.8341 37.6715 92.0536 37.2527 91.4445 36.7197C90.8353 36.1486 90.3785 35.5014 90.0739 34.7781C89.8074 34.0547 89.6741 33.2933 89.6741 32.4938C89.6741 31.1994 90.0168 30.0572 90.7021 29.0674C91.4254 28.0775 92.4533 27.2019 93.7858 26.4405C95.1183 25.6791 96.7364 24.9938 98.6399 24.3846C100.582 23.7374 102.79 23.1092 105.264 22.5001C105.188 21.0153 104.884 19.8161 104.351 18.9024C103.818 17.9887 103.189 17.2843 102.466 16.7894C101.743 16.2564 100.981 15.9138 100.182 15.7615C99.3823 15.5711 98.697 15.476 98.126 15.476C97.1361 15.476 96.2605 15.6282 95.499 15.9328C94.7757 16.2374 94.1285 16.6371 93.5574 17.1321C93.0244 17.5889 92.5676 18.1029 92.1868 18.6739C91.8061 19.2069 91.5016 19.7209 91.2731 20.2158H90.7592V16.047C91.0637 16.009 91.3493 15.9138 91.6158 15.7615C91.8823 15.6092 92.2059 15.4569 92.5866 15.3046C93.1577 15.0762 93.9381 14.7526 94.928 14.3338C95.9178 13.877 97.3074 13.6485 99.0968 13.6485C101.191 13.6485 102.885 13.915 104.179 14.448C105.474 14.981 106.464 15.6854 107.149 16.561C107.872 17.4366 108.348 18.4455 108.577 19.5877C108.805 20.6917 108.919 21.8339 108.919 23.0141V34.3212C108.919 35.0827 109.09 35.806 109.433 36.4913C109.776 37.1385 110.233 37.4621 110.804 37.4621V38.0332H105.264ZM105.264 32.608V24.4417L104.693 24.556C103.78 24.7844 102.656 25.0889 101.324 25.4697C100.03 25.8504 98.7922 26.3453 97.612 26.9544C96.4318 27.5636 95.4229 28.2869 94.5853 29.1245C93.7478 29.9621 93.329 30.9329 93.329 32.0369C93.329 33.2552 93.8239 34.2641 94.8138 35.0636C95.8036 35.8631 97.098 36.2629 98.697 36.2629C99.9534 36.2629 101.057 35.9964 102.009 35.4634C102.961 34.8923 103.837 34.1689 104.636 33.2933L105.264 32.608Z" fill="url(#paint1_linear_2_321)"/>
<path d="M128.509 13.6485C130.564 13.6485 132.335 13.9912 133.82 14.6765C135.342 15.3617 136.599 16.2755 137.589 17.4176C138.578 18.5597 139.321 19.8732 139.816 21.358C140.311 22.8047 140.558 24.2895 140.558 25.8123C140.558 27.3732 140.311 28.9151 139.816 30.438C139.321 31.9227 138.559 33.2743 137.531 34.4925C136.542 35.6728 135.304 36.6245 133.82 37.3479C132.335 38.0712 130.622 38.4329 128.68 38.4329C127.233 38.4329 125.92 38.1474 124.74 37.5763C123.559 36.9672 122.627 36.2438 121.941 35.4063V38.0332H116.345V37.4621C116.611 37.4621 116.859 37.3479 117.087 37.1195C117.316 36.891 117.506 36.6245 117.658 36.32C117.849 36.0154 117.982 35.6918 118.058 35.3492C118.134 34.9684 118.172 34.6258 118.172 34.3212V5.19672C118.172 4.54951 118.077 3.94037 117.887 3.3693C117.696 2.79823 117.144 2.49366 116.231 2.45559V1.88453L121.941 0.114212V16.4468C122.817 15.5711 123.845 14.8859 125.025 14.3909C126.243 13.896 127.405 13.6485 128.509 13.6485ZM129.08 36.4913C130.45 36.4151 131.63 36.0915 132.62 35.5205C133.61 34.9113 134.429 34.1499 135.076 33.2362C135.761 32.3225 136.256 31.2946 136.561 30.1524C136.903 28.9722 137.075 27.773 137.075 26.5547C137.075 25.1841 136.884 23.8516 136.504 22.5572C136.123 21.2628 135.552 20.1016 134.79 19.0737C134.067 18.0458 133.153 17.2272 132.049 16.6181C130.945 15.9709 129.689 15.6473 128.28 15.6473C127.481 15.6473 126.7 15.8376 125.939 16.2183C125.177 16.561 124.492 17.0369 123.883 17.646C123.312 18.2171 122.836 18.9214 122.455 19.759C122.113 20.5585 121.941 21.4151 121.941 22.3288V29.41C121.941 30.5141 122.151 31.504 122.569 32.3796C122.988 33.2552 123.54 33.9976 124.226 34.6068C124.911 35.2159 125.672 35.6918 126.51 36.0344C127.385 36.339 128.242 36.4913 129.08 36.4913Z" fill="url(#paint2_linear_2_321)"/>
<path d="M154.759 46.1995C154.226 47.7984 153.541 48.8835 152.703 49.4545C151.904 50.0256 151.066 50.3111 150.19 50.3111C149.619 50.3111 149.105 50.235 148.649 50.0827C148.23 49.9304 147.849 49.7401 147.506 49.5117C147.202 49.3213 146.954 49.1309 146.764 48.9406C146.574 48.7502 146.459 48.5979 146.421 48.4837L148.306 43.8581C148.496 44.5434 148.687 45.0573 148.877 45.4C149.067 45.7807 149.334 46.1233 149.677 46.4279C150.019 46.7324 150.438 46.8847 150.933 46.8847C151.847 46.8847 152.57 46.2185 153.103 44.886L155.901 37.8619L146.707 17.075C146.517 16.6181 146.193 16.1041 145.736 15.5331C145.317 14.9239 144.727 14.6194 143.966 14.6194V14.0483H151.504V14.6194C151.352 14.6194 151.161 14.7526 150.933 15.0191C150.704 15.2856 150.59 15.6282 150.59 16.047C150.59 16.3897 150.666 16.6942 150.819 16.9607L157.843 33.122L164.581 16.6181C164.696 16.3516 164.753 16.1041 164.753 15.8757C164.753 15.495 164.619 15.1904 164.353 14.962C164.125 14.7336 163.877 14.6194 163.611 14.6194V14.0483H169.15V14.6194C168.541 14.6194 168.008 14.8859 167.551 15.4189C167.132 15.9138 166.79 16.4848 166.523 17.1321L154.759 46.1995Z" fill="url(#paint3_linear_2_321)"/>
<path d="M172.898 38.0332V37.4621C173.203 37.4621 173.469 37.3479 173.698 37.1195C173.926 36.891 174.116 36.6245 174.269 36.32C174.459 36.0154 174.592 35.6918 174.668 35.3492C174.744 34.9684 174.783 34.6258 174.783 34.3212V5.08251C174.783 4.4353 174.687 3.82616 174.497 3.25509C174.307 2.68402 173.736 2.37945 172.784 2.34138V1.77031L178.552 0V34.3212C178.552 34.6258 178.59 34.9684 178.666 35.3492C178.742 35.6918 178.856 36.0154 179.008 36.32C179.199 36.6245 179.389 36.891 179.58 37.1195C179.808 37.3479 180.074 37.4621 180.379 37.4621V38.0332H172.898Z" fill="url(#paint4_linear_2_321)"/>
<path d="M197.879 38.4329C195.976 38.4329 194.262 38.1283 192.74 37.5192C191.217 36.872 189.903 36.0154 188.799 34.9494C187.733 33.8453 186.896 32.5509 186.286 31.0661C185.715 29.5814 185.43 27.9633 185.43 26.2121C185.43 24.3466 185.753 22.6524 186.401 21.1295C187.048 19.5686 187.943 18.2361 189.085 17.1321C190.227 16.028 191.578 15.1714 193.139 14.5623C194.7 13.9531 196.394 13.6485 198.222 13.6485C200.049 13.6485 201.724 13.9531 203.247 14.5623C204.77 15.1333 206.084 15.9518 207.188 17.0178C208.292 18.0838 209.148 19.3592 209.757 20.844C210.367 22.2907 210.671 23.8897 210.671 25.641C210.671 27.278 210.386 28.877 209.814 30.438C209.281 31.9608 208.463 33.3123 207.359 34.4925C206.293 35.6728 204.96 36.6245 203.361 37.3479C201.801 38.0712 199.973 38.4329 197.879 38.4329ZM197.537 15.5331C196.166 15.6092 194.948 15.9518 193.882 16.561C192.854 17.1321 191.978 17.8935 191.255 18.8453C190.569 19.759 190.036 20.8059 189.656 21.9861C189.313 23.1664 189.142 24.3656 189.142 25.5839C189.142 26.9925 189.351 28.3631 189.77 29.6956C190.227 30.99 190.855 32.1512 191.655 33.1791C192.492 34.207 193.482 35.0255 194.624 35.6347C195.766 36.2438 197.042 36.5484 198.45 36.5484C199.859 36.5484 201.096 36.2438 202.162 35.6347C203.266 35.0255 204.18 34.2451 204.903 33.2933C205.627 32.3035 206.16 31.1994 206.502 29.9811C206.883 28.7628 207.073 27.5445 207.073 26.3263C207.073 25.0699 206.883 23.8136 206.502 22.5572C206.122 21.2628 205.531 20.1016 204.732 19.0737C203.932 18.0077 202.924 17.1511 201.705 16.5039C200.525 15.8567 199.136 15.5331 197.537 15.5331Z" fill="url(#paint5_linear_2_321)"/>
<path d="M238.736 34.3212C238.736 34.6258 238.774 34.9684 238.85 35.3492C238.926 35.6918 239.04 36.0154 239.192 36.32C239.383 36.6245 239.573 36.891 239.763 37.1195C239.992 37.3479 240.258 37.4621 240.563 37.4621V38.0332H233.196V37.4621C233.463 37.4621 233.71 37.3479 233.939 37.1195C234.167 36.891 234.357 36.6245 234.51 36.32C234.7 36.0154 234.833 35.6918 234.909 35.3492C234.986 34.9684 235.024 34.6258 235.024 34.3212V23.6993C235.024 22.3288 234.833 21.1295 234.453 20.1016C234.072 19.0737 233.558 18.2171 232.911 17.5318C232.263 16.8465 231.521 16.3516 230.683 16.047C229.884 15.7044 229.065 15.5331 228.228 15.5331C227.39 15.5331 226.553 15.7044 225.715 16.047C224.916 16.3897 224.192 16.8465 223.545 17.4176C222.936 17.9506 222.422 18.5978 222.003 19.3592C221.623 20.0826 221.432 20.844 221.432 21.6435V34.3212C221.432 34.6258 221.47 34.9684 221.546 35.3492C221.623 35.6918 221.737 36.0154 221.889 36.32C222.079 36.6245 222.27 36.891 222.46 37.1195C222.689 37.3479 222.955 37.4621 223.26 37.4621V38.0332H215.836V37.4621C216.102 37.4621 216.35 37.3479 216.578 37.1195C216.807 36.891 216.997 36.6245 217.149 36.32C217.34 36.0154 217.473 35.6918 217.549 35.3492C217.625 34.9684 217.663 34.6258 217.663 34.3212V18.5597C217.663 17.9125 217.568 17.3034 217.378 16.7323C217.187 16.1232 216.635 15.7996 215.721 15.7615V15.2475L221.432 13.4201V16.561C221.699 16.2564 222.041 15.9328 222.46 15.5902C222.879 15.2095 223.374 14.8668 223.945 14.5623C224.554 14.2196 225.239 13.9531 226.001 13.7628C226.8 13.5343 227.733 13.4201 228.799 13.4201C230.588 13.4201 232.111 13.7247 233.368 14.3338C234.624 14.943 235.652 15.7425 236.451 16.7323C237.251 17.6841 237.822 18.7501 238.164 19.9303C238.545 21.0724 238.736 22.1955 238.736 23.2996V34.3212Z" fill="url(#paint6_linear_2_321)"/>
</g>
<g id="Tower">
<path d="M32.0369 111.877H32.5912V112.986H16.8499V111.877H17.4042C17.9954 111.877 18.5127 111.656 18.9561 111.212C19.3995 110.769 19.7691 110.252 20.0647 109.66C20.4342 109.069 20.6928 108.441 20.8406 107.776C20.9885 107.037 21.0624 106.372 21.0624 105.78V43.9236H8.20323C7.02079 43.9236 5.98614 44.1823 5.09931 44.6996C4.21247 45.2169 3.47344 45.8821 2.88222 46.695C2.29099 47.434 1.84757 48.2839 1.55196 49.2446C1.25635 50.1315 1.10855 51.0183 1.10855 51.9052H0V39.822H49.7737V51.9052H48.6651C48.6651 51.0183 48.5173 50.1315 48.2217 49.2446C47.9261 48.2839 47.4827 47.434 46.8915 46.695C46.3002 45.8821 45.5612 45.2169 44.6744 44.6996C43.7875 44.1823 42.7529 43.9236 41.5704 43.9236H28.4896V105.78C28.4896 106.372 28.5635 107.037 28.7113 107.776C28.8591 108.441 29.0808 109.069 29.3764 109.66C29.746 110.252 30.1155 110.769 30.485 111.212C30.9284 111.656 31.4457 111.877 32.0369 111.877Z" fill="url(#paint7_linear_2_321)"/>
<path d="M69.9232 113.762C66.2281 113.762 62.9024 113.171 59.9463 111.988C56.9902 110.732 54.4405 109.069 52.2973 107C50.2281 104.857 48.6022 102.344 47.4197 99.4617C46.3112 96.5795 45.7569 93.4386 45.7569 90.0391C45.7569 86.4179 46.3851 83.1292 47.6414 80.1731C48.8978 77.143 50.6345 74.5564 52.8516 72.4132C55.0687 70.2701 57.6923 68.6072 60.7223 67.4248C63.7523 66.2423 67.041 65.6511 70.5883 65.6511C74.1357 65.6511 77.3874 66.2423 80.3435 67.4248C83.2996 68.5333 85.8493 70.1222 87.9925 72.1915C90.1357 74.2608 91.7985 76.7366 92.9809 79.6188C94.1634 82.4271 94.7546 85.531 94.7546 88.9306C94.7546 92.1084 94.2003 95.2123 93.0918 98.2423C92.0572 101.198 90.4682 103.822 88.3251 106.113C86.2558 108.404 83.6692 110.252 80.5652 111.656C77.5352 113.06 73.9879 113.762 69.9232 113.762ZM69.2581 69.3093C66.5976 69.4571 64.2327 70.1222 62.1634 71.3047C60.168 72.4132 58.4682 73.8913 57.0641 75.7389C55.7338 77.5126 54.6992 79.5449 53.9602 81.8359C53.295 84.1269 52.9625 86.4548 52.9625 88.8197C52.9625 91.5541 53.3689 94.2146 54.1819 96.8012C55.0687 99.3139 56.2881 101.568 57.8401 103.563C59.4659 105.559 61.3874 107.148 63.6045 108.33C65.8216 109.513 68.2973 110.104 71.0317 110.104C73.7662 110.104 76.168 109.513 78.2373 108.33C80.3805 107.148 82.1542 105.633 83.5583 103.785C84.9625 101.864 85.9971 99.7204 86.6622 97.3555C87.4013 94.9906 87.7708 92.6257 87.7708 90.2608C87.7708 87.822 87.4013 85.3832 86.6622 82.9444C85.9232 80.4317 84.7777 78.1777 83.2257 76.1823C81.6738 74.113 79.7153 72.4502 77.3505 71.1938C75.0595 69.9375 72.362 69.3093 69.2581 69.3093Z" fill="url(#paint8_linear_2_321)"/>
<path d="M172.623 67.5356C171.293 67.5356 170.258 67.9052 169.519 68.6442C168.854 69.3832 168.226 70.4918 167.635 71.9698L150.895 113.873L136.595 78.8428L122.406 113.762L105.999 73.1892C105.482 71.9329 104.817 70.6765 104.004 69.4202C103.265 68.1638 102.267 67.5356 101.011 67.5356V66.4271H116.198V67.5356C115.681 67.5356 115.016 67.7943 114.203 68.3116C113.464 68.755 113.094 69.531 113.094 70.6396C113.094 70.7874 113.131 71.1199 113.205 71.6373C113.353 72.0807 113.501 72.4871 113.648 72.8567L124.512 99.6835L138.48 65.2077L152.558 99.6835L163.533 72.4132C163.902 71.3047 164.087 70.5287 164.087 70.0853C164.087 69.4941 163.902 68.9398 163.533 68.4225C163.163 67.9052 162.535 67.6095 161.648 67.5356V66.4271H172.623V67.5356Z" fill="url(#paint9_linear_2_321)"/>
<path d="M185.463 90.5934C185.759 93.18 186.387 95.6557 187.348 98.0206C188.308 100.312 189.565 102.344 191.117 104.118C192.742 105.891 194.701 107.332 196.992 108.441C199.283 109.476 201.943 109.993 204.973 109.993C206.599 109.993 208.299 109.771 210.073 109.328C211.92 108.81 213.62 108.108 215.172 107.222C216.724 106.335 218.091 105.263 219.274 104.007C220.53 102.677 221.38 101.198 221.823 99.5726H222.821V107.887C222.378 107.887 221.86 108.034 221.269 108.33C220.752 108.626 220.124 108.995 219.385 109.439C217.906 110.325 215.911 111.286 213.398 112.321C210.886 113.282 207.56 113.762 203.421 113.762C200.096 113.762 196.918 113.282 193.888 112.321C190.932 111.36 188.308 109.882 186.017 107.887C183.726 105.891 181.879 103.342 180.475 100.238C179.144 97.1338 178.479 93.4386 178.479 89.1523C178.479 86.4179 178.923 83.6465 179.809 80.8382C180.77 78.0299 182.174 75.5172 184.022 73.3001C185.943 71.0091 188.382 69.1615 191.338 67.7574C194.294 66.3532 197.842 65.6511 201.98 65.6511C205.675 65.6511 208.89 66.2793 211.625 67.5356C214.433 68.792 216.724 70.5287 218.498 72.7458C220.345 74.9629 221.712 77.5865 222.599 80.6165C223.486 83.6465 223.93 86.9721 223.93 90.5934H185.463ZM201.537 69.3093C198.95 69.3093 196.696 69.8266 194.775 70.8613C192.927 71.8959 191.338 73.2262 190.008 74.852C188.678 76.4779 187.643 78.3255 186.904 80.3948C186.165 82.4641 185.685 84.5333 185.463 86.6026H217.057C216.983 84.4594 216.576 82.3532 215.837 80.2839C215.172 78.2146 214.211 76.3671 212.955 74.7412C211.699 73.1153 210.11 71.822 208.188 70.8613C206.267 69.8266 204.05 69.3093 201.537 69.3093Z" fill="url(#paint10_linear_2_321)"/>
<path d="M260.218 74.5195C259.331 73.0414 258.407 72.1176 257.447 71.7481C256.486 71.3786 255.377 71.1938 254.121 71.1938C253.308 71.1938 252.421 71.3786 251.46 71.7481C250.574 72.1176 249.687 72.598 248.8 73.1892C247.913 73.7804 247.026 74.4456 246.139 75.1846C245.327 75.8497 244.624 76.4779 244.033 77.0691V105.891C244.033 106.483 244.107 107.111 244.255 107.776C244.403 108.441 244.624 109.106 244.92 109.771C245.29 110.362 245.659 110.88 246.029 111.323C246.472 111.693 246.989 111.877 247.581 111.877V112.986H233.169V111.877C233.687 111.877 234.167 111.693 234.611 111.323C235.054 110.88 235.423 110.362 235.719 109.771C236.089 109.106 236.347 108.441 236.495 107.776C236.643 107.111 236.717 106.483 236.717 105.891V74.9629C236.717 73.9283 236.384 72.8936 235.719 71.859C235.054 70.8243 234.093 70.1592 232.837 69.8636V68.9768L244.033 65.6511V72.3024C244.698 71.4895 245.4 70.7135 246.139 69.9744C246.878 69.1615 247.691 68.4594 248.578 67.8682C249.539 67.2031 250.574 66.6858 251.682 66.3162C252.791 65.8728 254.084 65.6511 255.562 65.6511C256.597 65.6511 257.927 65.8728 259.553 66.3162C261.179 66.7597 262.509 67.24 263.544 67.7574L260.218 74.5195Z" fill="url(#paint11_linear_2_321)"/>
</g>
<path id="Rectangle 1" d="M0.408569 132.188H263.377V135H0.408569V132.188Z" fill="url(#paint12_linear_2_321)"/>
</g>
<defs>
<linearGradient id="paint0_linear_2_321" x1="151.348" y1="-0.555937" x2="151.348" y2="50.3112" gradientUnits="userSpaceOnUse">
<stop stop-color="#EEC800"/>
<stop offset="0.1622" stop-color="#C3A400" stop-opacity="0.657798"/>
<stop offset="0.3126" stop-color="#BE9F00" stop-opacity="0.677083"/>
<stop offset="0.3127" stop-color="#C0A200" stop-opacity="0.667193"/>
<stop offset="0.361624" stop-color="#BB9D00" stop-opacity="0.6875"/>
<stop offset="0.514124" stop-color="#C2A300" stop-opacity="0.661398"/>
<stop offset="0.67249" stop-color="#FFD600" stop-opacity="0.4375"/>
<stop offset="1" stop-color="#4A3E00" stop-opacity="0.4"/>
</linearGradient>
<linearGradient id="paint1_linear_2_321" x1="151.348" y1="-0.555937" x2="151.348" y2="50.3112" gradientUnits="userSpaceOnUse">
<stop stop-color="#EEC800"/>
<stop offset="0.1622" stop-color="#C3A400" stop-opacity="0.657798"/>
<stop offset="0.3126" stop-color="#BE9F00" stop-opacity="0.677083"/>
<stop offset="0.3127" stop-color="#C0A200" stop-opacity="0.667193"/>
<stop offset="0.361624" stop-color="#BB9D00" stop-opacity="0.6875"/>
<stop offset="0.514124" stop-color="#C2A300" stop-opacity="0.661398"/>
<stop offset="0.67249" stop-color="#FFD600" stop-opacity="0.4375"/>
<stop offset="1" stop-color="#4A3E00" stop-opacity="0.4"/>
</linearGradient>
<linearGradient id="paint2_linear_2_321" x1="151.348" y1="-0.555937" x2="151.348" y2="50.3112" gradientUnits="userSpaceOnUse">
<stop stop-color="#EEC800"/>
<stop offset="0.1622" stop-color="#C3A400" stop-opacity="0.657798"/>
<stop offset="0.3126" stop-color="#BE9F00" stop-opacity="0.677083"/>
<stop offset="0.3127" stop-color="#C0A200" stop-opacity="0.667193"/>
<stop offset="0.361624" stop-color="#BB9D00" stop-opacity="0.6875"/>
<stop offset="0.514124" stop-color="#C2A300" stop-opacity="0.661398"/>
<stop offset="0.67249" stop-color="#FFD600" stop-opacity="0.4375"/>
<stop offset="1" stop-color="#4A3E00" stop-opacity="0.4"/>
</linearGradient>
<linearGradient id="paint3_linear_2_321" x1="151.348" y1="-0.555937" x2="151.348" y2="50.3112" gradientUnits="userSpaceOnUse">
<stop stop-color="#EEC800"/>
<stop offset="0.1622" stop-color="#C3A400" stop-opacity="0.657798"/>
<stop offset="0.3126" stop-color="#BE9F00" stop-opacity="0.677083"/>
<stop offset="0.3127" stop-color="#C0A200" stop-opacity="0.667193"/>
<stop offset="0.361624" stop-color="#BB9D00" stop-opacity="0.6875"/>
<stop offset="0.514124" stop-color="#C2A300" stop-opacity="0.661398"/>
<stop offset="0.67249" stop-color="#FFD600" stop-opacity="0.4375"/>
<stop offset="1" stop-color="#4A3E00" stop-opacity="0.4"/>
</linearGradient>
<linearGradient id="paint4_linear_2_321" x1="151.348" y1="-0.555937" x2="151.348" y2="50.3112" gradientUnits="userSpaceOnUse">
<stop stop-color="#EEC800"/>
<stop offset="0.1622" stop-color="#C3A400" stop-opacity="0.657798"/>
<stop offset="0.3126" stop-color="#BE9F00" stop-opacity="0.677083"/>
<stop offset="0.3127" stop-color="#C0A200" stop-opacity="0.667193"/>
<stop offset="0.361624" stop-color="#BB9D00" stop-opacity="0.6875"/>
<stop offset="0.514124" stop-color="#C2A300" stop-opacity="0.661398"/>
<stop offset="0.67249" stop-color="#FFD600" stop-opacity="0.4375"/>
<stop offset="1" stop-color="#4A3E00" stop-opacity="0.4"/>
</linearGradient>
<linearGradient id="paint5_linear_2_321" x1="151.348" y1="-0.555937" x2="151.348" y2="50.3112" gradientUnits="userSpaceOnUse">
<stop stop-color="#EEC800"/>
<stop offset="0.1622" stop-color="#C3A400" stop-opacity="0.657798"/>
<stop offset="0.3126" stop-color="#BE9F00" stop-opacity="0.677083"/>
<stop offset="0.3127" stop-color="#C0A200" stop-opacity="0.667193"/>
<stop offset="0.361624" stop-color="#BB9D00" stop-opacity="0.6875"/>
<stop offset="0.514124" stop-color="#C2A300" stop-opacity="0.661398"/>
<stop offset="0.67249" stop-color="#FFD600" stop-opacity="0.4375"/>
<stop offset="1" stop-color="#4A3E00" stop-opacity="0.4"/>
</linearGradient>
<linearGradient id="paint6_linear_2_321" x1="151.348" y1="-0.555937" x2="151.348" y2="50.3112" gradientUnits="userSpaceOnUse">
<stop stop-color="#EEC800"/>
<stop offset="0.1622" stop-color="#C3A400" stop-opacity="0.657798"/>
<stop offset="0.3126" stop-color="#BE9F00" stop-opacity="0.677083"/>
<stop offset="0.3127" stop-color="#C0A200" stop-opacity="0.667193"/>
<stop offset="0.361624" stop-color="#BB9D00" stop-opacity="0.6875"/>
<stop offset="0.514124" stop-color="#C2A300" stop-opacity="0.661398"/>
<stop offset="0.67249" stop-color="#FFD600" stop-opacity="0.4375"/>
<stop offset="1" stop-color="#4A3E00" stop-opacity="0.4"/>
</linearGradient>
<linearGradient id="paint7_linear_2_321" x1="131.772" y1="39.0038" x2="131.772" y2="113.873" gradientUnits="userSpaceOnUse">
<stop stop-color="#EEC800"/>
<stop offset="0.1622" stop-color="#C3A400" stop-opacity="0.657798"/>
<stop offset="0.3126" stop-color="#BE9F00" stop-opacity="0.677083"/>
<stop offset="0.3127" stop-color="#C0A200" stop-opacity="0.667193"/>
<stop offset="0.361624" stop-color="#BB9D00" stop-opacity="0.6875"/>
<stop offset="0.514124" stop-color="#C2A300" stop-opacity="0.661398"/>
<stop offset="0.67249" stop-color="#FFD600" stop-opacity="0.4375"/>
<stop offset="1" stop-color="#4A3E00" stop-opacity="0.4"/>
</linearGradient>
<linearGradient id="paint8_linear_2_321" x1="131.772" y1="39.0038" x2="131.772" y2="113.873" gradientUnits="userSpaceOnUse">
<stop stop-color="#EEC800"/>
<stop offset="0.1622" stop-color="#C3A400" stop-opacity="0.657798"/>
<stop offset="0.3126" stop-color="#BE9F00" stop-opacity="0.677083"/>
<stop offset="0.3127" stop-color="#C0A200" stop-opacity="0.667193"/>
<stop offset="0.361624" stop-color="#BB9D00" stop-opacity="0.6875"/>
<stop offset="0.514124" stop-color="#C2A300" stop-opacity="0.661398"/>
<stop offset="0.67249" stop-color="#FFD600" stop-opacity="0.4375"/>
<stop offset="1" stop-color="#4A3E00" stop-opacity="0.4"/>
</linearGradient>
<linearGradient id="paint9_linear_2_321" x1="131.772" y1="39.0038" x2="131.772" y2="113.873" gradientUnits="userSpaceOnUse">
<stop stop-color="#EEC800"/>
<stop offset="0.1622" stop-color="#C3A400" stop-opacity="0.657798"/>
<stop offset="0.3126" stop-color="#BE9F00" stop-opacity="0.677083"/>
<stop offset="0.3127" stop-color="#C0A200" stop-opacity="0.667193"/>
<stop offset="0.361624" stop-color="#BB9D00" stop-opacity="0.6875"/>
<stop offset="0.514124" stop-color="#C2A300" stop-opacity="0.661398"/>
<stop offset="0.67249" stop-color="#FFD600" stop-opacity="0.4375"/>
<stop offset="1" stop-color="#4A3E00" stop-opacity="0.4"/>
</linearGradient>
<linearGradient id="paint10_linear_2_321" x1="131.772" y1="39.0038" x2="131.772" y2="113.873" gradientUnits="userSpaceOnUse">
<stop stop-color="#EEC800"/>
<stop offset="0.1622" stop-color="#C3A400" stop-opacity="0.657798"/>
<stop offset="0.3126" stop-color="#BE9F00" stop-opacity="0.677083"/>
<stop offset="0.3127" stop-color="#C0A200" stop-opacity="0.667193"/>
<stop offset="0.361624" stop-color="#BB9D00" stop-opacity="0.6875"/>
<stop offset="0.514124" stop-color="#C2A300" stop-opacity="0.661398"/>
<stop offset="0.67249" stop-color="#FFD600" stop-opacity="0.4375"/>
<stop offset="1" stop-color="#4A3E00" stop-opacity="0.4"/>
</linearGradient>
<linearGradient id="paint11_linear_2_321" x1="131.772" y1="39.0038" x2="131.772" y2="113.873" gradientUnits="userSpaceOnUse">
<stop stop-color="#EEC800"/>
<stop offset="0.1622" stop-color="#C3A400" stop-opacity="0.657798"/>
<stop offset="0.3126" stop-color="#BE9F00" stop-opacity="0.677083"/>
<stop offset="0.3127" stop-color="#C0A200" stop-opacity="0.667193"/>
<stop offset="0.361624" stop-color="#BB9D00" stop-opacity="0.6875"/>
<stop offset="0.514124" stop-color="#C2A300" stop-opacity="0.661398"/>
<stop offset="0.67249" stop-color="#FFD600" stop-opacity="0.4375"/>
<stop offset="1" stop-color="#4A3E00" stop-opacity="0.4"/>
</linearGradient>
<linearGradient id="paint12_linear_2_321" x1="131.893" y1="132.156" x2="131.893" y2="135" gradientUnits="userSpaceOnUse">
<stop stop-color="#EEC800"/>
<stop offset="1" stop-color="#4A3E00" stop-opacity="0.4"/>
</linearGradient>
</defs>
</svg>
