<svg width="504" height="641" viewBox="0 0 504 641" fill="none" xmlns="http://www.w3.org/2000/svg">
<g id="&#208;&#161;&#208;&#187;&#208;&#190;&#208;&#185;_x0020_1">
<g id="_1987639330272">
<path id="Vector" d="M444.143 563.721H442.811C441.895 542.158 440.931 514.031 440.201 479.28C440.076 473.424 439.953 467.091 439.842 460.696C439.822 459.651 439.792 457.716 439.755 455.451C439.667 449.952 439.554 442.356 439.516 439.665C438.397 356.787 438.944 264.409 441.197 164.945L441.488 152.501C441.541 150.197 441.599 147.885 441.659 145.564C441.772 140.994 441.895 136.11 442.015 131.507C442.52 112.179 443.092 92.5431 443.719 72.7025H445.064C444.213 99.4576 443.473 125.859 442.853 151.662L442.565 164.171C440.299 263.645 439.732 356.549 440.874 440.31C440.924 443.977 441.142 458.07 441.2 461.45C441.95 504.381 443.077 538.438 444.146 563.725L444.143 563.721ZM62.6648 563.721H61.3424C63.4025 514.771 65.6783 432.873 65.1037 317.036L65.0309 304.352C64.5492 231.427 63.006 153.745 60.4291 72.6992H61.774C64.3585 154.009 65.8966 231.662 66.3734 304.332L66.4461 317.02C67.0232 433.283 64.7148 515.158 62.6648 563.718V563.721Z" fill="#CDAB72"/>
<path id="Vector_2" d="M442.813 563.722H441.478C440.557 542.095 439.579 513.69 438.839 478.433C438.718 472.739 438.6 466.304 438.487 459.942C438.47 458.844 438.44 456.929 438.405 454.724C438.322 449.274 438.204 441.811 438.169 439.02C437.067 357.025 437.597 265.17 439.842 165.715L440.128 153.342C440.181 151.05 440.239 148.745 440.294 146.444C440.407 141.996 440.532 136.933 440.648 132.456C441.16 112.83 441.734 92.8839 442.379 72.7026H443.722C443.094 92.5433 442.522 112.179 442.018 131.507C441.897 136.11 441.774 140.997 441.662 145.564C441.601 147.885 441.546 150.197 441.491 152.502L441.2 164.945C438.949 264.409 438.4 356.787 439.519 439.665C439.559 442.356 439.672 449.955 439.757 455.451C439.795 457.713 439.822 459.648 439.845 460.696C439.955 467.091 440.078 473.424 440.204 479.28C440.934 514.031 441.897 542.158 442.813 563.722V563.722ZM63.9896 563.722H62.6648C64.7173 515.162 67.0232 433.286 66.4461 317.023L66.3733 304.335C65.8941 231.666 64.356 154.009 61.774 72.7026H63.1189C65.7109 154.274 67.244 231.91 67.7208 304.319L67.791 317.013C68.3707 433.67 66.0296 515.545 63.9871 563.725L63.9896 563.722Z" fill="#CDAB72"/>
<path id="Vector_3" d="M441.476 563.721H440.143C439.213 542.039 438.219 513.353 437.476 477.58C437.358 472.061 437.233 465.517 437.127 459.194C437.107 458.044 437.077 456.139 437.045 454.003C436.959 448.59 436.851 441.278 436.811 438.378C435.73 357.27 436.237 265.934 438.475 166.489C438.485 165.963 438.743 154.714 438.758 154.181C438.811 151.896 438.869 149.611 438.924 147.313C439.029 142.995 439.162 137.757 439.275 133.402C439.79 113.482 440.377 93.2177 441.029 72.6992H442.374C441.729 92.8804 441.155 112.827 440.643 132.453C440.527 136.93 440.402 141.993 440.289 146.44C440.231 148.742 440.176 151.043 440.123 153.338L439.837 165.712C437.592 265.17 437.062 357.022 438.164 439.017C438.201 441.811 438.317 449.271 438.4 454.72C438.435 456.926 438.465 458.841 438.482 459.938C438.595 466.304 438.716 472.736 438.834 478.43C439.574 513.687 440.553 542.092 441.473 563.718L441.476 563.721ZM65.3145 563.721H63.9871C66.0296 515.542 68.3707 433.666 67.7911 317.01L67.7208 304.315C67.2441 231.907 65.711 154.271 63.119 72.6992H64.4639C67.0634 154.552 68.589 232.152 69.0658 304.302L69.1385 317C69.7181 434.043 67.3495 515.909 65.317 563.721H65.3145Z" fill="#CDAB72"/>
<path id="Vector_4" d="M440.146 563.721H438.814C437.878 541.983 436.866 513.015 436.116 476.734C436.003 471.373 435.88 464.737 435.775 458.437C435.755 457.243 435.725 455.349 435.692 453.279C435.609 447.908 435.504 440.739 435.461 437.737C434.4 357.505 434.887 266.691 437.115 167.26C437.127 166.559 437.381 155.729 437.393 155.021C437.446 152.75 437.504 150.474 437.559 148.189C437.662 143.993 437.795 138.583 437.908 134.351C438.43 114.143 439.024 93.5616 439.684 72.7025H441.029C440.377 93.221 439.79 113.485 439.275 133.405C439.162 137.76 439.029 142.995 438.924 147.316C438.866 149.615 438.811 151.9 438.758 154.185C438.743 154.717 438.485 165.967 438.475 166.492C436.237 265.934 435.727 357.273 436.811 438.382C436.851 441.285 436.959 448.593 437.045 454.006C437.08 456.142 437.107 458.047 437.127 459.198C437.233 465.524 437.361 472.068 437.476 477.583C438.219 513.356 439.213 542.042 440.144 563.725L440.146 563.721ZM66.6444 563.721H65.317C67.3494 515.909 69.7181 434.043 69.1385 317L69.0657 304.302C68.589 232.152 67.0659 154.552 64.4639 72.6992H65.8063C68.4159 154.823 69.9339 232.41 70.4082 304.286C70.4082 304.659 70.4759 316.55 70.4809 316.987C71.0656 434.404 68.6668 516.259 66.6444 563.721Z" fill="#CBAB70"/>
<path id="Vector_5" d="M438.814 563.721H437.479C436.538 541.927 435.512 512.681 434.756 475.887C434.646 470.695 434.523 463.953 434.418 457.687C434.397 456.443 434.367 454.562 434.335 452.551C434.254 447.227 434.152 440.204 434.111 437.092C433.065 357.743 433.537 267.455 435.755 168.03C435.772 167.154 436.013 156.747 436.033 155.855C436.084 153.596 436.139 151.334 436.197 149.062C436.297 144.985 436.432 139.403 436.538 135.296C437.065 114.794 437.669 93.8989 438.344 72.6992H439.687C439.027 93.5583 438.43 114.14 437.91 134.347C437.797 138.58 437.664 143.99 437.562 148.186C437.504 150.471 437.449 152.746 437.396 155.018C437.383 155.726 437.13 166.555 437.117 167.256C434.889 266.691 434.402 357.501 435.464 437.734C435.504 440.736 435.612 447.905 435.695 453.275C435.727 455.345 435.757 457.24 435.777 458.434C435.883 464.733 436.008 471.367 436.119 476.73C436.869 513.012 437.88 541.976 438.816 563.718L438.814 563.721ZM67.9742 563.721H66.6418C68.6643 516.259 71.0631 434.404 70.4784 316.987C70.4759 316.55 70.4081 304.659 70.4056 304.285C69.9314 232.413 68.4133 154.823 65.8038 72.6992H67.1487C69.7658 155.111 71.2788 232.671 71.7506 304.272C71.7506 304.735 71.8183 316.428 71.8233 316.974C72.408 434.738 69.9816 516.587 67.9717 563.721H67.9742Z" fill="#CBA96F"/>
<path id="Vector_6" d="M437.479 563.721H436.139C435.195 541.867 434.156 512.341 433.394 475.037C433.291 470.014 433.163 463.163 433.062 456.939C433.04 455.643 433.012 453.775 432.982 451.83C432.899 446.553 432.796 439.668 432.756 436.451C431.735 357.984 432.182 268.215 434.395 168.807C434.415 167.759 434.648 157.759 434.671 156.698C434.723 154.452 434.776 152.201 434.831 149.939C434.932 145.99 435.07 140.227 435.173 136.249C435.707 115.459 436.319 94.2494 437.002 72.7025H438.347C437.672 93.9022 437.067 114.798 436.54 135.3C436.435 139.407 436.299 144.989 436.199 149.066C436.141 151.338 436.086 153.599 436.036 155.858C436.016 156.751 435.775 167.16 435.757 168.033C433.539 267.455 433.067 357.746 434.114 437.095C434.154 440.207 434.257 447.231 434.337 452.555C434.37 454.565 434.4 456.447 434.42 457.69C434.525 463.953 434.651 470.699 434.759 475.89C435.516 512.688 436.543 541.93 437.481 563.725L437.479 563.721ZM69.309 563.721H67.9766C69.9839 516.587 72.4103 434.738 71.8282 316.974C71.8232 316.428 71.7579 304.735 71.7554 304.272C71.2812 232.671 69.7707 155.114 67.1536 72.6992H68.496C71.1231 155.408 72.6261 232.932 73.0979 304.252C73.1029 304.815 73.1656 316.306 73.1706 316.964C73.7553 435.052 71.3063 516.891 69.309 563.718V563.721Z" fill="#C9A86F"/>
<path id="Vector_7" d="M436.139 563.721H434.804C433.853 541.811 432.801 512 432.034 474.187C431.931 469.33 431.803 462.382 431.702 456.189C431.682 454.839 431.652 452.981 431.622 451.103C431.547 445.868 431.446 439.132 431.404 435.806C430.4 358.222 430.829 268.976 433.03 169.578C433.052 168.354 433.276 158.781 433.301 157.538C433.351 155.302 433.406 153.064 433.461 150.815C433.557 146.989 433.7 141.053 433.8 137.198C434.337 116.117 434.954 94.59 435.652 72.6992H436.997C436.312 94.2461 435.702 115.456 435.168 136.245C435.065 140.223 434.927 145.987 434.826 149.935C434.774 152.194 434.721 154.449 434.666 156.694C434.643 157.759 434.41 167.756 434.39 168.804C432.177 268.212 431.73 357.981 432.751 436.447C432.791 439.665 432.894 446.549 432.977 451.827C433.007 453.771 433.035 455.64 433.057 456.936C433.16 463.159 433.286 470.011 433.389 475.034C434.151 512.338 435.193 541.864 436.134 563.718L436.139 563.721ZM70.6413 563.721H69.3064C71.3013 516.894 73.7527 435.055 73.1681 316.967C73.1631 316.312 73.1004 304.818 73.0953 304.256C72.6236 232.935 71.1206 155.411 68.4935 72.7025H69.8384C72.4756 155.709 73.9711 233.207 74.4403 304.246C74.4453 304.897 74.508 316.19 74.513 316.957C75.1002 435.343 72.6261 517.175 70.6439 563.725L70.6413 563.721Z" fill="#C9A86F"/>
<path id="Vector_8" d="M434.804 563.721H433.464C432.51 541.741 431.442 511.653 430.669 473.344C430.576 468.652 430.445 461.598 430.348 455.438C430.325 454.043 430.297 452.201 430.267 450.382C430.187 445.187 430.094 438.597 430.051 435.167C429.068 358.467 429.477 269.74 431.67 170.351C431.698 168.949 431.908 159.793 431.938 158.378C431.991 156.155 432.044 153.927 432.096 151.688C432.187 147.984 432.335 141.877 432.433 138.147C432.977 116.782 433.602 94.9372 434.31 72.6992H435.654C434.957 94.5867 434.34 116.117 433.803 137.198C433.702 141.053 433.559 146.989 433.464 150.815C433.411 153.064 433.354 155.302 433.303 157.538C433.276 158.781 433.055 168.354 433.032 169.578C430.829 268.976 430.403 358.222 431.406 435.806C431.449 439.132 431.549 445.868 431.625 451.103C431.655 452.981 431.685 454.839 431.705 456.189C431.808 462.382 431.933 469.326 432.036 474.187C432.804 512 433.855 541.811 434.806 563.721H434.804ZM71.9814 563.721H70.6414C72.6262 517.169 75.0978 435.339 74.5106 316.954C74.5056 316.19 74.4429 304.894 74.4379 304.243C73.9686 233.206 72.4732 155.709 69.836 72.6992H71.1809C73.8256 156.013 75.3136 233.484 75.7803 304.223C75.7853 304.967 75.848 316.064 75.8531 316.944C76.4402 435.594 73.9486 517.41 71.9763 563.721H71.9814Z" fill="#C9A76D"/>
<path id="Vector_9" d="M433.466 563.721H432.124C431.168 541.665 430.089 511.299 429.311 472.491C429.218 467.971 429.093 460.811 428.993 454.687C428.97 453.242 428.94 451.41 428.912 449.658C428.837 444.509 428.742 438.064 428.699 434.523C427.733 358.705 428.122 270.504 430.305 171.129C430.34 169.548 430.538 160.818 430.573 159.218C430.624 157.009 430.676 154.79 430.729 152.564C430.817 148.99 430.967 142.697 431.06 139.093C431.607 117.446 432.242 95.2845 432.96 72.6992H434.305C433.597 94.9372 432.972 116.782 432.428 138.147C432.332 141.877 432.182 147.988 432.091 151.688C432.039 153.923 431.986 156.152 431.933 158.378C431.903 159.796 431.69 168.953 431.665 170.351C429.472 269.736 429.065 358.467 430.046 435.167C430.089 438.593 430.182 445.187 430.262 450.382C430.292 452.201 430.32 454.043 430.343 455.438C430.443 461.595 430.571 468.652 430.664 473.344C431.437 511.656 432.508 541.741 433.459 563.721H433.466ZM73.3238 563.721H71.9814C73.9536 517.41 76.4453 435.594 75.8581 316.944C75.8531 316.064 75.7903 304.97 75.7853 304.223C75.3186 233.484 73.8307 156.013 71.186 72.6992H72.5309C75.1856 156.327 76.6661 233.762 77.1303 304.206C77.1378 305.046 77.198 315.945 77.2055 316.931C77.7927 435.802 75.286 517.612 73.3263 563.721H73.3238Z" fill="#C7A66D"/>
<path id="Vector_10" d="M432.124 563.721H430.782C429.821 541.583 428.729 510.932 427.949 471.644C427.858 467.289 427.733 460.028 427.633 453.933C427.61 452.442 427.582 450.62 427.555 448.934C427.479 443.825 427.389 437.522 427.344 433.881C426.401 358.943 426.769 271.267 428.945 171.899C428.983 170.15 429.171 161.833 429.211 160.057C429.261 157.855 429.314 155.656 429.366 153.441C429.449 149.988 429.605 143.524 429.693 140.045C430.247 118.118 430.89 95.6416 431.62 72.7025H432.965C432.247 95.2878 431.612 117.446 431.065 139.096C430.972 142.704 430.819 148.993 430.734 152.568C430.681 154.79 430.629 157.012 430.578 159.221C430.541 160.818 430.343 169.551 430.31 171.132C428.124 270.504 427.735 358.708 428.704 434.526C428.747 438.068 428.839 444.512 428.917 449.661C428.945 451.41 428.975 453.246 428.998 454.691C429.098 460.815 429.223 467.974 429.316 472.494C430.094 511.306 431.173 541.672 432.129 563.725L432.124 563.721ZM74.6662 563.721H73.3213C75.281 517.612 77.7877 435.802 77.2005 316.931C77.1955 315.945 77.1328 305.046 77.1252 304.206C76.661 233.765 75.1806 156.331 72.5259 72.6992H73.8708C76.5356 156.648 78.006 234.056 78.4702 304.193C78.4777 305.122 78.5354 315.823 78.5429 316.917C79.1326 435.964 76.6109 517.761 74.6637 563.721H74.6662Z" fill="#C7A66D"/>
<path id="Vector_11" d="M430.784 563.721H429.439C428.481 541.477 427.374 510.552 426.589 470.795C426.506 466.602 426.375 459.241 426.28 453.183C426.253 451.642 426.227 449.83 426.205 448.206C426.13 443.147 426.042 436.986 425.999 433.236C425.071 359.185 425.419 272.025 427.587 172.673C427.628 170.742 427.806 162.852 427.848 160.894C427.899 158.712 427.951 156.513 428.001 154.317C428.084 150.987 428.242 144.35 428.325 140.994C428.887 118.786 429.535 95.9921 430.275 72.7025H431.62C430.89 95.6416 430.247 118.118 429.693 140.045C429.605 143.524 429.449 149.988 429.366 153.441C429.314 155.656 429.261 157.858 429.211 160.057C429.171 161.83 428.983 170.146 428.945 171.899C426.769 271.267 426.401 358.946 427.344 433.881C427.389 437.522 427.48 443.825 427.555 448.934C427.582 450.62 427.608 452.439 427.633 453.933C427.73 460.031 427.858 467.289 427.949 471.644C428.729 510.932 429.821 541.583 430.782 563.721H430.784ZM76.0162 563.721H74.6688C76.6159 517.761 79.1376 435.964 78.548 316.917C78.5405 315.823 78.4827 305.122 78.4752 304.193C78.011 234.056 76.5406 156.648 73.8759 72.6992H75.2208C77.8981 156.972 79.3584 234.354 79.8201 304.18C79.8277 305.205 79.8854 315.7 79.8929 316.904C80.4851 436.07 77.9558 517.857 76.0187 563.721H76.0162Z" fill="#C4A46B"/>
<path id="Vector_12" d="M429.437 563.721H428.092C427.128 541.354 426.014 510.152 425.226 469.948C425.146 465.927 425.018 458.457 424.92 452.432C424.898 450.842 424.87 449.043 424.847 447.485C424.775 442.469 424.687 436.45 424.644 432.598C423.733 359.419 424.062 272.789 426.22 173.443C426.263 171.343 426.436 163.867 426.478 161.737C426.529 159.561 426.579 157.382 426.631 155.193C426.712 151.986 426.872 145.174 426.953 141.943C427.517 119.45 428.172 96.3459 428.925 72.7025H430.27C429.53 95.9921 428.882 118.786 428.32 140.994C428.237 144.35 428.079 150.987 427.996 154.317C427.946 156.513 427.894 158.712 427.843 160.894C427.801 162.852 427.62 170.742 427.582 172.673C425.415 272.025 425.066 359.185 425.994 433.236C426.037 436.986 426.125 443.147 426.2 448.206C426.222 449.83 426.25 451.642 426.275 453.183C426.371 459.241 426.501 466.602 426.584 470.795C427.369 510.549 428.473 541.477 429.434 563.721H429.437ZM77.3636 563.721H76.0137C77.9508 517.857 80.4801 436.07 79.8879 316.904C79.8829 315.7 79.8226 305.205 79.8151 304.18C79.3534 234.354 77.8931 156.972 75.2158 72.6992H76.5632C79.248 157.31 80.7009 234.658 81.1601 304.163C81.1651 305.281 81.2253 315.581 81.2303 316.894C81.8225 436.103 79.2907 517.886 77.3611 563.721H77.3636Z" fill="#C4A26A"/>
<path id="Vector_13" d="M428.092 563.721H426.742C425.778 541.212 424.652 509.725 423.869 469.098C423.789 465.243 423.663 457.677 423.568 451.678C423.54 450.038 423.515 448.249 423.492 446.761C423.422 441.788 423.339 435.915 423.292 431.95C422.406 359.661 422.715 273.549 424.862 174.217C424.908 171.942 425.068 164.885 425.121 162.574C425.166 160.411 425.216 158.239 425.271 156.066C425.344 152.984 425.512 145.997 425.59 142.892C426.16 120.122 426.822 96.7031 427.587 72.6992H428.932C428.18 96.3426 427.525 119.447 426.96 141.94C426.88 145.17 426.717 151.979 426.639 155.19C426.586 157.376 426.536 159.558 426.486 161.734C426.443 163.867 426.27 171.34 426.227 173.44C424.07 272.789 423.741 359.419 424.652 432.595C424.694 436.447 424.78 442.465 424.855 447.482C424.877 449.039 424.905 450.838 424.928 452.429C425.026 458.454 425.153 465.924 425.234 469.945C426.022 510.152 427.136 541.354 428.099 563.718L428.092 563.721ZM78.7186 563.721H77.3661C79.2957 517.886 81.8275 436.107 81.2353 316.894C81.2278 315.581 81.17 305.278 81.165 304.163C80.7058 234.658 79.253 157.31 76.5682 72.6992H77.9156C80.6105 157.65 82.0533 234.966 82.51 304.143C82.5175 305.357 82.5752 315.456 82.5827 316.881C83.1749 436.077 80.6481 517.847 78.7236 563.718L78.7186 563.721Z" fill="#C4A26A"/>
<path id="Vector_14" d="M80.056 564.188C79.6269 563.88 79.1878 563.725 78.7412 563.725H78.7186C80.6432 517.85 83.1724 436.084 82.5778 316.888C82.5702 315.466 82.5125 305.364 82.505 304.15C82.0483 234.973 80.6055 157.654 77.9106 72.7062H78.7387C78.9118 72.7062 79.0824 72.683 79.2531 72.6367C81.9605 157.968 83.3932 235.274 83.8474 304.14C83.8549 305.44 83.9126 315.344 83.9177 316.881C84.5123 436.365 81.9755 518.28 80.051 564.191L80.056 564.188ZM425.407 564.079C424.433 541.361 423.294 509.481 422.504 468.252C422.431 464.565 422.303 456.89 422.208 450.931C422.185 449.241 422.158 447.469 422.135 446.037C422.065 441.107 421.984 435.379 421.939 431.315C421.069 359.906 421.362 274.317 423.5 174.994C423.55 172.538 423.701 165.904 423.756 163.417C423.806 161.265 423.856 159.105 423.906 156.946C423.977 153.987 424.147 146.821 424.223 143.845C424.797 120.79 425.467 97.0473 426.243 72.6797C426.345 72.6929 426.451 72.7029 426.554 72.7029H427.587C426.822 96.7067 426.16 120.125 425.59 142.896C425.515 145.997 425.344 152.988 425.271 156.07C425.219 158.246 425.169 160.415 425.121 162.578C425.068 164.889 424.908 171.942 424.862 174.221C422.712 273.553 422.403 359.664 423.292 431.954C423.339 435.918 423.422 441.791 423.492 446.765C423.515 448.253 423.543 450.038 423.568 451.682C423.663 457.677 423.791 465.246 423.869 469.102C424.654 509.729 425.778 541.216 426.742 563.725H426.551C426.167 563.725 425.781 563.844 425.404 564.079H425.407Z" fill="#C2A26A"/>
<path id="Vector_15" d="M81.3532 565.586C80.9292 564.971 80.4976 564.502 80.056 564.184C81.978 518.27 84.5173 436.358 83.9227 316.874C83.9176 315.337 83.8599 305.433 83.8524 304.133C83.3982 235.266 81.9655 157.964 79.2581 72.6296C79.7047 72.5072 80.1463 72.2228 80.5779 71.793C83.3129 157.812 84.7432 235.366 85.1973 304.12C85.2049 305.512 85.2601 315.221 85.2701 316.861C85.8673 437.373 83.2903 519.731 81.3558 565.586H81.3532ZM424.107 565.351C423.119 542.346 421.944 509.761 421.144 467.398C421.074 463.88 420.946 456.102 420.853 450.18C420.825 448.437 420.8 446.675 420.78 445.312C420.71 440.425 420.634 434.843 420.587 430.673C419.736 360.143 420.005 275.073 422.137 175.764C422.19 173.139 422.333 166.919 422.391 164.257C422.439 162.117 422.491 159.968 422.541 157.815C422.607 154.981 422.78 147.644 422.855 144.793C423.435 121.249 424.122 96.9542 424.918 71.9781C425.349 72.365 425.796 72.5998 426.243 72.6792C425.47 97.0468 424.797 120.789 424.223 143.844C424.15 146.82 423.977 153.986 423.906 156.946C423.856 159.108 423.806 161.264 423.756 163.417C423.698 165.904 423.55 172.537 423.5 174.994C421.362 274.316 421.069 359.905 421.939 431.315C421.987 435.382 422.065 441.106 422.135 446.037C422.158 447.468 422.185 449.241 422.208 450.931C422.303 456.889 422.431 464.564 422.504 468.251C423.294 509.484 424.433 541.364 425.407 564.078C424.965 564.349 424.534 564.779 424.11 565.351H424.107Z" fill="#C2A269"/>
<path id="Vector_16" d="M82.6179 567.921C82.2064 566.998 81.7848 566.218 81.3532 565.59C83.2878 519.735 85.8648 437.376 85.2676 316.864C85.2575 315.224 85.2023 305.516 85.1948 304.124C84.7406 235.369 83.3104 157.819 80.5754 71.7965C81.0145 71.3534 81.4436 70.7549 81.8651 70.0142C84.6478 157.128 86.0856 235.23 86.5372 304.104C86.5473 305.592 86.6025 315.099 86.61 316.848C87.2172 439.106 84.5675 522.202 82.6179 567.918V567.921ZM422.845 567.551C421.829 544.169 420.607 510.582 419.784 466.559C419.721 463.202 419.588 455.319 419.495 449.43C419.468 447.634 419.445 445.888 419.425 444.592C419.355 439.747 419.282 434.308 419.237 430.025C418.406 360.385 418.655 275.837 420.777 176.538C420.835 173.731 420.966 167.934 421.026 165.097C421.076 162.964 421.124 160.835 421.171 158.688C421.239 155.98 421.415 148.467 421.48 145.739C422.08 121.418 422.792 96.2633 423.618 70.3415C424.039 71.036 424.471 71.5849 424.913 71.9784C424.12 96.9544 423.432 121.249 422.85 144.793C422.777 147.641 422.604 154.982 422.536 157.815C422.486 159.968 422.433 162.118 422.386 164.257C422.328 166.916 422.185 173.136 422.132 175.765C420 275.077 419.731 360.147 420.582 430.674C420.627 434.843 420.705 440.425 420.775 445.313C420.795 446.675 420.823 448.438 420.848 450.18C420.94 456.103 421.071 463.88 421.139 467.399C421.939 509.758 423.111 542.347 424.102 565.352C423.67 565.937 423.249 566.674 422.84 567.547L422.845 567.551Z" fill="#C2A16A"/>
<path id="Vector_17" d="M83.8423 571.195C83.4484 569.961 83.0393 568.867 82.6203 567.921C84.57 522.205 87.2197 439.109 86.6124 316.851C86.6049 315.099 86.5497 305.592 86.5397 304.107C86.0855 235.234 84.6503 157.131 81.8676 70.0174C82.2991 69.2569 82.7182 68.3409 83.1272 67.2827C85.9801 155.884 87.4305 234.863 87.8871 304.09C87.8997 305.674 87.9524 314.983 87.9599 316.845C88.5797 441.599 85.8246 525.737 83.8448 571.198L83.8423 571.195ZM421.623 570.679C420.572 546.854 419.279 511.954 418.421 465.702C418.361 462.521 418.228 454.532 418.14 448.676C418.113 446.837 418.088 445.094 418.07 443.864C418.002 439.063 417.929 433.772 417.879 429.384C417.071 360.62 417.302 276.595 419.415 177.309C419.478 174.329 419.596 168.949 419.661 165.934C419.711 163.817 419.759 161.694 419.809 159.561C419.872 156.976 420.05 149.287 420.115 146.685C420.74 121.289 421.485 94.9604 422.361 67.749C422.77 68.7608 423.191 69.6272 423.623 70.3382C422.797 96.2599 422.085 121.411 421.485 145.736C421.417 148.467 421.242 155.977 421.176 158.685C421.126 160.831 421.081 162.961 421.031 165.094C420.971 167.931 420.838 173.728 420.782 176.535C418.66 275.834 418.411 360.382 419.242 430.022C419.287 434.301 419.362 439.744 419.43 444.588C419.45 445.885 419.473 447.631 419.5 449.426C419.593 455.312 419.726 463.196 419.789 466.555C420.612 510.578 421.834 544.165 422.85 567.547C422.431 568.443 422.024 569.492 421.628 570.676L421.623 570.679Z" fill="#C2A068"/>
<path id="Vector_18" d="M85.0318 575.183H84.9515C84.5952 573.731 84.2238 572.395 83.8399 571.195C85.8196 525.734 88.5722 441.596 87.955 316.842C87.9474 314.983 87.8947 305.671 87.8822 304.087C87.4255 234.86 85.9752 155.881 83.1223 67.2798C83.5438 66.1852 83.9553 64.9287 84.3493 63.5332C87.2951 154.063 88.7654 234.258 89.2271 304.074C89.2397 305.747 89.2924 314.858 89.3024 316.828C89.9372 444.625 87.0542 530.029 85.0343 575.183H85.0318ZM420.439 574.786C419.342 550.472 417.957 513.938 417.059 464.859C417.001 461.84 416.873 453.749 416.78 447.925C416.753 446.037 416.73 444.314 416.713 443.147C416.647 438.389 416.577 433.237 416.527 428.746C415.737 360.865 415.945 277.362 418.05 178.09C418.115 174.935 418.226 169.971 418.296 166.777C418.341 164.677 418.389 162.561 418.439 160.445C418.497 157.984 418.68 150.121 418.74 147.644C419.395 120.876 420.185 93.0329 421.121 64.1681C421.518 65.5107 421.929 66.711 422.353 67.7559C421.478 94.9674 420.732 121.299 420.108 146.692C420.045 149.298 419.867 156.983 419.801 159.568C419.751 161.701 419.704 163.824 419.653 165.941C419.588 168.956 419.47 174.336 419.407 177.316C417.295 276.602 417.066 360.623 417.872 429.391C417.922 433.776 417.995 439.07 418.063 443.871C418.078 445.101 418.105 446.844 418.133 448.683C418.223 454.539 418.356 462.525 418.414 465.709C419.272 511.961 420.564 546.861 421.616 570.686C421.207 571.913 420.813 573.282 420.434 574.793L420.439 574.786Z" fill="#BE9F69"/>
<path id="Vector_19" d="M420.343 575.183H419.094C417.967 550.296 416.59 513.346 415.699 464.009C415.646 461.156 415.511 452.962 415.423 447.178C415.395 445.244 415.37 443.524 415.358 442.423C415.29 437.704 415.227 432.698 415.175 428.108C414.404 361.106 414.592 278.129 416.688 178.86C416.758 175.53 416.858 170.987 416.931 167.617C416.976 165.524 417.026 163.424 417.074 161.318C417.127 158.98 417.315 150.941 417.373 148.59C418.05 120.664 418.878 91.5382 419.869 61.2416H420.338C420.594 62.2799 420.855 63.2554 421.121 64.1648C420.185 93.0296 419.395 120.873 418.74 147.641C418.68 150.118 418.494 157.984 418.439 160.441C418.389 162.561 418.341 164.674 418.296 166.774C418.226 169.968 418.115 174.932 418.05 178.086C415.945 277.359 415.734 360.861 416.527 428.743C416.577 433.233 416.647 438.385 416.713 443.144C416.73 444.311 416.753 446.037 416.78 447.922C416.873 453.749 417.004 461.837 417.059 464.856C417.96 513.935 419.345 550.468 420.439 574.783C420.409 574.915 420.376 575.051 420.343 575.18V575.183ZM86.3968 575.183H85.0318C87.0517 530.029 89.9348 444.625 89.3 316.828C89.2899 314.858 89.2372 305.747 89.2247 304.074C88.7655 234.258 87.2926 154.066 84.3468 63.5332C84.5526 62.8057 84.7533 62.0418 84.949 61.2383H85.6215C88.63 153.14 90.1079 234.047 90.5696 304.054C90.5797 305.823 90.6323 314.735 90.6424 316.812C91.2722 443.752 88.4619 529.166 86.3943 575.18L86.3968 575.183Z" fill="#BE9D67"/>
<path id="Vector_20" d="M419.096 575.183H417.726C416.569 549.608 415.212 512.384 414.336 463.16C414.291 460.471 414.158 452.181 414.068 446.424C414.04 444.437 414.018 442.734 414 441.695C413.937 437.026 413.875 432.159 413.824 427.456C413.074 361.344 413.24 278.883 415.33 179.634C415.403 176.129 415.493 172.005 415.568 168.454C415.613 166.374 415.661 164.287 415.711 162.191C415.762 159.975 415.952 151.761 416.007 149.539C416.687 121.365 417.52 91.9284 418.527 61.2383H419.872C418.878 91.5349 418.052 120.664 417.375 148.587C417.317 150.938 417.129 158.976 417.076 161.314C417.029 163.421 416.978 165.521 416.933 167.614C416.861 170.983 416.76 175.527 416.69 178.857C414.595 278.126 414.404 361.103 415.177 428.104C415.23 432.698 415.292 437.704 415.36 442.42C415.373 443.517 415.4 445.237 415.425 447.175C415.513 452.962 415.649 461.152 415.701 464.006C416.592 513.343 417.97 550.293 419.096 575.18V575.183ZM87.7667 575.183H86.3967C88.4617 529.169 91.2746 443.755 90.6447 316.815C90.6322 314.739 90.582 305.823 90.572 304.058C90.1103 234.05 88.6324 153.143 85.6238 61.2416H86.9713C89.9924 153.577 91.4602 234.434 91.9169 304.041C91.9295 305.906 91.9771 314.619 91.9897 316.805C92.6145 442.73 89.8895 528.151 87.7692 575.186L87.7667 575.183Z" fill="#BE9E66"/>
<path id="Vector_21" d="M417.726 575.183H416.359C415.162 548.812 413.835 511.303 412.976 462.313C412.916 458.904 412.695 444.678 412.645 440.974C412.289 414.755 412.071 385.636 412.071 353.563C412.068 298.757 412.698 235.326 414.341 163.067C414.392 160.974 414.587 152.588 414.638 150.485C415.32 122.07 416.158 92.3285 417.177 61.2383H418.527C417.521 91.9284 416.688 121.362 416.008 149.539C415.955 151.761 415.762 159.978 415.711 162.191C415.661 164.287 415.614 166.377 415.568 168.454C415.493 172.002 415.403 176.125 415.33 179.634C413.24 278.883 413.074 361.344 413.825 427.456C413.875 432.159 413.937 437.026 414 441.695C414.018 442.734 414.04 444.433 414.068 446.424C414.158 452.184 414.291 460.474 414.336 463.16C415.215 512.381 416.572 549.608 417.726 575.183ZM89.1343 575.183H87.7643C89.8846 528.151 92.6121 442.73 91.9848 316.802C91.9722 314.616 91.9245 305.903 91.912 304.038C91.4553 234.43 89.9874 153.573 86.9664 61.2383H88.3138C91.3474 154.016 92.7977 234.83 93.2544 304.025C93.267 305.979 93.3172 314.494 93.3272 316.792C93.3899 329.331 93.42 341.474 93.42 353.219C93.4225 458.345 91.099 531.818 89.1318 575.18L89.1343 575.183Z" fill="#BC9C67"/>
<path id="Vector_22" d="M416.359 575.183C415.162 548.811 413.835 511.303 412.976 462.313C412.916 458.904 387.691 451.913 387.691 451.913C387.691 451.913 412.695 444.678 412.645 440.974C412.289 414.755 412.071 385.635 412.071 353.563C412.071 385.635 412.289 414.755 412.645 440.974C412.695 444.678 412.916 458.904 412.976 462.313C413.835 511.303 415.162 548.811 416.359 575.183ZM93.3322 316.795C93.3222 314.497 93.272 305.979 93.2595 304.028C93.272 305.982 112.585 309.864 112.585 309.864C112.585 309.864 93.3222 314.5 93.3322 316.798V316.795ZM414.341 163.07C414.392 160.977 406.375 156.777 406.375 156.777C406.375 156.777 414.587 152.594 414.638 150.488C414.587 152.594 414.392 160.98 414.341 163.07V163.07Z" fill="#BC9C65"/>
<path id="Vector_23" d="M419.056 622.615C419.056 622.615 414.868 570.424 412.979 462.313C412.919 458.903 387.694 451.913 387.694 451.913C387.694 451.913 412.698 444.678 412.648 440.974C411.682 369.955 411.742 277.61 414.344 163.066C414.394 160.973 406.377 156.774 406.377 156.774C406.377 156.774 414.59 152.591 414.64 150.484C415.706 106.164 417.152 58.6056 419.056 7.76074H86.4393C90.7752 123.283 92.7199 221.848 93.2618 304.024C93.2744 305.978 112.588 309.861 112.588 309.861C112.588 309.861 93.3246 314.497 93.3346 316.795C94.3609 523.908 86.4393 622.618 86.4393 622.618H419.056V622.615Z" fill="#F9EBC2"/>
<path id="Vector_24" d="M415.468 118.035C415.468 118.035 304.406 85.7149 151.264 85.7149C131.233 85.7149 110.462 86.2671 89.1492 87.5204C88.8883 78.8666 88.6122 70.1036 88.3212 61.2349H417.177C416.539 80.6952 415.97 99.6232 415.468 118.035V118.035Z" fill="#B6A785"/>
<g id="Group">
<path id="Vector_25" d="M416.359 569.174H89.1368C89.2121 568.189 89.2899 567.177 89.3677 566.139C89.3677 566.139 171.185 567.594 273.452 567.594C318.784 567.594 368.142 567.306 416.156 566.479C416.226 567.399 416.291 568.298 416.361 569.171L416.359 569.174Z" fill="#B6A785"/>
<path id="Vector_26" d="M437.21 601.809C437.21 593.959 439.361 587.59 457.801 587.59C476.243 587.59 504 593.959 504 601.809C504 609.659 476.243 616.025 457.801 616.025C439.358 616.025 437.21 609.656 437.21 601.809V601.809Z" fill="#753D2E"/>
<path id="Vector_27" d="M504 601.808C504 601.064 503.752 600.337 503.285 599.626C503.767 600.006 504 600.707 504 601.808Z" fill="#947A52"/>
<path id="Vector_28" d="M457.801 616.024C457.766 616.024 457.728 616.024 457.695 616.024C457.984 613.561 458.205 610.968 458.343 608.283C458.724 608.29 459.113 608.29 459.51 608.29C461.008 608.29 462.596 608.247 464.285 608.151C485.61 606.941 497.569 599.252 501.995 599.252C502.537 599.252 502.966 599.368 503.285 599.623C503.749 600.334 504 601.061 504 601.805C504 609.656 476.243 616.021 457.801 616.021V616.024Z" fill="#543229"/>
<path id="Vector_29" d="M68.0342 601.809C68.0342 593.959 65.8889 587.59 47.4437 587.59C28.9986 587.59 1.24689 593.959 1.24689 601.809C1.24689 609.659 28.9986 616.025 47.4437 616.025C65.8889 616.025 68.0342 609.656 68.0342 601.809Z" fill="#9C533D"/>
<path id="Vector_30" d="M7.84127 597.9C8.59905 594.699 36.9655 586.849 52.2114 590.41C52.5627 592.556 41.9814 592.146 29.1619 594.391C15.3438 596.812 7.51006 599.309 7.84127 597.903V597.9Z" fill="#D48167"/>
<path id="Vector_31" d="M1.24463 601.809C1.24463 600.711 1.42529 600.096 1.81924 599.848C1.44286 600.489 1.24463 601.144 1.24463 601.809Z" fill="#947A52"/>
<path id="Vector_32" d="M47.4437 616.024C28.9986 616.024 1.24689 609.656 1.24689 601.809C1.24689 601.144 1.44762 600.489 1.82149 599.848C1.96703 599.758 2.13765 599.715 2.3409 599.715C3.87151 599.715 7.12594 602.169 12.7917 604.619C18.46 607.073 26.5396 609.523 37.7306 609.523C38.8623 609.523 40.0291 609.497 41.2259 609.447C43.296 609.355 45.2131 609.212 46.9896 609.027C47.1301 611.451 47.3358 613.796 47.5968 616.028C47.5441 616.028 47.4914 616.028 47.4387 616.028L47.4437 616.024Z" fill="#734133"/>
<path id="Vector_33" d="M447.505 562.435H426.551V640.002H447.505C453.588 640.002 458.526 622.638 458.526 601.217C458.526 579.792 453.588 562.432 447.505 562.432V562.435Z" fill="#8E4431"/>
<path id="Vector_34" d="M447.531 640.002H447.536H447.531ZM447.56 640.002C447.565 640.002 447.565 640.002 447.565 640.002H447.56ZM447.616 639.998C447.621 639.998 447.621 639.998 447.624 639.998C447.621 639.998 447.621 639.998 447.616 639.998ZM447.648 639.995C447.648 639.995 447.648 639.995 447.653 639.995C447.648 639.995 447.648 639.995 447.648 639.995ZM447.705 639.992H447.709H447.705ZM447.734 639.989H447.739C447.739 639.989 447.739 639.989 447.734 639.989Z" fill="#947A52"/>
<path id="Vector_35" d="M447.505 640.002H426.551C426.561 640.002 426.571 640.002 426.579 640.002C426.581 640.002 426.581 640.002 426.586 640.002C426.594 640.002 426.601 640.002 426.609 640.002C426.614 640.002 426.614 640.002 426.616 640.002C426.624 640.002 426.634 639.999 426.644 639.999C426.652 639.999 426.659 639.999 426.672 639.999H426.674C426.684 639.999 426.694 639.999 426.702 639.995C426.704 639.995 426.704 639.995 426.704 639.995C426.714 639.995 426.722 639.995 426.732 639.995C426.742 639.995 426.752 639.992 426.762 639.992C426.762 639.992 426.762 639.992 426.767 639.992C426.774 639.992 426.782 639.992 426.795 639.989C426.815 639.989 426.835 639.985 426.852 639.985C426.855 639.985 426.855 639.985 426.855 639.985C430.649 639.631 433.966 632.528 435.87 621.96C435.873 621.947 435.878 621.934 435.878 621.92L435.88 621.917C436.427 618.855 436.864 615.505 437.155 611.944H437.153H458.097C456.792 627.879 452.672 639.622 447.751 639.985H447.746C447.739 639.989 447.731 639.989 447.719 639.989H447.714C447.704 639.989 447.699 639.992 447.686 639.992C447.676 639.992 447.666 639.992 447.659 639.992C447.654 639.992 447.654 639.992 447.654 639.992C447.643 639.995 447.638 639.995 447.626 639.995C447.623 639.995 447.623 639.995 447.618 639.995C447.611 639.995 447.603 639.995 447.591 639.995C447.581 639.995 447.573 639.999 447.563 639.999C447.563 639.999 447.563 639.999 447.558 639.999C447.548 639.999 447.543 639.999 447.531 639.999H447.526C447.516 639.999 447.505 639.999 447.498 639.999L447.505 640.002Z" fill="#67382C"/>
<path id="Vector_36" d="M437.572 601.217C437.572 622.635 432.636 640.002 426.551 640.002C420.466 640.002 415.536 622.638 415.536 601.217C415.536 579.792 420.469 562.432 426.551 562.432C432.636 562.432 437.572 579.792 437.572 601.217Z" fill="#D48167"/>
<path id="Vector_37" d="M426.579 640.002C426.581 640.002 426.581 640.002 426.586 640.002C426.581 640.002 426.581 640.002 426.579 640.002ZM426.609 640.002C426.614 640.002 426.614 640.002 426.617 640.002C426.614 640.002 426.614 640.002 426.609 640.002ZM426.672 639.999H426.674H426.672ZM426.702 639.995C426.704 639.995 426.704 639.995 426.704 639.995C426.704 639.995 426.704 639.995 426.702 639.995ZM426.762 639.992C426.762 639.992 426.762 639.992 426.767 639.992C426.762 639.992 426.762 639.992 426.762 639.992ZM426.85 639.985C426.852 639.985 426.852 639.985 426.852 639.985C426.852 639.985 426.852 639.985 426.85 639.985ZM435.868 621.96C435.87 621.947 435.875 621.934 435.875 621.92C435.875 621.934 435.87 621.947 435.868 621.96ZM435.878 621.92C436.425 618.858 436.859 615.509 437.15 611.947H437.153C436.862 615.509 436.425 618.862 435.878 621.92Z" fill="#4D3129"/>
<path id="Vector_38" d="M426.551 640.002C424.25 640.002 422.112 637.512 420.341 633.26H424.963C424.973 633.26 424.983 633.26 424.991 633.26C424.996 633.26 424.998 633.26 425.001 633.26C425.008 633.256 425.013 633.256 425.021 633.256C425.021 633.256 425.026 633.256 425.028 633.256C425.036 633.256 425.046 633.256 425.051 633.256H425.053C425.063 633.256 425.073 633.256 425.081 633.256C425.083 633.256 425.083 633.256 425.083 633.256C425.093 633.256 425.101 633.256 425.111 633.256H425.116C425.126 633.256 425.134 633.256 425.144 633.253C425.144 633.253 425.144 633.253 425.149 633.253C425.164 633.253 425.184 633.25 425.206 633.25C428.885 632.922 432.024 624.913 433.366 613.611C433.371 613.597 433.371 613.584 433.374 613.571C433.374 613.568 433.374 613.564 433.374 613.564C433.416 613.191 433.462 612.814 433.502 612.437L437.153 611.951C436.859 615.512 436.427 618.865 435.88 621.924C435.878 621.924 435.88 621.924 435.878 621.927C435.878 621.94 435.873 621.954 435.87 621.967C433.963 632.535 430.646 639.638 426.855 639.992C426.855 639.992 426.855 639.992 426.852 639.992C426.835 639.992 426.815 639.995 426.795 639.995C426.785 639.999 426.775 639.999 426.767 639.999C426.762 639.999 426.762 639.999 426.762 639.999C426.752 640.002 426.742 640.002 426.732 640.002C426.722 640.002 426.717 640.002 426.704 640.002C426.704 640.002 426.704 640.002 426.702 640.002C426.694 640.005 426.684 640.005 426.674 640.005H426.672C426.662 640.005 426.654 640.005 426.644 640.005C426.634 640.005 426.624 640.009 426.617 640.009C426.614 640.009 426.614 640.009 426.609 640.009C426.601 640.009 426.594 640.009 426.586 640.009C426.581 640.009 426.581 640.009 426.579 640.009C426.571 640.009 426.561 640.009 426.551 640.009V640.002Z" fill="#9C5D4A"/>
<path id="Vector_39" d="M57.792 562.435H78.7438V640.002H57.792C51.7072 640.002 46.7716 622.638 46.7716 601.217C46.7716 579.792 51.7072 562.432 57.792 562.432V562.435Z" fill="#8E4431"/>
<path id="Vector_40" d="M57.7652 640.002C57.7652 640.002 57.7626 640.002 57.7601 640.002C57.7601 640.002 57.7626 640.002 57.7652 640.002ZM57.7348 640.002C57.7322 640.002 57.7322 640.002 57.7297 640.002C57.7322 640.002 57.7322 640.002 57.7348 640.002ZM57.7044 639.999C57.7018 639.999 57.7018 639.999 57.7018 639.999H57.7044ZM57.674 639.999C57.674 639.999 57.6714 639.999 57.6689 639.999C57.6714 639.999 57.6714 639.999 57.674 639.999Z" fill="#947A52"/>
<path id="Vector_41" d="M78.7411 640.002H57.7893C57.7793 640.002 57.7717 640.002 57.7617 640.002C57.7617 640.002 57.7592 640.002 57.7567 640.002C57.7492 640.002 57.7391 640.002 57.7316 640.002C57.7291 640.002 57.7291 640.002 57.7266 640.002C57.7191 640.002 57.709 639.999 57.7015 639.999H57.699C57.6915 639.999 57.6814 639.999 57.6714 639.999C57.6714 639.999 57.6689 639.999 57.6664 639.999C57.6588 639.999 57.6488 639.999 57.6388 639.995C52.6781 639.767 48.5178 627.978 47.203 611.947H68.1473C69.4696 628.147 73.7127 639.999 78.7386 639.999L78.7411 640.002Z" fill="#67382C"/>
<path id="Vector_42" d="M67.7233 601.217C67.7233 622.635 72.6589 640.002 78.7412 640.002C84.826 640.002 89.7591 622.638 89.7591 601.217C89.7591 579.792 84.826 562.432 78.7412 562.432C72.6564 562.432 67.7233 579.792 67.7233 601.217Z" fill="#753D2E"/>
<path id="Vector_43" d="M424.963 569.174H80.5303C75.5019 569.174 71.4244 583.515 71.4244 601.22C71.4244 618.911 75.5019 633.259 80.5303 633.259H424.963C429.991 633.259 434.066 618.911 434.066 601.22C434.066 583.519 429.991 569.174 424.963 569.174Z" fill="#F9EBC2"/>
<path id="Vector_44" d="M425.001 633.259C425.007 633.256 425.012 633.256 425.019 633.256C425.012 633.256 425.007 633.256 425.001 633.259Z" fill="#815042"/>
<path id="Vector_45" d="M80.4958 633.259C80.4889 633.256 80.4844 633.256 80.4775 633.256C80.4844 633.256 80.4889 633.256 80.4958 633.259Z" fill="#5F362B"/>
<path id="Vector_46" d="M425.114 633.253C425.123 633.253 425.13 633.253 425.14 633.25C425.13 633.253 425.125 633.253 425.114 633.253Z" fill="#815042"/>
<path id="Vector_47" d="M80.378 633.253C80.3734 633.253 80.3643 633.253 80.3597 633.25C80.3643 633.253 80.3734 633.253 80.378 633.253Z" fill="#5F362B"/>
<path id="Vector_48" d="M80.3536 633.249C80.3339 633.249 80.3167 633.246 80.2994 633.246C80.3167 633.246 80.3363 633.249 80.3536 633.249Z" fill="#5F362B"/>
<path id="Vector_49" d="M425.201 633.249C428.877 632.922 432.014 624.913 433.361 613.61C432.019 624.91 428.88 632.919 425.201 633.249Z" fill="#815042"/>
<path id="Vector_50" d="M80.2945 633.246C80.2844 633.246 80.2769 633.246 80.2694 633.246C80.2769 633.246 80.2844 633.246 80.2945 633.246ZM80.2644 633.243C77.5946 632.975 75.2108 628.66 73.5949 621.977C75.2108 628.66 77.5921 632.975 80.2644 633.243ZM73.5849 621.937C73.5849 621.93 73.5799 621.92 73.5799 621.917C73.5799 621.924 73.5849 621.93 73.5849 621.937ZM73.5673 621.867C73.5673 621.864 73.5673 621.864 73.5673 621.861V621.867Z" fill="#5F362B"/>
<path id="Vector_51" d="M424.963 633.259H80.5304C80.5203 633.259 80.5128 633.259 80.5028 633.259C80.5003 633.259 80.4977 633.259 80.4952 633.259C80.4877 633.256 80.4827 633.256 80.4752 633.256C80.4727 633.256 80.4701 633.256 80.4676 633.256C80.4601 633.256 80.4526 633.256 80.4451 633.256C80.4451 633.256 80.4425 633.256 80.44 633.256C80.43 633.256 80.42 633.256 80.4124 633.256C80.4099 633.256 80.4074 633.256 80.4074 633.256C80.3999 633.256 80.3924 633.256 80.3848 633.256C80.3823 633.256 80.3798 633.256 80.3773 633.256C80.3723 633.256 80.3623 633.256 80.3572 633.253C80.3547 633.253 80.3522 633.253 80.3522 633.253C80.3347 633.253 80.3146 633.249 80.297 633.249C80.2945 633.249 80.2945 633.249 80.292 633.246C80.282 633.246 80.2744 633.246 80.2669 633.246C80.2669 633.246 80.2644 633.243 80.2619 633.243C77.5921 632.975 75.2109 628.66 73.5924 621.977C73.5874 621.963 73.5849 621.95 73.5824 621.937C73.5824 621.93 73.5774 621.92 73.5774 621.917C73.5724 621.897 73.5698 621.884 73.5648 621.867V621.861C72.8999 619.083 72.3654 615.902 71.9966 612.437C71.9966 612.437 128.333 616.024 252.744 616.024C377.158 616.024 433.489 612.437 433.489 612.437C433.449 612.813 433.406 613.19 433.361 613.564C433.361 613.567 433.361 613.571 433.361 613.571C433.359 613.584 433.359 613.597 433.354 613.61C432.006 624.91 428.87 632.919 425.194 633.249C425.174 633.249 425.154 633.253 425.136 633.253C425.131 633.253 425.131 633.253 425.131 633.253C425.121 633.256 425.116 633.256 425.103 633.256H425.098C425.088 633.256 425.083 633.256 425.071 633.256C425.071 633.256 425.071 633.256 425.068 633.256C425.061 633.256 425.051 633.256 425.041 633.256H425.038C425.031 633.256 425.021 633.256 425.016 633.256C425.013 633.256 425.008 633.256 425.008 633.256C425.001 633.256 424.996 633.256 424.988 633.259C424.983 633.259 424.981 633.259 424.978 633.259C424.971 633.259 424.963 633.259 424.95 633.259H424.963Z" fill="#CDBF9B"/>
</g>
<g id="Group_2">
<path id="Vector_52" d="M415.114 6.74265H87.8922C87.9675 5.75723 88.0453 4.74536 88.1231 3.70703C88.1231 3.70703 169.94 5.16201 272.208 5.16201C317.539 5.16201 366.897 4.87432 414.911 4.04763C414.981 4.96691 415.046 5.86635 415.117 6.73934L415.114 6.74265Z" fill="#B6A785"/>
<path id="Vector_53" d="M435.963 39.3773C435.963 31.527 438.114 25.1582 456.554 25.1582C474.996 25.1582 502.753 31.527 502.753 39.3773C502.753 47.2276 474.996 53.5931 456.554 53.5931C438.111 53.5931 435.963 47.2243 435.963 39.3773Z" fill="#753D2E"/>
<path id="Vector_54" d="M502.753 39.3768C502.753 38.6328 502.505 37.9053 502.038 37.1943C502.52 37.5746 502.753 38.2756 502.753 39.3768Z" fill="#947A52"/>
<path id="Vector_55" d="M456.556 53.5927C456.521 53.5927 456.483 53.5927 456.451 53.5927C456.739 51.1292 456.96 48.5367 457.098 45.8516C457.48 45.8582 457.868 45.8582 458.265 45.8582C459.763 45.8582 461.351 45.8152 463.04 45.7193C484.366 44.509 496.324 36.8208 500.751 36.8208C501.293 36.8208 501.722 36.9365 502.04 37.1912C502.505 37.9021 502.756 38.6296 502.756 39.3736C502.756 47.2239 474.999 53.5894 456.556 53.5894V53.5927Z" fill="#543229"/>
<path id="Vector_56" d="M66.7873 39.3768C66.7873 31.5266 64.642 25.1577 46.1968 25.1577C27.7517 25.1577 0 31.5266 0 39.3768C0 47.2271 27.7517 53.5926 46.1968 53.5926C64.642 53.5926 66.7873 47.2238 66.7873 39.3768Z" fill="#9C533D"/>
<path id="Vector_57" d="M6.59664 35.4683C7.35442 32.2673 35.7209 24.4171 50.9668 27.9785C51.3181 30.1246 40.7368 29.7145 27.9173 31.9598C14.0991 34.3804 6.26543 36.877 6.59664 35.4716V35.4683Z" fill="#D48167"/>
<path id="Vector_58" d="M0 39.3769C0 38.2791 0.180662 37.664 0.574606 37.416C0.198227 38.0575 0 38.7123 0 39.3769Z" fill="#947A52"/>
<path id="Vector_59" d="M46.1968 53.5927C27.7517 53.5927 0 47.2238 0 39.3769C0 38.7122 0.200736 38.0575 0.574606 37.416C0.72014 37.3267 0.890765 37.2837 1.09401 37.2837C2.62462 37.2837 5.87905 39.7373 11.5448 42.1876C17.2131 44.6413 25.2927 47.0916 36.4837 47.0916C37.6154 47.0916 38.7822 47.0651 39.9791 47.0155C42.0491 46.9229 43.9662 46.7807 45.7427 46.5956C45.8832 49.0194 46.089 51.3639 46.3499 53.596C46.2972 53.596 46.2445 53.596 46.1918 53.596L46.1968 53.5927Z" fill="#734133"/>
<path id="Vector_60" d="M446.258 0.00330677H425.304V77.5702H446.258C452.341 77.5702 457.279 60.2064 457.279 38.7851C457.279 17.3605 452.341 0 446.258 0V0.00330677Z" fill="#8E4431"/>
<path id="Vector_61" d="M446.286 77.5701H446.291H446.286ZM446.315 77.5701C446.32 77.5701 446.32 77.5701 446.32 77.5701H446.315ZM446.371 77.5668C446.376 77.5668 446.376 77.5668 446.379 77.5668C446.376 77.5668 446.376 77.5668 446.371 77.5668ZM446.403 77.5636C446.403 77.5636 446.403 77.5636 446.408 77.5636C446.403 77.5636 446.403 77.5636 446.403 77.5636ZM446.46 77.5604H446.465H446.46ZM446.489 77.5571H446.494C446.494 77.5571 446.494 77.5571 446.489 77.5571Z" fill="#947A52"/>
<path id="Vector_62" d="M446.258 77.5702H425.304C425.314 77.5702 425.324 77.5702 425.332 77.5702C425.334 77.5702 425.334 77.5702 425.339 77.5702C425.347 77.5702 425.354 77.5702 425.362 77.5702C425.367 77.5702 425.367 77.5702 425.369 77.5702C425.377 77.5702 425.387 77.5668 425.397 77.5668C425.404 77.5668 425.412 77.5668 425.425 77.5668H425.427C425.437 77.5668 425.447 77.5668 425.455 77.5635C425.457 77.5635 425.457 77.5635 425.457 77.5635C425.467 77.5635 425.475 77.5635 425.485 77.5635C425.495 77.5635 425.505 77.5602 425.515 77.5602C425.515 77.5602 425.515 77.5602 425.52 77.5602C425.527 77.5602 425.535 77.5602 425.547 77.5569C425.568 77.5569 425.588 77.5536 425.605 77.5536C425.608 77.5536 425.608 77.5536 425.608 77.5536C429.402 77.1998 432.719 70.0968 434.623 59.5284C434.626 59.5152 434.631 59.502 434.631 59.4887L434.633 59.4854C435.18 56.4234 435.617 53.0736 435.908 49.5122H435.905H456.85C455.545 65.4475 451.425 77.1899 446.504 77.5536H446.499C446.492 77.5569 446.484 77.5569 446.472 77.5569H446.467C446.457 77.5569 446.452 77.5602 446.439 77.5602C446.429 77.5602 446.419 77.5602 446.411 77.5602C446.406 77.5602 446.406 77.5602 446.406 77.5602C446.396 77.5635 446.391 77.5635 446.379 77.5635C446.376 77.5635 446.376 77.5635 446.371 77.5635C446.364 77.5635 446.356 77.5635 446.344 77.5635C446.334 77.5635 446.326 77.5668 446.316 77.5668C446.316 77.5668 446.316 77.5668 446.311 77.5668C446.301 77.5668 446.296 77.5668 446.283 77.5668H446.278C446.268 77.5668 446.258 77.5668 446.251 77.5668L446.258 77.5702Z" fill="#67382C"/>
<path id="Vector_63" d="M436.327 38.7885C436.327 60.2065 431.391 77.5736 425.307 77.5736C419.222 77.5736 414.291 60.2098 414.291 38.7885C414.291 17.364 419.224 0.00341797 425.307 0.00341797C431.391 0.00341797 436.327 17.364 436.327 38.7885Z" fill="#D48167"/>
<path id="Vector_64" d="M425.334 77.5703C425.337 77.5703 425.337 77.5703 425.342 77.5703C425.337 77.5703 425.337 77.5703 425.334 77.5703ZM425.364 77.5703C425.369 77.5703 425.369 77.5703 425.372 77.5703C425.369 77.5703 425.369 77.5703 425.364 77.5703ZM425.427 77.5669H425.43H425.427ZM425.457 77.5636C425.46 77.5636 425.46 77.5636 425.46 77.5636C425.46 77.5636 425.46 77.5636 425.457 77.5636ZM425.517 77.5603C425.517 77.5603 425.517 77.5603 425.522 77.5603C425.517 77.5603 425.517 77.5603 425.517 77.5603ZM425.605 77.5537C425.608 77.5537 425.608 77.5537 425.608 77.5537C425.608 77.5537 425.608 77.5537 425.605 77.5537ZM434.623 59.5285C434.626 59.5153 434.631 59.5021 434.631 59.4888C434.631 59.5021 434.626 59.5153 434.623 59.5285ZM434.633 59.4888C435.18 56.4268 435.614 53.077 435.905 49.5156H435.908C435.617 53.077 435.18 56.4301 434.633 59.4888Z" fill="#4D3129"/>
<path id="Vector_65" d="M425.307 77.5704C423.006 77.5704 420.868 75.0804 419.096 70.8279H423.718C423.728 70.8279 423.738 70.8279 423.746 70.8279C423.751 70.8279 423.753 70.8279 423.756 70.8279C423.763 70.8246 423.768 70.8246 423.776 70.8246C423.776 70.8246 423.781 70.8246 423.784 70.8246C423.791 70.8246 423.801 70.8246 423.806 70.8246H423.809C423.819 70.8246 423.829 70.8246 423.836 70.8246C423.839 70.8246 423.839 70.8246 423.839 70.8246C423.849 70.8246 423.856 70.8246 423.866 70.8246H423.871C423.881 70.8246 423.889 70.8246 423.899 70.8213C423.899 70.8213 423.899 70.8213 423.904 70.8213C423.919 70.8213 423.939 70.8179 423.962 70.8179C427.64 70.4906 430.779 62.4816 432.122 51.179C432.127 51.1658 432.127 51.1526 432.129 51.1394C432.129 51.1361 432.129 51.1327 432.129 51.1327C432.172 50.7591 432.217 50.3821 432.257 50.0051L435.908 49.519C435.614 53.0804 435.183 56.4335 434.636 59.4923C434.633 59.4923 434.636 59.4923 434.633 59.4956C434.633 59.5088 434.628 59.522 434.626 59.5352C432.719 70.1037 429.402 77.2066 425.61 77.5604C425.61 77.5604 425.61 77.5604 425.608 77.5604C425.59 77.5604 425.57 77.5638 425.55 77.5638C425.54 77.5671 425.53 77.5671 425.522 77.5671C425.517 77.5671 425.517 77.5671 425.517 77.5671C425.507 77.5704 425.497 77.5704 425.487 77.5704C425.477 77.5704 425.472 77.5704 425.46 77.5704C425.46 77.5704 425.46 77.5704 425.457 77.5704C425.45 77.5737 425.44 77.5737 425.43 77.5737H425.427C425.417 77.5737 425.409 77.5737 425.399 77.5737C425.389 77.5737 425.379 77.577 425.372 77.577C425.369 77.577 425.369 77.577 425.364 77.577C425.357 77.577 425.349 77.577 425.342 77.577C425.337 77.577 425.337 77.577 425.334 77.577C425.327 77.577 425.317 77.577 425.307 77.577V77.5704Z" fill="#9C5D4A"/>
<path id="Vector_66" d="M56.5448 0.00330677H77.4966V77.5702H56.5448C50.4599 77.5702 45.5244 60.2064 45.5244 38.7851C45.5244 17.3605 50.4599 0 56.5448 0V0.00330677Z" fill="#8E4431"/>
<path id="Vector_67" d="M56.5181 77.5703C56.5181 77.5703 56.5156 77.5703 56.513 77.5703C56.513 77.5703 56.5156 77.5703 56.5181 77.5703ZM56.4877 77.5703C56.4852 77.5703 56.4852 77.5703 56.4826 77.5703C56.4852 77.5703 56.4852 77.5703 56.4877 77.5703ZM56.4573 77.5669C56.4548 77.5669 56.4548 77.5669 56.4548 77.5669H56.4573ZM56.4269 77.5669C56.4269 77.5669 56.4243 77.5669 56.4218 77.5669C56.4243 77.5669 56.4243 77.5669 56.4269 77.5669Z" fill="#947A52"/>
<path id="Vector_68" d="M77.4965 77.5703H56.5447C56.5346 77.5703 56.5271 77.5703 56.5171 77.5703C56.5171 77.5703 56.5146 77.5703 56.5121 77.5703C56.5045 77.5703 56.4945 77.5703 56.487 77.5703C56.4845 77.5703 56.4845 77.5703 56.482 77.5703C56.4744 77.5703 56.4644 77.5669 56.4569 77.5669H56.4543C56.4468 77.5669 56.4368 77.5669 56.4267 77.5669C56.4267 77.5669 56.4242 77.5669 56.4217 77.5669C56.4142 77.5669 56.4042 77.5669 56.3941 77.5636C51.4334 77.3355 47.2732 65.5468 45.9584 49.5156H66.9026C68.225 65.7155 72.468 77.5669 77.494 77.5669L77.4965 77.5703Z" fill="#67382C"/>
<path id="Vector_69" d="M66.4763 38.7885C66.4763 60.2065 71.4119 77.5736 77.4941 77.5736C83.579 77.5736 88.512 60.2098 88.512 38.7885C88.512 17.364 83.579 0.00341797 77.4941 0.00341797C71.4093 0.00341797 66.4763 17.364 66.4763 38.7885V38.7885Z" fill="#753D2E"/>
<path id="Vector_70" d="M423.718 6.74268H79.2857C74.2573 6.74268 70.1798 21.0841 70.1798 38.7886C70.1798 56.4798 74.2573 70.8279 79.2857 70.8279H423.718C428.747 70.8279 432.822 56.4798 432.822 38.7886C432.822 21.0874 428.747 6.74268 423.718 6.74268V6.74268Z" fill="#F9EBC2"/>
<path id="Vector_71" d="M423.756 70.8274C423.763 70.8242 423.767 70.8242 423.774 70.8242C423.767 70.8242 423.763 70.8242 423.756 70.8274Z" fill="#815042"/>
<path id="Vector_72" d="M79.2512 70.8274C79.2443 70.8242 79.2397 70.8242 79.2328 70.8242C79.2397 70.8242 79.2443 70.8242 79.2512 70.8274Z" fill="#5F362B"/>
<path id="Vector_73" d="M423.869 70.8244C423.878 70.8244 423.885 70.8244 423.895 70.8213C423.885 70.8244 423.881 70.8244 423.869 70.8244Z" fill="#815042"/>
<path id="Vector_74" d="M79.1334 70.8245C79.1288 70.8245 79.1196 70.8245 79.1151 70.8213C79.1196 70.8245 79.1288 70.8245 79.1334 70.8245Z" fill="#5F362B"/>
<path id="Vector_75" d="M79.1089 70.8211C79.0893 70.8211 79.072 70.8179 79.0548 70.8179C79.072 70.8179 79.0917 70.8211 79.1089 70.8211Z" fill="#5F362B"/>
<path id="Vector_76" d="M423.954 70.8176C427.63 70.4902 430.767 62.4812 432.114 51.1787C430.772 62.4779 427.633 70.4869 423.954 70.8176V70.8176Z" fill="#815042"/>
<path id="Vector_77" d="M79.0498 70.8144C79.0398 70.8144 79.0322 70.8144 79.0247 70.8144C79.0322 70.8144 79.0398 70.8144 79.0498 70.8144ZM79.0197 70.8111C76.3499 70.5433 73.9662 66.2279 72.3502 59.5449C73.9662 66.2279 76.3474 70.5433 79.0197 70.8111ZM72.3402 59.5053C72.3402 59.4986 72.3352 59.4887 72.3352 59.4854C72.3352 59.492 72.3402 59.4986 72.3402 59.5053ZM72.3226 59.4358C72.3226 59.4325 72.3226 59.4325 72.3226 59.4292V59.4358Z" fill="#5F362B"/>
<path id="Vector_78" d="M423.718 70.8276H79.2856C79.2755 70.8276 79.268 70.8276 79.258 70.8276C79.2554 70.8276 79.2529 70.8276 79.2504 70.8276C79.2429 70.8243 79.2379 70.8243 79.2304 70.8243C79.2278 70.8243 79.2253 70.8243 79.2228 70.8243C79.2153 70.8243 79.2078 70.8243 79.2002 70.8243C79.2002 70.8243 79.1977 70.8243 79.1952 70.8243C79.1852 70.8243 79.1752 70.8243 79.1676 70.8243C79.1651 70.8243 79.1626 70.8243 79.1626 70.8243C79.1551 70.8243 79.1475 70.8243 79.14 70.8243C79.1375 70.8243 79.135 70.8243 79.1325 70.8243C79.1275 70.8243 79.1174 70.8243 79.1124 70.821C79.1099 70.821 79.1074 70.821 79.1074 70.821C79.0898 70.821 79.0698 70.8177 79.0522 70.8177C79.0497 70.8177 79.0497 70.8177 79.0472 70.8144C79.0371 70.8144 79.0296 70.8144 79.0221 70.8144C79.0221 70.8144 79.0196 70.8111 79.0171 70.8111C76.3473 70.5432 73.966 66.2279 72.3476 59.5449C72.3426 59.5317 72.3401 59.5185 72.3376 59.5052C72.3376 59.4986 72.3326 59.4887 72.3326 59.4854C72.3275 59.4655 72.325 59.4523 72.32 59.4358V59.4292C71.6551 56.6515 71.1206 53.4704 70.7518 50.0049C70.7518 50.0049 127.088 53.5927 251.499 53.5927C375.913 53.5927 432.244 50.0049 432.244 50.0049C432.204 50.3819 432.162 50.7588 432.116 51.1325C432.116 51.1358 432.116 51.1391 432.116 51.1391C432.114 51.1523 432.114 51.1656 432.109 51.1788C430.761 62.478 427.625 70.487 423.949 70.8177C423.929 70.8177 423.909 70.821 423.891 70.821C423.886 70.821 423.886 70.821 423.886 70.821C423.876 70.8243 423.871 70.8243 423.859 70.8243H423.854C423.844 70.8243 423.839 70.8243 423.826 70.8243C423.826 70.8243 423.826 70.8243 423.824 70.8243C423.816 70.8243 423.806 70.8243 423.796 70.8243H423.793C423.786 70.8243 423.776 70.8243 423.771 70.8243C423.768 70.8243 423.763 70.8243 423.763 70.8243C423.756 70.8243 423.751 70.8243 423.743 70.8276C423.738 70.8276 423.736 70.8276 423.733 70.8276C423.726 70.8276 423.718 70.8276 423.706 70.8276H423.718Z" fill="#CDBF9B"/>
</g>
</g>
</g>
</svg>
