<svg width="263" height="256" viewBox="0 0 263 256" fill="none" xmlns="http://www.w3.org/2000/svg">
<g id="&#208;&#161;&#208;&#187;&#208;&#190;&#208;&#185;_x0020_1">
<g id="_1987639330272">
<path id="Vector" d="M231.765 224.608H231.07C230.592 216.016 230.089 204.809 229.708 190.963C229.643 188.63 229.579 186.107 229.521 183.558C229.51 183.142 229.495 182.371 229.475 181.469C229.429 179.278 229.37 176.251 229.351 175.179C228.767 142.157 229.052 105.351 230.228 65.7202L230.38 60.7623C230.407 59.844 230.437 58.923 230.469 57.9981C230.528 56.1772 230.592 54.2312 230.655 52.3972C230.918 44.6962 231.217 36.8726 231.544 28.9674H232.246C231.802 39.6276 231.416 50.1469 231.092 60.4276L230.942 65.4119C229.759 105.046 229.463 142.062 230.059 175.436C230.085 176.897 230.199 182.512 230.229 183.859C230.621 200.964 231.209 214.534 231.766 224.609L231.765 224.608ZM32.7 224.608H32.01C33.085 205.104 34.2726 172.473 33.9727 126.319L33.9348 121.265C33.6834 92.2094 32.8781 61.2577 31.5334 28.9661H32.2352C33.5838 61.3631 34.3865 92.3029 34.6353 121.257L34.6732 126.313C34.9744 172.636 33.7698 205.258 32.7 224.606V224.608Z" fill="#CDAB72"/>
<path id="Vector_2" d="M231.071 224.608H230.375C229.894 215.991 229.383 204.673 228.997 190.626C228.934 188.357 228.873 185.793 228.814 183.258C228.805 182.821 228.789 182.058 228.771 181.179C228.727 179.008 228.666 176.034 228.648 174.922C228.073 142.252 228.349 105.653 229.521 66.0271L229.67 61.0968C229.698 60.1838 229.728 59.2655 229.757 58.3484C229.816 56.5764 229.881 54.5592 229.941 52.7752C230.208 44.9556 230.508 37.0082 230.845 28.9673H231.545C231.218 36.8725 230.919 44.6961 230.656 52.3971C230.593 54.2311 230.529 56.1785 230.47 57.998C230.439 58.9229 230.41 59.8439 230.381 60.7622L230.229 65.7201C229.055 105.35 228.768 142.157 229.352 175.179C229.373 176.251 229.432 179.279 229.476 181.469C229.496 182.37 229.51 183.141 229.522 183.558C229.58 186.106 229.644 188.63 229.709 190.963C230.09 204.809 230.593 216.016 231.071 224.608V224.608ZM33.3914 224.608H32.7001C33.7711 205.26 34.9744 172.637 34.6733 126.314L34.6353 121.258C34.3852 92.3041 33.5826 61.363 32.2352 28.9673H32.937C34.2896 61.4684 35.0896 92.4016 35.3384 121.252L35.3751 126.31C35.6775 172.79 34.4559 205.412 33.3901 224.609L33.3914 224.608Z" fill="#CDAB72"/>
<path id="Vector_3" d="M230.373 224.608H229.678C229.192 215.969 228.674 204.539 228.286 190.286C228.225 188.087 228.159 185.479 228.104 182.96C228.094 182.502 228.078 181.743 228.061 180.892C228.016 178.735 227.96 175.822 227.939 174.666C227.375 142.35 227.639 105.958 228.807 66.3355C228.812 66.126 228.947 61.6437 228.955 61.4316C228.983 60.5212 229.013 59.6108 229.042 58.6951C229.097 56.9744 229.166 54.8874 229.225 53.1522C229.493 45.2153 229.8 37.1414 230.14 28.9661H230.842C230.505 37.007 230.206 44.9544 229.939 52.774C229.878 54.558 229.813 56.5751 229.754 58.3472C229.724 59.2642 229.695 60.1812 229.668 61.0956L229.518 66.0259C228.346 105.654 228.07 142.251 228.645 174.921C228.665 176.034 228.725 179.006 228.768 181.178C228.786 182.056 228.802 182.819 228.811 183.257C228.87 185.793 228.933 188.356 228.994 190.624C229.381 204.672 229.891 215.99 230.372 224.606L230.373 224.608ZM34.0827 224.608H33.3901C34.4559 205.411 35.6775 172.789 35.375 126.309L35.3384 121.251C35.0896 92.4004 34.2896 61.4672 32.937 28.9661H33.6388C34.9953 61.5792 35.7914 92.4979 36.0402 121.245L36.0782 126.305C36.3806 172.939 35.1446 205.557 34.084 224.608H34.0827Z" fill="#CDAB72"/>
<path id="Vector_4" d="M229.679 224.608H228.984C228.496 215.946 227.968 204.405 227.576 189.949C227.518 187.813 227.453 185.168 227.398 182.659C227.388 182.183 227.372 181.428 227.355 180.603C227.312 178.463 227.257 175.607 227.235 174.411C226.681 142.443 226.935 106.26 228.098 66.6425C228.104 66.3631 228.236 62.0482 228.243 61.7662C228.27 60.8611 228.301 59.9546 228.329 59.0442C228.383 57.3722 228.452 55.2168 228.511 53.5303C228.784 45.4788 229.094 37.2784 229.438 28.9674H230.14C229.8 37.1427 229.493 45.2166 229.225 53.1535C229.166 54.8887 229.097 56.9744 229.042 58.6964C229.012 59.6121 228.983 60.5225 228.955 61.4329C228.947 61.645 228.813 66.1273 228.807 66.3368C227.639 105.958 227.374 142.351 227.939 174.668C227.96 175.824 228.016 178.736 228.061 180.893C228.079 181.744 228.094 182.503 228.104 182.962C228.159 185.482 228.226 188.089 228.286 190.287C228.674 204.54 229.192 215.97 229.678 224.609L229.679 224.608ZM34.7767 224.608H34.084C35.1446 205.557 36.3807 172.939 36.0782 126.305L36.0402 121.245C35.7914 92.4979 34.9967 61.5792 33.6389 28.9661H34.3394C35.7011 61.6872 36.4933 92.6007 36.7407 121.239C36.7407 121.388 36.7761 126.125 36.7787 126.299C37.0838 173.083 35.832 205.697 34.7767 224.608Z" fill="#CBAB70"/>
<path id="Vector_5" d="M228.984 224.608H228.288C227.796 215.924 227.261 204.271 226.867 189.611C226.809 187.543 226.745 184.856 226.69 182.359C226.68 181.864 226.664 181.114 226.647 180.313C226.605 178.192 226.551 175.394 226.53 174.154C225.984 142.538 226.23 106.564 227.388 66.9495C227.397 66.6003 227.523 62.454 227.533 62.0983C227.559 61.1984 227.588 60.2972 227.618 59.392C227.671 57.7675 227.742 55.5435 227.796 53.9071C228.071 45.7384 228.387 37.4128 228.739 28.9661H229.44C229.095 37.2771 228.784 45.4775 228.513 53.529C228.454 55.2154 228.384 57.3709 228.331 59.0429C228.301 59.9533 228.272 60.8598 228.244 61.7649C228.238 62.0469 228.106 66.3618 228.099 66.6412C226.936 106.26 226.682 142.442 227.236 174.409C227.257 175.606 227.313 178.462 227.357 180.602C227.374 181.427 227.389 182.182 227.4 182.657C227.455 185.167 227.52 187.81 227.578 189.947C227.969 204.403 228.497 215.944 228.985 224.606L228.984 224.608ZM35.4707 224.608H34.7754C35.8307 205.697 37.0825 173.083 36.7774 126.299C36.7761 126.125 36.7408 121.388 36.7394 121.239C36.492 92.602 35.6998 61.6872 34.3381 28.9661H35.0399C36.4056 61.8018 37.1951 92.7048 37.4413 121.233C37.4413 121.418 37.4766 126.077 37.4792 126.294C37.7843 173.216 36.5182 205.828 35.4694 224.608H35.4707Z" fill="#CBA96F"/>
<path id="Vector_6" d="M228.287 224.608H227.588C227.096 215.9 226.554 204.136 226.156 189.273C226.102 187.271 226.035 184.541 225.983 182.062C225.971 181.545 225.957 180.801 225.941 180.026C225.898 177.923 225.844 175.18 225.823 173.898C225.29 142.634 225.523 106.867 226.678 67.2591C226.689 66.8414 226.811 62.8572 226.822 62.4342C226.85 61.5396 226.877 60.6424 226.906 59.7412C226.958 58.168 227.03 55.8716 227.084 54.2866C227.363 46.0032 227.683 37.5525 228.039 28.9674H228.741C228.388 37.4141 228.073 45.7397 227.798 53.9084C227.743 55.5448 227.672 57.7688 227.62 59.3934C227.59 60.2985 227.561 61.1997 227.535 62.0996C227.524 62.4553 227.398 66.6029 227.389 66.9508C226.232 106.564 225.986 142.539 226.532 174.155C226.553 175.395 226.606 178.193 226.648 180.315C226.665 181.116 226.681 181.865 226.691 182.361C226.746 184.856 226.812 187.544 226.868 189.613C227.264 204.274 227.799 215.925 228.289 224.609L228.287 224.608ZM36.1672 224.608H35.472C36.5194 205.828 37.7856 173.216 37.4818 126.294C37.4792 126.077 37.4452 121.418 37.4439 121.233C37.1964 92.7048 36.4081 61.8031 35.0425 28.9661H35.743C37.1139 61.9204 37.8982 92.8088 38.1444 121.226C38.147 121.45 38.1797 126.028 38.1823 126.29C38.4874 173.341 37.2095 205.949 36.1672 224.606V224.608Z" fill="#C9A86F"/>
<path id="Vector_7" d="M227.588 224.608H226.892C226.395 215.878 225.847 204 225.446 188.934C225.393 186.999 225.326 184.23 225.273 181.763C225.263 181.225 225.247 180.485 225.231 179.736C225.192 177.651 225.14 174.967 225.118 173.641C224.594 142.729 224.818 107.17 225.966 67.5661C225.978 67.0786 226.094 63.2643 226.107 62.7689C226.134 61.8782 226.162 60.9863 226.191 60.0903C226.241 58.5659 226.316 56.201 226.368 54.6647C226.648 46.2654 226.97 37.6882 227.334 28.9661H228.036C227.679 37.5512 227.36 46.0019 227.082 54.2853C227.028 55.8703 226.956 58.1667 226.904 59.7399C226.876 60.6398 226.849 61.5383 226.82 62.4329C226.808 62.8572 226.686 66.8401 226.676 67.2578C225.521 106.866 225.288 142.633 225.821 173.897C225.842 175.179 225.895 177.922 225.939 180.025C225.954 180.799 225.969 181.544 225.98 182.06C226.034 184.54 226.1 187.27 226.153 189.271C226.551 204.134 227.095 215.899 227.586 224.606L227.588 224.608ZM36.8625 224.608H36.1659C37.2069 205.95 38.4861 173.342 38.181 126.292C38.1784 126.031 38.1457 121.451 38.1431 121.227C37.8969 92.8101 37.1126 61.9217 35.7417 28.9674H36.4435C37.8197 62.0403 38.6 92.9182 38.8449 121.223C38.8475 121.482 38.8802 125.982 38.8829 126.288C39.1893 173.457 37.8982 206.062 36.8638 224.609L36.8625 224.608Z" fill="#C9A86F"/>
<path id="Vector_8" d="M226.892 224.608H226.192C225.695 215.85 225.137 203.862 224.734 188.598C224.685 186.728 224.617 183.918 224.566 181.464C224.554 180.908 224.54 180.174 224.524 179.449C224.482 177.379 224.434 174.753 224.412 173.387C223.899 142.827 224.112 107.474 225.256 67.8744C225.271 67.3157 225.381 63.6675 225.396 63.1036C225.424 62.2182 225.451 61.3301 225.479 60.4382C225.526 58.9625 225.603 56.529 225.654 55.0428C225.938 46.5302 226.265 37.8265 226.634 28.9661H227.336C226.972 37.6869 226.649 46.2654 226.369 54.6647C226.317 56.201 226.242 58.5659 226.192 60.0903C226.165 60.9863 226.135 61.8782 226.109 62.7689C226.094 63.2643 225.979 67.0786 225.967 67.5661C224.818 107.17 224.595 142.729 225.119 173.641C225.141 174.967 225.193 177.651 225.233 179.736C225.248 180.485 225.264 181.225 225.275 181.763C225.328 184.23 225.394 186.997 225.447 188.934C225.848 204 226.397 215.878 226.893 224.608H226.892ZM37.5617 224.608H36.8625C37.8982 206.059 39.1879 173.456 38.8815 126.286C38.8789 125.982 38.8462 121.481 38.8436 121.222C38.5987 92.9182 37.8183 62.0403 36.4422 28.9661H37.144C38.5241 62.1615 39.3005 93.0289 39.5441 121.214C39.5467 121.51 39.5794 125.932 39.5821 126.282C39.8884 173.557 38.5882 206.156 37.5591 224.608H37.5617Z" fill="#C9A76D"/>
<path id="Vector_9" d="M226.194 224.608H225.493C224.994 215.82 224.431 203.721 224.025 188.258C223.977 186.457 223.912 183.605 223.859 181.164C223.847 180.589 223.832 179.859 223.817 179.16C223.778 177.109 223.728 174.541 223.706 173.13C223.202 142.922 223.405 107.779 224.544 68.184C224.562 67.5542 224.666 64.0759 224.684 63.4382C224.71 62.5581 224.738 61.674 224.765 60.7873C224.811 59.3631 224.89 56.8558 224.938 55.4197C225.224 46.795 225.555 37.9649 225.929 28.9661H226.631C226.262 37.8265 225.936 46.5302 225.652 55.0428C225.602 56.529 225.523 58.9638 225.476 60.4382C225.449 61.3288 225.421 62.2168 225.394 63.1036C225.378 63.6688 225.267 67.3171 225.254 67.8744C224.109 107.473 223.897 142.827 224.409 173.387C224.431 174.752 224.48 177.379 224.522 179.449C224.537 180.174 224.552 180.908 224.564 181.464C224.616 183.917 224.683 186.728 224.731 188.598C225.134 203.863 225.694 215.85 226.19 224.608H226.194ZM38.2622 224.608H37.5617C38.5908 206.156 39.891 173.557 39.5846 126.282C39.582 125.932 39.5493 121.511 39.5467 121.214C39.3031 93.0289 38.5267 62.1615 37.1466 28.9661H37.8484C39.2337 62.2867 40.0063 93.1395 40.2485 121.207C40.2524 121.542 40.2838 125.884 40.2878 126.277C40.5942 173.64 39.2861 206.236 38.2635 224.608H38.2622Z" fill="#C7A66D"/>
<path id="Vector_10" d="M225.493 224.608H224.793C224.291 215.787 223.722 203.575 223.315 187.921C223.267 186.186 223.202 183.292 223.15 180.864C223.138 180.27 223.123 179.544 223.109 178.872C223.07 176.836 223.023 174.325 222.999 172.874C222.507 143.016 222.699 108.083 223.834 68.491C223.854 67.794 223.952 64.4804 223.973 63.7729C223.999 62.8954 224.027 62.0192 224.054 61.1365C224.098 59.761 224.179 57.1852 224.225 55.7991C224.514 47.0625 224.849 38.1072 225.23 28.9674H225.932C225.557 37.9662 225.226 46.795 224.941 55.421C224.892 56.8584 224.812 59.3644 224.768 60.7886C224.74 61.674 224.713 62.5594 224.687 63.4395C224.667 64.0759 224.564 67.5555 224.547 68.1853C223.406 107.779 223.203 142.923 223.709 173.131C223.731 174.542 223.779 177.11 223.82 179.162C223.834 179.859 223.85 180.59 223.862 181.166C223.914 183.606 223.98 186.458 224.028 188.259C224.434 203.723 224.997 215.822 225.496 224.609L225.493 224.608ZM38.9627 224.608H38.2609C39.2835 206.236 40.5916 173.64 40.2852 126.277C40.2826 125.884 40.2498 121.542 40.2459 121.207C40.0037 93.1408 39.2311 62.288 37.8458 28.9661H38.5476C39.9382 62.4145 40.7055 93.2568 40.9477 121.202C40.9516 121.572 40.9817 125.836 40.9857 126.272C41.2934 173.705 39.9775 206.295 38.9614 224.608H38.9627Z" fill="#C7A66D"/>
<path id="Vector_11" d="M224.794 224.608H224.092C223.592 215.745 223.015 203.423 222.605 187.582C222.562 185.912 222.494 182.979 222.444 180.565C222.429 179.951 222.416 179.229 222.405 178.582C222.365 176.566 222.319 174.112 222.297 172.618C221.813 143.113 221.995 108.385 223.126 68.7993C223.147 68.0298 223.24 64.8862 223.262 64.1062C223.288 63.2366 223.316 62.3605 223.342 61.4856C223.385 60.1588 223.468 57.5145 223.511 56.1772C223.804 47.3286 224.142 38.2468 224.528 28.9674H225.23C224.849 38.1072 224.514 47.0625 224.225 55.7991C224.179 57.1852 224.098 59.761 224.054 61.1365C224.027 62.0192 223.999 62.8967 223.973 63.7729C223.952 64.4791 223.854 67.7927 223.834 68.491C222.699 108.083 222.507 143.018 222.999 172.874C223.023 174.325 223.07 176.836 223.109 178.872C223.123 179.544 223.136 180.269 223.15 180.864C223.201 183.294 223.267 186.186 223.315 187.921C223.722 203.575 224.291 215.787 224.793 224.608H224.794ZM39.6672 224.608H38.964C39.9801 206.295 41.296 173.705 40.9883 126.272C40.9844 125.836 40.9543 121.572 40.9504 121.202C40.7081 93.2568 39.9408 62.4145 38.5503 28.9661H39.2521C40.6492 62.5436 41.4112 93.3754 41.6522 121.197C41.6561 121.605 41.6862 125.787 41.6901 126.266C41.9992 173.747 40.6793 206.333 39.6685 224.608H39.6672Z" fill="#C4A46B"/>
<path id="Vector_12" d="M224.091 224.608H223.389C222.886 215.696 222.305 203.264 221.894 187.245C221.852 185.643 221.785 182.666 221.734 180.266C221.722 179.632 221.708 178.915 221.696 178.295C221.658 176.296 221.612 173.898 221.59 172.363C221.115 143.206 221.286 108.689 222.412 69.1063C222.435 68.2696 222.525 65.2907 222.547 64.4422C222.573 63.5752 222.6 62.707 222.627 61.8348C222.669 60.5567 222.753 57.8426 222.795 56.5554C223.089 47.5935 223.431 38.3878 223.824 28.9674H224.526C224.139 38.2468 223.802 47.3286 223.508 56.1772C223.465 57.5145 223.383 60.1588 223.339 61.4856C223.313 62.3605 223.286 63.2366 223.26 64.1062C223.237 64.8862 223.143 68.0298 223.123 68.7993C221.992 108.385 221.81 143.113 222.295 172.618C222.317 174.112 222.363 176.566 222.402 178.582C222.414 179.229 222.428 179.951 222.441 180.565C222.491 182.979 222.559 185.912 222.602 187.582C223.012 203.422 223.588 215.745 224.09 224.608H224.091ZM40.3703 224.608H39.6658C40.6767 206.333 41.9965 173.747 41.6875 126.266C41.6849 125.787 41.6534 121.605 41.6495 121.197C41.4086 93.3754 40.6465 62.5436 39.2495 28.9661H39.9526C41.3536 62.678 42.1117 93.4966 42.3513 121.19C42.354 121.635 42.3854 125.739 42.388 126.263C42.697 173.76 41.3759 206.345 40.369 224.608H40.3703Z" fill="#C4A26A"/>
<path id="Vector_13" d="M223.389 224.608H222.685C222.182 215.639 221.594 203.094 221.185 186.906C221.144 185.37 221.078 182.356 221.028 179.965C221.014 179.312 221.001 178.599 220.989 178.006C220.952 176.025 220.909 173.685 220.884 172.105C220.422 143.302 220.583 108.992 221.704 69.4146C221.728 68.5081 221.811 65.6965 221.839 64.7755C221.862 63.9138 221.889 63.0482 221.917 62.1826C221.955 60.9546 222.043 58.1707 222.084 56.9335C222.381 47.8609 222.727 38.5301 223.126 28.9661H223.828C223.435 38.3865 223.093 47.5921 222.799 56.5541C222.757 57.8413 222.672 60.5541 222.631 61.8334C222.604 62.7043 222.577 63.5739 222.551 64.4409C222.529 65.2907 222.439 68.2683 222.416 69.105C221.29 108.689 221.119 143.206 221.594 172.362C221.616 173.897 221.661 176.295 221.7 178.294C221.712 178.914 221.726 179.631 221.738 180.265C221.789 182.665 221.856 185.641 221.898 187.244C222.309 203.264 222.89 215.696 223.393 224.606L223.389 224.608ZM41.0773 224.608H40.3716C41.3785 206.345 42.6996 173.761 42.3906 126.263C42.3867 125.739 42.3566 121.634 42.354 121.19C42.1143 93.4966 41.3562 62.678 39.9552 28.9661H40.6583C42.0646 62.8137 42.8175 93.6191 43.0558 121.182C43.0597 121.666 43.0898 125.689 43.0937 126.257C43.4028 173.749 42.0842 206.329 41.0799 224.606L41.0773 224.608Z" fill="#C4A26A"/>
<path id="Vector_14" d="M41.7752 224.793C41.5513 224.671 41.3222 224.609 41.0891 224.609H41.0773C42.0816 206.331 43.4014 173.752 43.0911 126.26C43.0872 125.693 43.0571 121.668 43.0531 121.185C42.8148 93.6216 42.062 62.8149 40.6557 28.9686H41.0878C41.1781 28.9686 41.2672 28.9594 41.3562 28.9409C42.769 62.9401 43.5167 93.7415 43.7537 121.181C43.7576 121.698 43.7877 125.644 43.7903 126.257C44.1006 173.864 42.7769 206.502 41.7726 224.795L41.7752 224.793ZM221.988 224.75C221.48 215.698 220.886 202.996 220.473 186.569C220.435 185.1 220.368 182.042 220.319 179.668C220.307 178.994 220.292 178.288 220.281 177.718C220.244 175.753 220.202 173.471 220.179 171.852C219.724 143.4 219.877 109.298 220.993 69.7241C221.019 68.7452 221.098 66.1022 221.127 65.1114C221.153 64.2537 221.179 63.3933 221.205 62.5329C221.242 61.3537 221.331 58.4986 221.37 57.3128C221.67 48.1269 222.02 38.667 222.424 28.958C222.478 28.9633 222.533 28.9673 222.586 28.9673H223.126C222.727 38.5313 222.381 47.8621 222.084 56.9347C222.044 58.1706 221.955 60.9558 221.917 62.1838C221.89 63.0507 221.864 63.915 221.839 64.7767C221.811 65.6977 221.728 68.508 221.704 69.4158C220.582 108.993 220.421 143.303 220.884 172.106C220.909 173.686 220.952 176.026 220.989 178.008C221.001 178.6 221.015 179.312 221.028 179.967C221.078 182.355 221.145 185.371 221.185 186.907C221.595 203.095 222.182 215.64 222.685 224.609H222.585C222.385 224.609 222.183 224.656 221.987 224.75H221.988Z" fill="#C2A26A"/>
<path id="Vector_15" d="M42.4522 225.351C42.2309 225.106 42.0057 224.919 41.7753 224.792C42.7782 206.498 44.1033 173.861 43.793 126.255C43.7904 125.642 43.7603 121.696 43.7563 121.178C43.5193 93.7389 42.7717 62.9388 41.3589 28.9383C41.592 28.8896 41.8224 28.7763 42.0476 28.605C43.4748 62.8782 44.2212 93.7785 44.4582 121.173C44.4621 121.727 44.4909 125.596 44.4961 126.249C44.8077 174.266 43.463 207.08 42.4535 225.351H42.4522ZM221.31 225.257C220.794 216.091 220.181 203.108 219.764 186.229C219.727 184.827 219.66 181.728 219.612 179.369C219.597 178.674 219.584 177.972 219.574 177.429C219.537 175.482 219.498 173.258 219.473 171.596C219.029 143.495 219.169 109.599 220.282 70.0311C220.31 68.985 220.384 66.5067 220.414 65.4461C220.439 64.5936 220.467 63.7372 220.493 62.8795C220.527 61.7504 220.617 58.8267 220.657 57.691C220.959 48.3101 221.318 38.6301 221.733 28.6788C221.958 28.8329 222.191 28.9265 222.424 28.9581C222.021 38.667 221.67 48.127 221.37 57.3129C221.332 58.4987 221.242 61.3538 221.205 62.533C221.179 63.3946 221.153 64.2537 221.127 65.1114C221.097 66.1022 221.019 68.7452 220.993 69.7241C219.877 109.298 219.724 143.4 220.179 171.852C220.204 173.473 220.244 175.753 220.281 177.718C220.293 178.288 220.307 178.994 220.319 179.668C220.369 182.042 220.435 185.1 220.473 186.569C220.886 202.997 221.48 215.7 221.988 224.75C221.758 224.858 221.533 225.029 221.311 225.257H221.31Z" fill="#C2A269"/>
<path id="Vector_16" d="M43.1121 226.281C42.8974 225.913 42.6774 225.602 42.4522 225.352C43.4617 207.082 44.8064 174.267 44.4948 126.251C44.4895 125.597 44.4607 121.729 44.4568 121.174C44.2198 93.7799 43.4735 62.8809 42.0463 28.6064C42.2754 28.4298 42.4993 28.1914 42.7193 27.8962C44.1714 62.6055 44.9216 93.7245 45.1573 121.166C45.1626 121.759 45.1914 125.547 45.1953 126.244C45.5122 174.956 44.1295 208.065 43.1121 226.28V226.281ZM220.651 226.133C220.121 216.817 219.483 203.435 219.054 185.894C219.021 184.557 218.952 181.416 218.903 179.07C218.889 178.354 218.877 177.658 218.867 177.142C218.83 175.212 218.792 173.044 218.768 171.338C218.335 143.591 218.465 109.904 219.572 70.3395C219.602 69.2209 219.671 66.9113 219.702 65.7808C219.728 64.931 219.753 64.0825 219.778 63.2274C219.813 62.1484 219.905 59.1549 219.939 58.0679C220.252 48.3774 220.624 38.3549 221.055 28.0267C221.275 28.3034 221.5 28.5221 221.73 28.6789C221.316 38.6302 220.958 48.3102 220.654 57.6911C220.616 58.8255 220.526 61.7505 220.49 62.8796C220.464 63.7373 220.437 64.5937 220.412 65.4462C220.382 66.5055 220.307 68.9838 220.279 70.0312C219.166 109.601 219.026 143.496 219.47 171.596C219.494 173.258 219.534 175.482 219.571 177.429C219.582 177.972 219.596 178.674 219.609 179.369C219.657 181.728 219.726 184.827 219.761 186.229C220.179 203.107 220.79 216.091 221.307 225.257C221.082 225.491 220.862 225.784 220.649 226.132L220.651 226.133Z" fill="#C2A16A"/>
<path id="Vector_17" d="M43.7511 227.585C43.5455 227.094 43.3321 226.658 43.1134 226.281C44.1308 208.066 45.5135 174.957 45.1966 126.245C45.1927 125.547 45.1639 121.759 45.1586 121.168C44.9216 93.7258 44.1727 62.6068 42.7206 27.8975C42.9458 27.5944 43.1645 27.2295 43.3779 26.8079C44.8666 62.1101 45.6234 93.5782 45.8617 121.161C45.8683 121.792 45.8958 125.501 45.8997 126.243C46.2231 175.95 44.7854 209.473 43.7524 227.587L43.7511 227.585ZM220.014 227.38C219.465 217.887 218.791 203.982 218.343 185.553C218.311 184.286 218.242 181.102 218.196 178.769C218.182 178.037 218.169 177.342 218.16 176.852C218.124 174.939 218.086 172.831 218.06 171.083C217.638 143.684 217.759 110.206 218.861 70.6464C218.894 69.4593 218.956 67.3157 218.99 66.1141C219.016 65.2708 219.041 64.425 219.067 63.5752C219.1 62.5448 219.193 59.4816 219.227 58.4447C219.553 48.3259 219.942 37.8357 220.399 26.9936C220.612 27.3968 220.832 27.742 221.057 28.0253C220.626 38.3535 220.255 48.3747 219.942 58.0665C219.906 59.1548 219.815 62.1469 219.781 63.226C219.754 64.0811 219.731 64.9296 219.705 65.7794C219.673 66.9099 219.604 69.2195 219.575 70.3381C218.467 109.903 218.338 143.589 218.771 171.337C218.795 173.042 218.834 175.21 218.869 177.141C218.88 177.657 218.891 178.353 218.906 179.068C218.954 181.413 219.024 184.554 219.056 185.893C219.486 203.433 220.124 216.816 220.654 226.132C220.435 226.489 220.223 226.907 220.016 227.378L220.014 227.38Z" fill="#C2A068"/>
<path id="Vector_18" d="M44.3717 229.174H44.3298C44.1438 228.596 43.9501 228.063 43.7497 227.585C44.7828 209.472 46.2192 175.948 45.8971 126.241C45.8932 125.501 45.8657 121.791 45.8591 121.16C45.6208 93.5768 44.864 62.1087 43.3752 26.8065C43.5952 26.3704 43.81 25.8697 44.0155 25.3137C45.5527 61.384 46.32 93.337 46.5609 121.154C46.5675 121.821 46.595 125.451 46.6002 126.236C46.9315 177.155 45.427 211.183 44.373 229.174H44.3717ZM219.396 229.016C218.823 219.328 218.101 204.772 217.632 185.217C217.602 184.014 217.535 180.79 217.487 178.47C217.472 177.718 217.46 177.031 217.451 176.566C217.417 174.67 217.38 172.617 217.354 170.828C216.942 143.782 217.05 110.511 218.149 70.9573C218.183 69.7004 218.241 67.7227 218.277 66.45C218.301 65.6133 218.326 64.7701 218.352 63.9269C218.382 62.9466 218.478 59.8135 218.509 58.8267C218.851 48.1612 219.263 37.0675 219.752 25.5667C219.959 26.1016 220.173 26.5799 220.395 26.9962C219.938 37.8383 219.549 48.3298 219.223 58.4472C219.19 59.4855 219.097 62.5474 219.063 63.5777C219.037 64.4276 219.012 65.2734 218.986 66.1166C218.952 67.3182 218.89 69.4619 218.857 70.649C217.755 110.208 217.636 143.686 218.056 171.085C218.082 172.832 218.12 174.942 218.156 176.855C218.163 177.345 218.178 178.039 218.192 178.772C218.239 181.105 218.309 184.287 218.339 185.556C218.787 203.984 219.461 217.889 220.01 227.382C219.796 227.871 219.591 228.417 219.393 229.019L219.396 229.016Z" fill="#BE9F69"/>
<path id="Vector_19" d="M219.346 229.174H218.694C218.106 219.258 217.387 204.536 216.922 184.879C216.895 183.741 216.824 180.477 216.778 178.172C216.764 177.401 216.751 176.716 216.744 176.278C216.709 174.397 216.676 172.403 216.649 170.574C216.247 143.878 216.345 110.817 217.438 71.2643C217.475 69.9376 217.527 68.1273 217.565 66.7847C217.589 65.9507 217.615 65.1141 217.64 64.2748C217.667 63.3433 217.765 60.1403 217.796 59.2036C218.149 48.0769 218.581 36.472 219.098 24.4007H219.343C219.477 24.8144 219.613 25.2031 219.752 25.5654C219.263 37.0663 218.851 48.1599 218.509 58.8254C218.478 59.8123 218.381 62.9467 218.352 63.9256C218.326 64.7702 218.301 65.6121 218.277 66.4487C218.241 67.7215 218.183 69.6991 218.149 70.956C217.051 110.51 216.941 143.78 217.354 170.827C217.38 172.616 217.417 174.669 217.451 176.565C217.46 177.03 217.472 177.718 217.487 178.469C217.535 180.79 217.603 184.013 217.632 185.216C218.102 204.771 218.825 219.327 219.396 229.015C219.38 229.068 219.363 229.122 219.346 229.173V229.174ZM45.084 229.174H44.3717C45.4257 211.183 46.9302 177.155 46.5989 126.236C46.5937 125.451 46.5662 121.821 46.5596 121.154C46.32 93.3371 45.5514 61.3854 44.0142 25.3138C44.1216 25.0239 44.2263 24.7196 44.3285 24.3994H44.6794C46.2493 61.0165 47.0205 93.2528 47.2614 121.146C47.2667 121.851 47.2942 125.402 47.2994 126.23C47.6281 176.807 46.1616 210.839 45.0827 229.173L45.084 229.174Z" fill="#BE9D67"/>
<path id="Vector_20" d="M218.695 229.174H217.98C217.377 218.984 216.668 204.153 216.211 184.54C216.188 183.469 216.118 180.166 216.071 177.872C216.057 177.08 216.045 176.401 216.036 175.988C216.003 174.127 215.97 172.188 215.944 170.314C215.553 143.973 215.639 111.117 216.73 71.5726C216.768 70.1761 216.815 68.5331 216.854 67.118C216.878 66.2893 216.903 65.4579 216.929 64.6226C216.955 63.7399 217.054 60.4671 217.083 59.5817C217.438 48.3563 217.873 36.6275 218.398 24.3994H219.1C218.581 36.4707 218.15 48.0769 217.797 59.2023C217.767 60.139 217.669 63.342 217.641 64.2735C217.616 65.1127 217.59 65.9494 217.566 66.7834C217.528 68.126 217.476 69.9363 217.439 71.263C216.346 110.816 216.247 143.877 216.65 170.573C216.677 172.403 216.71 174.397 216.745 176.276C216.752 176.714 216.766 177.399 216.78 178.171C216.825 180.477 216.896 183.74 216.924 184.877C217.388 204.535 218.107 219.257 218.695 229.173V229.174ZM45.7989 229.174H45.084C46.1616 210.841 47.6294 176.809 47.3008 126.231C47.2942 125.403 47.268 121.851 47.2628 121.148C47.0219 93.2541 46.2507 61.0178 44.6807 24.4007H45.3839C46.9603 61.1904 47.7263 93.4069 47.9646 121.141C47.9712 121.884 47.996 125.356 48.0026 126.227C48.3286 176.4 46.9066 210.435 45.8002 229.176L45.7989 229.174Z" fill="#BE9E66"/>
<path id="Vector_21" d="M217.98 229.174H217.267C216.642 218.667 215.949 203.722 215.502 184.203C215.47 182.844 215.355 177.176 215.329 175.701C215.143 165.254 215.029 153.651 215.029 140.873C215.028 119.036 215.356 93.7627 216.214 64.9718C216.24 64.1378 216.342 60.7965 216.368 59.9585C216.725 48.6369 217.162 36.7869 217.693 24.3994H218.398C217.873 36.6275 217.438 48.3549 217.083 59.5817C217.056 60.4671 216.955 63.7412 216.929 64.6226C216.903 65.4579 216.878 66.2906 216.854 67.118C216.815 68.5318 216.768 70.1747 216.73 71.5726C215.639 111.117 215.553 143.973 215.944 170.314C215.97 172.188 216.003 174.127 216.036 175.988C216.045 176.401 216.057 177.079 216.071 177.872C216.118 180.167 216.188 183.47 216.211 184.54C216.67 204.152 217.378 218.984 217.98 229.174ZM46.5125 229.174H45.7976C46.904 210.435 48.3273 176.4 48 126.226C47.9934 125.355 47.9685 121.883 47.962 121.14C47.7237 93.4056 46.9577 61.1891 45.3812 24.3994H46.0844C47.6674 61.3657 48.4242 93.565 48.6625 121.135C48.669 121.913 48.6952 125.306 48.7005 126.222C48.7332 131.218 48.7489 136.056 48.7489 140.736C48.7502 182.622 47.5377 211.896 46.5112 229.173L46.5125 229.174Z" fill="#BC9C67"/>
<path id="Vector_22" d="M217.267 229.174C216.642 218.667 215.949 203.722 215.502 184.203C215.47 182.844 202.307 180.059 202.307 180.059C202.307 180.059 215.355 177.176 215.329 175.701C215.143 165.254 215.029 153.652 215.029 140.873C215.029 153.652 215.143 165.254 215.329 175.701C215.355 177.176 215.47 182.844 215.502 184.203C215.949 203.722 216.642 218.667 217.267 229.174ZM48.7031 126.223C48.6978 125.307 48.6716 121.913 48.6651 121.136C48.6716 121.915 58.7498 123.461 58.7498 123.461C58.7498 123.461 48.6978 125.309 48.7031 126.224V126.223ZM216.214 64.9732C216.24 64.1392 212.057 62.4659 212.057 62.4659C212.057 62.4659 216.342 60.7992 216.368 59.96C216.342 60.7992 216.24 64.1405 216.214 64.9732V64.9732Z" fill="#BC9C65"/>
<path id="Vector_23" d="M218.674 248.073C218.674 248.073 216.489 227.278 215.503 184.203C215.471 182.844 202.308 180.059 202.308 180.059C202.308 180.059 215.356 177.176 215.33 175.7C214.826 147.404 214.857 110.61 216.215 64.9717C216.241 64.1377 212.058 62.4644 212.058 62.4644C212.058 62.4644 216.343 60.7977 216.37 59.9584C216.926 42.2994 217.68 23.3506 218.674 3.09204H45.1063C47.3688 49.1203 48.3836 88.3923 48.6664 121.134C48.673 121.913 58.7511 123.46 58.7511 123.46C58.7511 123.46 48.6992 125.307 48.7044 126.223C49.2399 208.744 45.1063 248.074 45.1063 248.074H218.674V248.073Z" fill="#F9EBC2"/>
<path id="Vector_24" d="M216.802 47.0296C216.802 47.0296 158.847 34.152 78.9336 34.152C68.481 34.152 57.6421 34.372 46.5203 34.8713C46.3842 31.4233 46.2401 27.9318 46.0883 24.3982H217.693C217.361 32.1519 217.064 39.6935 216.802 47.0296V47.0296Z" fill="#B6A785"/>
<g id="Group">
<path id="Vector_25" d="M217.267 226.78H46.5138C46.5531 226.388 46.5937 225.985 46.6343 225.571C46.6343 225.571 89.3287 226.151 142.694 226.151C166.349 226.151 192.106 226.036 217.16 225.706C217.197 226.073 217.231 226.431 217.268 226.779L217.267 226.78Z" fill="#B6A785"/>
<path id="Vector_26" d="M228.147 239.783C228.147 236.655 229.269 234.118 238.892 234.118C248.516 234.118 263 236.655 263 239.783C263 242.911 248.516 245.447 238.892 245.447C229.268 245.447 228.147 242.91 228.147 239.783V239.783Z" fill="#753D2E"/>
<path id="Vector_27" d="M263 239.783C263 239.486 262.87 239.197 262.627 238.913C262.878 239.065 263 239.344 263 239.783Z" fill="#947A52"/>
<path id="Vector_28" d="M238.892 245.447C238.874 245.447 238.854 245.447 238.837 245.447C238.988 244.466 239.103 243.433 239.175 242.363C239.374 242.365 239.577 242.365 239.784 242.365C240.565 242.365 241.394 242.348 242.275 242.31C253.404 241.828 259.644 238.765 261.954 238.765C262.237 238.765 262.461 238.811 262.627 238.912C262.869 239.195 263 239.485 263 239.782C263 242.91 248.516 245.446 238.892 245.446V245.447Z" fill="#543229"/>
<path id="Vector_29" d="M35.502 239.783C35.502 236.655 34.3825 234.118 24.7574 234.118C15.1323 234.118 0.650696 236.655 0.650696 239.783C0.650696 242.911 15.1323 245.447 24.7574 245.447C34.3825 245.447 35.502 242.91 35.502 239.783Z" fill="#9C533D"/>
<path id="Vector_30" d="M4.09175 238.226C4.48718 236.95 19.2895 233.823 27.2452 235.242C27.4285 236.097 21.907 235.933 15.2174 236.828C8.00675 237.792 3.91892 238.787 4.09175 238.227V238.226Z" fill="#D48167"/>
<path id="Vector_31" d="M0.649414 239.783C0.649414 239.346 0.743688 239.101 0.949258 239.002C0.752854 239.257 0.649414 239.518 0.649414 239.783Z" fill="#947A52"/>
<path id="Vector_32" d="M24.7574 245.447C15.1323 245.447 0.650696 242.91 0.650696 239.783C0.650696 239.518 0.755445 239.257 0.95054 239.002C1.02648 238.966 1.11552 238.949 1.22158 238.949C2.02029 238.949 3.71853 239.927 6.67508 240.903C9.63293 241.881 13.8491 242.857 19.6888 242.857C20.2794 242.857 20.8882 242.846 21.5128 242.827C22.593 242.79 23.5934 242.733 24.5204 242.659C24.5937 243.625 24.7011 244.559 24.8373 245.448C24.8098 245.448 24.7823 245.448 24.7548 245.448L24.7574 245.447Z" fill="#734133"/>
<path id="Vector_33" d="M233.52 224.095H222.585V255.001H233.52C236.694 255.001 239.27 248.082 239.27 239.547C239.27 231.011 236.694 224.094 233.52 224.094V224.095Z" fill="#8E4431"/>
<path id="Vector_34" d="M233.533 255.001H233.535H233.533ZM233.548 255.001C233.551 255.001 233.551 255.001 233.551 255.001H233.548ZM233.578 254.999C233.58 254.999 233.58 254.999 233.582 254.999C233.58 254.999 233.58 254.999 233.578 254.999ZM233.594 254.998C233.594 254.998 233.594 254.998 233.597 254.998C233.594 254.998 233.594 254.998 233.594 254.998ZM233.624 254.997H233.626H233.624ZM233.639 254.995H233.642C233.642 254.995 233.642 254.995 233.639 254.995Z" fill="#947A52"/>
<path id="Vector_35" d="M233.52 255.001H222.585C222.59 255.001 222.596 255.001 222.6 255.001C222.601 255.001 222.601 255.001 222.604 255.001C222.607 255.001 222.611 255.001 222.615 255.001C222.618 255.001 222.618 255.001 222.619 255.001C222.623 255.001 222.628 254.999 222.634 254.999C222.638 254.999 222.641 254.999 222.648 254.999H222.649C222.655 254.999 222.66 254.999 222.664 254.998C222.665 254.998 222.665 254.998 222.665 254.998C222.67 254.998 222.674 254.998 222.679 254.998C222.685 254.998 222.69 254.997 222.695 254.997C222.695 254.997 222.695 254.997 222.698 254.997C222.702 254.997 222.706 254.997 222.712 254.995C222.723 254.995 222.733 254.994 222.742 254.994C222.744 254.994 222.744 254.994 222.744 254.994C224.723 254.853 226.454 252.023 227.448 247.812C227.449 247.807 227.452 247.802 227.452 247.796L227.453 247.795C227.739 246.575 227.967 245.24 228.119 243.821H228.117H239.047C238.366 250.171 236.216 254.849 233.648 254.994H233.645C233.641 254.995 233.638 254.995 233.631 254.995H233.628C233.623 254.995 233.621 254.997 233.614 254.997C233.609 254.997 233.603 254.997 233.6 254.997C233.597 254.997 233.597 254.997 233.597 254.997C233.592 254.998 233.589 254.998 233.583 254.998C233.581 254.998 233.581 254.998 233.579 254.998C233.575 254.998 233.571 254.998 233.564 254.998C233.559 254.998 233.555 254.999 233.55 254.999C233.55 254.999 233.55 254.999 233.547 254.999C233.542 254.999 233.539 254.999 233.533 254.999H233.53C233.525 254.999 233.52 254.999 233.516 254.999L233.52 255.001Z" fill="#67382C"/>
<path id="Vector_36" d="M228.336 239.547C228.336 248.081 225.76 255.001 222.585 255.001C219.41 255.001 216.837 248.082 216.837 239.547C216.837 231.011 219.411 224.094 222.585 224.094C225.76 224.094 228.336 231.011 228.336 239.547Z" fill="#D48167"/>
<path id="Vector_37" d="M222.6 255.001C222.601 255.001 222.601 255.001 222.604 255.001C222.601 255.001 222.601 255.001 222.6 255.001ZM222.615 255.001C222.618 255.001 222.618 255.001 222.619 255.001C222.618 255.001 222.618 255.001 222.615 255.001ZM222.648 254.999H222.649H222.648ZM222.664 254.998C222.665 254.998 222.665 254.998 222.665 254.998C222.665 254.998 222.665 254.998 222.664 254.998ZM222.695 254.997C222.695 254.997 222.695 254.997 222.698 254.997C222.695 254.997 222.695 254.997 222.695 254.997ZM222.741 254.994C222.742 254.994 222.742 254.994 222.742 254.994C222.742 254.994 222.742 254.994 222.741 254.994ZM227.447 247.812C227.448 247.807 227.451 247.801 227.451 247.796C227.451 247.801 227.448 247.807 227.447 247.812ZM227.452 247.796C227.738 246.576 227.964 245.242 228.116 243.823H228.117C227.965 245.242 227.738 246.577 227.452 247.796Z" fill="#4D3129"/>
<path id="Vector_38" d="M222.585 255.001C221.385 255.001 220.269 254.009 219.345 252.314H221.756C221.762 252.314 221.767 252.314 221.771 252.314C221.773 252.314 221.775 252.314 221.776 252.314C221.78 252.313 221.783 252.313 221.786 252.313C221.786 252.313 221.789 252.313 221.79 252.313C221.794 252.313 221.8 252.313 221.802 252.313H221.804C221.809 252.313 221.814 252.313 221.818 252.313C221.819 252.313 221.819 252.313 221.819 252.313C221.824 252.313 221.828 252.313 221.834 252.313H221.836C221.841 252.313 221.845 252.313 221.851 252.312C221.851 252.312 221.851 252.312 221.853 252.312C221.861 252.312 221.872 252.31 221.883 252.31C223.803 252.18 225.441 248.989 226.141 244.485C226.144 244.48 226.144 244.475 226.145 244.47C226.145 244.468 226.145 244.467 226.145 244.467C226.168 244.318 226.191 244.168 226.212 244.018L228.117 243.824C227.964 245.243 227.739 246.579 227.453 247.798C227.452 247.798 227.453 247.798 227.452 247.799C227.452 247.804 227.449 247.81 227.448 247.815C226.453 252.026 224.722 254.856 222.744 254.997C222.744 254.997 222.744 254.997 222.742 254.997C222.733 254.997 222.723 254.998 222.712 254.998C222.707 254.999 222.702 254.999 222.698 254.999C222.695 254.999 222.695 254.999 222.695 254.999C222.69 255.001 222.685 255.001 222.679 255.001C222.674 255.001 222.672 255.001 222.665 255.001C222.665 255.001 222.665 255.001 222.664 255.001C222.66 255.002 222.655 255.002 222.649 255.002H222.648C222.643 255.002 222.639 255.002 222.634 255.002C222.628 255.002 222.623 255.003 222.619 255.003C222.618 255.003 222.618 255.003 222.615 255.003C222.611 255.003 222.607 255.003 222.604 255.003C222.601 255.003 222.601 255.003 222.6 255.003C222.596 255.003 222.59 255.003 222.585 255.003V255.001Z" fill="#9C5D4A"/>
<path id="Vector_39" d="M30.1572 224.095H41.0904V255.001H30.1572C26.982 255.001 24.4065 248.082 24.4065 239.547C24.4065 231.011 26.982 224.094 30.1572 224.094V224.095Z" fill="#8E4431"/>
<path id="Vector_40" d="M30.1435 255.001C30.1435 255.001 30.1422 255.001 30.1409 255.001C30.1409 255.001 30.1422 255.001 30.1435 255.001ZM30.1276 255.001C30.1263 255.001 30.1263 255.001 30.1249 255.001C30.1263 255.001 30.1263 255.001 30.1276 255.001ZM30.1117 254.999C30.1103 254.999 30.1103 254.999 30.1103 254.999H30.1117ZM30.0957 254.999C30.0957 254.999 30.0944 254.999 30.0931 254.999C30.0944 254.999 30.0944 254.999 30.0957 254.999Z" fill="#947A52"/>
<path id="Vector_41" d="M41.0891 255.001H30.1559C30.1507 255.001 30.1468 255.001 30.1415 255.001C30.1415 255.001 30.1402 255.001 30.1389 255.001C30.135 255.001 30.1297 255.001 30.1258 255.001C30.1245 255.001 30.1245 255.001 30.1232 255.001C30.1193 255.001 30.114 254.999 30.1101 254.999H30.1088C30.1049 254.999 30.0996 254.999 30.0944 254.999C30.0944 254.999 30.0931 254.999 30.0918 254.999C30.0878 254.999 30.0826 254.999 30.0774 254.998C27.4887 254.907 25.3178 250.21 24.6317 243.823H35.561C36.251 250.277 38.4651 254.999 41.0878 254.999L41.0891 255.001Z" fill="#67382C"/>
<path id="Vector_42" d="M35.3397 239.547C35.3397 248.081 37.9152 255.001 41.0891 255.001C44.2643 255.001 46.8385 248.082 46.8385 239.547C46.8385 231.011 44.2643 224.094 41.0891 224.094C37.9139 224.094 35.3397 231.011 35.3397 239.547Z" fill="#753D2E"/>
<path id="Vector_43" d="M221.756 226.78H42.0227C39.3987 226.78 37.271 232.494 37.271 239.549C37.271 246.597 39.3987 252.314 42.0227 252.314H221.756C224.38 252.314 226.507 246.597 226.507 239.549C226.507 232.496 224.38 226.78 221.756 226.78Z" fill="#F9EBC2"/>
<path id="Vector_44" d="M221.776 252.314C221.78 252.313 221.782 252.313 221.786 252.313C221.782 252.313 221.78 252.313 221.776 252.314Z" fill="#815042"/>
<path id="Vector_45" d="M42.0052 252.314C42.0015 252.313 41.9989 252.313 41.9952 252.313C41.9989 252.313 42.0015 252.313 42.0052 252.314Z" fill="#5F362B"/>
<path id="Vector_46" d="M221.835 252.312C221.84 252.312 221.844 252.312 221.849 252.31C221.844 252.312 221.841 252.312 221.835 252.312Z" fill="#815042"/>
<path id="Vector_47" d="M41.9437 252.312C41.9412 252.312 41.9362 252.312 41.9337 252.31C41.9362 252.312 41.9412 252.312 41.9437 252.312Z" fill="#5F362B"/>
<path id="Vector_48" d="M41.9308 252.31C41.9204 252.31 41.9113 252.309 41.9022 252.309C41.9113 252.309 41.9217 252.31 41.9308 252.31Z" fill="#5F362B"/>
<path id="Vector_49" d="M221.881 252.31C223.799 252.18 225.436 248.989 226.139 244.485C225.438 248.987 223.8 252.178 221.881 252.31Z" fill="#815042"/>
<path id="Vector_50" d="M41.8996 252.309C41.8943 252.309 41.8904 252.309 41.8865 252.309C41.8904 252.309 41.8943 252.309 41.8996 252.309ZM41.8839 252.308C40.4907 252.201 39.2468 250.482 38.4036 247.819C39.2468 250.482 40.4894 252.201 41.8839 252.308ZM38.3983 247.803C38.3983 247.8 38.3957 247.796 38.3957 247.795C38.3957 247.798 38.3983 247.8 38.3983 247.803ZM38.3892 247.775C38.3892 247.774 38.3892 247.774 38.3892 247.773V247.775Z" fill="#5F362B"/>
<path id="Vector_51" d="M221.756 252.314H42.0227C42.0174 252.314 42.0135 252.314 42.0083 252.314C42.007 252.314 42.0056 252.314 42.0043 252.314C42.0004 252.313 41.9978 252.313 41.9939 252.313C41.9925 252.313 41.9912 252.313 41.9899 252.313C41.986 252.313 41.9821 252.313 41.9781 252.313C41.9781 252.313 41.9768 252.313 41.9755 252.313C41.9703 252.313 41.9651 252.313 41.9611 252.313C41.9598 252.313 41.9585 252.313 41.9585 252.313C41.9546 252.313 41.9506 252.313 41.9467 252.313C41.9454 252.313 41.9441 252.313 41.9428 252.313C41.9402 252.313 41.9349 252.313 41.9323 252.311C41.931 252.311 41.9297 252.311 41.9297 252.311C41.9205 252.311 41.9101 252.31 41.9009 252.31C41.8996 252.31 41.8996 252.31 41.8983 252.309C41.893 252.309 41.8891 252.309 41.8852 252.309C41.8852 252.309 41.8839 252.308 41.8826 252.308C40.4894 252.201 39.2468 250.481 38.4023 247.819C38.3997 247.813 38.3983 247.808 38.397 247.803C38.397 247.8 38.3944 247.796 38.3944 247.795C38.3918 247.787 38.3905 247.782 38.3879 247.775V247.773C38.0409 246.666 37.762 245.398 37.5695 244.018C37.5695 244.018 66.9673 245.447 131.888 245.447C196.81 245.447 226.206 244.018 226.206 244.018C226.185 244.168 226.162 244.318 226.139 244.467C226.139 244.468 226.139 244.469 226.139 244.469C226.137 244.475 226.137 244.48 226.135 244.485C225.432 248.987 223.795 252.178 221.877 252.31C221.866 252.31 221.856 252.311 221.847 252.311C221.844 252.311 221.844 252.311 221.844 252.311C221.839 252.313 221.836 252.313 221.83 252.313H221.827C221.822 252.313 221.819 252.313 221.813 252.313C221.813 252.313 221.813 252.313 221.811 252.313C221.807 252.313 221.802 252.313 221.797 252.313H221.796C221.792 252.313 221.786 252.313 221.784 252.313C221.783 252.313 221.78 252.313 221.78 252.313C221.776 252.313 221.773 252.313 221.769 252.314C221.767 252.314 221.766 252.314 221.764 252.314C221.76 252.314 221.756 252.314 221.75 252.314H221.756Z" fill="#CDBF9B"/>
</g>
<g id="Group_2">
<path id="Vector_52" d="M216.617 2.68631H45.8644C45.9037 2.29368 45.9443 1.89051 45.9848 1.47681C45.9848 1.47681 88.6792 2.05652 142.045 2.05652C165.7 2.05652 191.456 1.9419 216.511 1.61251C216.548 1.97879 216.582 2.33716 216.618 2.68499L216.617 2.68631Z" fill="#B6A785"/>
<path id="Vector_53" d="M227.497 15.6891C227.497 12.5613 228.619 10.0237 238.241 10.0237C247.865 10.0237 262.349 12.5613 262.349 15.6891C262.349 18.817 247.865 21.3532 238.241 21.3532C228.617 21.3532 227.497 18.8156 227.497 15.6891Z" fill="#753D2E"/>
<path id="Vector_54" d="M262.349 15.6892C262.349 15.3927 262.22 15.1029 261.976 14.8196C262.228 14.9711 262.349 15.2504 262.349 15.6892Z" fill="#947A52"/>
<path id="Vector_55" d="M238.243 21.3532C238.224 21.3532 238.205 21.3532 238.188 21.3532C238.338 20.3717 238.453 19.3387 238.525 18.2689C238.724 18.2715 238.927 18.2715 239.134 18.2715C239.916 18.2715 240.745 18.2544 241.626 18.2162C252.754 17.7339 258.995 14.6707 261.304 14.6707C261.587 14.6707 261.811 14.7168 261.977 14.8182C262.22 15.1015 262.351 15.3913 262.351 15.6878C262.351 18.8156 247.866 21.3519 238.243 21.3519V21.3532Z" fill="#543229"/>
<path id="Vector_56" d="M34.8513 15.6891C34.8513 12.5613 33.7318 10.0237 24.1067 10.0237C14.4816 10.0237 0 12.5613 0 15.6891C0 18.817 14.4816 21.3532 24.1067 21.3532C33.7318 21.3532 34.8513 18.8156 34.8513 15.6891Z" fill="#9C533D"/>
<path id="Vector_57" d="M3.44234 14.1318C3.83777 12.8564 18.6401 9.72855 26.5958 11.1475C26.7791 12.0026 21.2575 11.8392 14.568 12.7339C7.35734 13.6983 3.2695 14.693 3.44234 14.1331V14.1318Z" fill="#D48167"/>
<path id="Vector_58" d="M0 15.6893C0 15.2518 0.0942741 15.0068 0.299844 14.908C0.10344 15.1636 0 15.4244 0 15.6893Z" fill="#947A52"/>
<path id="Vector_59" d="M24.1067 21.3533C14.4816 21.3533 0 18.8158 0 15.6892C0 15.4244 0.104749 15.1635 0.299844 14.9079C0.375787 14.8724 0.464824 14.8552 0.570882 14.8552C1.36959 14.8552 3.06784 15.8328 6.02438 16.8091C8.98223 17.7868 13.1984 18.7631 19.0381 18.7631C19.6287 18.7631 20.2375 18.7525 20.8621 18.7327C21.9423 18.6959 22.9427 18.6392 23.8697 18.5654C23.943 19.5312 24.0504 20.4653 24.1866 21.3547C24.1591 21.3547 24.1316 21.3547 24.1041 21.3547L24.1067 21.3533Z" fill="#734133"/>
<path id="Vector_60" d="M232.869 0.0010734H221.934V30.9066H232.869C236.043 30.9066 238.62 23.9882 238.62 15.4532C238.62 6.91685 236.043 -0.000244141 232.869 -0.000244141V0.0010734Z" fill="#8E4431"/>
<path id="Vector_61" d="M232.883 30.9065H232.886H232.883ZM232.899 30.9065C232.901 30.9065 232.901 30.9065 232.901 30.9065H232.899ZM232.928 30.9052C232.931 30.9052 232.931 30.9052 232.932 30.9052C232.931 30.9052 232.931 30.9052 232.928 30.9052ZM232.945 30.9039C232.945 30.9039 232.945 30.9039 232.947 30.9039C232.945 30.9039 232.945 30.9039 232.945 30.9039ZM232.974 30.9027H232.977H232.974ZM232.99 30.9014H232.992C232.992 30.9014 232.992 30.9014 232.99 30.9014Z" fill="#947A52"/>
<path id="Vector_62" d="M232.869 30.9066H221.934C221.94 30.9066 221.945 30.9066 221.949 30.9066C221.95 30.9066 221.95 30.9066 221.953 30.9066C221.957 30.9066 221.961 30.9066 221.965 30.9066C221.967 30.9066 221.967 30.9066 221.968 30.9066C221.972 30.9066 221.978 30.9053 221.983 30.9053C221.987 30.9053 221.991 30.9053 221.997 30.9053H221.999C222.004 30.9053 222.009 30.9053 222.013 30.904C222.014 30.904 222.014 30.904 222.014 30.904C222.02 30.904 222.023 30.904 222.029 30.904C222.034 30.904 222.039 30.9027 222.044 30.9027C222.044 30.9027 222.044 30.9027 222.047 30.9027C222.051 30.9027 222.055 30.9027 222.061 30.9014C222.072 30.9014 222.082 30.9 222.092 30.9C222.093 30.9 222.093 30.9 222.093 30.9C224.073 30.7591 225.804 27.929 226.797 23.7181C226.799 23.7129 226.801 23.7076 226.801 23.7023L226.803 23.701C227.088 22.481 227.316 21.1463 227.468 19.7273H227.467H238.396C237.715 26.0765 235.565 30.7551 232.997 30.9H232.995C232.991 30.9014 232.987 30.9014 232.98 30.9014H232.978C232.972 30.9014 232.97 30.9027 232.963 30.9027C232.958 30.9027 232.953 30.9027 232.949 30.9027C232.946 30.9027 232.946 30.9027 232.946 30.9027C232.941 30.904 232.938 30.904 232.932 30.904C232.93 30.904 232.93 30.904 232.928 30.904C232.924 30.904 232.92 30.904 232.913 30.904C232.908 30.904 232.904 30.9053 232.899 30.9053C232.899 30.9053 232.899 30.9053 232.896 30.9053C232.891 30.9053 232.889 30.9053 232.882 30.9053H232.879C232.874 30.9053 232.869 30.9053 232.865 30.9053L232.869 30.9066Z" fill="#67382C"/>
<path id="Vector_63" d="M227.686 15.4547C227.686 23.9884 225.111 30.9081 221.936 30.9081C218.761 30.9081 216.188 23.9897 216.188 15.4547C216.188 6.91831 218.762 0.0012207 221.936 0.0012207C225.111 0.0012207 227.686 6.91831 227.686 15.4547Z" fill="#D48167"/>
<path id="Vector_64" d="M221.95 30.9068C221.951 30.9068 221.951 30.9068 221.954 30.9068C221.951 30.9068 221.951 30.9068 221.95 30.9068ZM221.966 30.9068C221.968 30.9068 221.968 30.9068 221.97 30.9068C221.968 30.9068 221.968 30.9068 221.966 30.9068ZM221.999 30.9055H222H221.999ZM222.014 30.9041C222.016 30.9041 222.016 30.9041 222.016 30.9041C222.016 30.9041 222.016 30.9041 222.014 30.9041ZM222.046 30.9028C222.046 30.9028 222.046 30.9028 222.048 30.9028C222.046 30.9028 222.046 30.9028 222.046 30.9028ZM222.092 30.9002C222.093 30.9002 222.093 30.9002 222.093 30.9002C222.093 30.9002 222.093 30.9002 222.092 30.9002ZM226.797 23.7183C226.799 23.713 226.801 23.7077 226.801 23.7025C226.801 23.7077 226.799 23.713 226.797 23.7183ZM226.803 23.7025C227.088 22.4824 227.315 21.1478 227.467 19.7288H227.468C227.316 21.1478 227.088 22.4837 226.803 23.7025Z" fill="#4D3129"/>
<path id="Vector_65" d="M221.936 30.9067C220.735 30.9067 219.62 29.9146 218.695 28.2202H221.107C221.112 28.2202 221.117 28.2202 221.121 28.2202C221.124 28.2202 221.125 28.2202 221.127 28.2202C221.131 28.2189 221.133 28.2189 221.137 28.2189C221.137 28.2189 221.14 28.2189 221.141 28.2189C221.145 28.2189 221.15 28.2189 221.153 28.2189H221.154C221.159 28.2189 221.165 28.2189 221.168 28.2189C221.17 28.2189 221.17 28.2189 221.17 28.2189C221.175 28.2189 221.179 28.2189 221.184 28.2189H221.187C221.192 28.2189 221.196 28.2189 221.201 28.2176C221.201 28.2176 221.201 28.2176 221.204 28.2176C221.212 28.2176 221.222 28.2163 221.234 28.2163C223.153 28.0858 224.791 24.8947 225.492 20.3914C225.495 20.3861 225.495 20.3808 225.496 20.3756C225.496 20.3743 225.496 20.3729 225.496 20.3729C225.518 20.2241 225.542 20.0739 225.563 19.9237L227.468 19.73C227.315 21.149 227.089 22.485 226.804 23.7037C226.803 23.7037 226.804 23.7037 226.803 23.705C226.803 23.7103 226.8 23.7155 226.799 23.7208C225.804 27.9317 224.073 30.7617 222.094 30.9027C222.094 30.9027 222.094 30.9027 222.093 30.9027C222.084 30.9027 222.073 30.904 222.063 30.904C222.058 30.9054 222.052 30.9054 222.048 30.9054C222.046 30.9054 222.046 30.9054 222.046 30.9054C222.041 30.9067 222.035 30.9067 222.03 30.9067C222.025 30.9067 222.022 30.9067 222.016 30.9067C222.016 30.9067 222.016 30.9067 222.014 30.9067C222.01 30.908 222.005 30.908 222 30.908H221.999C221.993 30.908 221.989 30.908 221.984 30.908C221.979 30.908 221.974 30.9093 221.97 30.9093C221.969 30.9093 221.969 30.9093 221.966 30.9093C221.962 30.9093 221.958 30.9093 221.954 30.9093C221.951 30.9093 221.951 30.9093 221.95 30.9093C221.946 30.9093 221.941 30.9093 221.936 30.9093V30.9067Z" fill="#9C5D4A"/>
<path id="Vector_66" d="M29.5065 0.0010734H40.4397V30.9066H29.5065C26.3313 30.9066 23.7558 23.9882 23.7558 15.4532C23.7558 6.91685 26.3313 -0.000244141 29.5065 -0.000244141V0.0010734Z" fill="#8E4431"/>
<path id="Vector_67" d="M29.4928 30.9069C29.4928 30.9069 29.4914 30.9069 29.4901 30.9069C29.4901 30.9069 29.4914 30.9069 29.4928 30.9069ZM29.4768 30.9069C29.4755 30.9069 29.4755 30.9069 29.4742 30.9069C29.4755 30.9069 29.4755 30.9069 29.4768 30.9069ZM29.4609 30.9055C29.4596 30.9055 29.4596 30.9055 29.4596 30.9055H29.4609ZM29.445 30.9055C29.445 30.9055 29.4436 30.9055 29.4423 30.9055C29.4436 30.9055 29.4436 30.9055 29.445 30.9055Z" fill="#947A52"/>
<path id="Vector_68" d="M40.4397 30.9068H29.5065C29.5013 30.9068 29.4973 30.9068 29.4921 30.9068C29.4921 30.9068 29.4908 30.9068 29.4895 30.9068C29.4856 30.9068 29.4803 30.9068 29.4764 30.9068C29.4751 30.9068 29.4751 30.9068 29.4738 30.9068C29.4698 30.9068 29.4646 30.9055 29.4607 30.9055H29.4594C29.4554 30.9055 29.4502 30.9055 29.445 30.9055C29.445 30.9055 29.4437 30.9055 29.4423 30.9055C29.4384 30.9055 29.4332 30.9055 29.4279 30.9041C26.8393 30.8132 24.6684 26.1162 23.9823 19.7288H34.9116C35.6016 26.1834 37.8157 30.9055 40.4384 30.9055L40.4397 30.9068Z" fill="#67382C"/>
<path id="Vector_69" d="M34.689 15.4547C34.689 23.9884 37.2645 30.9081 40.4384 30.9081C43.6136 30.9081 46.1878 23.9897 46.1878 15.4547C46.1878 6.91831 43.6136 0.0012207 40.4384 0.0012207C37.2632 0.0012207 34.689 6.91831 34.689 15.4547V15.4547Z" fill="#753D2E"/>
<path id="Vector_70" d="M221.107 2.68628H41.3733C38.7493 2.68628 36.6216 8.40045 36.6216 15.4546C36.6216 22.5034 38.7493 28.2202 41.3733 28.2202H221.107C223.731 28.2202 225.857 22.5034 225.857 15.4546C225.857 8.40177 223.731 2.68628 221.107 2.68628V2.68628Z" fill="#F9EBC2"/>
<path id="Vector_71" d="M221.127 28.2203C221.13 28.219 221.133 28.219 221.137 28.219C221.133 28.219 221.13 28.219 221.127 28.2203Z" fill="#815042"/>
<path id="Vector_72" d="M41.3558 28.2203C41.3521 28.219 41.3495 28.219 41.3458 28.219C41.3495 28.219 41.3521 28.219 41.3558 28.2203Z" fill="#5F362B"/>
<path id="Vector_73" d="M221.185 28.2188C221.19 28.2188 221.194 28.2188 221.199 28.2175C221.194 28.2188 221.192 28.2188 221.185 28.2188Z" fill="#815042"/>
<path id="Vector_74" d="M41.2943 28.2188C41.2918 28.2188 41.2868 28.2188 41.2842 28.2175C41.2868 28.2188 41.2918 28.2188 41.2943 28.2188Z" fill="#5F362B"/>
<path id="Vector_75" d="M41.2814 28.2176C41.271 28.2176 41.2619 28.2163 41.2528 28.2163C41.2619 28.2163 41.2723 28.2176 41.2814 28.2176Z" fill="#5F362B"/>
<path id="Vector_76" d="M221.23 28.2162C223.148 28.0858 224.785 24.8947 225.488 20.3914C224.788 24.8934 223.15 28.0845 221.23 28.2162V28.2162Z" fill="#815042"/>
<path id="Vector_77" d="M41.2501 28.215C41.2449 28.215 41.241 28.215 41.2371 28.215C41.241 28.215 41.2449 28.215 41.2501 28.215ZM41.2344 28.2137C39.8413 28.107 38.5974 26.3876 37.7541 23.7248C38.5974 26.3876 39.84 28.107 41.2344 28.2137ZM37.7489 23.709C37.7489 23.7064 37.7463 23.7024 37.7463 23.7011C37.7463 23.7037 37.7489 23.7064 37.7489 23.709ZM37.7397 23.6813C37.7397 23.68 37.7397 23.68 37.7397 23.6787V23.6813Z" fill="#5F362B"/>
<path id="Vector_78" d="M221.107 28.2204H41.3733C41.368 28.2204 41.3641 28.2204 41.3588 28.2204C41.3575 28.2204 41.3562 28.2204 41.3549 28.2204C41.351 28.2191 41.3484 28.2191 41.3444 28.2191C41.3431 28.2191 41.3418 28.2191 41.3405 28.2191C41.3366 28.2191 41.3327 28.2191 41.3287 28.2191C41.3287 28.2191 41.3274 28.2191 41.3261 28.2191C41.3209 28.2191 41.3156 28.2191 41.3117 28.2191C41.3104 28.2191 41.3091 28.2191 41.3091 28.2191C41.3052 28.2191 41.3012 28.2191 41.2973 28.2191C41.296 28.2191 41.2947 28.2191 41.2934 28.2191C41.2908 28.2191 41.2855 28.2191 41.2829 28.2177C41.2816 28.2177 41.2803 28.2177 41.2803 28.2177C41.2711 28.2177 41.2606 28.2164 41.2515 28.2164C41.2502 28.2164 41.2502 28.2164 41.2489 28.2151C41.2436 28.2151 41.2397 28.2151 41.2358 28.2151C41.2358 28.2151 41.2345 28.2138 41.2331 28.2138C39.84 28.1071 38.5974 26.3877 37.7529 23.7249C37.7502 23.7197 37.7489 23.7144 37.7476 23.7091C37.7476 23.7065 37.745 23.7025 37.745 23.7012C37.7424 23.6933 37.7411 23.688 37.7385 23.6815V23.6788C37.3915 22.5721 37.1126 21.3046 36.9201 19.9238C36.9201 19.9238 66.3179 21.3534 131.239 21.3534C196.161 21.3534 225.556 19.9238 225.556 19.9238C225.535 20.074 225.513 20.2242 225.489 20.3731C225.489 20.3744 225.489 20.3757 225.489 20.3757C225.488 20.381 225.488 20.3863 225.485 20.3916C224.782 24.8936 223.146 28.0847 221.227 28.2164C221.217 28.2164 221.206 28.2177 221.197 28.2177C221.195 28.2177 221.195 28.2177 221.195 28.2177C221.189 28.2191 221.187 28.2191 221.18 28.2191H221.178C221.172 28.2191 221.17 28.2191 221.163 28.2191C221.163 28.2191 221.163 28.2191 221.162 28.2191C221.158 28.2191 221.153 28.2191 221.148 28.2191H221.146C221.142 28.2191 221.137 28.2191 221.134 28.2191C221.133 28.2191 221.13 28.2191 221.13 28.2191C221.127 28.2191 221.124 28.2191 221.12 28.2204C221.117 28.2204 221.116 28.2204 221.115 28.2204C221.111 28.2204 221.107 28.2204 221.1 28.2204H221.107Z" fill="#CDBF9B"/>
</g>
</g>
</g>
</svg>
