<svg width="99" height="66" viewBox="0 0 99 66" fill="none" xmlns="http://www.w3.org/2000/svg">
<g id="1 348">
<g id="&#208;&#161;&#208;&#187;&#208;&#190;&#208;&#185;_x0020_1">
<g id="_1982831678944">
<path id="Vector" d="M85.5993 8.47189V8.65609V8.84106V9.02526V9.20984V9.39442V9.57978V9.76436V9.94972V10.1355V10.3212V10.5073V10.6934V10.8803V10.9065C85.5993 10.9597 85.617 11.0133 85.6516 11.0653C85.6916 11.1262 85.7552 11.1859 85.8402 11.2449C85.9269 11.3046 86.0358 11.3632 86.1655 11.4194C86.2984 11.4773 86.4535 11.5339 86.629 11.5886C83.1005 11.7343 77.9312 11.9131 71.0808 12.0318C70.6092 12.0399 69.4262 12.0584 68.5589 12.0707C68.2863 12.0745 68.0284 12.078 67.8463 12.0803C67.1349 12.0896 66.3515 12.0996 65.7017 12.1065C55.5167 12.2183 43.0716 12.1863 28.366 11.8942C27.9244 11.8853 27.1276 11.8692 26.681 11.8603C26.3673 11.8534 26.0527 11.8468 25.7371 11.8399C25.354 11.8314 24.2153 11.8063 23.83 11.7979C20.0685 11.7115 16.1688 11.6083 12.1382 11.4869C12.288 11.4306 12.4162 11.3721 12.5217 11.3123C12.6248 11.2537 12.7061 11.194 12.7642 11.1331C12.8212 11.0734 12.8562 11.0117 12.8681 10.9497C12.8701 10.9354 12.8716 10.9208 12.8716 10.9065V10.7636V10.5775V10.3913V10.2052V10.0191V9.83296V9.64683V9.46071V9.27458V9.08884V8.90272V8.71659V8.53085V8.34473C16.8344 8.46226 20.7449 8.56476 24.5664 8.6507L26.4192 8.69077C41.1525 9.00445 54.9131 9.08306 67.3193 8.92468C67.8625 8.91774 69.9497 8.8873 70.4506 8.87959C76.8094 8.77593 81.8536 8.61987 85.5989 8.47189H85.5993ZM87.2966 12.3173C83.3907 12.4826 77.8349 12.6664 70.5788 12.7851C70.0737 12.7932 69.0385 16.2845 69.0385 16.2845C69.0385 16.2845 67.9668 12.8241 67.4186 12.831C63.5355 12.8803 59.2223 12.9104 54.4719 12.9104C59.2223 12.9104 63.5355 12.8799 67.4186 12.831C67.9668 12.8241 70.0737 12.7932 70.5788 12.7851C77.8349 12.6664 83.3907 12.4826 87.2966 12.3173ZM49.0254 57.0232C48.6851 57.0243 47.4236 57.0312 47.1345 57.0332C47.4236 57.0312 47.9987 54.3588 47.9987 54.3588C47.9987 54.3588 48.6851 57.0247 49.0254 57.0232V57.0232ZM26.2564 12.5963C25.9465 12.5894 25.324 13.6988 25.324 13.6988C25.324 13.6988 24.7046 12.562 24.3924 12.5555C24.7042 12.5624 25.9461 12.5894 26.256 12.5963H26.2564ZM86.706 58.3368C86.5232 58.3915 86.3611 58.4478 86.221 58.506C86.0843 58.5626 85.9688 58.6212 85.8753 58.6809C85.784 58.7395 85.7144 58.7996 85.6678 58.8609C85.6224 58.9202 85.5993 58.9811 85.5993 59.0428V59.0462V59.2335V59.42V59.6066V59.7927V59.9784V60.1638V60.3484V60.5329V60.7171V60.9009V61.0848V61.2678V61.4508C78.3489 61.1657 66.219 60.8509 49.0616 60.9302L47.183 60.9403C36.3821 61.0069 24.8763 61.2204 12.8724 61.5769V61.3907V61.2046V61.0185V60.8324V60.6462V60.4605V60.2744V60.0882V59.9021V59.7156V59.5295V59.343V59.1565V59.0416C12.8724 59.0177 12.8689 58.9942 12.862 58.9703C12.8439 58.9087 12.8015 58.8474 12.738 58.7877C12.6726 58.7268 12.584 58.6674 12.4743 58.6093C12.3615 58.5495 12.226 58.4917 12.0693 58.4351C25.1924 58.0401 36.8906 57.8397 47.1437 57.7765C47.3786 57.775 48.7571 57.7677 49.0327 57.7665C67.5106 57.6809 79.9726 58.0617 86.7064 58.3357L86.706 58.3368Z" fill="#CDAB72"/>
<path id="Vector_2" d="M86 40C86 40 79.7188 40.2644 66.7067 40.3836C66.2964 40.3874 65.455 41.98 65.455 41.98C65.455 41.98 64.5842 40.4014 64.1384 40.4045C55.591 40.4657 44.4769 40.4617 30.6914 40.2975C30.4395 40.2943 29.9338 40.8005 29.9338 40.8005C29.9338 40.8005 29.4305 40.282 29.177 40.2788C23.8427 40.2115 18.119 40.1203 12 40V61C25.9037 60.7262 37.7661 60.6035 47.6564 60.5693C47.8913 60.5685 48.3587 59.3492 48.3587 59.3492C48.3587 59.3492 48.9166 60.5654 49.1932 60.5647C74.1202 60.5 86 61 86 61V40V40Z" fill="#D42326"/>
<path id="Vector_3" d="M86 11C86 11 79.7188 11.4029 66.7067 11.5846C66.2964 11.5904 65.455 14.0171 65.455 14.0171C65.455 14.0171 64.5842 11.6116 64.1384 11.6164C55.591 11.7096 44.4769 11.7035 30.6914 11.4533C30.4395 11.4485 29.9338 12.2199 29.9338 12.2199C29.9338 12.2199 29.4305 11.4297 29.177 11.4249C23.8427 11.3223 18.119 11.1834 12 11V43C25.9037 42.5828 37.7661 42.3959 47.6564 42.3437C47.8913 42.3425 48.3587 40.4845 48.3587 40.4845C48.3587 40.4845 48.9166 42.3377 49.1932 42.3368C74.1202 42.2381 86 43 86 43V11V11Z" fill="#F7F5F8"/>
</g>
<g id="_1982831681248">
<path id="Vector_4" d="M0.445068 0.379957H15.8794V0H0.445068V0.379957Z" fill="#CCC9C8"/>
<path id="Vector_5" d="M1.29541 3.66231H15.0294V2.29932H1.29541V3.66231Z" fill="#DCDBDB"/>
<path id="Vector_6" d="M0.785889 1.20415H15.5392V0.379883H0.785889V1.20415Z" fill="#A9A7A6"/>
<path id="Vector_7" d="M0.785889 1.51296H15.5392V1.01855H0.785889V1.51296Z" fill="#CCC9C8"/>
<path id="Vector_8" d="M0.785889 1.5127L1.29558 2.2992H15.0295L15.5388 1.5127H0.785889Z" fill="#A9A7A6"/>
<path id="Vector_9" d="M2.31445 7.21706H14.01V4.85986H2.31445V7.21706Z" fill="#F9CA57"/>
<path id="Vector_10" d="M2.60327 60.3925H13.7218V8.24902H2.60327V60.3925Z" fill="#DCDBDB"/>
<path id="Vector_11" d="M13.7218 12.0258H2.60327V8.24854H13.7218H2.60327V10.4042H13.7218V12.0258Z" fill="#D0CECD"/>
<path id="Vector_12" d="M2.60327 10.4042H13.7218V8.24854H2.60327V10.4042Z" fill="#C5C3C2"/>
<path id="Vector_13" d="M14.077 4.4306H2.24782C2.03686 4.4306 1.86401 4.25797 1.86401 4.04718C1.86401 3.83524 2.03686 3.6626 2.24782 3.6626H14.077C14.2879 3.6626 14.4608 3.83524 14.4608 4.04718C14.4608 4.25797 14.2883 4.4306 14.077 4.4306Z" fill="#F4B520"/>
<path id="Vector_14" d="M14.077 7.89876H2.24782C2.03686 7.89876 1.86401 7.72574 1.86401 7.51457C1.86401 7.30339 2.03686 7.13037 2.24782 7.13037H14.077C14.2879 7.13037 14.4608 7.30339 14.4608 7.51457C14.4608 7.72574 14.2883 7.89876 14.077 7.89876Z" fill="#F4B520"/>
<path id="Vector_15" d="M2.31445 4.85995H14.01V4.43066H2.31445V4.85995Z" fill="#F0A51B"/>
<path id="Vector_16" d="M13.7217 8.32479H2.60318L2.31445 7.89551H14.01L13.7217 8.32479Z" fill="#F0A51B"/>
<path id="Vector_17" d="M14.0862 61.1417H2.2382C2.03224 61.1417 1.86401 60.9737 1.86401 60.7671C1.86401 60.5614 2.03263 60.3926 2.2382 60.3926H14.0862C14.2926 60.3926 14.4604 60.5614 14.4604 60.7671C14.4604 60.9737 14.2926 61.1417 14.0862 61.1417Z" fill="#A9A7A6"/>
<path id="Vector_18" d="M14.6202 62.5404H1.70506C1.32086 62.5404 1.00635 62.226 1.00635 61.841C1.00635 61.4564 1.32086 61.1416 1.70506 61.1416H14.6202C15.0036 61.1416 15.3185 61.4564 15.3185 61.841C15.3185 62.2256 15.004 62.5404 14.6202 62.5404Z" fill="#CCC9C8"/>
<path id="Vector_19" d="M0 66.0002H16.3248V62.5405H0V66.0002Z" fill="#A9A7A6"/>
</g>
<g id="_1982831684224">
<path id="Vector_20" d="M83.1204 0.379957H98.5547V0H83.1204V0.379957Z" fill="#CCC9C8"/>
<path id="Vector_21" d="M83.9707 3.66231H97.7047V2.29932H83.9707V3.66231Z" fill="#DCDBDB"/>
<path id="Vector_22" d="M83.4609 1.20415H98.2139V0.379883H83.4609V1.20415Z" fill="#A9A7A6"/>
<path id="Vector_23" d="M83.4609 1.51296H98.2139V1.01855H83.4609V1.51296Z" fill="#CCC9C8"/>
<path id="Vector_24" d="M83.4609 1.5127L83.9706 2.2992H97.7046L98.2139 1.5127H83.4609Z" fill="#A9A7A6"/>
<path id="Vector_25" d="M84.9897 7.21706H96.6853V4.85986H84.9897V7.21706Z" fill="#F9CA57"/>
<path id="Vector_26" d="M85.2783 60.3925H96.3964V8.24902H85.2783V60.3925Z" fill="#DCDBDB"/>
<path id="Vector_27" d="M96.3964 12.0258H85.2783V8.24854H96.3964H85.2783V10.4042H96.3964V12.0258Z" fill="#D0CECD"/>
<path id="Vector_28" d="M85.2783 10.4042H96.3964V8.24854H85.2783V10.4042Z" fill="#C5C3C2"/>
<path id="Vector_29" d="M96.7523 4.4306H84.9231C84.7122 4.4306 84.5393 4.25797 84.5393 4.04718C84.5393 3.83524 84.7122 3.6626 84.9231 3.6626H96.7523C96.9632 3.6626 97.1361 3.83524 97.1361 4.04718C97.1361 4.25797 96.9636 4.4306 96.7523 4.4306V4.4306Z" fill="#F4B520"/>
<path id="Vector_30" d="M96.7523 7.89876H84.9231C84.7122 7.89876 84.5393 7.72574 84.5393 7.51457C84.5393 7.30339 84.7122 7.13037 84.9231 7.13037H96.7523C96.9632 7.13037 97.1361 7.30339 97.1361 7.51457C97.1361 7.72574 96.9636 7.89876 96.7523 7.89876V7.89876Z" fill="#F4B520"/>
<path id="Vector_31" d="M84.9897 4.85995H96.6853V4.43066H84.9897V4.85995Z" fill="#F0A51B"/>
<path id="Vector_32" d="M96.3966 8.32479H85.2785L84.9897 7.89551H96.6853L96.3966 8.32479Z" fill="#F0A51B"/>
<path id="Vector_33" d="M96.7615 61.1417H84.9135C84.7075 61.1417 84.5393 60.9737 84.5393 60.7671C84.5393 60.5614 84.7079 60.3926 84.9135 60.3926H96.7615C96.9678 60.3926 97.1357 60.5614 97.1357 60.7671C97.1357 60.9737 96.9678 61.1417 96.7615 61.1417Z" fill="#A9A7A6"/>
<path id="Vector_34" d="M97.2955 62.5404H84.3803C83.9962 62.5404 83.6816 62.226 83.6816 61.841C83.6816 61.4564 83.9962 61.1416 84.3803 61.1416H97.2955C97.6789 61.1416 97.9938 61.4564 97.9938 61.841C97.9938 62.2256 97.6793 62.5404 97.2955 62.5404V62.5404Z" fill="#CCC9C8"/>
<path id="Vector_35" d="M82.6753 66.0002H99V62.5405H82.6753V66.0002Z" fill="#A9A7A6"/>
</g>
</g>
<g id="&#208;&#159;&#208;&#190;&#208;&#180;&#209;&#130;&#208;&#178;&#208;&#181;&#209;&#128;&#208;&#180;&#208;&#184;&#209;&#130;&#209;&#140; &#208;&#191;&#208;&#190;&#208;&#186;&#209;&#131;&#208;&#191;&#208;&#186;&#209;&#131;">
<path d="M17.3998 24V16.9H22.7598V24H22.0598V17.52H18.0998V24H17.3998ZM26.6184 24.1C26.2451 24.1 25.8984 24.03 25.5784 23.89C25.2651 23.7433 24.9918 23.5467 24.7584 23.3C24.5318 23.0467 24.3551 22.76 24.2284 22.44C24.1018 22.1133 24.0384 21.77 24.0384 21.41C24.0384 21.0367 24.1018 20.69 24.2284 20.37C24.3551 20.0433 24.5351 19.7567 24.7684 19.51C25.0018 19.2567 25.2751 19.06 25.5884 18.92C25.9084 18.7733 26.2551 18.7 26.6284 18.7C27.0018 18.7 27.3451 18.7733 27.6584 18.92C27.9718 19.06 28.2451 19.2567 28.4784 19.51C28.7118 19.7567 28.8918 20.0433 29.0184 20.37C29.1451 20.69 29.2084 21.0367 29.2084 21.41C29.2084 21.77 29.1451 22.1133 29.0184 22.44C28.8918 22.76 28.7118 23.0467 28.4784 23.3C28.2518 23.5467 27.9784 23.7433 27.6584 23.89C27.3451 24.03 26.9984 24.1 26.6184 24.1ZM24.7284 21.42C24.7284 21.8067 24.8118 22.16 24.9784 22.48C25.1518 22.7933 25.3818 23.0433 25.6684 23.23C25.9551 23.41 26.2718 23.5 26.6184 23.5C26.9651 23.5 27.2818 23.4067 27.5684 23.22C27.8551 23.0333 28.0851 22.78 28.2584 22.46C28.4318 22.1333 28.5184 21.78 28.5184 21.4C28.5184 21.0133 28.4318 20.66 28.2584 20.34C28.0851 20.02 27.8551 19.7667 27.5684 19.58C27.2818 19.3933 26.9651 19.3 26.6184 19.3C26.2718 19.3 25.9551 19.3967 25.6684 19.59C25.3884 19.7833 25.1618 20.04 24.9884 20.36C24.8151 20.6733 24.7284 21.0267 24.7284 21.42ZM29.7657 25.21V23.39H29.8557C30.009 23.39 30.149 23.3433 30.2757 23.25C30.4024 23.1567 30.5157 22.9933 30.6157 22.76C30.7157 22.5267 30.7957 22.2067 30.8557 21.8C30.9157 21.3867 30.9557 20.8667 30.9757 20.24L31.0257 18.79H34.4157V23.39H35.1157V25.21H34.5057V24H30.3657V25.21H29.7657ZM30.8857 23.39H33.7357V19.4H31.6357L31.6057 20.3C31.5857 20.92 31.5424 21.44 31.4757 21.86C31.4157 22.2733 31.3357 22.6033 31.2357 22.85C31.1424 23.09 31.0257 23.27 30.8857 23.39ZM37.4465 24V19.4H35.5865V18.79H39.9865V19.4H38.1265V24H37.4465ZM40.9021 24V18.79H43.5021C43.7954 18.79 44.0421 18.8533 44.2421 18.98C44.4421 19.1 44.5921 19.2567 44.6921 19.45C44.7988 19.6433 44.8521 19.85 44.8521 20.07C44.8521 20.35 44.7854 20.6033 44.6521 20.83C44.5188 21.05 44.3254 21.2167 44.0721 21.33C44.3721 21.4167 44.6154 21.5733 44.8021 21.8C44.9888 22.0267 45.0821 22.3 45.0821 22.62C45.0821 22.9 45.0121 23.1433 44.8721 23.35C44.7388 23.5567 44.5521 23.7167 44.3121 23.83C44.0788 23.9433 43.8088 24 43.5021 24H40.9021ZM41.5521 23.51H43.4821C43.6554 23.51 43.8121 23.4667 43.9521 23.38C44.0988 23.2867 44.2121 23.1667 44.2921 23.02C44.3788 22.8733 44.4221 22.72 44.4221 22.56C44.4221 22.3867 44.3821 22.23 44.3021 22.09C44.2221 21.9433 44.1154 21.8267 43.9821 21.74C43.8488 21.6533 43.6954 21.61 43.5221 21.61H41.5521V23.51ZM41.5521 21.14H43.3221C43.4954 21.14 43.6488 21.0933 43.7821 21C43.9154 20.9067 44.0188 20.7867 44.0921 20.64C44.1654 20.4933 44.2021 20.34 44.2021 20.18C44.2021 19.94 44.1221 19.73 43.9621 19.55C43.8088 19.37 43.6088 19.28 43.3621 19.28H41.5521V21.14ZM48.5137 24.1C48.1403 24.1 47.7937 24.03 47.4737 23.89C47.1537 23.7433 46.877 23.5467 46.6437 23.3C46.4103 23.0467 46.227 22.7567 46.0937 22.43C45.967 22.1033 45.9037 21.7533 45.9037 21.38C45.9037 20.8933 46.0137 20.4467 46.2337 20.04C46.4603 19.6333 46.7703 19.31 47.1637 19.07C47.557 18.8233 48.0037 18.7 48.5037 18.7C49.017 18.7 49.4637 18.8233 49.8437 19.07C50.2303 19.3167 50.5337 19.6433 50.7537 20.05C50.9737 20.45 51.0837 20.89 51.0837 21.37C51.0837 21.4233 51.0837 21.4767 51.0837 21.53C51.0837 21.5767 51.0803 21.6133 51.0737 21.64H46.6137C46.647 22.0133 46.7503 22.3467 46.9237 22.64C47.1037 22.9267 47.3337 23.1567 47.6137 23.33C47.9003 23.4967 48.2103 23.58 48.5437 23.58C48.8837 23.58 49.2037 23.4933 49.5037 23.32C49.8103 23.1467 50.0237 22.92 50.1437 22.64L50.7337 22.8C50.627 23.0467 50.4637 23.27 50.2437 23.47C50.0237 23.67 49.7637 23.8267 49.4637 23.94C49.1703 24.0467 48.8537 24.1 48.5137 24.1ZM46.5937 21.15H50.4437C50.417 20.77 50.3137 20.4367 50.1337 20.15C49.9603 19.8633 49.7303 19.64 49.4437 19.48C49.1637 19.3133 48.8537 19.23 48.5137 19.23C48.1737 19.23 47.8637 19.3133 47.5837 19.48C47.3037 19.64 47.0737 19.8667 46.8937 20.16C46.7203 20.4467 46.6203 20.7767 46.5937 21.15ZM54.7928 24.1C54.3595 24.1 53.9695 23.9867 53.6228 23.76C53.2828 23.5333 53.0128 23.2533 52.8128 22.92V26.13H52.1328V18.79H52.7428V19.8C52.9495 19.4733 53.2261 19.21 53.5728 19.01C53.9195 18.8033 54.2895 18.7 54.6828 18.7C55.0428 18.7 55.3728 18.7767 55.6728 18.93C55.9728 19.0767 56.2328 19.2767 56.4528 19.53C56.6728 19.7833 56.8428 20.0733 56.9628 20.4C57.0895 20.72 57.1528 21.0533 57.1528 21.4C57.1528 21.8867 57.0528 22.3367 56.8528 22.75C56.6595 23.1567 56.3861 23.4833 56.0328 23.73C55.6795 23.9767 55.2661 24.1 54.7928 24.1ZM54.6028 23.5C54.8895 23.5 55.1461 23.4433 55.3728 23.33C55.5995 23.21 55.7928 23.05 55.9528 22.85C56.1195 22.65 56.2461 22.4267 56.3328 22.18C56.4195 21.9267 56.4628 21.6667 56.4628 21.4C56.4628 21.12 56.4128 20.8533 56.3128 20.6C56.2195 20.3467 56.0828 20.1233 55.9028 19.93C55.7228 19.7367 55.5161 19.5833 55.2828 19.47C55.0495 19.3567 54.7961 19.3 54.5228 19.3C54.3495 19.3 54.1695 19.3333 53.9828 19.4C53.7961 19.4667 53.6161 19.5633 53.4428 19.69C53.2761 19.81 53.1361 19.9467 53.0228 20.1C52.9095 20.2533 52.8395 20.4167 52.8128 20.59V22.19C52.9195 22.4367 53.0628 22.66 53.2428 22.86C53.4228 23.0533 53.6295 23.21 53.8628 23.33C54.1028 23.4433 54.3495 23.5 54.6028 23.5ZM57.7247 25.21V23.39H57.8147C57.968 23.39 58.108 23.3433 58.2347 23.25C58.3614 23.1567 58.4747 22.9933 58.5747 22.76C58.6747 22.5267 58.7547 22.2067 58.8147 21.8C58.8747 21.3867 58.9147 20.8667 58.9347 20.24L58.9847 18.79H62.3747V23.39H63.0747V25.21H62.4647V24H58.3247V25.21H57.7247ZM58.8447 23.39H61.6947V19.4H59.5947L59.5647 20.3C59.5447 20.92 59.5014 21.44 59.4347 21.86C59.3747 22.2733 59.2947 22.6033 59.1947 22.85C59.1014 23.09 58.9847 23.27 58.8447 23.39ZM64.0955 24V18.8H64.7755V23.08L67.9455 18.79H68.5555V24H67.8755V19.79L64.7555 24H64.0955ZM71.343 24V19.4H69.483V18.79H73.883V19.4H72.023V24H71.343ZM74.7986 24V18.79H75.4786V20.63H76.8286C77.4219 20.63 77.8686 20.7833 78.1686 21.09C78.4753 21.39 78.6286 21.7867 78.6286 22.28C78.6286 22.6 78.5619 22.89 78.4286 23.15C78.2953 23.41 78.0986 23.6167 77.8386 23.77C77.5853 23.9233 77.2653 24 76.8786 24H74.7986ZM75.4786 23.46H76.7886C77.0619 23.46 77.2819 23.4067 77.4486 23.3C77.6153 23.1867 77.7386 23.0433 77.8186 22.87C77.8986 22.69 77.9386 22.4967 77.9386 22.29C77.9386 22.09 77.9019 21.9067 77.8286 21.74C77.7619 21.5667 77.6419 21.43 77.4686 21.33C77.3019 21.2233 77.0686 21.17 76.7686 21.17H75.4786V23.46ZM30.4675 36V30.79H34.6575V36H33.9775V31.4H31.1475V36H30.4675ZM38.3811 36.1C38.0078 36.1 37.6611 36.03 37.3411 35.89C37.0278 35.7433 36.7545 35.5467 36.5211 35.3C36.2945 35.0467 36.1178 34.76 35.9911 34.44C35.8645 34.1133 35.8011 33.77 35.8011 33.41C35.8011 33.0367 35.8645 32.69 35.9911 32.37C36.1178 32.0433 36.2978 31.7567 36.5311 31.51C36.7645 31.2567 37.0378 31.06 37.3511 30.92C37.6711 30.7733 38.0178 30.7 38.3911 30.7C38.7645 30.7 39.1078 30.7733 39.4211 30.92C39.7345 31.06 40.0078 31.2567 40.2411 31.51C40.4745 31.7567 40.6545 32.0433 40.7811 32.37C40.9078 32.69 40.9711 33.0367 40.9711 33.41C40.9711 33.77 40.9078 34.1133 40.7811 34.44C40.6545 34.76 40.4745 35.0467 40.2411 35.3C40.0145 35.5467 39.7411 35.7433 39.4211 35.89C39.1078 36.03 38.7611 36.1 38.3811 36.1ZM36.4911 33.42C36.4911 33.8067 36.5745 34.16 36.7411 34.48C36.9145 34.7933 37.1445 35.0433 37.4311 35.23C37.7178 35.41 38.0345 35.5 38.3811 35.5C38.7278 35.5 39.0445 35.4067 39.3311 35.22C39.6178 35.0333 39.8478 34.78 40.0211 34.46C40.1945 34.1333 40.2811 33.78 40.2811 33.4C40.2811 33.0133 40.1945 32.66 40.0211 32.34C39.8478 32.02 39.6178 31.7667 39.3311 31.58C39.0445 31.3933 38.7278 31.3 38.3811 31.3C38.0345 31.3 37.7178 31.3967 37.4311 31.59C37.1511 31.7833 36.9245 32.04 36.7511 32.36C36.5778 32.6733 36.4911 33.0267 36.4911 33.42ZM42.0984 36V30.79H42.7784V33.02H43.5584L45.3084 30.79H46.0884L44.0984 33.32L46.3384 36H45.5384L43.5584 33.65H42.7784V36H42.0984ZM47.8737 38.18C47.7604 38.18 47.6437 38.16 47.5237 38.12C47.4104 38.0867 47.2937 38.0367 47.1737 37.97L47.4237 37.49C47.497 37.53 47.5637 37.5633 47.6237 37.59C47.6904 37.6167 47.7604 37.63 47.8337 37.63C48.007 37.63 48.1704 37.5433 48.3237 37.37C48.477 37.1967 48.6237 36.9433 48.7637 36.61L49.0237 35.96L46.7037 30.79H47.4237L49.3337 35.3L51.0937 30.79H51.7737L49.2937 36.82C49.1604 37.1333 49.0204 37.39 48.8737 37.59C48.727 37.79 48.5704 37.9367 48.4037 38.03C48.237 38.13 48.0604 38.18 47.8737 38.18ZM52.7136 36V30.79H56.9036V36H56.2236V31.4H53.3936V36H52.7136ZM58.3972 36V30.79H59.0772V33.02H59.8572L61.6072 30.79H62.3872L60.3972 33.32L62.6372 36H61.8372L59.8572 33.65H59.0772V36H58.3972ZM64.1725 38.18C64.0592 38.18 63.9425 38.16 63.8225 38.12C63.7092 38.0867 63.5925 38.0367 63.4725 37.97L63.7225 37.49C63.7959 37.53 63.8625 37.5633 63.9225 37.59C63.9892 37.6167 64.0592 37.63 64.1325 37.63C64.3059 37.63 64.4692 37.5433 64.6225 37.37C64.7759 37.1967 64.9225 36.9433 65.0625 36.61L65.3225 35.96L63.0025 30.79H63.7225L65.6325 35.3L67.3925 30.79H68.0725L65.5925 36.82C65.4592 37.1333 65.3192 37.39 65.1725 37.59C65.0259 37.79 64.8692 37.9367 64.7025 38.03C64.5359 38.13 64.3592 38.18 64.1725 38.18Z" fill="#8D8D8D"/>
<path d="M16.5098 25.25H81.4914V25.75H16.5098V25.25ZM29.7275 37.25H68.2725V37.75H29.7275V37.25Z" fill="#8D8D8D"/>
</g>
</g>
</svg>
