<svg width="95" height="95" viewBox="0 0 95 95" fill="none" xmlns="http://www.w3.org/2000/svg">
<g id="person">
<path id="Subtract" fill-rule="evenodd" clip-rule="evenodd" d="M47.5 95C73.7335 95 95 73.7335 95 47.5C95 21.2665 73.7335 0 47.5 0C21.2665 0 0 21.2665 0 47.5C0 73.7335 21.2665 95 47.5 95ZM47.5001 83.7288C67.5087 83.7288 83.7289 67.5086 83.7289 47.5C83.7289 27.4914 67.5087 11.2712 47.5001 11.2712C27.4914 11.2712 11.2712 27.4914 11.2712 47.5C11.2712 67.5086 27.4914 83.7288 47.5001 83.7288Z" fill="#05FF00"/>
<g id="&#209;&#129;&#209;&#130;&#209;&#128;&#208;&#190;&#208;&#184;&#209;&#130;&#208;&#181;&#208;&#187;&#209;&#140; 1" clip-path="url(#clip0_18_1692)">
<g id="&#208;&#161;&#208;&#187;&#208;&#190;&#208;&#185;_x0020_1">
<g id="_2225004313584">
<path id="Vector" d="M62.4831 63.0852C58.7633 61.0328 55.6225 58.3786 55.6225 55.7244C55.6225 50.7867 55.6225 46.2574 55.6225 46.2574H47.8441C47.8441 46.2574 47.6311 46.6174 47.2761 47.2514C46.921 46.6174 46.708 46.2574 46.708 46.2574H38.9297C38.9297 46.2574 38.9297 50.7867 38.9297 55.7244C38.9297 58.5397 36.7174 61.2208 33.6094 63.241C35.7779 64.3424 40.7595 66.4379 47.4017 66.5399C53.8909 66.6366 59.233 64.6756 62.4831 63.0852Z" fill="#F4B28A"/>
<path id="Vector_2" d="M69.7585 66.1477C67.5517 65.4922 64.897 64.4123 62.4881 63.0798C59.2435 64.6702 53.9014 66.6366 47.4067 66.5346C40.7646 66.4325 35.7829 64.3371 33.6144 63.2356C31.4623 64.6326 28.8841 65.7179 26.2949 66.3035C29.6379 83.4107 67.0164 82.7928 69.7585 66.1423V66.1477Z" fill="#FAC7A2"/>
<path id="Vector_3" d="M47.4068 52.9412C40.3276 52.9412 34.5376 47.246 34.5376 40.2828V29.4887C34.5376 22.5254 40.3276 16.8302 47.4068 16.8302C54.4859 16.8302 60.276 22.5254 60.276 29.4887V40.2828C60.276 47.246 54.4859 52.9412 47.4068 52.9412Z" fill="#FAC7A2"/>
<path id="Vector_4" d="M35.2642 39.0953C35.2642 39.0953 32.1999 37.8596 32.4184 34.0287C32.6314 30.2033 36.6626 32.2288 36.6626 32.2288L35.2642 39.09V39.0953Z" fill="#FAC7A2"/>
<path id="Vector_5" d="M59.5443 39.0953C59.5443 39.0953 62.6087 37.8596 62.3902 34.0287C62.1772 30.2033 58.146 32.2288 58.146 32.2288L59.5443 39.09V39.0953Z" fill="#FAC7A2"/>
<path id="Vector_6" d="M35.7612 31.8903C35.7612 31.8903 36.2856 30.934 37.2852 28.1401C38.2793 25.3516 38.6562 22.9284 38.6562 22.9284C38.6562 22.9284 40.6391 25.3408 43.5068 27.0172C45.9211 28.4302 50.3346 28.7472 50.3346 28.7472L47.4068 24.9862C47.4068 24.9862 50.3674 26.3832 53.104 27.3127C53.4208 25.9103 52.4431 22.9284 52.4431 22.9284L59.047 31.8903H61.2592C61.2592 31.8903 63.9139 24.0836 59.484 18.6838C55.0541 13.2841 49.772 12 47.4068 12C44.5446 12 42.1357 13.9826 40.8958 14.8261C40.8958 14.8261 37.6894 12.6125 33.9368 16.8302C31.009 20.1238 30.9872 22.9445 31.4296 27.2321C31.6426 29.2952 33.2704 32.0676 33.2704 32.0676C33.8385 31.7077 35.7667 31.8903 35.7667 31.8903H35.7612Z" fill="#4D4947"/>
<path id="Vector_7" d="M28.0212 65.374C28.0212 65.374 34.1007 72.9122 47.2212 73.256C60.3416 73.5999 68.7372 65.374 68.7372 65.374C68.7372 65.374 77.8155 67.7972 81.3442 77.9841C81.5627 78.6128 81.7812 79.2629 82.0051 79.9345C73.4566 89.1919 61.1227 95.0054 47.4069 95.0054C33.2541 95.0054 20.5706 88.8158 12.0002 79.0372C14.4255 71.2304 18.4403 67.5608 28.0212 65.3794V65.374Z" fill="#FDE7D4"/>
<path id="Vector_8" d="M29.4088 71.7194C29.4088 71.7194 36.1329 77.9519 42.5183 78.6826C48.9037 79.4133 53.6068 77.9841 53.6068 77.9841C53.6068 77.9841 36.1602 76.4529 29.4033 71.7194H29.4088Z" fill="#F5CFB4"/>
<path id="Vector_9" d="M34.314 83.0185C34.314 83.0185 43.1847 91.5936 53.6068 89.4122C64.0289 87.2308 69.9063 77.9841 69.9063 77.9841C69.9063 77.9841 62.7125 83.1098 52.1102 84.7324C41.5078 86.3551 34.314 83.0185 34.314 83.0185Z" fill="#F5CFB4"/>
<path id="Vector_10" d="M18.3148 83.0185C18.3148 83.0185 18.2929 83.76 18.2656 84.9689C18.6152 85.2429 18.9703 85.5169 19.3253 85.7802C18.7245 83.948 18.3148 83.0185 18.3148 83.0185Z" fill="#F5CFB4"/>
<path id="Vector_11" d="M71.5066 87.4296L71.4902 88.429L71.676 88.3215C71.5667 87.7305 71.5066 87.4296 71.5066 87.4296Z" fill="#F5CFB4"/>
<path id="Vector_12" d="M74.2158 84.7324C74.2158 84.7324 74.1995 85.49 74.1558 86.7204C74.336 86.5968 74.5108 86.4733 74.6911 86.3497C74.407 85.3181 74.2158 84.7324 74.2158 84.7324Z" fill="#F5CFB4"/>
</g>
</g>
</g>
</g>
<defs>
<clipPath id="clip0_18_1692">
<rect width="70" height="83" fill="white" transform="translate(12 12)"/>
</clipPath>
</defs>
</svg>
