<svg width="272" height="123" viewBox="0 0 272 123" fill="none" xmlns="http://www.w3.org/2000/svg">
<g id="Group 131">
<g id="Group 130">
<g id="Group 128">
<path id="Vector" d="M109.485 108.755C109.485 108.755 91.6497 116.403 79.621 107.854C67.5943 99.3091 65.2559 95.4245 65.2559 95.4245C65.2559 95.4245 91.4524 80.0611 109.485 108.755Z" fill="#F4B520"/>
<path id="Vector_2" d="M84.3192 94.2989C84.3192 94.2989 65.3049 98.1609 55.2743 87.3385C45.2307 76.5113 43.7337 72.2309 43.7337 72.2309C43.7337 72.2309 72.5305 62.5356 84.3192 94.2989Z" fill="#F9CA57"/>
<path id="Vector_3" d="M62.7846 73.3004C62.7846 73.3004 43.402 72.2267 36.4454 59.225C29.4658 46.215 29.1032 41.6933 29.1032 41.6933C29.1032 41.6933 59.4198 39.5894 62.7846 73.3004Z" fill="#F4B520"/>
<path id="Vector_4" d="M48.2587 44.9641C48.2587 44.9641 30.4524 37.2487 28.4166 22.6344C26.3808 8.01999 27.6176 3.65225 27.6176 3.65225C27.6176 3.65225 56.7612 12.1811 48.2587 44.9641Z" fill="#F9CA57"/>
<path id="Vector_5" d="M52.9807 55.7473C52.9807 55.7473 65.6393 41.0314 61.0917 26.9969C56.5497 12.9571 53.5316 9.56422 53.5316 9.56422C53.5316 9.56422 31.0155 29.9414 52.9807 55.7473Z" fill="#F4B520"/>
<path id="Vector_6" d="M70.9508 81.7813C70.9508 81.7813 77.7206 63.5952 68.5957 51.9957C59.4706 40.4073 55.4681 38.2639 55.4681 38.2639C55.4681 38.2639 41.3994 65.1852 70.9464 81.7834L70.9508 81.7813Z" fill="#F9CA57"/>
<path id="Vector_7" d="M94.3558 100.434C94.3558 100.434 96.3212 81.1267 84.5624 72.2225C72.7916 63.3102 68.3876 62.242 68.3876 62.242C68.3876 62.242 61.5817 91.8447 94.357 100.43L94.3558 100.434Z" fill="#F4B520"/>
<path id="Vector_8" d="M120.562 112.706C120.562 112.706 118.541 93.41 105.204 87.0835C91.8693 80.7614 87.335 80.6144 87.335 80.6144C87.335 80.6144 86.719 110.987 120.562 112.706Z" fill="#F9CA57"/>
</g>
<g id="Group 129">
<path id="Vector_9" d="M161.861 107.879C161.861 107.879 179.516 115.957 191.741 107.689C203.965 99.4279 206.392 95.5926 206.392 95.5926C206.392 95.5926 180.562 79.6193 161.861 107.879Z" fill="#F4B520"/>
<path id="Vector_10" d="M187.361 94.0257C187.361 94.0257 206.278 98.3291 216.559 87.7415C226.857 77.1627 228.451 72.9119 228.451 72.9119C228.451 72.9119 199.891 62.5475 187.361 94.0257Z" fill="#F9CA57"/>
<path id="Vector_11" d="M209.381 73.5327C209.381 73.5327 228.782 72.9105 236.043 60.0787C243.325 47.2359 243.795 42.7272 243.795 42.7272C243.795 42.7272 213.537 39.9165 209.381 73.5327Z" fill="#F4B520"/>
<path id="Vector_12" d="M224.569 45.5533C224.569 45.5533 242.549 38.2508 244.927 23.6882C247.304 9.12227 246.17 4.72675 246.17 4.72675C246.17 4.72675 216.834 12.57 224.57 45.5566L224.569 45.5533Z" fill="#F9CA57"/>
<path id="Vector_13" d="M219.593 56.2148C219.593 56.2148 207.285 41.2128 212.159 27.2855C217.031 13.3626 220.123 10.0282 220.123 10.0282C220.123 10.0282 242.157 30.931 219.593 56.2148Z" fill="#F4B520"/>
<path id="Vector_14" d="M201.016 81.8166C201.016 81.8166 194.674 63.4768 204.072 52.1043C213.463 40.7231 217.514 38.6708 217.514 38.6708C217.514 38.6708 230.946 65.9112 201.019 81.8155L201.016 81.8166Z" fill="#F9CA57"/>
<path id="Vector_15" d="M177.186 99.9279C177.186 99.9279 175.673 80.5802 187.637 71.9508C199.612 63.3136 204.04 62.3489 204.04 62.3489C204.04 62.3489 210.149 92.0997 177.186 99.9279Z" fill="#F4B520"/>
<path id="Vector_16" d="M150.697 111.581C150.697 111.581 153.169 92.3349 166.65 86.3228C180.129 80.3118 184.665 80.2711 184.665 80.2711C184.665 80.2711 184.569 110.65 150.697 111.581Z" fill="#F9CA57"/>
</g>
</g>
</g>
</svg>
