<svg width="370" height="112" viewBox="0 0 370 112" fill="none" xmlns="http://www.w3.org/2000/svg">
<g id="Group 184">
<path id="Union" fill-rule="evenodd" clip-rule="evenodd" d="M187.241 54.9019C226.498 54.7653 291.251 60.8458 293.741 66.5742C293.741 66.5746 293.741 66.575 293.741 66.5754L293.742 66.5751C293.742 66.5748 293.741 66.5745 293.741 66.5742C293.741 54.7914 295.543 44.5275 302.305 31.4257C306.28 23.737 305.033 18.0679 293.658 14.3891C258.895 3.14957 221.863 -0.127659 185.435 0.00376856C159.996 0.096438 134.849 1.66307 110.726 6.1861C109.357 6.44283 106.412 7.84657 109.021 13.6005C106.787 9.05069 104.293 7.46336 103.13 7.7166C93.3962 9.82061 83.847 12.4384 74.5303 15.6733C64.7304 19.0756 67.019 29.4109 70.1597 35.5014C75.9301 46.6899 77.8552 56.4304 77.8552 66.8374C78.7792 62.6798 109.106 58.8337 140.123 56.6834C140.741 56.6409 141.356 50.8022 141.444 47.1982C141.632 50.6489 142.456 56.5901 143.102 56.5487C158.598 55.5652 174.617 54.8568 187.241 54.9019ZM34.0811 48.2709C34.8956 45.3372 37.7341 42.885 42.7578 40.7728C49.898 37.7727 57.3018 35.1039 65.0691 32.735C65.5684 34.8507 66.378 36.8786 67.2537 38.5767C73.0241 49.7652 74.9492 59.5057 74.9492 69.9127C75.7337 66.3842 97.6949 63.0808 123.283 60.8471L126.624 70.7674C126.68 71.1437 126.788 71.5012 126.889 71.836L126.889 71.8361C127.236 72.9859 127.503 73.8674 125.324 74.3209C123.912 74.6169 122.087 74.8275 120.461 75.0152C119.95 75.0741 119.458 75.1309 119.006 75.1872C117.488 75.3748 115.98 75.5207 114.474 75.6663H114.473C112.446 75.8623 110.423 76.0578 108.391 76.3541C101.808 77.3169 95.2518 78.377 88.744 79.5698C78.5771 81.4395 68.7014 83.707 58.7284 86.1286C55.9142 86.8126 51.2041 88.219 50.0018 90.1659L49.9483 90.7907L49.8728 90.2959C48.0236 77.865 44.2561 68.4439 36.8661 57.7709C34.2636 54.0099 33.3506 50.9026 34.0807 48.2711L34.0811 48.2709ZM328.486 40.9983C333.514 43.1096 336.351 45.5619 337.164 48.4952L337.163 48.4955C337.894 51.1267 336.979 54.2346 334.378 57.9956C326.989 68.6671 323.222 78.0897 321.373 90.5214L321.302 91.3982L321.202 90.6062C320.237 88.5675 316.157 87.3526 313.382 86.5689C303.151 83.6889 292.673 81.6647 282.5 79.7965C275.994 78.5994 269.437 77.5424 262.858 76.5799C260.828 76.2825 258.808 76.0877 256.785 75.8924L256.784 75.8923C255.274 75.7466 253.761 75.6006 252.239 75.4116C251.798 75.357 251.321 75.3019 250.825 75.2446C249.19 75.0557 247.347 74.8428 245.922 74.5452C243.742 74.0932 244.009 73.2101 244.357 72.062L244.357 72.0618L244.357 72.0617C244.458 71.7267 244.566 71.3692 244.622 70.9932L247.927 61.1804C273.497 63.4578 295.076 66.8312 296.489 70.091C296.489 58.3077 298.29 48.0435 305.053 34.9413C305.412 34.2463 305.729 33.5679 305.999 32.9055C313.831 35.2878 321.292 37.9749 328.486 40.9983ZM95.9123 87.5018C95.9123 87.4989 94.5024 85.2669 92.3554 81.8696C89.9416 82.2756 87.533 82.6978 85.1313 83.1379C74.9644 85.0076 65.0887 87.2751 55.1156 89.6967C52.3014 90.3807 47.5913 91.787 46.3891 93.7339L46.3355 94.3587L46.2601 93.8639C44.4108 81.4331 40.6434 72.012 33.2534 61.339C32.7111 60.5554 32.2422 59.8 31.8463 59.0718C23.0836 62.1806 14.9286 65.593 7.22498 69.368C2.6382 71.6139 0.285178 73.9572 0.0235518 76.5307C-0.132613 78.0798 0.487179 79.7482 1.9024 81.5747C0.84007 79.2501 0.65105 76.239 5.31084 74.5645C10.9275 72.5473 23.3606 74.4205 31.5834 79.033C31.5834 79.033 15.0425 87.9176 23.5622 110.913V111.12C23.5599 111.195 23.5599 111.271 23.5622 111.347V111.12C23.7999 103.35 48.526 99.5495 62.5457 97.3947L62.546 97.3947L62.5475 97.3944L62.5595 97.3926C63.8117 97.2001 64.9783 97.0208 66.0342 96.8529C67.0154 96.6969 68.4067 96.5149 70.0587 96.2989C79.6411 95.0458 97.9913 92.646 95.9123 87.5018ZM274.084 88.1563C274.084 88.1528 275.686 85.616 278.077 81.8335C280.28 82.2068 282.479 82.5946 284.672 82.998C294.846 84.8662 305.323 86.8904 315.554 89.7704C318.33 90.554 322.409 91.7689 323.374 93.8077L323.474 94.5997L323.545 93.7228C325.394 81.2912 329.162 71.8686 336.551 61.1971C336.944 60.6285 337.298 60.0748 337.614 59.5354C346.58 62.6949 354.911 66.1697 362.772 70.0225C367.358 72.267 369.715 74.6117 369.976 77.1851C370.13 78.732 369.513 80.4006 368.096 82.2283C369.158 79.9046 369.348 76.8934 364.686 75.2181C359.07 73.2018 346.636 75.0753 338.412 79.6875C338.412 79.6875 354.956 88.571 346.434 111.569V111.773C346.196 104.002 321.462 100.201 307.446 98.048L307.444 98.0479C306.19 97.8552 305.022 97.6757 303.965 97.5077C302.984 97.3518 301.594 97.1701 299.944 96.9543C290.361 95.7012 272.005 93.301 274.083 88.1566L274.084 88.1563ZM346.434 112C346.436 111.924 346.436 111.848 346.434 111.773V112Z" fill="#E31E24"/>
<path id="&#208;&#159;&#209;&#128;&#208;&#184;&#208;&#183;&#209;&#139;" d="M166.823 19.626V20.526L165.293 20.76V31.92L166.967 32.118V33H161.891V32.118L163.385 31.92V20.688H157.625V31.938L159.299 32.118V33H154.259V32.118L155.717 31.938V20.742L154.187 20.526V19.626H166.823ZM178.215 27.654C178.215 28.674 178.005 29.61 177.585 30.462C177.165 31.302 176.565 31.968 175.785 32.46C175.005 32.952 174.093 33.198 173.049 33.198C172.761 33.198 172.449 33.174 172.113 33.126C171.777 33.078 171.507 33.018 171.303 32.946L171.357 34.458V36.276L173.229 36.474V37.356H168.207V36.474L169.503 36.276V24.396L168.189 24.072V23.1L170.745 22.776H170.781L171.159 23.1V24.162C171.519 23.766 171.963 23.43 172.491 23.154C173.031 22.878 173.631 22.74 174.291 22.74C174.999 22.74 175.647 22.914 176.235 23.262C176.835 23.61 177.315 24.15 177.675 24.882C178.035 25.614 178.215 26.538 178.215 27.654ZM173.553 24C173.097 24 172.671 24.096 172.275 24.288C171.879 24.48 171.573 24.69 171.357 24.918V31.704C171.441 31.848 171.651 31.98 171.987 32.1C172.335 32.208 172.713 32.262 173.121 32.262C174.045 32.262 174.789 31.896 175.353 31.164C175.929 30.432 176.217 29.328 176.217 27.852C176.217 26.556 175.965 25.59 175.461 24.954C174.969 24.318 174.333 24 173.553 24ZM184.478 23.01V23.892L183.002 24.144V30.174L184.082 28.752L188.15 24.45V24.144L186.818 23.892V23.01H191.318V23.892L190.022 24.144V31.956L191.372 32.118V33H186.71V32.118L188.15 31.956V25.836L186.962 27.492L183.002 31.614V31.974L184.19 32.118V33H179.798V32.118L181.148 31.956V24.144L179.816 23.892V23.01H184.478ZM193.232 23.28C193.604 23.28 194.096 23.214 194.708 23.082C195.524 22.89 196.31 22.794 197.066 22.794C198.302 22.794 199.238 23.004 199.874 23.424C200.51 23.844 200.828 24.438 200.828 25.206C200.828 25.722 200.636 26.196 200.252 26.628C199.868 27.06 199.358 27.384 198.722 27.6C199.562 27.672 200.216 27.924 200.684 28.356C201.164 28.788 201.404 29.334 201.404 29.994C201.404 30.978 201.026 31.752 200.27 32.316C199.526 32.868 198.428 33.144 196.976 33.144C196.136 33.144 195.386 33.078 194.726 32.946C194.066 32.802 193.52 32.646 193.088 32.478L193.268 30.336H194.384L194.672 31.632C194.84 31.8 195.116 31.932 195.5 32.028C195.896 32.124 196.31 32.172 196.742 32.172C197.594 32.172 198.224 31.998 198.632 31.65C199.052 31.302 199.262 30.822 199.262 30.21C199.262 28.902 198.488 28.272 196.94 28.32C196.82 28.332 196.622 28.356 196.346 28.392C196.07 28.428 195.914 28.452 195.878 28.464L195.896 27.33L196.652 27.24C197.348 27.156 197.888 26.946 198.272 26.61C198.656 26.262 198.848 25.824 198.848 25.296C198.848 24.792 198.686 24.414 198.362 24.162C198.05 23.898 197.528 23.766 196.796 23.766C196.28 23.766 195.83 23.832 195.446 23.964C195.074 24.096 194.816 24.234 194.672 24.378L194.402 25.944H193.232V23.28ZM205.994 26.97C206.414 26.958 207.062 26.952 207.938 26.952C210.494 26.952 211.772 27.954 211.772 29.958C211.772 31.014 211.424 31.818 210.728 32.37C210.032 32.91 209.048 33.18 207.776 33.18C207.62 33.18 207.368 33.168 207.02 33.144C206.672 33.12 206.39 33.102 206.174 33.09C205.514 33.03 205.022 33 204.698 33H202.574V32.154L204.158 31.956V24.144L202.664 23.91V23.01H207.74V23.946L205.994 24.144V26.97ZM216.74 23.01V23.91L215.48 24.144V31.938L216.848 32.118V33H212.366V32.118L213.644 31.938V24.144L212.294 23.91V23.01H216.74ZM205.994 32.082C206.57 32.154 207.074 32.19 207.506 32.19C208.274 32.19 208.85 32.022 209.234 31.686C209.618 31.338 209.81 30.81 209.81 30.102C209.81 29.37 209.612 28.836 209.216 28.5C208.832 28.164 208.232 27.996 207.416 27.996H205.994V32.082Z" fill="white"/>
</g>
</svg>
