<svg width="99" height="66" viewBox="0 0 99 66" fill="none" xmlns="http://www.w3.org/2000/svg">
<g id="1 350">
<g id="&#208;&#161;&#208;&#187;&#208;&#190;&#208;&#185;_x0020_1">
<g id="_1982831678944">
<path id="Vector" d="M85.5993 8.47189V8.65609V8.84106V9.02526V9.20984V9.39442V9.57978V9.76436V9.94972V10.1355V10.3212V10.5073V10.6934V10.8803V10.9065C85.5993 10.9597 85.617 11.0133 85.6516 11.0653C85.6916 11.1262 85.7552 11.1859 85.8402 11.2449C85.9269 11.3046 86.0358 11.3632 86.1655 11.4194C86.2984 11.4773 86.4535 11.5339 86.629 11.5886C83.1005 11.7343 77.9312 11.9131 71.0808 12.0318C70.6092 12.0399 69.4262 12.0584 68.5589 12.0707C68.2863 12.0745 68.0284 12.078 67.8463 12.0803C67.1349 12.0896 66.3515 12.0996 65.7017 12.1065C55.5167 12.2183 43.0716 12.1863 28.366 11.8942C27.9244 11.8853 27.1276 11.8692 26.681 11.8603C26.3673 11.8534 26.0527 11.8468 25.7371 11.8399C25.354 11.8314 24.2153 11.8063 23.83 11.7979C20.0685 11.7115 16.1688 11.6083 12.1382 11.4869C12.288 11.4306 12.4162 11.3721 12.5217 11.3123C12.6248 11.2537 12.7061 11.194 12.7642 11.1331C12.8212 11.0734 12.8562 11.0117 12.8681 10.9497C12.8701 10.9354 12.8716 10.9208 12.8716 10.9065V10.7636V10.5775V10.3913V10.2052V10.0191V9.83296V9.64683V9.46071V9.27458V9.08884V8.90272V8.71659V8.53085V8.34473C16.8344 8.46226 20.7449 8.56476 24.5664 8.6507L26.4192 8.69077C41.1525 9.00445 54.9131 9.08306 67.3193 8.92468C67.8625 8.91774 69.9497 8.8873 70.4506 8.87959C76.8094 8.77593 81.8536 8.61987 85.5989 8.47189H85.5993ZM87.2966 12.3173C83.3907 12.4826 77.8349 12.6664 70.5788 12.7851C70.0737 12.7932 69.0385 16.2845 69.0385 16.2845C69.0385 16.2845 67.9668 12.8241 67.4186 12.831C63.5355 12.8803 59.2223 12.9104 54.4719 12.9104C59.2223 12.9104 63.5355 12.8799 67.4186 12.831C67.9668 12.8241 70.0737 12.7932 70.5788 12.7851C77.8349 12.6664 83.3907 12.4826 87.2966 12.3173ZM49.0254 57.0232C48.6851 57.0243 47.4236 57.0312 47.1345 57.0332C47.4236 57.0312 47.9987 54.3588 47.9987 54.3588C47.9987 54.3588 48.6851 57.0247 49.0254 57.0232V57.0232ZM26.2564 12.5963C25.9465 12.5894 25.324 13.6988 25.324 13.6988C25.324 13.6988 24.7046 12.562 24.3924 12.5555C24.7042 12.5624 25.9461 12.5894 26.256 12.5963H26.2564ZM86.706 58.3368C86.5232 58.3915 86.3611 58.4478 86.221 58.506C86.0843 58.5626 85.9688 58.6212 85.8753 58.6809C85.784 58.7395 85.7144 58.7996 85.6678 58.8609C85.6224 58.9202 85.5993 58.9811 85.5993 59.0428V59.0462V59.2335V59.42V59.6066V59.7927V59.9784V60.1638V60.3484V60.5329V60.7171V60.9009V61.0848V61.2678V61.4508C78.3489 61.1657 66.219 60.8509 49.0616 60.9302L47.183 60.9403C36.3821 61.0069 24.8763 61.2204 12.8724 61.5769V61.3907V61.2046V61.0185V60.8324V60.6462V60.4605V60.2744V60.0882V59.9021V59.7156V59.5295V59.343V59.1565V59.0416C12.8724 59.0177 12.8689 58.9942 12.862 58.9703C12.8439 58.9087 12.8015 58.8474 12.738 58.7877C12.6726 58.7268 12.584 58.6674 12.4743 58.6093C12.3615 58.5495 12.226 58.4917 12.0693 58.4351C25.1924 58.0401 36.8906 57.8397 47.1437 57.7765C47.3786 57.775 48.7571 57.7677 49.0327 57.7665C67.5106 57.6809 79.9726 58.0617 86.7064 58.3357L86.706 58.3368Z" fill="#CDAB72"/>
<path id="Vector_2" d="M86 40C86 40 79.7188 40.2644 66.7067 40.3836C66.2964 40.3874 65.455 41.98 65.455 41.98C65.455 41.98 64.5842 40.4014 64.1384 40.4045C55.591 40.4657 44.4769 40.4617 30.6914 40.2975C30.4395 40.2943 29.9338 40.8005 29.9338 40.8005C29.9338 40.8005 29.4305 40.282 29.177 40.2788C23.8427 40.2115 18.119 40.1203 12 40V61C25.9037 60.7262 37.7661 60.6035 47.6564 60.5693C47.8913 60.5685 48.3587 59.3492 48.3587 59.3492C48.3587 59.3492 48.9166 60.5654 49.1932 60.5647C74.1202 60.5 86 61 86 61V40V40Z" fill="#D42326"/>
<path id="Vector_3" d="M86 11C86 11 79.7188 11.4029 66.7067 11.5846C66.2964 11.5904 65.455 14.0171 65.455 14.0171C65.455 14.0171 64.5842 11.6116 64.1384 11.6164C55.591 11.7096 44.4769 11.7035 30.6914 11.4533C30.4395 11.4485 29.9338 12.2199 29.9338 12.2199C29.9338 12.2199 29.4305 11.4297 29.177 11.4249C23.8427 11.3223 18.119 11.1834 12 11V43C25.9037 42.5828 37.7661 42.3959 47.6564 42.3437C47.8913 42.3425 48.3587 40.4845 48.3587 40.4845C48.3587 40.4845 48.9166 42.3377 49.1932 42.3368C74.1202 42.2381 86 43 86 43V11V11Z" fill="#F7F5F8"/>
<g id="&#208;&#154;&#209;&#131;&#208;&#191;&#208;&#184;&#209;&#130;&#209;&#140; &#209;&#129;&#209;&#130;&#209;&#128;&#208;&#190;&#208;&#185;&#208;&#188;&#208;&#176;&#209;&#130;&#208;&#181;&#209;&#128;&#208;&#184;&#208;&#176;&#208;&#187;&#209;&#139;">
<path d="M36.857 24V17.9574H37.4528V20.6468H38.3634L40.44 17.9574H41.1294L38.857 20.8851L41.274 24H40.5421L38.3804 21.1915H37.4528V24H36.857ZM42.3094 25.8553C42.213 25.8553 42.1137 25.8383 42.0115 25.8043C41.9151 25.7759 41.8158 25.7333 41.7137 25.6766L41.9264 25.2681C41.9888 25.3021 42.0456 25.3305 42.0966 25.3532C42.1534 25.3759 42.213 25.3872 42.2754 25.3872C42.4229 25.3872 42.5619 25.3135 42.6924 25.166C42.8229 25.0184 42.9477 24.8028 43.0669 24.5191L43.2881 23.966L41.3137 19.566H41.9264L43.552 23.4043L45.0498 19.566H45.6286L43.5179 24.6979C43.4044 24.9645 43.2853 25.183 43.1605 25.3532C43.0357 25.5234 42.9023 25.6482 42.7605 25.7277C42.6186 25.8128 42.4683 25.8553 42.3094 25.8553ZM46.4285 24V19.566H49.9944V24H49.4157V20.0851H47.0072V24H46.4285ZM51.2656 24V19.5745H51.8443V23.217L54.5422 19.566H55.0613V24H54.4826V20.417L51.8273 24H51.2656ZM57.4337 24V20.0851H55.8507V19.566H59.5954V20.0851H58.0124V24H57.4337ZM60.3746 24V19.566H60.9534V21.1319H62.1023C62.6073 21.1319 62.9874 21.2624 63.2427 21.5234C63.5037 21.7787 63.6342 22.1163 63.6342 22.5362C63.6342 22.8085 63.5775 23.0553 63.464 23.2766C63.3505 23.4979 63.1831 23.6738 62.9619 23.8043C62.7463 23.9348 62.4739 24 62.1448 24H60.3746ZM60.9534 23.5404H62.0683C62.3009 23.5404 62.4881 23.495 62.63 23.4043C62.7718 23.3078 62.8768 23.1858 62.9448 23.0383C63.0129 22.8851 63.047 22.7206 63.047 22.5447C63.047 22.3745 63.0158 22.2184 62.9534 22.0766C62.8966 21.9291 62.7945 21.8128 62.647 21.7277C62.5051 21.6369 62.3065 21.5915 62.0512 21.5915H60.9534V23.5404ZM17.9415 34.0851C17.6181 34.0851 17.3202 34.0255 17.0479 33.9064C16.7812 33.7816 16.5458 33.6113 16.3415 33.3957C16.1429 33.1801 15.9869 32.9333 15.8734 32.6553C15.7656 32.3773 15.7117 32.0823 15.7117 31.7702C15.7117 31.3504 15.8054 30.9674 15.9926 30.6213C16.1798 30.2752 16.4408 30 16.7756 29.7957C17.1103 29.5915 17.4961 29.4894 17.933 29.4894C18.3472 29.4894 18.7132 29.5858 19.0309 29.7787C19.3486 29.966 19.5841 30.2213 19.7373 30.5447L19.1756 30.7234C19.0507 30.4965 18.8749 30.3206 18.6479 30.1957C18.4266 30.0652 18.1798 30 17.9075 30C17.6124 30 17.3429 30.0766 17.099 30.2298C16.855 30.383 16.6593 30.5929 16.5117 30.8596C16.3699 31.1262 16.299 31.4298 16.299 31.7702C16.299 32.105 16.3727 32.4085 16.5202 32.6809C16.6678 32.9532 16.8635 33.1716 17.1075 33.3362C17.3515 33.495 17.621 33.5745 17.916 33.5745C18.1089 33.5745 18.2933 33.5404 18.4692 33.4723C18.6507 33.4043 18.8068 33.3135 18.9373 33.2C19.0734 33.0809 19.1642 32.9532 19.2096 32.817L19.7798 32.9872C19.7004 33.1972 19.5671 33.3872 19.3798 33.5574C19.1983 33.722 18.9827 33.8525 18.733 33.9489C18.489 34.0397 18.2252 34.0851 17.9415 34.0851ZM21.7954 34V30.0851H20.2124V29.566H23.9571V30.0851H22.3741V34H21.7954ZM27.0087 34.0851C26.6399 34.0851 26.308 33.9887 26.0129 33.7957C25.7236 33.6028 25.4938 33.3645 25.3236 33.0809V35.8128H24.7448V29.566H25.264V30.4255C25.4399 30.1475 25.6753 29.9234 25.9704 29.7532C26.2654 29.5773 26.5803 29.4894 26.9151 29.4894C27.2214 29.4894 27.5023 29.5546 27.7576 29.6851C28.0129 29.8099 28.2342 29.9801 28.4214 30.1957C28.6087 30.4113 28.7534 30.6582 28.8555 30.9362C28.9633 31.2085 29.0172 31.4922 29.0172 31.7872C29.0172 32.2014 28.9321 32.5844 28.7619 32.9362C28.5973 33.2823 28.3647 33.5603 28.064 33.7702C27.7633 33.9801 27.4115 34.0851 27.0087 34.0851ZM26.847 33.5745C27.0909 33.5745 27.3094 33.5262 27.5023 33.4298C27.6952 33.3277 27.8597 33.1915 27.9959 33.0213C28.1378 32.8511 28.2456 32.661 28.3193 32.4511C28.3931 32.2355 28.43 32.0142 28.43 31.7872C28.43 31.5489 28.3874 31.322 28.3023 31.1064C28.2229 30.8908 28.1066 30.7007 27.9534 30.5362C27.8002 30.3716 27.6243 30.2411 27.4257 30.1447C27.2271 30.0482 27.0115 30 26.7789 30C26.6314 30 26.4782 30.0284 26.3193 30.0851C26.1605 30.1418 26.0073 30.2241 25.8597 30.3319C25.7179 30.434 25.5987 30.5504 25.5023 30.6809C25.4058 30.8113 25.3463 30.9504 25.3236 31.0979V32.4596C25.4144 32.6695 25.5363 32.8596 25.6895 33.0298C25.8427 33.1943 26.0186 33.3277 26.2172 33.4298C26.4214 33.5262 26.6314 33.5745 26.847 33.5745ZM31.8869 34.0851C31.5691 34.0851 31.2741 34.0255 31.0018 33.9064C30.7351 33.7816 30.5025 33.6142 30.3039 33.4043C30.111 33.1887 29.9606 32.9447 29.8528 32.6723C29.745 32.3943 29.6911 32.1021 29.6911 31.7957C29.6911 31.478 29.745 31.183 29.8528 30.9106C29.9606 30.6326 30.1138 30.3887 30.3124 30.1787C30.511 29.9631 30.7436 29.7957 31.0103 29.6766C31.2826 29.5518 31.5776 29.4894 31.8954 29.4894C32.2131 29.4894 32.5053 29.5518 32.772 29.6766C33.0386 29.7957 33.2713 29.9631 33.4698 30.1787C33.6684 30.3887 33.8216 30.6326 33.9294 30.9106C34.0372 31.183 34.0911 31.478 34.0911 31.7957C34.0911 32.1021 34.0372 32.3943 33.9294 32.6723C33.8216 32.9447 33.6684 33.1887 33.4698 33.4043C33.2769 33.6142 33.0443 33.7816 32.772 33.9064C32.5053 34.0255 32.2103 34.0851 31.8869 34.0851ZM30.2784 31.8043C30.2784 32.1333 30.3493 32.434 30.4911 32.7064C30.6386 32.973 30.8344 33.1858 31.0784 33.3447C31.3223 33.4979 31.5918 33.5745 31.8869 33.5745C32.1819 33.5745 32.4514 33.495 32.6954 33.3362C32.9394 33.1773 33.1351 32.9617 33.2826 32.6894C33.4301 32.4113 33.5039 32.1106 33.5039 31.7872C33.5039 31.4582 33.4301 31.1574 33.2826 30.8851C33.1351 30.6128 32.9394 30.3972 32.6954 30.2383C32.4514 30.0794 32.1819 30 31.8869 30C31.5918 30 31.3223 30.0823 31.0784 30.2468C30.8401 30.4113 30.6472 30.6298 30.4996 30.9021C30.3521 31.1688 30.2784 31.4695 30.2784 31.8043ZM35.0505 34V29.5745H35.6292V33.217L38.3271 29.566H38.8462V34H38.2675V30.417L35.6122 34H35.0505ZM36.9569 29.0043C36.5711 29.0043 36.2732 28.9135 36.0633 28.7319C35.8533 28.5504 35.7484 28.3206 35.7484 28.0426H36.1739C36.1739 28.2128 36.2363 28.3546 36.3611 28.4681C36.4916 28.5816 36.6902 28.6383 36.9569 28.6383C37.2179 28.6383 37.4079 28.5844 37.5271 28.4766C37.6519 28.3688 37.7228 28.2241 37.7399 28.0426H38.1569C38.1569 28.3206 38.0519 28.5504 37.842 28.7319C37.6321 28.9135 37.337 29.0043 36.9569 29.0043ZM40.1037 34V29.566H40.6994L42.4611 32.6213L44.2314 29.566H44.8016V34H44.2484V30.434L42.6484 33.2085H42.2739L40.6569 30.434V34H40.1037ZM45.7222 32.7234C45.7222 32.4454 45.8016 32.2071 45.9605 32.0085C46.1193 31.8043 46.3378 31.6482 46.6158 31.5404C46.8995 31.427 47.2257 31.3702 47.5945 31.3702C47.8101 31.3702 48.0342 31.3872 48.2669 31.4213C48.4995 31.4553 48.7066 31.5064 48.8881 31.5745V31.2C48.8881 30.8255 48.7775 30.5277 48.5562 30.3064C48.3349 30.0851 48.0286 29.9745 47.6371 29.9745C47.3988 29.9745 47.1633 30.0199 46.9307 30.1106C46.7037 30.1957 46.4654 30.3234 46.2158 30.4936L45.9945 30.0851C46.2839 29.8865 46.5676 29.739 46.8456 29.6426C47.1236 29.5404 47.4073 29.4894 47.6966 29.4894C48.2413 29.4894 48.6725 29.6454 48.9903 29.9574C49.308 30.2695 49.4669 30.7007 49.4669 31.2511V33.3021C49.4669 33.3816 49.4839 33.4411 49.5179 33.4809C49.552 33.5149 49.6059 33.5348 49.6796 33.5404V34C49.6172 34.0057 49.5633 34.0113 49.5179 34.017C49.4725 34.0227 49.4385 34.0227 49.4158 34.017C49.2739 34.0113 49.1661 33.966 49.0924 33.8809C49.0186 33.7957 48.9789 33.705 48.9732 33.6085L48.9647 33.2851C48.7661 33.5404 48.508 33.739 48.1903 33.8809C47.8725 34.017 47.5491 34.0851 47.22 34.0851C46.9364 34.0851 46.6782 34.0255 46.4456 33.9064C46.2186 33.7816 46.0399 33.617 45.9094 33.4128C45.7846 33.2028 45.7222 32.973 45.7222 32.7234ZM48.6924 33.0638C48.7548 32.9844 48.803 32.9078 48.8371 32.834C48.8711 32.7603 48.8881 32.695 48.8881 32.6383V31.9915C48.6952 31.9177 48.4938 31.861 48.2839 31.8213C48.0796 31.7816 47.8725 31.7617 47.6626 31.7617C47.2484 31.7617 46.9137 31.844 46.6583 32.0085C46.403 32.173 46.2754 32.3972 46.2754 32.6809C46.2754 32.8454 46.3179 33.0014 46.403 33.1489C46.4881 33.2908 46.613 33.4099 46.7775 33.5064C46.942 33.5972 47.1349 33.6426 47.3562 33.6426C47.6342 33.6426 47.8924 33.5887 48.1307 33.4809C48.3747 33.373 48.5619 33.234 48.6924 33.0638ZM51.7571 34V30.0851H50.1742V29.566H53.9188V30.0851H52.3359V34H51.7571ZM56.6215 34.0851C56.3038 34.0851 56.0087 34.0255 55.7364 33.9064C55.4641 33.7816 55.2286 33.6142 55.03 33.4043C54.8314 33.1887 54.6754 32.9418 54.5619 32.6638C54.4541 32.3858 54.4002 32.0879 54.4002 31.7702C54.4002 31.356 54.4938 30.9759 54.6811 30.6298C54.874 30.2837 55.1378 30.0085 55.4726 29.8043C55.8073 29.5943 56.1875 29.4894 56.613 29.4894C57.0499 29.4894 57.43 29.5943 57.7534 29.8043C58.0825 30.0142 58.3407 30.2922 58.5279 30.6383C58.7151 30.9787 58.8087 31.3532 58.8087 31.7617C58.8087 31.8071 58.8087 31.8525 58.8087 31.8979C58.8087 31.9376 58.8059 31.9688 58.8002 31.9915H55.0045C55.0329 32.3092 55.1208 32.5929 55.2683 32.8426C55.4215 33.0865 55.6173 33.2823 55.8556 33.4298C56.0995 33.5716 56.3634 33.6426 56.647 33.6426C56.9364 33.6426 57.2087 33.5688 57.4641 33.4213C57.7251 33.2738 57.9066 33.0809 58.0087 32.8426L58.5109 32.9787C58.4201 33.1887 58.2811 33.3787 58.0938 33.5489C57.9066 33.7191 57.6853 33.8525 57.43 33.9489C57.1804 34.0397 56.9109 34.0851 56.6215 34.0851ZM54.9875 31.5745H58.2641C58.2414 31.2511 58.1534 30.9674 58.0002 30.7234C57.8527 30.4794 57.657 30.2894 57.413 30.1532C57.1747 30.0113 56.9109 29.9404 56.6215 29.9404C56.3321 29.9404 56.0683 30.0113 55.83 30.1532C55.5917 30.2894 55.396 30.4823 55.2428 30.7319C55.0953 30.9759 55.0102 31.2567 54.9875 31.5745ZM61.9655 34.0851C61.5967 34.0851 61.2648 33.9887 60.9697 33.7957C60.6804 33.6028 60.4506 33.3645 60.2804 33.0809V35.8128H59.7016V29.566H60.2208V30.4255C60.3967 30.1475 60.6321 29.9234 60.9272 29.7532C61.2222 29.5773 61.5371 29.4894 61.8718 29.4894C62.1782 29.4894 62.4591 29.5546 62.7144 29.6851C62.9697 29.8099 63.191 29.9801 63.3782 30.1957C63.5655 30.4113 63.7101 30.6582 63.8123 30.9362C63.9201 31.2085 63.974 31.4922 63.974 31.7872C63.974 32.2014 63.8889 32.5844 63.7187 32.9362C63.5541 33.2823 63.3215 33.5603 63.0208 33.7702C62.7201 33.9801 62.3683 34.0851 61.9655 34.0851ZM61.8038 33.5745C62.0477 33.5745 62.2662 33.5262 62.4591 33.4298C62.652 33.3277 62.8165 33.1915 62.9527 33.0213C63.0945 32.8511 63.2023 32.661 63.2761 32.4511C63.3499 32.2355 63.3867 32.0142 63.3867 31.7872C63.3867 31.5489 63.3442 31.322 63.2591 31.1064C63.1796 30.8908 63.0633 30.7007 62.9101 30.5362C62.7569 30.3716 62.5811 30.2411 62.3825 30.1447C62.1839 30.0482 61.9683 30 61.7357 30C61.5882 30 61.435 30.0284 61.2761 30.0851C61.1172 30.1418 60.964 30.2241 60.8165 30.3319C60.6747 30.434 60.5555 30.5504 60.4591 30.6809C60.3626 30.8113 60.303 30.9504 60.2804 31.0979V32.4596C60.3711 32.6695 60.4931 32.8596 60.6463 33.0298C60.7995 33.1943 60.9754 33.3277 61.174 33.4298C61.3782 33.5262 61.5882 33.5745 61.8038 33.5745ZM64.9458 34V29.5745H65.5245V33.217L68.2224 29.566H68.7415V34H68.1628V30.417L65.5075 34H64.9458ZM69.65 32.7234C69.65 32.4454 69.7295 32.2071 69.8883 32.0085C70.0472 31.8043 70.2656 31.6482 70.5437 31.5404C70.8273 31.427 71.1536 31.3702 71.5224 31.3702C71.738 31.3702 71.9621 31.3872 72.1947 31.4213C72.4273 31.4553 72.6344 31.5064 72.816 31.5745V31.2C72.816 30.8255 72.7054 30.5277 72.4841 30.3064C72.2628 30.0851 71.9564 29.9745 71.5649 29.9745C71.3266 29.9745 71.0912 30.0199 70.8585 30.1106C70.6316 30.1957 70.3933 30.3234 70.1437 30.4936L69.9224 30.0851C70.2117 29.8865 70.4954 29.739 70.7734 29.6426C71.0515 29.5404 71.3351 29.4894 71.6245 29.4894C72.1692 29.4894 72.6004 29.6454 72.9181 29.9574C73.2358 30.2695 73.3947 30.7007 73.3947 31.2511V33.3021C73.3947 33.3816 73.4117 33.4411 73.4458 33.4809C73.4798 33.5149 73.5337 33.5348 73.6075 33.5404V34C73.5451 34.0057 73.4912 34.0113 73.4458 34.017C73.4004 34.0227 73.3663 34.0227 73.3437 34.017C73.2018 34.0113 73.094 33.966 73.0202 33.8809C72.9465 33.7957 72.9068 33.705 72.9011 33.6085L72.8926 33.2851C72.694 33.5404 72.4358 33.739 72.1181 33.8809C71.8004 34.017 71.477 34.0851 71.1479 34.0851C70.8642 34.0851 70.6061 34.0255 70.3734 33.9064C70.1465 33.7816 69.9678 33.617 69.8373 33.4128C69.7124 33.2028 69.65 32.973 69.65 32.7234ZM72.6202 33.0638C72.6827 32.9844 72.7309 32.9078 72.7649 32.834C72.799 32.7603 72.816 32.695 72.816 32.6383V31.9915C72.6231 31.9177 72.4217 31.861 72.2117 31.8213C72.0075 31.7816 71.8004 31.7617 71.5905 31.7617C71.1763 31.7617 70.8415 31.844 70.5862 32.0085C70.3309 32.173 70.2032 32.3972 70.2032 32.6809C70.2032 32.8454 70.2458 33.0014 70.3309 33.1489C70.416 33.2908 70.5408 33.4099 70.7054 33.5064C70.8699 33.5972 71.0628 33.6426 71.2841 33.6426C71.5621 33.6426 71.8202 33.5887 72.0585 33.4809C72.3025 33.373 72.4898 33.234 72.6202 33.0638ZM74.2196 34.0255V33.4979C74.3728 33.4979 74.5089 33.4582 74.6281 33.3787C74.7472 33.2936 74.8522 33.1518 74.943 32.9532C75.0394 32.7546 75.116 32.4823 75.1728 32.1362C75.2295 31.7844 75.2664 31.339 75.2834 30.8L75.3345 29.566H78.2111V34H77.6324V30.0851H75.8451L75.8281 30.8511C75.8054 31.4638 75.7572 31.9773 75.6834 32.3915C75.6097 32.8 75.5047 33.1234 75.3685 33.3617C75.238 33.6 75.0763 33.7702 74.8834 33.8723C74.6905 33.9745 74.4692 34.0255 74.2196 34.0255ZM79.482 34V29.566H80.0607V31.1319H81.065C81.57 31.1319 81.9501 31.2624 82.2054 31.5234C82.4664 31.7787 82.5969 32.1163 82.5969 32.5362C82.5969 32.8085 82.5402 33.0553 82.4267 33.2766C82.3132 33.4979 82.1458 33.6738 81.9246 33.8043C81.709 33.9348 81.4366 34 81.1075 34H79.482ZM80.0607 33.5404H81.0309C81.2636 33.5404 81.4508 33.495 81.5927 33.4043C81.7345 33.3078 81.8395 33.1858 81.9075 33.0383C81.9756 32.8851 82.0097 32.7206 82.0097 32.5447C82.0097 32.3745 81.9785 32.2184 81.9161 32.0766C81.8593 31.9291 81.7572 31.8128 81.6097 31.7277C81.4678 31.6369 81.2692 31.5915 81.0139 31.5915H80.0607V33.5404ZM83.4054 34V29.5745H83.9841V34H83.4054Z" fill="#8D8D8D"/>
<path d="M36.0996 25.0638H63.898V25.4894H36.0996V25.0638ZM15.3798 35.0638H84.6224V35.4894H15.3798V35.0638Z" fill="#8D8D8D"/>
</g>
</g>
<g id="_1982831681248">
<path id="Vector_4" d="M0.445068 0.379957H15.8794V0H0.445068V0.379957Z" fill="#CCC9C8"/>
<path id="Vector_5" d="M1.29541 3.66231H15.0294V2.29932H1.29541V3.66231Z" fill="#DCDBDB"/>
<path id="Vector_6" d="M0.785889 1.20415H15.5392V0.379883H0.785889V1.20415Z" fill="#A9A7A6"/>
<path id="Vector_7" d="M0.785889 1.51296H15.5392V1.01855H0.785889V1.51296Z" fill="#CCC9C8"/>
<path id="Vector_8" d="M0.785889 1.5127L1.29558 2.2992H15.0295L15.5388 1.5127H0.785889Z" fill="#A9A7A6"/>
<path id="Vector_9" d="M2.31445 7.21706H14.01V4.85986H2.31445V7.21706Z" fill="#F9CA57"/>
<path id="Vector_10" d="M2.60327 60.3925H13.7218V8.24902H2.60327V60.3925Z" fill="#DCDBDB"/>
<path id="Vector_11" d="M13.7218 12.0258H2.60327V8.24854H13.7218H2.60327V10.4042H13.7218V12.0258Z" fill="#D0CECD"/>
<path id="Vector_12" d="M2.60327 10.4042H13.7218V8.24854H2.60327V10.4042Z" fill="#C5C3C2"/>
<path id="Vector_13" d="M14.077 4.4306H2.24782C2.03686 4.4306 1.86401 4.25797 1.86401 4.04718C1.86401 3.83524 2.03686 3.6626 2.24782 3.6626H14.077C14.2879 3.6626 14.4608 3.83524 14.4608 4.04718C14.4608 4.25797 14.2883 4.4306 14.077 4.4306Z" fill="#F4B520"/>
<path id="Vector_14" d="M14.077 7.89876H2.24782C2.03686 7.89876 1.86401 7.72574 1.86401 7.51457C1.86401 7.30339 2.03686 7.13037 2.24782 7.13037H14.077C14.2879 7.13037 14.4608 7.30339 14.4608 7.51457C14.4608 7.72574 14.2883 7.89876 14.077 7.89876Z" fill="#F4B520"/>
<path id="Vector_15" d="M2.31445 4.85995H14.01V4.43066H2.31445V4.85995Z" fill="#F0A51B"/>
<path id="Vector_16" d="M13.7217 8.32479H2.60318L2.31445 7.89551H14.01L13.7217 8.32479Z" fill="#F0A51B"/>
<path id="Vector_17" d="M14.0862 61.1417H2.2382C2.03224 61.1417 1.86401 60.9737 1.86401 60.7671C1.86401 60.5614 2.03263 60.3926 2.2382 60.3926H14.0862C14.2926 60.3926 14.4604 60.5614 14.4604 60.7671C14.4604 60.9737 14.2926 61.1417 14.0862 61.1417Z" fill="#A9A7A6"/>
<path id="Vector_18" d="M14.6202 62.5404H1.70506C1.32086 62.5404 1.00635 62.226 1.00635 61.841C1.00635 61.4564 1.32086 61.1416 1.70506 61.1416H14.6202C15.0036 61.1416 15.3185 61.4564 15.3185 61.841C15.3185 62.2256 15.004 62.5404 14.6202 62.5404Z" fill="#CCC9C8"/>
<path id="Vector_19" d="M0 66.0002H16.3248V62.5405H0V66.0002Z" fill="#A9A7A6"/>
</g>
<g id="_1982831684224">
<path id="Vector_20" d="M83.1204 0.379957H98.5547V0H83.1204V0.379957Z" fill="#CCC9C8"/>
<path id="Vector_21" d="M83.9707 3.66231H97.7047V2.29932H83.9707V3.66231Z" fill="#DCDBDB"/>
<path id="Vector_22" d="M83.4609 1.20415H98.2139V0.379883H83.4609V1.20415Z" fill="#A9A7A6"/>
<path id="Vector_23" d="M83.4609 1.51296H98.2139V1.01855H83.4609V1.51296Z" fill="#CCC9C8"/>
<path id="Vector_24" d="M83.4609 1.5127L83.9706 2.2992H97.7046L98.2139 1.5127H83.4609Z" fill="#A9A7A6"/>
<path id="Vector_25" d="M84.9897 7.21706H96.6853V4.85986H84.9897V7.21706Z" fill="#F9CA57"/>
<path id="Vector_26" d="M85.2783 60.3925H96.3964V8.24902H85.2783V60.3925Z" fill="#DCDBDB"/>
<path id="Vector_27" d="M96.3964 12.0258H85.2783V8.24854H96.3964H85.2783V10.4042H96.3964V12.0258Z" fill="#D0CECD"/>
<path id="Vector_28" d="M85.2783 10.4042H96.3964V8.24854H85.2783V10.4042Z" fill="#C5C3C2"/>
<path id="Vector_29" d="M96.7523 4.4306H84.9231C84.7122 4.4306 84.5393 4.25797 84.5393 4.04718C84.5393 3.83524 84.7122 3.6626 84.9231 3.6626H96.7523C96.9632 3.6626 97.1361 3.83524 97.1361 4.04718C97.1361 4.25797 96.9636 4.4306 96.7523 4.4306V4.4306Z" fill="#F4B520"/>
<path id="Vector_30" d="M96.7523 7.89876H84.9231C84.7122 7.89876 84.5393 7.72574 84.5393 7.51457C84.5393 7.30339 84.7122 7.13037 84.9231 7.13037H96.7523C96.9632 7.13037 97.1361 7.30339 97.1361 7.51457C97.1361 7.72574 96.9636 7.89876 96.7523 7.89876V7.89876Z" fill="#F4B520"/>
<path id="Vector_31" d="M84.9897 4.85995H96.6853V4.43066H84.9897V4.85995Z" fill="#F0A51B"/>
<path id="Vector_32" d="M96.3966 8.32479H85.2785L84.9897 7.89551H96.6853L96.3966 8.32479Z" fill="#F0A51B"/>
<path id="Vector_33" d="M96.7615 61.1417H84.9135C84.7075 61.1417 84.5393 60.9737 84.5393 60.7671C84.5393 60.5614 84.7079 60.3926 84.9135 60.3926H96.7615C96.9678 60.3926 97.1357 60.5614 97.1357 60.7671C97.1357 60.9737 96.9678 61.1417 96.7615 61.1417Z" fill="#A9A7A6"/>
<path id="Vector_34" d="M97.2955 62.5404H84.3803C83.9962 62.5404 83.6816 62.226 83.6816 61.841C83.6816 61.4564 83.9962 61.1416 84.3803 61.1416H97.2955C97.6789 61.1416 97.9938 61.4564 97.9938 61.841C97.9938 62.2256 97.6793 62.5404 97.2955 62.5404V62.5404Z" fill="#CCC9C8"/>
<path id="Vector_35" d="M82.6753 66.0002H99V62.5405H82.6753V66.0002Z" fill="#A9A7A6"/>
</g>
</g>
</g>
</svg>
