<svg width="57" height="34" viewBox="0 0 57 34" fill="none" xmlns="http://www.w3.org/2000/svg">
<g id="&#209;&#137;&#208;&#181;&#208;&#177;&#208;&#181;&#208;&#189;&#209;&#140;" clip-path="url(#clip0_36_456)">
<g id="&#208;&#161;&#208;&#187;&#208;&#190;&#208;&#185;_x0020_1">
<g id="_1987643028128">
<g id="Group">
<g id="Group_2">
<path id="Vector" fill-rule="evenodd" clip-rule="evenodd" d="M53.7983 31.4062L56.1972 29.477L56.4545 24.5799L55.5153 23.014L54.6422 21.9599L53.1599 20.794L52.0453 19.3373L51.5991 18.6934L49.2528 18.499L46.737 17.1182L43.0873 18.1672L40.2606 21.594L38.6413 22.9134L37.9202 26.1329L41.3551 28.8459L41.8749 29.813L43.6011 31.6876L49.4985 32.6778L53.7983 31.4062Z" fill="#C5C6C6"/>
<path id="Vector_2" fill-rule="evenodd" clip-rule="evenodd" d="M53.9804 26.9868L56.1871 29.3603L53.7983 31.4064L49.6681 30.8503L46.2482 28.8648L49.7675 27.0968L52.2608 27.9378L53.9804 26.9868Z" fill="#EBECEC"/>
<path id="Vector_3" fill-rule="evenodd" clip-rule="evenodd" d="M54.1751 27.1112L52.3753 27.9282L51.3099 24.0409L52.8164 20.8247L54.333 21.8456L56.6667 24.6319L56.1169 29.3431L54.1751 27.1112Z" fill="#D9DADA"/>
<path id="Vector_4" fill-rule="evenodd" clip-rule="evenodd" d="M43.9537 26.5456L46.3718 28.972L49.6973 27.0795L52.4463 27.9452L51.3375 24.0859L49.1384 19.6152L47.1063 23.1614L44.5963 22.3922L43.937 23.6041L43.9537 26.5456Z" fill="#D9DADA"/>
<path id="Vector_5" fill-rule="evenodd" clip-rule="evenodd" d="M46.406 28.8269L43.1649 28.1455L46.0693 31.6832L49.0138 32.6734L53.7715 31.3617L49.6848 30.7774L46.406 28.8269Z" fill="#D9DADA"/>
<path id="Vector_6" fill-rule="evenodd" clip-rule="evenodd" d="M41.4496 28.6021L38.0514 26.0503L43.1725 27.9573L45.9817 31.738L43.5544 31.4088L41.9259 29.5965L41.4496 28.6021Z" fill="#C5C6C6"/>
<path id="Vector_7" fill-rule="evenodd" clip-rule="evenodd" d="M43.2995 28.3699L46.2649 28.7929L43.846 26.3674L41.0393 27.013L39.5395 24.8135L37.9536 25.9879L43.2995 28.3699Z" fill="#9D9E9E"/>
<path id="Vector_8" fill-rule="evenodd" clip-rule="evenodd" d="M43.9002 23.442L44.5962 22.3922L43.7515 20.5815L39.4592 24.6787L41.2072 27.0923L43.9169 26.3844L43.9002 23.442Z" fill="#B2B3B3"/>
<path id="Vector_9" fill-rule="evenodd" clip-rule="evenodd" d="M43.343 18.192L46.6927 17.1455L43.6914 20.6815L40.2172 21.6222L43.343 18.192Z" fill="#727271"/>
<path id="Vector_10" fill-rule="evenodd" clip-rule="evenodd" d="M40.1027 21.6316L38.9388 22.6047L37.9712 25.9164L39.8194 24.5765L43.5159 20.7915L40.1027 21.6316Z" fill="#898989"/>
</g>
<g id="Group_3">
<path id="Vector_11" fill-rule="evenodd" clip-rule="evenodd" d="M32.4881 23.3588L31.2264 26.198L33.2034 30.6678L34.7433 31.6179L35.9933 32.1442L37.834 32.4836L39.4801 33.2546L40.1661 33.6171L42.3377 32.6891L45.1936 32.7352L47.9627 30.0905L48.9294 25.7212L49.7733 23.7895L48.9645 20.5921L44.6914 19.7938L43.7949 19.1789L41.4177 18.3252L35.7343 20.2126L32.4881 23.3588Z" fill="#C5C6C6"/>
<path id="Vector_12" fill-rule="evenodd" clip-rule="evenodd" d="M34.3164 27.37L31.2875 26.2971L32.4882 23.3589L36.4069 21.915L40.3382 22.0737L38.0087 25.2949L35.4151 25.718L34.3164 27.37Z" fill="#EBECEC"/>
<path id="Vector_13" fill-rule="evenodd" clip-rule="evenodd" d="M34.0873 27.3513L35.3181 25.7803L38.0144 28.7329L38.1256 32.2962L36.3191 32.1009L32.9919 30.7209L31.3584 26.2792L34.0873 27.3513Z" fill="#D9DADA"/>
<path id="Vector_14" fill-rule="evenodd" clip-rule="evenodd" d="M43.4197 23.0558L40.1794 22.0366L38.0788 25.2775L35.2479 25.7978L37.9702 28.7052L41.9357 31.6433L42.1438 27.541L44.7198 27.0463L44.7599 25.6613L43.4197 23.0558Z" fill="#D9DADA"/>
<path id="Vector_15" fill-rule="evenodd" clip-rule="evenodd" d="M40.2137 22.181L43.3997 21.265L39.2269 19.4868L36.1663 19.9892L32.5316 23.3861L36.4245 21.9874L40.2137 22.181Z" fill="#D9DADA"/>
<path id="Vector_16" fill-rule="evenodd" clip-rule="evenodd" d="M44.7174 20.0556L48.8843 20.7268L43.4782 21.4364L39.2804 19.3972L41.584 18.5503L43.8467 19.3955L44.7174 20.0556Z" fill="#C5C6C6"/>
<path id="Vector_17" fill-rule="evenodd" clip-rule="evenodd" d="M43.1799 21.1295L40.3557 22.1453L43.596 23.1644L45.7977 21.2736L48.1205 22.5239L48.9987 20.7363L43.1799 21.1295Z" fill="#9D9E9E"/>
<path id="Vector_18" fill-rule="evenodd" clip-rule="evenodd" d="M44.8653 25.7879L44.7199 27.0467L46.2849 28.2578L48.2526 22.605L45.6123 21.2822L43.525 23.1824L44.8653 25.7879Z" fill="#B2B3B3"/>
<path id="Vector_19" fill-rule="evenodd" clip-rule="evenodd" d="M47.7237 30.1888L45.2203 32.6902L46.294 28.141L48.9561 25.6763L47.7237 30.1888Z" fill="#727271"/>
<path id="Vector_20" fill-rule="evenodd" clip-rule="evenodd" d="M49.053 25.6136L49.6488 24.203L49.0163 20.8086L47.9777 22.8648L46.4001 27.9616L49.053 25.6136Z" fill="#898989"/>
</g>
<g id="Group_4">
<path id="Vector_21" fill-rule="evenodd" clip-rule="evenodd" d="M27.8324 17.0015L24.7994 17.3682L22.0754 21.4082V23.2444L22.281 24.609L22.9486 26.3924L23.155 28.2286L23.2059 29.0158L25.1077 30.4324L26.5473 32.9509L30.1971 33.9999L34.3598 32.5841L36.4161 32.3215L38.678 29.9607L37.1355 25.8158L37.1873 24.7139L36.6735 22.1954L32.1498 18.2083L27.8324 17.0015Z" fill="#C5C6C6"/>
<path id="Vector_22" fill-rule="evenodd" clip-rule="evenodd" d="M25.416 20.6739L24.7484 17.4731L27.8325 17.0015L31.0702 19.6769L32.972 23.1924L29.0657 22.8248L27.3696 20.7788L25.416 20.6739Z" fill="#EBECEC"/>
<path id="Vector_23" fill-rule="evenodd" clip-rule="evenodd" d="M25.3133 20.464L27.2668 20.7267L26.1873 24.6089L23.2578 26.55L22.4866 24.8716L21.9209 21.2512L24.7994 17.5259L25.3133 20.464Z" fill="#D9DADA"/>
<path id="Vector_24" fill-rule="evenodd" clip-rule="evenodd" d="M33.7432 26.3923L32.921 23.0346L29.1175 22.8776L27.2158 20.6738L26.1872 24.5561L25.7761 29.5411L29.3231 27.5991L31.0702 29.5931L32.2525 28.9108L33.7432 26.3923Z" fill="#D9DADA"/>
<path id="Vector_25" fill-rule="evenodd" clip-rule="evenodd" d="M32.8183 23.1398L35.2339 25.4485L34.5654 20.8839L32.5609 18.4703L27.8325 17.0537L31.0193 19.73L32.8183 23.1398Z" fill="#D9DADA"/>
<path id="Vector_26" fill-rule="evenodd" clip-rule="evenodd" d="M36.9301 25.9728L38.5235 29.9608L35.1311 25.6061L34.6682 20.8838L36.5708 22.4582L37.0328 24.8718L36.9301 25.9728Z" fill="#C5C6C6"/>
<path id="Vector_27" fill-rule="evenodd" clip-rule="evenodd" d="M35.2338 25.1857L32.921 23.2446L33.7432 26.6032L36.468 27.5473L36.6217 30.2228L38.5752 30.0658L35.2338 25.1857Z" fill="#9D9E9E"/>
<path id="Vector_28" fill-rule="evenodd" clip-rule="evenodd" d="M32.2016 29.0688L31.0703 29.5933L30.8647 31.5873L36.6217 30.3805L36.3644 27.3895L33.6923 26.5503L32.2016 29.0688Z" fill="#B2B3B3"/>
<path id="Vector_29" fill-rule="evenodd" clip-rule="evenodd" d="M29.9908 33.8429L26.5984 32.9508L30.9675 31.5342L34.4117 32.5841L29.9908 33.8429Z" fill="#727271"/>
<path id="Vector_30" fill-rule="evenodd" clip-rule="evenodd" d="M34.5144 32.6362L36.005 32.4264L38.5234 30.1177L36.2615 30.2755L31.173 31.5343L34.5144 32.6362Z" fill="#898989"/>
</g>
</g>
<g id="Group_5">
<g id="Group_6">
<path id="Vector_31" fill-rule="evenodd" clip-rule="evenodd" d="M31.8774 31.4062L34.2763 29.477L34.5336 24.5799L33.5944 23.014L32.7213 21.9599L31.239 20.794L30.1244 19.3373L29.6782 18.6934L27.3311 18.499L24.8161 17.1182L21.1664 18.1672L18.3397 21.594L16.7204 22.9134L15.9993 26.1329L19.4342 28.8459L19.954 29.813L21.6802 31.6876L27.5776 32.6778L31.8774 31.4062Z" fill="#C5C6C6"/>
<path id="Vector_32" fill-rule="evenodd" clip-rule="evenodd" d="M32.0595 26.9868L34.2662 29.3603L31.8773 31.4064L27.7464 30.8503L24.3264 28.8648L27.8466 27.0968L30.3399 27.9378L32.0595 26.9868Z" fill="#EBECEC"/>
<path id="Vector_33" fill-rule="evenodd" clip-rule="evenodd" d="M32.2542 27.1112L30.4544 27.9282L29.389 24.0409L30.8955 20.8247L32.4121 21.8456L34.7458 24.6319L34.1952 29.3431L32.2542 27.1112Z" fill="#D9DADA"/>
<path id="Vector_34" fill-rule="evenodd" clip-rule="evenodd" d="M22.032 26.5456L24.4509 28.972L27.7756 27.0795L30.5254 27.9452L29.4158 24.0859L27.2174 19.6152L25.1854 23.1614L22.6753 22.3922L22.0153 23.6041L22.032 26.5456Z" fill="#D9DADA"/>
<path id="Vector_35" fill-rule="evenodd" clip-rule="evenodd" d="M24.4851 28.8269L21.244 28.1455L24.1484 31.6832L27.0921 32.6734L31.8506 31.3617L27.7639 30.7774L24.4851 28.8269Z" fill="#D9DADA"/>
<path id="Vector_36" fill-rule="evenodd" clip-rule="evenodd" d="M19.5287 28.6021L16.1305 26.0503L21.2508 27.9573L24.0608 31.738L21.6335 31.4088L20.005 29.5965L19.5287 28.6021Z" fill="#C5C6C6"/>
<path id="Vector_37" fill-rule="evenodd" clip-rule="evenodd" d="M21.3778 28.3699L24.344 28.7929L21.9251 26.3674L19.1184 27.013L17.6186 24.8135L16.0327 25.9879L21.3778 28.3699Z" fill="#9D9E9E"/>
<path id="Vector_38" fill-rule="evenodd" clip-rule="evenodd" d="M21.9793 23.442L22.6753 22.3922L21.8306 20.5815L17.5375 24.6787L19.2863 27.0923L21.996 26.3844L21.9793 23.442Z" fill="#B2B3B3"/>
<path id="Vector_39" fill-rule="evenodd" clip-rule="evenodd" d="M21.4221 18.192L24.7718 17.1455L21.7705 20.6815L18.2963 21.6222L21.4221 18.192Z" fill="#727271"/>
<path id="Vector_40" fill-rule="evenodd" clip-rule="evenodd" d="M18.1818 21.6316L17.0179 22.6047L16.0503 25.9164L17.8985 24.5765L21.5951 20.7915L18.1818 21.6316Z" fill="#898989"/>
</g>
<g id="Group_7">
<path id="Vector_41" fill-rule="evenodd" clip-rule="evenodd" d="M10.5672 23.3588L9.30554 26.198L11.2825 30.6678L12.8216 31.6179L14.0716 32.1442L15.9131 32.4836L17.5592 33.2546L18.2452 33.6171L20.4168 32.6891L23.2727 32.7352L26.0409 30.0905L27.0085 25.7212L27.8524 23.7895L27.0436 20.5921L22.7705 19.7938L21.874 19.1789L19.496 18.3252L13.8125 20.2126L10.5672 23.3588Z" fill="#C5C6C6"/>
<path id="Vector_42" fill-rule="evenodd" clip-rule="evenodd" d="M12.3955 27.37L9.36658 26.2971L10.5673 23.3589L14.486 21.915L18.4173 22.0737L16.0878 25.2949L13.4942 25.718L12.3955 27.37Z" fill="#EBECEC"/>
<path id="Vector_43" fill-rule="evenodd" clip-rule="evenodd" d="M12.1664 27.3513L13.3972 25.7803L16.0936 28.7329L16.2047 32.2962L14.3982 32.1009L11.071 30.7209L9.4375 26.2792L12.1664 27.3513Z" fill="#D9DADA"/>
<path id="Vector_44" fill-rule="evenodd" clip-rule="evenodd" d="M21.4989 23.0558L18.2586 22.0366L16.158 25.2775L13.3263 25.7978L16.0494 28.7052L20.0149 31.6433L20.223 27.541L22.799 27.0463L22.8391 25.6613L21.4989 23.0558Z" fill="#D9DADA"/>
<path id="Vector_45" fill-rule="evenodd" clip-rule="evenodd" d="M18.2928 22.181L21.4788 21.265L17.306 19.4868L14.2454 19.9892L10.6107 23.3861L14.5036 21.9874L18.2928 22.181Z" fill="#D9DADA"/>
<path id="Vector_46" fill-rule="evenodd" clip-rule="evenodd" d="M22.7965 20.0556L26.9634 20.7268L21.5573 21.4364L17.3595 19.3972L19.6631 18.5503L21.9258 19.3955L22.7965 20.0556Z" fill="#C5C6C6"/>
<path id="Vector_47" fill-rule="evenodd" clip-rule="evenodd" d="M21.259 21.1295L18.434 22.1453L21.6751 23.1644L23.8759 21.2736L26.1996 22.5239L27.0778 20.7363L21.259 21.1295Z" fill="#9D9E9E"/>
<path id="Vector_48" fill-rule="evenodd" clip-rule="evenodd" d="M22.9444 25.7879L22.799 27.0467L24.364 28.2578L26.3317 22.605L23.6913 21.2822L21.6041 23.1824L22.9444 25.7879Z" fill="#B2B3B3"/>
<path id="Vector_49" fill-rule="evenodd" clip-rule="evenodd" d="M25.8028 30.1888L23.2994 32.6902L24.3731 28.141L27.0352 25.6763L25.8028 30.1888Z" fill="#727271"/>
<path id="Vector_50" fill-rule="evenodd" clip-rule="evenodd" d="M27.1321 25.6136L27.7271 24.203L27.0954 20.8086L26.0568 22.8648L24.4792 27.9616L27.1321 25.6136Z" fill="#898989"/>
</g>
<g id="Group_8">
<path id="Vector_51" fill-rule="evenodd" clip-rule="evenodd" d="M5.91153 17.0015L2.87846 17.3682L0.154541 21.4082V23.2444L0.360088 24.609L1.0277 26.3924L1.23408 28.2286L1.28505 29.0158L3.18678 30.4324L4.62561 32.9509L8.27532 33.9999L12.4389 32.5841L14.4952 32.3215L16.7571 29.9607L15.2146 25.8158L15.2664 24.7139L14.7526 22.1954L10.2289 18.2083L5.91153 17.0015Z" fill="#C5C6C6"/>
<path id="Vector_52" fill-rule="evenodd" clip-rule="evenodd" d="M3.49511 20.6739L2.82666 17.4731L5.91154 17.0015L9.14932 19.6769L11.0511 23.1924L7.14482 22.8248L5.44864 20.7788L3.49511 20.6739Z" fill="#EBECEC"/>
<path id="Vector_53" fill-rule="evenodd" clip-rule="evenodd" d="M3.39236 20.464L5.3459 20.7267L4.26636 24.6089L1.33689 26.55L0.565672 24.8716L0 21.2512L2.8785 17.5259L3.39236 20.464Z" fill="#D9DADA"/>
<path id="Vector_54" fill-rule="evenodd" clip-rule="evenodd" d="M11.8223 26.3923L11.0001 23.0346L7.19578 22.8776L5.29405 20.6738L4.26632 24.5561L3.85522 29.5411L7.40133 27.5991L9.14932 29.5931L10.3316 28.9108L11.8223 26.3923Z" fill="#D9DADA"/>
<path id="Vector_55" fill-rule="evenodd" clip-rule="evenodd" d="M10.8974 23.1398L13.313 25.4485L12.6445 20.8839L10.64 18.4703L5.91162 17.0537L9.09844 19.73L10.8974 23.1398Z" fill="#D9DADA"/>
<path id="Vector_56" fill-rule="evenodd" clip-rule="evenodd" d="M15.0092 25.9728L16.6026 29.9608L13.2102 25.6061L12.7473 20.8838L14.6499 22.4582L15.1119 24.8718L15.0092 25.9728Z" fill="#C5C6C6"/>
<path id="Vector_57" fill-rule="evenodd" clip-rule="evenodd" d="M13.3129 25.1857L11.0001 23.2446L11.8223 26.6032L14.5462 27.5473L14.7008 30.2228L16.6543 30.0658L13.3129 25.1857Z" fill="#9D9E9E"/>
<path id="Vector_58" fill-rule="evenodd" clip-rule="evenodd" d="M10.2799 29.0688L9.14939 29.5933L8.94385 31.5873L14.7008 30.3805L14.4435 27.3895L11.7714 26.5503L10.2799 29.0688Z" fill="#B2B3B3"/>
<path id="Vector_59" fill-rule="evenodd" clip-rule="evenodd" d="M8.06985 33.8429L4.67749 32.9508L9.04662 31.5342L12.4908 32.5841L8.06985 33.8429Z" fill="#727271"/>
<path id="Vector_60" fill-rule="evenodd" clip-rule="evenodd" d="M12.5935 32.6362L14.0841 32.4264L16.6025 30.1177L14.3406 30.2755L9.25208 31.5343L12.5935 32.6362Z" fill="#898989"/>
</g>
</g>
<g id="Group_9">
<g id="Group_10">
<path id="Vector_61" fill-rule="evenodd" clip-rule="evenodd" d="M13.2621 20.7976L10.8632 18.8684L10.6058 13.9712L11.545 12.4045L12.4182 11.3512L13.9004 10.1854L15.0151 8.72867L15.4613 8.08476L17.8075 7.89031L20.3234 6.50952L23.9731 7.55854L26.7998 10.9854L28.4191 12.3047L29.1402 15.5234L25.7052 18.2373L25.1855 19.2044L23.4592 21.0782L17.5618 22.0692L13.2621 20.7976Z" fill="#C5C6C6"/>
<path id="Vector_62" fill-rule="evenodd" clip-rule="evenodd" d="M13.0799 16.3779L10.8732 18.7515L13.262 20.7975L17.3922 20.2414L20.8121 18.2559L17.2928 16.4879L14.7995 17.3289L13.0799 16.3779Z" fill="#EBECEC"/>
<path id="Vector_63" fill-rule="evenodd" clip-rule="evenodd" d="M12.8844 16.5028L14.685 17.3198L15.7495 13.4325L14.2438 10.2163L12.7273 11.2372L10.3936 14.0235L10.9434 18.7347L12.8844 16.5028Z" fill="#D9DADA"/>
<path id="Vector_64" fill-rule="evenodd" clip-rule="evenodd" d="M23.1066 15.937L20.6877 18.3634L17.363 16.47L14.614 17.3365L15.7228 13.4773L17.9212 9.00659L19.9541 12.5528L22.4641 11.7835L23.1233 12.9946L23.1066 15.937Z" fill="#D9DADA"/>
<path id="Vector_65" fill-rule="evenodd" clip-rule="evenodd" d="M20.6543 18.2185L23.8954 17.5371L20.991 21.0739L18.0465 22.065L13.2888 20.7533L17.3755 20.169L20.6543 18.2185Z" fill="#D9DADA"/>
<path id="Vector_66" fill-rule="evenodd" clip-rule="evenodd" d="M25.6107 17.9932L29.0089 15.4414L23.8878 17.3484L21.0786 21.1292L23.5059 20.8L25.1344 18.9876L25.6107 17.9932Z" fill="#C5C6C6"/>
<path id="Vector_67" fill-rule="evenodd" clip-rule="evenodd" d="M23.7608 17.7614L20.7954 18.1844L23.2143 15.758L26.021 16.4045L27.5208 14.2041L29.1059 15.3793L23.7608 17.7614Z" fill="#9D9E9E"/>
<path id="Vector_68" fill-rule="evenodd" clip-rule="evenodd" d="M23.16 12.8334L22.464 11.7835L23.3079 9.9729L27.601 14.0701L25.8522 16.4837L23.1433 15.7758L23.16 12.8334Z" fill="#B2B3B3"/>
<path id="Vector_69" fill-rule="evenodd" clip-rule="evenodd" d="M23.7166 7.58333L20.3668 6.53687L23.369 10.0728L26.8432 11.0127L23.7166 7.58333Z" fill="#727271"/>
<path id="Vector_70" fill-rule="evenodd" clip-rule="evenodd" d="M26.9577 11.0227L28.1216 11.9958L29.0892 15.3075L27.2409 13.9676L23.5444 10.1826L26.9577 11.0227Z" fill="#898989"/>
</g>
<g id="Group_11">
<path id="Vector_71" fill-rule="evenodd" clip-rule="evenodd" d="M34.572 12.7499L35.8337 15.5891L33.8568 20.059L32.3169 21.0091L31.0669 21.5353L29.2261 21.8747L27.5801 22.6457L26.8933 23.0082L24.7217 22.0803L21.8657 22.1263L19.0975 19.4816L18.1308 15.1123L17.2869 13.1806L18.0957 9.98322L22.3687 9.18494L23.2653 8.57003L25.6424 7.71631L31.3259 9.6037L34.572 12.7499Z" fill="#C5C6C6"/>
<path id="Vector_72" fill-rule="evenodd" clip-rule="evenodd" d="M32.743 16.7611L35.7718 15.6882L34.572 12.7501L30.6532 11.3062L26.7219 11.4639L29.0515 14.6861L31.645 15.1091L32.743 16.7611Z" fill="#EBECEC"/>
<path id="Vector_73" fill-rule="evenodd" clip-rule="evenodd" d="M32.9728 16.7424L31.742 15.1714L29.0457 18.124L28.9346 21.6873L30.741 21.492L34.0682 20.112L35.7017 15.6703L32.9728 16.7424Z" fill="#D9DADA"/>
<path id="Vector_74" fill-rule="evenodd" clip-rule="evenodd" d="M23.6404 12.4469L26.8807 11.4277L28.9813 14.6686L31.8122 15.1889L29.0899 18.0963L25.1235 21.0344L24.9155 16.9321L22.3403 16.4375L22.3002 15.0516L23.6404 12.4469Z" fill="#D9DADA"/>
<path id="Vector_75" fill-rule="evenodd" clip-rule="evenodd" d="M26.8457 11.5721L23.6605 10.6562L27.8325 8.87793L30.8931 9.38027L34.5278 12.7772L30.6358 11.3785L26.8457 11.5721Z" fill="#D9DADA"/>
<path id="Vector_76" fill-rule="evenodd" clip-rule="evenodd" d="M22.3428 9.44671L18.175 10.1179L23.5819 10.8275L27.7798 8.7883L25.4761 7.94141L23.2135 8.78659L22.3428 9.44671Z" fill="#C5C6C6"/>
<path id="Vector_77" fill-rule="evenodd" clip-rule="evenodd" d="M23.8802 10.5206L26.7044 11.5364L23.4641 12.5555L21.2624 10.6647L18.9396 11.915L18.0605 10.1274L23.8802 10.5206Z" fill="#9D9E9E"/>
<path id="Vector_78" fill-rule="evenodd" clip-rule="evenodd" d="M22.195 15.179L22.3404 16.4378L20.7754 17.6489L18.8076 11.9961L21.448 10.6733L23.5344 12.5735L22.195 15.179Z" fill="#B2B3B3"/>
<path id="Vector_79" fill-rule="evenodd" clip-rule="evenodd" d="M19.3365 19.5799L21.8389 22.0813L20.7661 17.5322L18.104 15.0674L19.3365 19.5799Z" fill="#727271"/>
<path id="Vector_80" fill-rule="evenodd" clip-rule="evenodd" d="M18.0071 15.0047L17.4114 13.5941L18.0439 10.1997L19.0817 12.256L20.66 17.3527L18.0071 15.0047Z" fill="#898989"/>
</g>
<g id="Group_12">
<path id="Vector_81" fill-rule="evenodd" clip-rule="evenodd" d="M39.2279 6.39258L42.2609 6.75931L44.9848 10.7993V12.6355L44.7793 14.0001L44.1109 15.7835L43.9053 17.6197L43.8543 18.4069L41.9526 19.8235L40.5129 22.342L36.8632 23.391L32.7005 21.9753L30.6442 21.7126L28.3823 19.3519L29.9248 15.2069L29.873 14.105L30.3868 11.5865L34.9105 7.59938L39.2279 6.39258Z" fill="#C5C6C6"/>
<path id="Vector_82" fill-rule="evenodd" clip-rule="evenodd" d="M41.6443 10.065L42.3119 6.86421L39.2279 6.39258L35.9901 9.06801L34.0875 12.5835L37.9946 12.2159L39.6908 10.1699L41.6443 10.065Z" fill="#EBECEC"/>
<path id="Vector_83" fill-rule="evenodd" clip-rule="evenodd" d="M41.7471 9.85511L39.7936 10.1178L40.8731 14L43.8026 15.9412L44.5738 14.2619L45.1395 10.6423L42.261 6.91699L41.7471 9.85511Z" fill="#D9DADA"/>
<path id="Vector_84" fill-rule="evenodd" clip-rule="evenodd" d="M33.3171 15.7834L34.1393 12.4257L37.9428 12.2687L39.8445 10.0649L40.8731 13.9472L41.2842 18.9322L37.7372 16.9902L35.9901 18.9842L34.8078 18.3019L33.3171 15.7834Z" fill="#D9DADA"/>
<path id="Vector_85" fill-rule="evenodd" clip-rule="evenodd" d="M34.2421 12.5306L31.8265 14.8393L32.4942 10.2748L34.4995 7.86119L39.2279 6.44458L36.0411 9.12087L34.2421 12.5306Z" fill="#D9DADA"/>
<path id="Vector_86" fill-rule="evenodd" clip-rule="evenodd" d="M30.1303 15.3639L28.5369 19.3519L31.9292 14.9972L32.3913 10.2749L30.4896 11.8493L30.0275 14.262L30.1303 15.3639Z" fill="#C5C6C6"/>
<path id="Vector_87" fill-rule="evenodd" clip-rule="evenodd" d="M31.8265 14.5769L34.1393 12.6357L33.3171 15.9943L30.5924 16.9384L30.4386 19.6139L28.4851 19.457L31.8265 14.5769Z" fill="#9D9E9E"/>
<path id="Vector_88" fill-rule="evenodd" clip-rule="evenodd" d="M34.8587 18.4599L35.99 18.9844L36.1956 20.9784L30.4386 19.7716L30.6951 16.7806L33.3681 15.9414L34.8587 18.4599Z" fill="#B2B3B3"/>
<path id="Vector_89" fill-rule="evenodd" clip-rule="evenodd" d="M37.0688 23.234L40.462 22.3419L36.0928 20.9253L32.6487 21.9752L37.0688 23.234Z" fill="#727271"/>
<path id="Vector_90" fill-rule="evenodd" clip-rule="evenodd" d="M32.5459 22.0273L31.0552 21.8175L28.5369 19.5088L30.7979 19.6666L35.8873 20.9254L32.5459 22.0273Z" fill="#898989"/>
</g>
<g id="Group_13">
<path id="Vector_91" fill-rule="evenodd" clip-rule="evenodd" d="M34.572 5.03495L35.8337 7.87328L33.8568 12.3431L32.3169 13.2932L31.0669 13.8203L29.2261 14.1597L27.5801 14.9299L26.8933 15.2923L24.7217 14.3644L21.8657 14.4105L19.0975 11.7658L18.1308 7.39653L17.2869 5.46479L18.0957 2.26825L22.3687 1.46997L23.2653 0.855058L25.6424 0.000488281L31.3259 1.88788L34.572 5.03495Z" fill="#C5C6C6"/>
<path id="Vector_92" fill-rule="evenodd" clip-rule="evenodd" d="M32.743 9.04513L35.7718 7.97308L34.572 5.03496L30.6532 3.59106L26.7219 3.74884L29.0515 6.97097L31.645 7.39313L32.743 9.04513Z" fill="#EBECEC"/>
<path id="Vector_93" fill-rule="evenodd" clip-rule="evenodd" d="M32.9728 9.02642L31.742 7.4563L29.0457 10.4081L28.9346 13.9713L30.741 13.776L34.0682 12.3969L35.7017 7.95522L32.9728 9.02642Z" fill="#D9DADA"/>
<path id="Vector_94" fill-rule="evenodd" clip-rule="evenodd" d="M23.6404 4.73133L26.8807 3.71216L28.9813 6.95304L31.8122 7.47414L29.0899 10.3807L25.1235 13.3197L24.9155 9.2174L22.3403 8.72188L22.3002 7.33683L23.6404 4.73133Z" fill="#D9DADA"/>
<path id="Vector_95" fill-rule="evenodd" clip-rule="evenodd" d="M26.8457 3.85631L23.6605 2.94118L27.8325 1.16211L30.8931 1.66445L34.5278 5.06141L30.6358 3.66271L26.8457 3.85631Z" fill="#D9DADA"/>
<path id="Vector_96" fill-rule="evenodd" clip-rule="evenodd" d="M22.3428 1.73102L18.175 2.40307L23.5819 3.11266L27.7798 1.0726L25.4761 0.226562L23.2135 1.0709L22.3428 1.73102Z" fill="#C5C6C6"/>
<path id="Vector_97" fill-rule="evenodd" clip-rule="evenodd" d="M23.8802 2.80479L26.7044 3.82055L23.4641 4.84058L21.2624 2.94978L18.9396 4.19922L18.0605 2.41162L23.8802 2.80479Z" fill="#9D9E9E"/>
<path id="Vector_98" fill-rule="evenodd" clip-rule="evenodd" d="M22.195 7.46296L22.3404 8.72179L20.7754 9.93371L18.8076 4.28092L21.448 2.95728L23.5344 4.85746L22.195 7.46296Z" fill="#B2B3B3"/>
<path id="Vector_99" fill-rule="evenodd" clip-rule="evenodd" d="M19.3365 11.8638L21.8389 14.3661L20.7661 9.81695L18.104 7.35132L19.3365 11.8638Z" fill="#727271"/>
<path id="Vector_100" fill-rule="evenodd" clip-rule="evenodd" d="M18.0071 7.28892L17.4114 5.87829L18.0439 2.48389L19.0817 4.541L20.66 9.63686L18.0071 7.28892Z" fill="#898989"/>
</g>
</g>
</g>
</g>
</g>
<defs>
<clipPath id="clip0_36_456">
<rect width="56.6667" height="34" fill="white"/>
</clipPath>
</defs>
</svg>
