<svg width="1049" height="546" viewBox="0 0 1049 546" fill="none" xmlns="http://www.w3.org/2000/svg">
<g id="Group 96">
<path id="Union" fill-rule="evenodd" clip-rule="evenodd" d="M986.451 64.8463V66.2863L986.452 66.2863V67.7324C945.804 68.73 892.415 69.7902 826.147 70.5921C815.444 70.7225 803.349 70.8503 791.391 70.9726L787.415 71.009L781.583 71.0623C778.771 71.087 775.672 71.1145 772.548 71.1422C764.298 71.2154 755.872 71.2902 752.067 71.3178C597.953 72.5112 425.304 71.9376 238.373 69.5047L215.115 69.1948C212.272 69.1571 209.418 69.1171 206.562 69.077L206.557 69.077L206.553 69.0769L206.549 69.0768L206.544 69.0768L206.54 69.0767L206.535 69.0767C205.074 69.0562 203.611 69.0356 202.15 69.0154C198.935 68.9684 195.548 68.9193 192.119 68.8697L192.116 68.8696L192.115 68.8696C186.63 68.7901 181.037 68.7091 175.859 68.6322C138.971 68.0776 101.481 67.4551 63.5488 66.7565V65.3058L63.5482 65.3058V63.8488C113.836 64.7703 163.459 65.5721 211.957 66.2436L235.47 66.5562C422.438 69.0108 597.057 69.6251 754.49 68.3883C761.383 68.3339 787.873 68.0975 794.225 68.0349C874.918 67.2222 938.929 66.0017 986.458 64.8437L986.451 64.8463ZM986.451 478.115V479.547C894.446 477.315 740.512 474.85 522.79 475.472L498.948 475.551C361.882 476.073 215.873 477.745 63.542 480.537V479.08C79.3922 478.789 95.1684 478.511 110.868 478.245C95.1706 478.511 79.3965 478.789 63.5488 479.079V477.622L63.542 477.622V476.165V474.714V474.711V473.257C218.44 470.421 364.219 468.782 498.799 468.271C499.669 468.271 521.647 468.198 522.672 468.192C744.018 467.559 897.859 470.188 986.451 472.365V473.803V473.806V475.241V475.243V476.681L986.452 476.681V478.114C895.18 475.89 741.29 473.392 522.766 474.017L498.918 474.096C483.491 474.155 467.943 474.228 452.28 474.316C467.941 474.228 483.486 474.155 498.911 474.097L522.759 474.018C741.283 473.393 895.174 475.894 986.445 478.115H986.451ZM986.452 476.681V476.678L986.458 476.681L986.452 476.681ZM986.451 69.1762V67.7353L986.445 67.7381C945.797 68.7357 892.408 69.7958 826.14 70.5977C815.438 70.7255 803.349 70.856 791.384 70.9783L787.454 71.0142L781.577 71.068L774.14 71.1333C765.403 71.2103 756.116 71.292 752.06 71.3235C597.946 72.5168 425.303 71.9433 238.366 69.5104L215.108 69.2005C210.795 69.1434 206.469 69.0836 202.143 69.0211C198.935 68.9742 195.557 68.9252 192.136 68.8757L192.135 68.8757C186.642 68.7961 181.038 68.7149 175.852 68.6378C138.965 68.0833 101.474 67.4608 63.542 66.7622V68.2192C102.108 68.926 140.195 69.562 177.636 70.1193C185.822 70.2416 195.667 70.3857 203.784 70.4999C205.344 70.5215 206.9 70.5434 208.455 70.5653C211.205 70.6041 213.949 70.6428 216.693 70.6793C217.694 70.6956 238.838 70.9756 239.826 70.9864C426.739 73.4112 598.412 73.9603 750.861 72.7887C756.311 72.7452 770.053 72.6283 780.228 72.5359L780.588 72.5327L780.234 72.536C770.06 72.6285 756.324 72.7454 750.867 72.7889C598.418 73.9632 426.739 73.4113 239.833 70.9866C238.844 70.9757 217.7 70.6958 216.699 70.6795C212.405 70.6224 208.11 70.5626 203.79 70.5C195.667 70.3859 185.828 70.2418 177.642 70.1195C140.201 69.5622 102.114 68.9261 63.5482 68.2194V69.6738L63.542 69.6737V71.128L63.5482 71.1281V72.5827C104.047 73.3221 143.912 73.9853 182.988 74.5643C187.145 74.6263 192.339 74.7 197.408 74.772L197.408 74.772L197.408 74.772C201.456 74.8294 205.424 74.8858 208.719 74.934C212.657 74.9894 216.58 75.0425 220.491 75.0954L220.492 75.0954L220.492 75.0954L220.493 75.0954L220.493 75.0954L220.494 75.0954L220.494 75.0954L220.495 75.0954L220.495 75.0954L220.495 75.0954L220.496 75.0954L220.496 75.0954L220.497 75.0954L220.497 75.0955L220.498 75.0955L220.498 75.0955L221.423 75.108C222.23 75.1179 225.787 75.1651 229.867 75.2194L229.872 75.2194L229.874 75.2195L229.875 75.2195L229.877 75.2195L229.884 75.2196C235.885 75.2994 243.011 75.3941 244.183 75.407C431.028 77.8045 599.754 78.2884 747.237 77.182C753.285 77.1385 766.225 77.0271 776.144 76.9374L778.98 76.9123C781.571 76.8894 783.951 76.8684 785.747 76.8504C797.444 76.7417 810.322 76.6031 819.763 76.4916C889.878 75.6652 945.375 74.5399 986.451 73.5178V72.0658L986.458 72.0635L986.451 72.0636V70.6197V69.1791L986.458 69.1789L986.451 69.1762ZM986.451 69.1791C945.698 70.1875 891.783 71.2639 824.549 72.0685L823.497 72.0812L824.543 72.0683C891.78 71.2637 945.698 70.1873 986.451 69.1788V69.1791ZM986.451 470.919V472.36C897.859 470.185 744.018 467.557 522.672 468.187C521.647 468.193 499.669 468.264 498.799 468.266C364.219 468.78 218.446 470.416 63.542 473.252V471.797L63.5482 471.797V470.345L63.542 470.345V468.888C220.136 466.023 365.748 464.411 498.706 463.906C499.454 463.903 505.77 463.882 511.736 463.863L520.446 463.834L522.616 463.827C745.627 463.191 899.406 465.89 986.451 468.027V469.47L986.458 469.47L986.451 469.473V470.917V470.919ZM986.451 74.9609V73.5178L986.445 73.5233C945.368 74.5426 889.872 75.6707 819.757 76.4971C810.316 76.6086 797.438 76.7445 785.741 76.8559C783.955 76.8738 781.591 76.8947 779.016 76.9174L779.009 76.9175L779.008 76.9175L776.138 76.9429C766.219 77.0326 753.278 77.144 747.231 77.1875C599.748 78.2939 431.021 77.81 244.177 75.4125C243.014 75.3997 235.987 75.3063 230.015 75.2269C225.872 75.1718 222.236 75.1235 221.417 75.1135C217.197 75.0537 212.958 74.9966 208.713 74.9395C205.419 74.8912 201.452 74.8349 197.405 74.7775L197.397 74.7774C192.329 74.7054 187.137 74.6317 182.981 74.5698C143.906 73.9908 104.041 73.3303 63.542 72.5882V74.0421V74.0452V75.4991C105.34 76.2657 146.398 76.9425 186.555 77.5324C192.874 77.6279 202.824 77.7677 209.823 77.866L212.007 77.8967C216.215 77.9537 220.404 78.0108 224.58 78.0679C225.667 78.0812 229.184 78.1272 233.143 78.179C238.873 78.254 245.528 78.3411 247.086 78.3588C433.893 80.7346 600.662 81.1776 744.826 80.1121C751.271 80.0658 763.658 79.9653 773.422 79.8783C775.458 79.8589 777.51 79.8404 779.39 79.8235C780.667 79.812 781.865 79.8012 782.925 79.7913C794.504 79.6853 807.762 79.5439 816.581 79.4434C888.585 78.6061 945.138 77.4482 986.451 76.4152V76.4128V74.964V74.9636V74.9609ZM986.451 76.421V77.862L986.458 77.8618L986.451 77.8671V79.3181V79.3208V79.3215V80.7752C944.641 81.8135 886.516 83.0123 811.789 83.8631C803.908 83.9528 790.073 84.0942 778.686 84.1975C775.836 84.2269 772.491 84.2537 769.477 84.2779L769.333 84.279C759.823 84.3606 748.244 84.4557 741.196 84.5019C602.01 85.5077 438.188 85.1299 251.449 82.7813C249.186 82.7541 242.567 82.6689 237.012 82.5973L237.008 82.5973C233.657 82.5541 230.695 82.5159 229.31 82.4985C227.408 82.4733 225.499 82.4475 223.587 82.4217L223.58 82.4216L223.576 82.4215L223.572 82.4215L223.568 82.4214L223.563 82.4214L223.56 82.4213C221.358 82.3916 219.152 82.3618 216.948 82.3327C213.581 82.2845 208.416 82.2126 203.379 82.1426L203.37 82.1424C199.047 82.0823 194.819 82.0235 191.907 81.9821C150.165 81.3732 107.323 80.6718 63.5482 79.8699V78.4136V78.4129V76.962L63.542 76.9619V75.5049C105.34 76.2715 146.398 76.9483 186.555 77.5382C193.566 77.6415 205.052 77.8046 212.007 77.9024C216.208 77.9595 220.397 78.0166 224.58 78.0737C225.558 78.0857 228.492 78.1243 231.946 78.1698L231.951 78.1699L231.958 78.17L231.961 78.17L231.969 78.1701L231.976 78.1702L231.978 78.1702L231.978 78.1703L231.989 78.1704C237.945 78.2489 245.425 78.3474 247.086 78.3646C433.887 80.7404 600.662 81.1807 744.826 80.1179C751.265 80.0717 763.658 79.9711 773.422 79.8841C775.458 79.8646 777.508 79.8462 779.388 79.8293L779.398 79.8292C780.672 79.8177 781.867 79.8069 782.925 79.7971C794.498 79.6883 807.762 79.5498 816.581 79.4492C888.592 78.6119 945.138 77.4512 986.451 76.421ZM986.451 468.022V466.57V466.567V466.565V465.116C900.065 463.006 746.323 460.275 522.567 460.913C521.702 460.917 517.651 460.93 513.114 460.944L512.571 460.946L512.371 460.947L512.074 460.948C506.08 460.967 499.607 460.988 498.65 460.992C366.824 461.495 221.33 463.088 63.542 465.975V467.426V467.432V468.883C220.136 466.018 365.748 464.406 498.706 463.901C499.885 463.896 514.76 463.848 520.49 463.829L522.616 463.822C745.627 463.186 899.406 465.885 986.451 468.022ZM986.451 465.11V463.653V463.65V463.647V462.193C900.301 460.103 746.584 457.36 522.523 458.001C521.105 458.005 514.105 458.027 508.01 458.047L507.91 458.048C503.442 458.062 499.481 458.075 498.594 458.078C367.955 458.575 222.573 460.149 63.542 463.057V464.512V464.517V465.969C221.33 463.082 366.824 461.489 498.65 460.986C499.6 460.982 505.984 460.961 511.941 460.942L512.33 460.941L512.525 460.94L519.486 460.918C521.035 460.913 522.158 460.909 522.567 460.907C746.323 460.268 900.065 463 986.451 465.11ZM986.451 80.7806V82.2349V83.6973L986.459 83.6969V83.9035C986.459 84.3185 986.681 84.7362 987.121 85.1431C944.422 86.1978 884.501 87.4319 807.01 88.2881C800.08 88.3669 785.655 88.5056 774.455 88.6088C771.279 88.6333 767.947 88.6632 765.256 88.6877C761.499 88.7185 757.496 88.7512 753.554 88.7824C757.495 88.7515 761.498 88.7193 765.255 88.6885C767.946 88.664 771.278 88.6341 774.454 88.6096C785.654 88.5063 800.079 88.3677 807.009 88.2889C884.507 87.4326 944.429 86.1985 987.121 85.1438L987.121 85.1431L987.124 85.143V85.1448C987.633 85.6229 988.441 86.0901 989.515 86.5492V86.5519C946.276 87.6229 885.03 88.8951 805.406 89.7622C798.793 89.8383 784.174 89.977 773.043 90.0775C770.508 90.1007 767.95 90.1222 765.736 90.1408L763.894 90.1564C754.708 90.2325 744.216 90.314 736.379 90.3656C603.813 91.2872 443.918 90.9963 257.26 88.6858C254.111 88.6493 248.212 88.5731 243.054 88.5064C240.129 88.4686 237.442 88.4338 235.631 88.4112C233.024 88.3777 230.409 88.342 227.789 88.3061L227.789 88.3061L227.788 88.3061L227.788 88.3061L227.788 88.3061L227.787 88.3061L227.781 88.306C226.363 88.2866 224.944 88.2672 223.524 88.2481C218.197 88.1774 204.405 87.9899 199.048 87.9083C154.795 87.2804 109.131 86.5356 62.1869 85.6739C62.9141 85.2064 63.3554 84.7225 63.5046 84.2386C69.5276 84.3487 75.5304 84.457 81.5125 84.5633C75.5307 84.4568 69.5283 84.3483 63.5056 84.2378C63.5305 84.1264 63.5491 84.0122 63.5491 83.9008V82.7813L63.542 82.7812V81.3242L63.5482 81.3243V79.8754C107.323 80.6773 150.165 81.3786 191.907 81.9875C194.819 82.0289 199.047 82.0877 203.37 82.1479L203.379 82.148C208.416 82.2181 213.581 82.2899 216.948 82.3382C219.141 82.3671 221.336 82.3967 223.527 82.4263L223.538 82.4265L223.56 82.4268L223.562 82.4268L223.564 82.4268L223.566 82.4269C225.485 82.4528 227.401 82.4787 229.31 82.504C230.53 82.5193 232.974 82.5511 235.83 82.5881C241.59 82.6629 249.022 82.7594 251.449 82.7867C438.188 85.1353 602.01 85.5132 741.196 84.5074C748.244 84.4612 759.823 84.366 769.333 84.2845C772.384 84.26 775.79 84.2301 778.686 84.2029C790.073 84.0996 803.908 83.9583 811.789 83.8686C886.509 83.0178 944.641 81.8217 986.451 80.7806ZM197.264 86.4268L199.823 86.4628C198.859 86.4491 197.995 86.4367 197.265 86.426C179.526 86.1712 161.571 85.8991 143.407 85.6089C161.57 85.8994 179.525 86.172 197.264 86.4268ZM255.812 87.2097C442.495 89.5257 603.365 89.8438 737.585 88.9005C738.566 88.8939 739.598 88.8867 740.672 88.8791L739.379 88.8879L737.586 88.8997C603.366 89.843 442.496 89.5249 255.813 87.2089C252.384 87.1685 244.626 87.0682 238.945 86.9948C236.976 86.9693 235.257 86.947 234.053 86.9316C230.007 86.8773 225.949 86.8229 221.89 86.7686C219.618 86.7375 216.026 86.6882 212.191 86.6353C216.026 86.6886 219.617 86.7383 221.889 86.7693C225.954 86.8237 230.006 86.8781 234.052 86.9324C238.726 86.995 251.194 87.1553 255.812 87.2097ZM722.364 87.5437C727.879 87.5094 733.353 87.473 738.785 87.4346C746.237 87.3829 757.276 87.2932 766.624 87.2171L769.587 87.191L771.871 87.1708L775.859 87.1359L722.364 87.5437ZM986.451 462.188V460.722L986.451 460.722L986.459 460.722V460.698C986.459 460.215 986.749 459.741 987.322 459.278L987.335 459.279L987.329 459.273L987.322 459.278C901.027 457.193 747.065 454.445 522.499 455.09C519.792 455.095 503.29 455.15 499.202 455.164L498.552 455.166C369.112 455.658 223.811 457.21 63.4248 460.143C63.5118 460.328 63.5553 460.513 63.5553 460.7V461.592L63.542 461.592V463.052C222.573 460.143 367.955 458.569 498.594 458.072C500.689 458.067 520.056 458.004 522.523 457.996C746.591 457.354 900.301 460.097 986.451 462.188ZM987.321 459.274C987.918 458.796 988.801 458.328 989.957 457.869L989.965 457.869C991.146 457.401 992.613 456.944 994.347 456.499H994.341C908.414 454.386 752.23 451.516 522.438 452.174C519.15 452.182 501.281 452.242 498.484 452.253C369.032 452.742 222.233 454.299 58.4971 457.314C59.8866 457.77 61.01 458.234 61.8423 458.708L61.8389 458.709C62.6469 459.176 63.1814 459.655 63.4113 460.138C223.803 457.205 369.098 455.653 498.538 455.161L499.189 455.159C503.276 455.145 519.779 455.09 522.486 455.085C747.063 454.441 901.022 457.192 987.321 459.274ZM993.608 87.9148C991.983 87.4748 990.609 87.0214 989.518 86.5573C946.278 87.6311 885.026 88.9005 805.408 89.7676C798.795 89.841 784.177 89.9824 773.045 90.083C771.072 90.0993 769.085 90.1167 767.258 90.1327C766.052 90.1432 764.914 90.1531 763.896 90.1618C754.71 90.2379 744.218 90.3222 736.381 90.3711C603.821 91.2926 443.926 91.0018 257.262 88.6912C254.084 88.6545 248.113 88.5773 242.927 88.5102L242.918 88.5101C240.045 88.473 237.414 88.4389 235.633 88.4167C233.022 88.3831 230.403 88.3473 227.78 88.3114C226.363 88.292 224.945 88.2726 223.526 88.2536L219.107 88.1929L219.099 88.1928L219.09 88.1927C212.663 88.1046 203.252 87.9757 199.05 87.9138C154.797 87.2831 109.133 86.5383 62.189 85.6793C61.452 86.156 60.4249 86.622 59.1262 87.0771L59.1043 87.0767C57.768 87.5443 56.1396 88.0009 54.2377 88.444C105.383 89.3927 154.87 90.2 202.603 90.8769C205.505 90.9188 211.772 91.0038 217.405 91.0802C221.266 91.1326 224.829 91.1809 226.805 91.2085C228.656 91.2336 230.502 91.2581 232.345 91.2826L232.362 91.2828C234.506 91.3113 236.646 91.3397 238.782 91.3689L244.756 91.4437C250.045 91.51 256.222 91.5875 260.163 91.6353C446.777 93.9241 604.708 94.1742 733.955 93.2989C742.203 93.2445 752.147 93.1657 761.172 93.0923C763.484 93.0733 766.759 93.0461 770.215 93.0162C781.222 92.921 796.238 92.777 802.218 92.7117C889.151 91.7821 954.747 90.3822 999.528 89.2432L999.522 89.2378C997.297 88.8083 995.327 88.3679 993.643 87.914L993.608 87.9148ZM994.345 456.496C996.119 456.043 998.173 455.601 1000.49 455.174L1000.5 455.175C1002.76 454.759 1005.27 454.356 1007.99 453.97V453.883V453.881L1007.99 453.881V452.405L1007.99 452.407C921.502 450.167 760.961 447.123 522.368 447.805C519.518 447.813 509.819 447.846 503.497 447.867L498.389 447.884C366.805 448.384 214.736 449.985 42 453.245V453.973C43.5103 454.185 44.9461 454.403 46.3134 454.625L46.3286 454.625C48.9458 455.051 51.3028 455.496 53.3564 455.952L53.3823 455.952C55.3623 456.393 57.0769 456.846 58.5014 457.312C222.237 454.297 369.036 452.742 498.488 452.25C501.279 452.239 519.148 452.179 522.442 452.171C752.234 451.513 908.418 454.384 994.345 456.496ZM1007.25 90.5271C1007.5 90.5594 1007.75 90.5943 1007.99 90.6291H1007.99V91.98V91.9828V93.4641V94.9452C958.427 96.2419 887.927 97.6798 795.847 98.6095C789.439 98.6747 762.701 98.9139 755.74 98.9683C706.459 99.3543 651.727 99.5908 591.445 99.5908C488.432 99.5935 369.211 98.9112 233.394 97.1307C231.309 97.1019 225.905 97.0289 220.696 96.9585C216.073 96.896 211.603 96.8355 209.745 96.81C156.337 96.0706 100.436 95.1627 42 94.0591V92.597V92.5966V91.14L42.0062 91.1401V90.6346C43.9578 90.3573 45.7913 90.0746 47.5005 89.7864L47.5078 89.7866C50.0312 89.3571 52.2874 88.9113 54.2514 88.4519C105.397 89.4006 154.889 90.2079 202.617 90.8848C204.402 90.9095 207.457 90.9509 210.854 90.997C216.773 91.0772 223.731 91.1715 226.819 91.2164C228.662 91.2414 230.5 91.2658 232.336 91.2902L232.346 91.2903L232.353 91.2904C234.505 91.319 236.652 91.3475 238.796 91.3768L244.769 91.4516C250.058 91.5179 256.235 91.5953 260.177 91.6432C446.791 93.932 604.715 94.1793 733.969 93.3068C742.21 93.2524 752.161 93.1736 761.185 93.1002C762.954 93.0877 765.285 93.0673 767.83 93.045L770.229 93.0241C781.236 92.9262 796.246 92.7821 802.231 92.7196C889.165 91.79 954.761 90.39 999.542 89.2511C1001.84 89.6923 1004.4 90.1174 1007.23 90.5262L1007.24 90.5258L1007.24 90.5261L1007.25 90.526L1007.25 90.5271ZM224.026 92.6326C218.207 92.5542 209.557 92.4376 205.396 92.38C210.853 92.4558 224.01 92.6346 228.399 92.6915L224.026 92.6326ZM774.285 82.7843L775.336 82.7752L775.341 82.7751C776.661 82.7636 777.954 82.7524 779.159 82.7412C777.635 82.7545 775.97 82.7691 774.285 82.7843ZM783.695 82.6986C790.066 82.6383 796.841 82.5708 802.828 82.5074C796.84 82.5703 790.064 82.6374 783.695 82.6986ZM1007.99 450.923V452.404C921.508 450.167 760.967 447.12 522.374 447.802C519.374 447.813 508.784 447.847 502.534 447.868L498.395 447.881C366.811 448.381 214.742 449.982 42.0062 453.242V451.787C42.0041 451.787 42.0021 451.787 42 451.787V450.327C216.383 447.041 368.278 445.47 498.333 444.975C502.007 444.961 518.011 444.907 522.331 444.896C545.899 444.828 568.722 444.796 590.798 444.796C788.389 444.793 926.486 447.31 1007.99 449.441L1007.99 449.438V450.917C1008 450.917 1008 450.917 1008 450.918L1007.99 450.92V450.923ZM789.992 72.4463C789.588 72.4504 789.135 72.4548 788.638 72.4594C789.132 72.4546 789.584 72.4502 789.986 72.4462C792.389 72.4231 794.809 72.3991 797.227 72.3745C794.811 72.3992 792.393 72.4233 789.992 72.4463Z" fill="#BC9C67"/>
<path id="Vector" d="M743.55 94.9454C723.031 96.242 693.845 97.68 655.726 98.6096C653.073 98.6749 647.634 126.002 647.634 126.002C647.634 126.002 642.004 98.9141 639.123 98.9684C618.721 99.3544 596.063 99.5909 571.108 99.5909C596.063 99.5909 618.721 99.3544 639.123 98.9684C642.004 98.9141 653.073 98.6749 655.726 98.6096C693.845 97.68 723.031 96.242 743.55 94.9454ZM542.499 444.891C540.71 444.902 534.082 444.956 532.564 444.97C534.085 444.956 537.106 424.033 537.106 424.033C537.106 424.033 540.713 444.902 542.501 444.891H542.499ZM422.885 97.1308C421.256 97.0765 417.989 105.761 417.989 105.761C417.989 105.761 414.734 96.8645 413.095 96.8101C414.734 96.8645 421.259 97.0765 422.885 97.1308V97.1308Z" fill="#BC9C65"/>
<path id="Vector_2" d="M1015.99 92.0833C1015.99 92.0833 935.356 96.6254 768.316 98.6746C763.048 98.7399 752.248 126.098 752.248 126.098C752.248 126.098 741.069 98.9794 735.346 99.0338C625.616 100.082 482.936 100.016 305.959 97.1942C302.725 97.1397 296.236 105.835 296.236 105.835C296.236 105.835 289.773 96.9275 286.518 96.873C218.04 95.7164 144.559 94.1489 66 92.0833L66 452.833C244.49 448.131 396.78 446.022 523.749 445.434C526.768 445.42 532.766 424.473 532.766 424.473C532.766 424.473 539.93 445.366 543.48 445.355C863.485 444.242 1016 452.833 1016 452.833V92.0833H1015.99Z" fill="#F9EBC2"/>
<path id="Vector_3" d="M93.1964 95.9107C93.1964 95.9107 68.0479 216.228 68.0479 382.131C68.0479 403.831 68.4776 426.333 69.4528 449.423C62.7192 449.705 55.9008 450.004 49 450.32L49 94.0596C64.1421 94.75 78.87 95.3671 93.1964 95.9107V95.9107Z" fill="#B6A785"/>
<g id="Group">
<path id="Vector_4" d="M993.247 94.9448V449.435C992.48 449.354 991.693 449.269 990.885 449.185C990.885 449.185 992.017 360.55 992.017 249.76C992.017 200.651 991.793 147.18 991.15 95.165C991.865 95.0888 992.565 95.0182 993.244 94.9421L993.247 94.9448Z" fill="#B6A785"/>
<path id="Vector_5" d="M1018.64 72.3559C1012.53 72.3559 1007.58 70.0264 1007.58 50.0496C1007.58 30.0701 1012.53 0.000309078 1018.64 0.000309078C1024.75 0.000309078 1029.7 30.0701 1029.7 50.0496C1029.7 70.0291 1024.74 72.3559 1018.64 72.3559V72.3559Z" fill="#753D2E"/>
<path id="Vector_6" d="M1018.64 0.000804533C1018.06 0.000804533 1017.49 0.269909 1016.94 0.775513C1017.24 0.2536 1017.78 0.000804533 1018.64 0.000804533Z" fill="#947A52"/>
<path id="Vector_7" d="M1029.7 50.0493C1029.7 50.0874 1029.7 50.1281 1029.7 50.1635C1027.78 49.8509 1025.77 49.6116 1023.68 49.4621C1023.68 49.049 1023.68 48.6276 1023.68 48.1981C1023.68 46.5753 1023.65 44.8546 1023.57 43.0252C1022.63 19.9224 1016.65 6.967 1016.65 2.17193C1016.65 1.58477 1016.74 1.11994 1016.94 0.774717C1017.49 0.271832 1018.06 9.22344e-06 1018.64 9.22344e-06C1024.75 9.22344e-06 1029.7 30.0698 1029.7 50.0493H1029.7Z" fill="#543229"/>
<path id="Vector_8" d="M1018.64 472.297C1012.53 472.297 1007.58 474.621 1007.58 494.604C1007.58 514.586 1012.53 544.65 1018.64 544.65C1024.75 544.65 1029.7 514.586 1029.7 494.604C1029.7 474.621 1024.74 472.297 1018.64 472.297Z" fill="#9C533D"/>
<path id="Vector_9" d="M1015.6 537.505C1013.11 536.684 1007 505.954 1009.77 489.438C1011.44 489.057 1011.12 500.52 1012.87 514.408C1014.75 529.378 1016.69 537.864 1015.6 537.505H1015.6Z" fill="#D48167"/>
<path id="Vector_10" d="M1018.64 544.652C1017.79 544.652 1017.31 544.456 1017.11 544.03C1017.61 544.437 1018.12 544.652 1018.64 544.652Z" fill="#947A52"/>
<path id="Vector_11" d="M1029.7 494.604C1029.7 514.586 1024.75 544.65 1018.64 544.65C1018.12 544.65 1017.61 544.433 1017.11 544.028C1017.04 543.87 1017.01 543.685 1017.01 543.465C1017.01 541.807 1018.92 538.281 1020.83 532.143C1022.74 526.003 1024.64 517.25 1024.64 505.126C1024.64 503.9 1024.62 502.636 1024.58 501.34C1024.51 499.097 1024.4 497.02 1024.26 495.096C1026.14 494.943 1027.97 494.721 1029.7 494.438C1029.7 494.495 1029.7 494.552 1029.7 494.609L1029.7 494.604Z" fill="#734133"/>
<path id="Vector_12" d="M988.003 61.203V83.9035H1048.36V61.203C1048.36 54.6139 1034.85 49.2643 1018.18 49.2643C1001.51 49.2643 988 54.6139 988 61.203H988.003Z" fill="#8E4431"/>
<path id="Vector_13" d="M1048.36 61.1756V61.1703V61.1756ZM1048.36 61.1439C1048.36 61.1386 1048.36 61.1386 1048.36 61.1386V61.1439ZM1048.36 61.0831C1048.36 61.0778 1048.36 61.0778 1048.36 61.0752C1048.36 61.0778 1048.36 61.0778 1048.36 61.0831ZM1048.35 61.0487C1048.35 61.0487 1048.35 61.0487 1048.35 61.0434C1048.35 61.0487 1048.35 61.0487 1048.35 61.0487ZM1048.35 60.9879V60.9826V60.9879ZM1048.35 60.9562V60.9509C1048.35 60.9509 1048.35 60.9509 1048.35 60.9562Z" fill="#947A52"/>
<path id="Vector_14" d="M1048.36 61.2029V83.9034C1048.36 83.8925 1048.36 83.8816 1048.36 83.8735C1048.36 83.8707 1048.36 83.8708 1048.36 83.8653C1048.36 83.8572 1048.36 83.849 1048.36 83.8408C1048.36 83.8354 1048.36 83.8354 1048.36 83.8327C1048.36 83.8245 1048.35 83.8137 1048.35 83.8028C1048.35 83.7947 1048.35 83.7865 1048.35 83.7729V83.7702C1048.35 83.7593 1048.35 83.7484 1048.35 83.7403C1048.35 83.7375 1048.35 83.7375 1048.35 83.7375C1048.35 83.7267 1048.35 83.7185 1048.35 83.7076C1048.35 83.6968 1048.35 83.6859 1048.35 83.675C1048.35 83.675 1048.35 83.675 1048.35 83.6696C1048.35 83.6614 1048.35 83.6533 1048.35 83.6397C1048.35 83.6179 1048.34 83.5962 1048.34 83.5772C1048.34 83.5744 1048.34 83.5744 1048.34 83.5744C1048.07 79.4644 1042.54 75.8708 1034.32 73.8076C1034.31 73.8049 1034.3 73.7995 1034.29 73.7995L1034.29 73.7967C1031.9 73.2041 1029.3 72.7312 1026.53 72.4159V72.4186V49.7289C1038.92 51.1424 1048.06 55.6059 1048.34 60.9365V60.9419C1048.35 60.9501 1048.35 60.9582 1048.35 60.9718V60.9772C1048.35 60.9881 1048.35 60.9935 1048.35 61.0071C1048.35 61.018 1048.35 61.0289 1048.35 61.0371C1048.35 61.0425 1048.35 61.0425 1048.35 61.0425C1048.35 61.0533 1048.35 61.0588 1048.35 61.0724C1048.35 61.0751 1048.35 61.0751 1048.35 61.0805C1048.35 61.0887 1048.35 61.0968 1048.35 61.1104C1048.35 61.1213 1048.35 61.1295 1048.35 61.1404C1048.35 61.1404 1048.35 61.1403 1048.35 61.1458C1048.35 61.1566 1048.35 61.1621 1048.35 61.1757V61.1811C1048.35 61.192 1048.35 61.2029 1048.35 61.211L1048.36 61.2029Z" fill="#67382C"/>
<path id="Vector_15" d="M1018.18 71.9647C1034.84 71.9647 1048.36 77.3116 1048.36 83.9035C1048.36 90.4953 1034.85 95.8368 1018.18 95.8368C1001.51 95.8368 988 90.4926 988 83.9035C988 77.3116 1001.51 71.9647 1018.18 71.9647Z" fill="#D48167"/>
<path id="Vector_16" d="M1048.36 83.8737C1048.36 83.871 1048.36 83.8711 1048.36 83.8656C1048.36 83.8711 1048.36 83.871 1048.36 83.8737ZM1048.36 83.8411C1048.36 83.8357 1048.36 83.8357 1048.36 83.833C1048.36 83.8357 1048.36 83.8357 1048.36 83.8411ZM1048.36 83.7732V83.7705V83.7732ZM1048.35 83.7406C1048.35 83.7378 1048.35 83.7378 1048.35 83.7378C1048.35 83.7378 1048.35 83.7378 1048.35 83.7406ZM1048.35 83.6753C1048.35 83.6753 1048.35 83.6753 1048.35 83.6699C1048.35 83.6753 1048.35 83.6753 1048.35 83.6753ZM1048.34 83.5802C1048.34 83.5775 1048.34 83.5775 1048.34 83.5775C1048.34 83.5775 1048.34 83.5775 1048.34 83.5802ZM1034.32 73.8106C1034.31 73.8079 1034.3 73.8025 1034.29 73.8025C1034.3 73.8025 1034.31 73.8079 1034.32 73.8106ZM1034.29 73.7998C1031.91 73.2072 1029.3 72.7369 1026.53 72.4216V72.4189C1029.3 72.7342 1031.91 73.2072 1034.29 73.7998Z" fill="#4D3129"/>
<path id="Vector_17" d="M1048.36 83.903C1048.36 86.3957 1046.42 88.7117 1043.11 90.6308V85.6237C1043.11 85.6128 1043.11 85.602 1043.11 85.5938C1043.11 85.5884 1043.11 85.5856 1043.11 85.5829C1043.11 85.5748 1043.11 85.5694 1043.11 85.5612C1043.11 85.5612 1043.11 85.5558 1043.11 85.553C1043.11 85.5449 1043.11 85.534 1043.11 85.5286V85.5259C1043.11 85.515 1043.11 85.5041 1043.11 85.496C1043.11 85.4932 1043.11 85.4932 1043.11 85.4932C1043.11 85.4824 1043.11 85.4742 1043.11 85.4633V85.4579C1043.11 85.447 1043.11 85.4389 1043.11 85.428C1043.11 85.428 1043.11 85.428 1043.11 85.4226C1043.11 85.4063 1043.1 85.3845 1043.1 85.36C1042.85 81.375 1036.62 77.9744 1027.82 76.5201C1027.81 76.5147 1027.8 76.5147 1027.79 76.512C1027.79 76.512 1027.79 76.512 1027.79 76.512C1027.5 76.4658 1027.2 76.4168 1026.91 76.3733L1026.53 72.4182C1029.3 72.7363 1031.91 73.2038 1034.29 73.7964C1034.29 73.7991 1034.29 73.7964 1034.29 73.7991C1034.3 73.7991 1034.31 73.8046 1034.32 73.8073C1042.55 75.8732 1048.07 79.4668 1048.35 83.5741C1048.35 83.5741 1048.35 83.5741 1048.35 83.5768C1048.35 83.5959 1048.35 83.6176 1048.35 83.6393C1048.35 83.6502 1048.35 83.6611 1048.35 83.6692C1048.35 83.6747 1048.35 83.6747 1048.35 83.6747C1048.36 83.6856 1048.36 83.6964 1048.36 83.7073C1048.36 83.7182 1048.36 83.7236 1048.36 83.7372C1048.36 83.7372 1048.36 83.7372 1048.36 83.7399C1048.36 83.7481 1048.36 83.759 1048.36 83.7698V83.7725C1048.36 83.7834 1048.36 83.7916 1048.36 83.8025C1048.36 83.8133 1048.36 83.8242 1048.36 83.8324C1048.36 83.8351 1048.36 83.8351 1048.36 83.8405C1048.36 83.8486 1048.36 83.8568 1048.36 83.865C1048.36 83.8704 1048.36 83.8704 1048.36 83.8731C1048.36 83.8813 1048.36 83.8922 1048.36 83.903H1048.36Z" fill="#9C5D4A"/>
<path id="Vector_18" d="M988.003 483.392V460.694H1048.36V483.392C1048.36 489.984 1034.85 495.331 1018.18 495.331C1001.51 495.331 988 489.984 988 483.392H988.003Z" fill="#8E4431"/>
<path id="Vector_19" d="M1048.36 483.422C1048.36 483.422 1048.36 483.425 1048.36 483.428C1048.36 483.428 1048.36 483.425 1048.36 483.422ZM1048.36 483.455C1048.36 483.458 1048.36 483.458 1048.36 483.46C1048.36 483.458 1048.36 483.458 1048.36 483.455ZM1048.35 483.488C1048.35 483.491 1048.35 483.491 1048.35 483.491V483.488ZM1048.35 483.521C1048.35 483.521 1048.35 483.524 1048.35 483.526C1048.35 483.524 1048.35 483.524 1048.35 483.521Z" fill="#947A52"/>
<path id="Vector_20" d="M1048.36 460.698V483.396C1048.36 483.407 1048.36 483.415 1048.36 483.426C1048.36 483.426 1048.36 483.428 1048.36 483.431C1048.36 483.439 1048.36 483.45 1048.36 483.458C1048.36 483.461 1048.36 483.461 1048.36 483.464C1048.36 483.472 1048.36 483.483 1048.36 483.491V483.494C1048.36 483.502 1048.36 483.513 1048.36 483.524C1048.36 483.524 1048.36 483.526 1048.36 483.529C1048.36 483.537 1048.36 483.548 1048.35 483.559C1048.17 488.933 1039 493.44 1026.53 494.864V472.175C1039.13 470.742 1048.36 466.146 1048.36 460.701L1048.36 460.698Z" fill="#67382C"/>
<path id="Vector_21" d="M1018.18 472.634C1034.84 472.634 1048.36 467.287 1048.36 460.698C1048.36 454.106 1034.85 448.762 1018.18 448.762C1001.51 448.762 988 454.106 988 460.698C988 467.289 1001.51 472.634 1018.18 472.634Z" fill="#753D2E"/>
<path id="Vector_22" d="M993.246 85.6242V458.759C993.246 464.207 1004.41 468.624 1018.18 468.624C1031.95 468.624 1043.11 464.207 1043.11 458.759V85.6242C1043.11 80.1767 1031.95 75.7622 1018.18 75.7622C1004.41 75.7622 993.246 80.1767 993.246 85.6242Z" fill="#F9EBC2"/>
<path id="Vector_23" d="M1043.11 85.5834C1043.11 85.576 1043.11 85.5711 1043.11 85.5638C1043.11 85.5711 1043.11 85.576 1043.11 85.5834Z" fill="#815042"/>
<path id="Vector_24" d="M1043.11 458.797C1043.11 458.805 1043.11 458.81 1043.11 458.817C1043.11 458.81 1043.11 458.805 1043.11 458.797Z" fill="#5F362B"/>
<path id="Vector_25" d="M1043.11 85.4607C1043.11 85.4505 1043.11 85.4429 1043.1 85.4328C1043.11 85.4429 1043.11 85.448 1043.11 85.4607Z" fill="#815042"/>
<path id="Vector_26" d="M1043.11 458.924C1043.11 458.929 1043.11 458.939 1043.1 458.944C1043.11 458.939 1043.11 458.929 1043.11 458.924Z" fill="#5F362B"/>
<path id="Vector_27" d="M1043.1 458.952C1043.1 458.973 1043.1 458.991 1043.1 459.01C1043.1 458.991 1043.1 458.97 1043.1 458.952Z" fill="#5F362B"/>
<path id="Vector_28" d="M1043.1 85.3665C1042.85 81.3842 1036.62 77.9863 1027.82 76.5266C1036.61 77.9809 1042.85 81.3815 1043.1 85.3665Z" fill="#815042"/>
<path id="Vector_29" d="M1043.1 459.015C1043.1 459.026 1043.1 459.034 1043.1 459.042C1043.1 459.034 1043.1 459.026 1043.1 459.015ZM1043.1 459.048C1042.89 461.94 1039.53 464.523 1034.33 466.273C1039.53 464.523 1042.89 461.943 1043.1 459.048ZM1034.3 466.284C1034.3 466.284 1034.29 466.289 1034.29 466.289C1034.29 466.289 1034.3 466.284 1034.3 466.284ZM1034.25 466.303C1034.24 466.303 1034.24 466.303 1034.24 466.303H1034.25Z" fill="#5F362B"/>
<path id="Vector_30" d="M1043.11 85.624V458.759C1043.11 458.77 1043.11 458.778 1043.11 458.789C1043.11 458.792 1043.11 458.795 1043.11 458.797C1043.11 458.805 1043.11 458.811 1043.11 458.819C1043.11 458.822 1043.11 458.825 1043.11 458.827C1043.11 458.835 1043.11 458.844 1043.11 458.852C1043.11 458.852 1043.11 458.854 1043.11 458.857C1043.11 458.868 1043.11 458.879 1043.11 458.887C1043.11 458.89 1043.11 458.892 1043.11 458.892C1043.11 458.901 1043.11 458.909 1043.11 458.917C1043.11 458.92 1043.11 458.922 1043.11 458.925C1043.11 458.931 1043.11 458.941 1043.11 458.947C1043.11 458.95 1043.11 458.952 1043.11 458.952C1043.11 458.971 1043.1 458.993 1043.1 459.012C1043.1 459.015 1043.1 459.015 1043.1 459.018C1043.1 459.028 1043.1 459.037 1043.1 459.045C1043.1 459.045 1043.1 459.047 1043.1 459.05C1042.89 461.942 1039.53 464.522 1034.33 466.275C1034.32 466.281 1034.31 466.284 1034.3 466.286C1034.3 466.286 1034.29 466.292 1034.29 466.292C1034.27 466.297 1034.26 466.3 1034.25 466.305H1034.24C1032.08 467.026 1029.61 467.605 1026.91 468.004C1026.91 468.004 1029.7 406.973 1029.7 272.194C1029.7 137.413 1026.91 76.3872 1026.91 76.3872C1027.2 76.4307 1027.5 76.4769 1027.79 76.5259C1027.79 76.5259 1027.79 76.5259 1027.79 76.5259C1027.8 76.5286 1027.81 76.5285 1027.82 76.534C1036.61 77.9937 1042.85 81.3916 1043.1 85.3739C1043.1 85.3956 1043.11 85.4173 1043.11 85.4364C1043.11 85.4418 1043.11 85.4418 1043.11 85.4418C1043.11 85.4527 1043.11 85.4582 1043.11 85.4717V85.4772C1043.11 85.4881 1043.11 85.4935 1043.11 85.5071C1043.11 85.5071 1043.11 85.5071 1043.11 85.5098C1043.11 85.5179 1043.11 85.5288 1043.11 85.5397V85.5424C1043.11 85.5506 1043.11 85.5615 1043.11 85.5669C1043.11 85.5696 1043.11 85.575 1043.11 85.575C1043.11 85.5832 1043.11 85.5886 1043.11 85.5968C1043.11 85.6022 1043.11 85.6049 1043.11 85.6077C1043.11 85.6158 1043.11 85.624 1043.11 85.6376V85.624Z" fill="#CDBF9B"/>
</g>
<g id="Group_2">
<path id="Vector_31" d="M30.6391 73.708C24.5308 73.708 19.5752 71.3784 19.5752 51.4016C19.5752 31.4221 24.5308 1.35232 30.6391 1.35232C36.7474 1.35232 41.7004 31.4221 41.7004 51.4016C41.7004 71.3811 36.7448 73.708 30.6391 73.708Z" fill="#753D2E"/>
<path id="Vector_32" d="M30.6396 1.35182C30.0607 1.35182 29.4946 1.62092 28.9414 2.12653C29.2373 1.60461 29.7828 1.35182 30.6396 1.35182Z" fill="#947A52"/>
<path id="Vector_33" d="M41.7006 51.3982C41.7006 51.4362 41.7006 51.477 41.7006 51.5124C39.7838 51.1998 37.7665 50.9606 35.6773 50.8111C35.6824 50.3979 35.6824 49.9765 35.6824 49.547C35.6824 47.9242 35.649 46.2035 35.5743 44.3741C34.6326 21.2713 28.6504 8.31588 28.6504 3.5208C28.6504 2.93365 28.7404 2.46882 28.9386 2.12359C29.4918 1.62071 30.0578 1.34889 30.6367 1.34889C36.745 1.34889 41.6981 31.4187 41.6981 51.3982H41.7006Z" fill="#543229"/>
<path id="Vector_34" d="M30.6393 473.648C24.531 473.648 19.5754 475.972 19.5754 495.954C19.5754 515.937 24.531 546.001 30.6393 546.001C36.7476 546.001 41.7006 515.937 41.7006 495.954C41.7006 475.972 36.745 473.648 30.6393 473.648Z" fill="#9C533D"/>
<path id="Vector_35" d="M27.5976 538.854C25.1069 538.033 18.9986 507.303 21.7697 490.787C23.4396 490.406 23.1206 501.869 24.8676 515.757C26.7511 530.727 28.6937 539.213 27.6002 538.854H27.5976Z" fill="#D48167"/>
<path id="Vector_36" d="M30.6393 546.001C29.785 546.001 29.3065 545.805 29.1135 545.379C29.6127 545.786 30.1221 546.001 30.6393 546.001Z" fill="#947A52"/>
<path id="Vector_37" d="M41.7006 495.954C41.7006 515.937 36.745 546.001 30.6393 546.001C30.1221 546.001 29.6127 545.784 29.1135 545.379C29.044 545.221 29.0106 545.036 29.0106 544.816C29.0106 543.158 30.9198 539.632 32.8263 533.494C34.7355 527.354 36.6421 518.601 36.6421 506.477C36.6421 505.251 36.6215 503.987 36.5829 502.69C36.5109 500.448 36.4002 498.371 36.2562 496.446C38.1422 496.294 39.9664 496.071 41.7032 495.789C41.7032 495.846 41.7032 495.903 41.7032 495.96L41.7006 495.954Z" fill="#734133"/>
<path id="Vector_38" d="M0.002573 62.5549L0.002573 85.2554H60.3574V62.5549C60.3574 55.9658 46.8466 50.6162 30.1787 50.6162C13.5083 50.6162 0 55.9658 0 62.5549H0.002573Z" fill="#8E4431"/>
<path id="Vector_39" d="M60.3577 62.5245V62.5192V62.5245ZM60.3577 62.4928C60.3577 62.4875 60.3577 62.4875 60.3577 62.4875V62.4928ZM60.3552 62.432C60.3552 62.4267 60.3552 62.4267 60.3552 62.424C60.3552 62.4267 60.3552 62.4267 60.3552 62.432ZM60.3527 62.3976C60.3527 62.3976 60.3527 62.3976 60.3527 62.3923C60.3527 62.3976 60.3527 62.3976 60.3527 62.3976ZM60.3502 62.3368V62.3315V62.3368ZM60.3477 62.305V62.2998C60.3477 62.2998 60.3477 62.2997 60.3477 62.305Z" fill="#947A52"/>
<path id="Vector_40" d="M60.3573 62.5549V85.2554C60.3573 85.2446 60.3573 85.2337 60.3573 85.2255C60.3573 85.2228 60.3573 85.2228 60.3573 85.2174C60.3573 85.2092 60.3573 85.2011 60.3573 85.1929C60.3573 85.1875 60.3573 85.1875 60.3573 85.1848C60.3573 85.1766 60.3547 85.1657 60.3547 85.1549C60.3547 85.1467 60.3547 85.1386 60.3547 85.125V85.1222C60.3547 85.1114 60.3547 85.1005 60.3522 85.0923C60.3522 85.0896 60.3522 85.0896 60.3522 85.0896C60.3522 85.0787 60.3522 85.0706 60.3522 85.0597C60.3522 85.0488 60.3496 85.038 60.3496 85.0271C60.3496 85.0271 60.3496 85.0271 60.3496 85.0217C60.3496 85.0135 60.3496 85.0054 60.347 84.9918C60.347 84.97 60.3444 84.9482 60.3444 84.9292C60.3444 84.9265 60.3444 84.9265 60.3444 84.9265C60.0691 80.8165 54.5423 77.2229 46.319 75.1597C46.3087 75.157 46.2984 75.1515 46.2881 75.1515L46.2856 75.1488C43.903 74.5562 41.2965 74.0832 38.5254 73.7679V73.7706V51.081C50.9247 52.4945 60.0614 56.958 60.3444 62.2885V62.294C60.347 62.3021 60.347 62.3103 60.347 62.3239V62.3293C60.347 62.3402 60.3496 62.3456 60.3496 62.3592C60.3496 62.3701 60.3496 62.381 60.3496 62.3891C60.3496 62.3946 60.3496 62.3946 60.3496 62.3946C60.3522 62.4054 60.3522 62.4109 60.3522 62.4245C60.3522 62.4272 60.3522 62.4272 60.3522 62.4326C60.3522 62.4408 60.3522 62.4489 60.3522 62.4625C60.3522 62.4734 60.3547 62.4815 60.3547 62.4924C60.3547 62.4924 60.3547 62.4924 60.3547 62.4979C60.3547 62.5087 60.3547 62.5142 60.3547 62.5278V62.5332C60.3547 62.5441 60.3547 62.5549 60.3547 62.5631L60.3573 62.5549Z" fill="#67382C"/>
<path id="Vector_41" d="M30.1816 73.3137C46.847 73.3137 60.3604 78.6606 60.3604 85.2525C60.3604 91.8444 46.8495 97.1859 30.1816 97.1859C13.5112 97.1859 0.00292969 91.8417 0.00292969 85.2525C0.00292969 78.6606 13.5112 73.3137 30.1816 73.3137Z" fill="#D48167"/>
<path id="Vector_42" d="M60.3577 85.2226C60.3577 85.2199 60.3577 85.2199 60.3577 85.2145C60.3577 85.2199 60.3577 85.2199 60.3577 85.2226ZM60.3577 85.19C60.3577 85.1846 60.3577 85.1846 60.3577 85.1818C60.3577 85.1846 60.3577 85.1846 60.3577 85.19ZM60.3551 85.1221V85.1193V85.1221ZM60.3525 85.0894C60.3525 85.0867 60.3525 85.0867 60.3525 85.0867C60.3525 85.0867 60.3525 85.0867 60.3525 85.0894ZM60.3499 85.0242C60.3499 85.0242 60.3499 85.0242 60.3499 85.0188C60.3499 85.0242 60.3499 85.0242 60.3499 85.0242ZM60.3448 84.929C60.3448 84.9263 60.3448 84.9263 60.3448 84.9263C60.3448 84.9263 60.3448 84.9263 60.3448 84.929ZM46.3194 75.1595C46.3091 75.1568 46.2988 75.1513 46.2885 75.1513C46.2988 75.1513 46.3091 75.1568 46.3194 75.1595ZM46.2885 75.1486C43.9059 74.556 41.2994 74.0858 38.5283 73.7704V73.7677C41.2994 74.083 43.9085 74.556 46.2885 75.1486Z" fill="#4D3129"/>
<path id="Vector_43" d="M60.357 85.2519C60.357 87.7446 58.4196 90.0606 55.1107 91.9797V86.9726C55.1107 86.9617 55.1107 86.9508 55.1107 86.9427C55.1107 86.9373 55.1107 86.9345 55.1107 86.9318C55.1081 86.9237 55.1081 86.9182 55.1081 86.9101C55.1081 86.9101 55.1081 86.9046 55.1081 86.9019C55.1081 86.8938 55.1081 86.8829 55.1081 86.8775V86.8747C55.1081 86.8639 55.1081 86.853 55.1081 86.8448C55.1081 86.8421 55.1081 86.8421 55.1081 86.8421C55.1081 86.8312 55.1081 86.8231 55.1081 86.8122V86.8068C55.1081 86.7959 55.1081 86.7878 55.1055 86.7769C55.1055 86.7769 55.1055 86.7769 55.1055 86.7714C55.1055 86.7551 55.103 86.7334 55.103 86.7089C54.8482 82.7239 48.6164 79.3233 39.8219 77.869C39.8116 77.8636 39.8013 77.8636 39.791 77.8608C39.7885 77.8608 39.7859 77.8608 39.7859 77.8608C39.4951 77.8146 39.2018 77.7657 38.9085 77.7222L38.5303 73.7671C41.3014 74.0852 43.9104 74.5527 46.2904 75.1453C46.2904 75.148 46.2904 75.1453 46.293 75.148C46.3033 75.148 46.3136 75.1534 46.3239 75.1562C54.5472 77.2221 60.074 80.8157 60.3493 84.923C60.3493 84.923 60.3493 84.923 60.3493 84.9257C60.3493 84.9448 60.3519 84.9665 60.3519 84.9883C60.3545 84.9991 60.3545 85.01 60.3545 85.0181C60.3545 85.0236 60.3545 85.0236 60.3545 85.0236C60.357 85.0345 60.357 85.0453 60.357 85.0562C60.357 85.0671 60.357 85.0725 60.357 85.0861C60.357 85.0861 60.357 85.0861 60.357 85.0888C60.3596 85.097 60.3596 85.1079 60.3596 85.1187V85.1214C60.3596 85.1323 60.3596 85.1405 60.3596 85.1513C60.3596 85.1622 60.3622 85.1731 60.3622 85.1812C60.3622 85.184 60.3622 85.184 60.3622 85.1894C60.3622 85.1976 60.3622 85.2057 60.3622 85.2139C60.3622 85.2193 60.3622 85.2193 60.3622 85.222C60.3622 85.2302 60.3622 85.241 60.3622 85.2519H60.357Z" fill="#9C5D4A"/>
<path id="Vector_44" d="M0.002573 484.744L0.002573 462.046H60.3574V484.744C60.3574 491.336 46.8466 496.683 30.1787 496.683C13.5083 496.683 0 491.336 0 484.744H0.002573Z" fill="#8E4431"/>
<path id="Vector_45" d="M60.3567 484.773C60.3567 484.773 60.3567 484.776 60.3567 484.779C60.3567 484.779 60.3567 484.776 60.3567 484.773ZM60.3567 484.806C60.3567 484.809 60.3567 484.809 60.3567 484.811C60.3567 484.809 60.3567 484.809 60.3567 484.806ZM60.3545 484.839C60.3545 484.842 60.3545 484.842 60.3545 484.842V484.839ZM60.3545 484.872C60.3545 484.872 60.3545 484.875 60.3545 484.877C60.3545 484.875 60.3545 484.875 60.3545 484.872Z" fill="#947A52"/>
<path id="Vector_46" d="M60.3577 462.047V484.745C60.3577 484.756 60.3577 484.764 60.3577 484.775C60.3577 484.775 60.3577 484.777 60.3577 484.78C60.3577 484.788 60.3577 484.799 60.3577 484.807C60.3577 484.81 60.3577 484.81 60.3577 484.813C60.3577 484.821 60.3551 484.832 60.3551 484.84V484.843C60.3551 484.851 60.3551 484.862 60.3551 484.872C60.3551 484.872 60.3551 484.875 60.3551 484.878C60.3551 484.886 60.3551 484.897 60.3525 484.908C60.175 490.282 51.0022 494.789 38.5283 496.213V473.524C51.1334 472.091 60.3551 467.494 60.3551 462.05L60.3577 462.047Z" fill="#67382C"/>
<path id="Vector_47" d="M30.1816 473.985C46.847 473.985 60.3604 468.638 60.3604 462.049C60.3604 455.457 46.8495 450.113 30.1816 450.113C13.5112 450.113 0.00292969 455.457 0.00292969 462.049C0.00292969 468.641 13.5112 473.985 30.1816 473.985V473.985Z" fill="#753D2E"/>
<path id="Vector_48" d="M5.24609 86.9731L5.24609 460.108C5.24609 465.556 16.4052 469.973 30.181 469.973C43.9466 469.973 55.1108 465.556 55.1108 460.108L55.1108 86.9731C55.1108 81.5256 43.9466 77.1111 30.181 77.1111C16.4078 77.1111 5.24609 81.5256 5.24609 86.9731V86.9731Z" fill="#F9EBC2"/>
<path id="Vector_49" d="M55.1105 86.9323C55.1084 86.9249 55.1084 86.92 55.1084 86.9126C55.1084 86.92 55.1084 86.9249 55.1105 86.9323Z" fill="#815042"/>
<path id="Vector_50" d="M55.1105 460.146C55.1084 460.154 55.1084 460.159 55.1084 460.166C55.1084 460.159 55.1084 460.154 55.1105 460.146Z" fill="#5F362B"/>
<path id="Vector_51" d="M55.1076 86.8095C55.1076 86.7994 55.1076 86.7918 55.1055 86.7817C55.1076 86.7918 55.1076 86.7969 55.1076 86.8095Z" fill="#815042"/>
<path id="Vector_52" d="M55.1076 460.273C55.1076 460.278 55.1076 460.288 55.1055 460.293C55.1076 460.288 55.1076 460.278 55.1076 460.273Z" fill="#5F362B"/>
<path id="Vector_53" d="M55.1057 460.301C55.1057 460.322 55.1035 460.34 55.1035 460.358C55.1035 460.34 55.1057 460.319 55.1057 460.301Z" fill="#5F362B"/>
<path id="Vector_54" d="M55.1033 86.7175C54.8486 82.7352 48.6168 79.3373 39.8223 77.8776C48.6142 79.3319 54.846 82.7325 55.1033 86.7175V86.7175Z" fill="#815042"/>
<path id="Vector_55" d="M55.101 460.364C55.101 460.375 55.101 460.383 55.101 460.391C55.101 460.383 55.101 460.375 55.101 460.364ZM55.0985 460.397C54.89 463.289 51.5323 465.871 46.3322 467.622C51.5323 465.871 54.89 463.292 55.0985 460.397ZM46.3014 467.633C46.2962 467.633 46.2885 467.638 46.2859 467.638C46.2911 467.638 46.2962 467.633 46.3014 467.633ZM46.2473 467.652C46.2448 467.652 46.2448 467.652 46.2422 467.652H46.2473Z" fill="#5F362B"/>
<path id="Vector_56" d="M55.1114 86.9729L55.1114 460.108C55.1114 460.119 55.1114 460.127 55.1114 460.138C55.1114 460.141 55.1114 460.143 55.1114 460.146C55.1088 460.154 55.1088 460.16 55.1088 460.168C55.1088 460.171 55.1088 460.173 55.1088 460.176C55.1088 460.184 55.1088 460.192 55.1088 460.201C55.1088 460.201 55.1088 460.203 55.1088 460.206C55.1088 460.217 55.1088 460.228 55.1088 460.236C55.1088 460.239 55.1088 460.241 55.1088 460.241C55.1088 460.25 55.1088 460.258 55.1088 460.266C55.1088 460.269 55.1088 460.271 55.1088 460.274C55.1088 460.279 55.1088 460.29 55.1062 460.296C55.1062 460.298 55.1062 460.301 55.1062 460.301C55.1062 460.32 55.1036 460.342 55.1036 460.361C55.1036 460.364 55.1036 460.364 55.1011 460.366C55.1011 460.377 55.1011 460.385 55.1011 460.394C55.1011 460.394 55.0985 460.396 55.0985 460.399C54.8901 463.291 51.5323 465.871 46.3323 467.624C46.322 467.63 46.3117 467.632 46.3014 467.635C46.2963 467.635 46.2885 467.641 46.286 467.641C46.2705 467.646 46.2602 467.649 46.2474 467.654H46.2422C44.0809 468.375 41.6057 468.953 38.9092 469.353C38.9092 469.353 41.7009 408.322 41.7009 273.543C41.7009 138.762 38.9092 77.7361 38.9092 77.7361C39.2025 77.7796 39.4958 77.8258 39.7866 77.8747C39.7891 77.8747 39.7917 77.8747 39.7917 77.8747C39.802 77.8775 39.8123 77.8775 39.8226 77.8829C48.6145 79.3426 54.8463 82.7405 55.1036 86.7228C55.1036 86.7446 55.1062 86.7663 55.1062 86.7853C55.1062 86.7908 55.1062 86.7908 55.1062 86.7908C55.1088 86.8016 55.1088 86.8071 55.1088 86.8207V86.8261C55.1088 86.837 55.1088 86.8424 55.1088 86.856C55.1088 86.856 55.1088 86.856 55.1088 86.8587C55.1088 86.8669 55.1088 86.8778 55.1088 86.8886V86.8913C55.1088 86.8995 55.1088 86.9104 55.1088 86.9158C55.1088 86.9185 55.1088 86.924 55.1088 86.924C55.1088 86.9321 55.1088 86.9375 55.1114 86.9457C55.1114 86.9511 55.1114 86.9539 55.1114 86.9566C55.1114 86.9647 55.1114 86.9729 55.1114 86.9865V86.9729Z" fill="#CDBF9B"/>
</g>
</g>
</svg>
