<svg width="61" height="61" viewBox="0 0 61 61" fill="none" xmlns="http://www.w3.org/2000/svg">
<g id="Group 1">
<path id="Subtract" fill-rule="evenodd" clip-rule="evenodd" d="M30.5 61C47.3447 61 61 47.3447 61 30.5C61 13.6553 47.3447 0 30.5 0C13.6553 0 0 13.6553 0 30.5C0 47.3447 13.6553 61 30.5 61ZM30.5 53.7627C43.3477 53.7627 53.7627 43.3477 53.7627 30.5C53.7627 17.6524 43.3477 7.23732 30.5 7.23732C17.6524 7.23732 7.23732 17.6524 7.23732 30.5C7.23732 43.3477 17.6524 53.7627 30.5 53.7627Z" fill="#F9CA57"/>
<g id="&#208;&#191;&#208;&#181;&#209;&#128;&#209;&#129;&#208;&#190;&#208;&#189;&#208;&#176;&#208;&#182; 1">
<g id="&#208;&#161;&#208;&#187;&#208;&#190;&#208;&#185;_x0020_1">
<g id="_1987589140464">
<path id="Vector" d="M40.9167 40.4383C37.7729 39.535 35.3471 37.5951 35.3471 35.2216C35.3471 32.5423 35.3471 30.0854 35.3471 30.0854H30.989C30.989 30.0854 30.8693 30.28 30.6708 30.6246C30.4694 30.28 30.3526 30.0854 30.3526 30.0854H25.9944C25.9944 30.0854 25.9944 32.5423 25.9944 35.2216C25.9944 37.8063 23.1133 39.8741 19.5608 40.6523C21.4319 49.9323 39.3813 49.471 40.9197 40.4355L40.9167 40.4383Z" fill="#F4B28A"/>
<path id="Vector_2" d="M30.7642 33.0956C26.7972 33.0956 23.5511 30.005 23.5511 26.228V20.372C23.5511 16.595 26.7972 13.5044 30.7642 13.5044C34.7312 13.5044 37.9772 16.595 37.9772 20.372V26.228C37.9772 30.005 34.7312 33.0956 30.7642 33.0956Z" fill="#FAC7A2"/>
<path id="Vector_3" d="M23.9628 25.5807C23.9628 25.5807 22.2463 24.9109 22.366 22.8319C22.4857 20.7558 24.7451 21.8564 24.7451 21.8564L23.9628 25.5779V25.5807Z" fill="#FAC7A2"/>
<path id="Vector_4" d="M37.5686 25.5807C37.5686 25.5807 39.285 24.9109 39.1653 22.8319C39.0456 20.7558 36.7833 21.8564 36.7833 21.8564L37.5686 25.5779V25.5807Z" fill="#FAC7A2"/>
<path id="Vector_5" d="M23.5511 23.3013C23.5511 23.3013 24.0036 23.2596 24.2429 21.9033C24.4706 20.6193 24.818 18.7043 25.0924 18.0151C25.7083 16.4642 27.6408 17.3342 30.4343 17.3453C33.2279 17.3564 34.9443 16.6727 35.782 17.7816C36.2316 18.3736 36.5439 20.0523 36.7833 21.2252C37.0664 22.6176 37.9772 23.3013 37.9772 23.3013C37.9772 23.3013 38.8529 22.4369 38.6719 20.9222C39.3754 20.2218 39.6469 18.9739 38.7186 17.651C39.0777 16.278 38.9959 14.8912 37.7962 14.4465C37.7845 13.8712 37.2299 12.8651 35.674 12.8234C35.5806 11.9368 34.2028 11.0029 32.6674 11.7144C31.6428 10.7834 29.8271 10.7389 28.9806 11.7422C27.6349 11.0752 26.3038 11.3337 25.8368 12.7511C24.5261 12.2203 23.1746 13.5099 23.554 14.8245C22.3601 15.1719 22.0858 16.5893 22.617 17.9206C21.5924 19.074 22.258 20.4497 22.8681 21.278C22.366 22.8371 23.554 23.3041 23.554 23.3041L23.5511 23.3013Z" fill="#B4322A"/>
<path id="Vector_6" d="M23.0519 39.3325C23.0519 39.3325 24.6866 43.9239 30.7641 44.0073C37.9772 44.1018 39.1711 39.7939 39.1711 39.7939C39.1711 39.7939 43.5497 41.089 46.1739 42.0562C48.1326 42.7788 50.967 49.0878 52.2777 52.2367C46.8628 57.6369 39.2265 60.9998 30.767 60.9998C21.0553 60.9998 12.4294 56.5669 7.00287 49.7076C8.44197 47.5259 11.939 42.3731 13.2643 41.7977C16.0374 40.5915 23.0549 39.3325 23.0549 39.3325H23.0519Z" fill="#FDE7D4"/>
<path id="Vector_7" d="M33.87 60.847C34.6378 59.8297 35.3675 58.7208 35.9747 57.5479C38.7566 52.1784 41.8508 49.9521 41.8508 49.9521C41.8508 49.9521 40.6569 54.6797 38.85 59.9409C37.2416 60.3717 35.5748 60.6802 33.8671 60.847H33.87Z" fill="#F5CFB4"/>
<path id="Vector_8" d="M33.8905 51.6055C33.8905 51.6055 33.6103 55.7744 31.2954 60.9939C31.1174 60.9967 30.9393 60.9995 30.7612 60.9995C30.192 60.9995 29.6286 60.9828 29.0682 60.9522C31.4531 56.3636 33.8876 51.6055 33.8876 51.6055H33.8905Z" fill="#F5CFB4"/>
<path id="Vector_9" d="M42.6915 40.8806C42.6915 40.8806 38.5114 54.6492 36.1002 60.5469C43.3074 59.3045 49.6068 55.5886 54 50.358C52.8294 46.9228 52.2777 45.3442 51.2356 44.1046C50.1526 42.8178 48.3195 42.7316 48.3195 42.7316C48.3195 42.7316 47.2015 41.2308 46.3111 40.5249C44.8137 39.3381 42.6886 40.8834 42.6886 40.8834L42.6915 40.8806Z" fill="#E02B2C"/>
<path id="Vector_10" d="M16.668 46.5947C16.668 46.5947 12.8411 49.4991 11.0283 51.0944C10.5087 51.553 10.0183 52.0616 9.58337 52.5563C10.6518 53.5902 11.8048 54.5463 13.0279 55.4134C13.9474 54.2961 15.2405 52.5869 15.9148 51.0944C17.0328 48.6236 16.668 46.5947 16.668 46.5947Z" fill="#F5CFB4"/>
<path id="Vector_11" d="M19.5578 51.6055C19.5578 51.6055 18.6062 55.6076 18.2063 58.3564C18.9915 58.7038 19.7943 59.0234 20.6145 59.3069C20.3868 55.3853 19.5578 51.6055 19.5578 51.6055V51.6055Z" fill="#F5CFB4"/>
<path id="Vector_12" d="M17.8794 40.4164C17.8794 40.4164 20.9415 48.3457 23.5512 58.2872C23.7292 58.9681 23.9102 59.6352 24.0912 60.2855C24.8531 60.4523 25.6237 60.5885 26.406 60.6969C25.793 58.4568 25.2063 56.2417 24.7451 54.3351C22.5207 45.1829 19.5579 40.0356 19.5579 40.0356L17.8794 40.4164V40.4164Z" fill="#D42326"/>
<path id="Vector_13" d="M51.2006 47.6702C51.1072 47.5007 51.0488 47.4146 51.0488 47.4146C51.0488 47.4146 50.0126 51.0971 48.3633 55.5078C49.4492 54.7491 50.4767 53.9209 51.4429 53.0315C51.5889 51.2583 51.5217 49.4684 51.2006 47.6702V47.6702Z" fill="#D42326"/>
<path id="Vector_14" d="M45.3449 57.3673C45.4208 57.1144 45.4909 56.867 45.558 56.6225C47.1402 50.8388 46.3958 44.4575 46.3958 44.4575C46.3958 44.4575 44.6911 52.3451 42.566 57.4396C42.3733 57.9037 42.1515 58.4068 41.9121 58.9404C43.0973 58.4846 44.2444 57.9565 45.3449 57.3645V57.3673Z" fill="#D42326"/>
<path id="Vector_15" d="M21.4553 42.5093C21.4553 42.5093 24.6108 47.4175 31.1845 47.4175C36.3046 47.4175 39.1711 43.9795 39.1711 43.9795C39.1711 43.9795 36.433 45.975 31.1845 45.6999C25.939 45.4247 21.4553 42.5093 21.4553 42.5093V42.5093Z" fill="#F5CFB4"/>
</g>
</g>
</g>
</g>
</svg>
