<svg width="12" height="14" viewBox="0 0 12 14" fill="none" xmlns="http://www.w3.org/2000/svg">
<path id="Vector" d="M10.1766 2.07186C8.7047 0.599988 6.30783 0.599988 4.83751 2.07186L0.75939 6.14686C0.732827 6.17343 0.718764 6.20936 0.718764 6.24686C0.718764 6.28436 0.732827 6.3203 0.75939 6.34686L1.33595 6.92343C1.36231 6.94966 1.39798 6.9644 1.43517 6.9644C1.47236 6.9644 1.50804 6.94966 1.53439 6.92343L5.61251 2.84843C6.11876 2.34218 6.7922 2.06405 7.50783 2.06405C8.22345 2.06405 8.89689 2.34218 9.40158 2.84843C9.90783 3.35468 10.186 4.02811 10.186 4.74218C10.186 5.4578 9.90783 6.12968 9.40158 6.63593L5.24533 10.7906L4.57189 11.4641C3.9422 12.0937 2.91876 12.0937 2.28908 11.4641C1.98439 11.1594 1.8172 10.7547 1.8172 10.3234C1.8172 9.89218 1.98439 9.48749 2.28908 9.1828L6.41251 5.06093C6.5172 4.9578 6.6547 4.89999 6.80158 4.89999H6.80314C6.95001 4.89999 7.08595 4.9578 7.18908 5.06093C7.29376 5.16561 7.35001 5.30311 7.35001 5.44999C7.35001 5.5953 7.2922 5.7328 7.18908 5.83593L3.81876 9.20311C3.7922 9.22968 3.77814 9.26561 3.77814 9.30311C3.77814 9.34061 3.7922 9.37655 3.81876 9.40311L4.39533 9.97968C4.42168 10.0059 4.45736 10.0206 4.49455 10.0206C4.53173 10.0206 4.56741 10.0059 4.59376 9.97968L7.96251 6.61093C8.27345 6.29999 8.44376 5.88749 8.44376 5.44843C8.44376 5.00936 8.27189 4.5953 7.96251 4.28592C7.32033 3.64374 6.27658 3.6453 5.63439 4.28592L5.23439 4.68749L1.51251 8.4078C1.25991 8.65893 1.05967 8.9577 0.923413 9.28681C0.787158 9.61591 0.717597 9.96879 0.718764 10.325C0.718764 11.0484 1.00158 11.7281 1.51251 12.239C2.0422 12.7672 2.73595 13.0312 3.4297 13.0312C4.12345 13.0312 4.8172 12.7672 5.34533 12.239L10.1766 7.41092C10.8875 6.69842 11.2813 5.74999 11.2813 4.74218C11.2828 3.7328 10.8891 2.78436 10.1766 2.07186Z" fill="#333333"/>
</svg>
