<svg width="29" height="29" viewBox="0 0 29 29" fill="none" xmlns="http://www.w3.org/2000/svg">
<g id="Group 1">
<path id="Rectangle 10" d="M0 14.5C0 6.49187 6.49187 0 14.5 0V0C22.5081 0 29 6.49187 29 14.5V14.5C29 22.5081 22.5081 29 14.5 29V29C6.49187 29 0 22.5081 0 14.5V14.5Z" fill="#05FF00"/>
<path id="Union" fill-rule="evenodd" clip-rule="evenodd" d="M18.168 14.3323C19.3047 13.1262 18.5654 11.1402 16.9167 10.971L10.3947 10.3019C8.57374 10.115 7.52888 12.3203 8.82673 13.6111V13.6111C9.26822 14.0502 9.89346 14.251 10.5081 14.1511L14.0445 13.5762C14.3258 13.5305 14.5999 13.6912 14.6973 13.959V13.959C14.7946 14.2269 14.6878 14.5261 14.4429 14.6717L11.3865 16.4887C10.884 16.7875 10.5623 17.316 10.5279 17.8996V17.8996C10.4311 19.5429 12.4402 20.4097 13.5692 19.2118L18.168 14.3323ZM3.49008 9.19292C3.54972 9.13296 3.58697 9.05434 3.5956 8.9702V8.9702C3.61642 8.76732 3.79776 8.61973 4.00065 8.64054L21.7227 10.4589C21.9066 10.4778 22.0404 10.6422 22.0216 10.8261V10.8261C22.0109 10.9297 22.0491 11.0324 22.125 11.1038V11.1038C22.2595 11.2306 22.2658 11.4425 22.139 11.577L10.0263 24.4289V24.4289C9.70595 24.7688 9.13584 24.5228 9.16333 24.0565V24.0565L9.60029 16.6428V16.6428C9.61005 16.4772 9.70132 16.3272 9.84392 16.2424V16.2424V16.2424C10.3147 15.9625 10.0514 15.2385 9.51083 15.3264L9.43817 15.3382V15.3382C9.27995 15.3639 9.119 15.3122 9.00535 15.1992V15.1992L3.4915 9.71516C3.34689 9.57134 3.34626 9.33753 3.49008 9.19292V9.19292Z" fill="white"/>
</g>
</svg>
