<svg width="28" height="23" viewBox="0 0 28 23" fill="none" xmlns="http://www.w3.org/2000/svg">
<path id="Vector" d="M20.4049 7.32678C21.2636 6.47222 22.1161 4.47823 18.5381 6.8995C13.4541 10.3905 8.44325 13.6679 8.44325 13.6679C7.92745 13.9 7.36982 14.026 6.80387 14.0382C6.23792 14.0504 5.67532 13.9487 5.14987 13.7391C3.00303 13.0982 0.496822 12.2436 0.496822 12.2436C0.496822 12.2436 -1.21443 11.1739 1.71492 10.0345C1.71492 10.0345 14.0997 4.97673 18.395 3.19484C20.0409 2.4827 25.6242 0.20386 25.6242 0.20386C25.6242 0.20386 28.202 -0.79468 27.9873 1.62814C27.9157 2.62513 27.3432 6.1177 26.7708 9.89203C25.9105 15.2346 24.9802 21.0772 24.9802 21.0772C24.9802 21.0772 24.837 22.7151 23.6205 23C22.3182 22.9781 21.0599 22.5273 20.0424 21.7182C19.7562 21.5045 14.6738 18.2983 12.8116 16.7316C12.6222 16.6039 12.4683 16.4306 12.3643 16.2279C12.2602 16.0251 12.2094 15.7994 12.2165 15.5718C12.2237 15.3443 12.2885 15.1222 12.4051 14.9263C12.5217 14.7303 12.6861 14.5669 12.8832 14.4513C15.4656 12.1012 18.5443 9.17989 20.4049 7.32678Z" fill="#8D8D8D"/>
</svg>
