<svg width="95" height="95" viewBox="0 0 95 95" fill="none" xmlns="http://www.w3.org/2000/svg">
<g id="person">
<path id="Subtract" fill-rule="evenodd" clip-rule="evenodd" d="M47.5 95C73.7335 95 95 73.7335 95 47.5C95 21.2665 73.7335 0 47.5 0C21.2665 0 0 21.2665 0 47.5C0 73.7335 21.2665 95 47.5 95ZM47.5001 83.7288C67.5087 83.7288 83.7289 67.5086 83.7289 47.5C83.7289 27.4914 67.5087 11.2712 47.5001 11.2712C27.4914 11.2712 11.2712 27.4914 11.2712 47.5C11.2712 67.5086 27.4914 83.7288 47.5001 83.7288Z" fill="#8D8D8D"/>
<g id="&#208;&#191;&#208;&#181;&#209;&#128;&#209;&#129;&#208;&#190;&#208;&#189;&#208;&#176;&#208;&#182; 1" clip-path="url(#clip0_14_205)">
<g id="&#208;&#161;&#208;&#187;&#208;&#190;&#208;&#185;_x0020_1">
<g id="_1987589140464">
<path id="Vector" d="M63.3799 63.0844C58.4901 61.6823 54.7172 58.6712 54.7172 54.987C54.7172 50.8283 54.7172 47.0147 54.7172 47.0147H47.9387C47.9387 47.0147 47.7525 47.3167 47.4438 47.8516C47.1305 47.3167 46.9489 47.0147 46.9489 47.0147H40.1704C40.1704 47.0147 40.1704 50.8283 40.1704 54.987C40.1704 58.999 35.6892 62.2086 30.1638 63.4166C33.0741 77.8211 60.9918 77.1049 63.3844 63.0801L63.3799 63.0844Z" fill="#8D8D8D"/>
<path id="Vector_2" d="M47.5889 51.6868C41.4188 51.6868 36.3701 46.8896 36.3701 41.0268V31.9372C36.3701 26.0744 41.4188 21.2773 47.5889 21.2773C53.7591 21.2773 58.8078 26.0744 58.8078 31.9372V41.0268C58.8078 46.8896 53.7591 51.6868 47.5889 51.6868Z" fill="#8D8D8D"/>
<path id="Vector_3" d="M37.0104 40.0217C37.0104 40.0217 34.3407 38.982 34.5269 35.7551C34.713 32.5325 38.2271 34.2409 38.2271 34.2409L37.0104 40.0173V40.0217Z" fill="#8D8D8D"/>
<path id="Vector_4" d="M58.1722 40.0217C58.1722 40.0217 60.8419 38.982 60.6557 35.7551C60.4696 32.5325 56.9509 34.2409 56.9509 34.2409L58.1722 40.0173V40.0217Z" fill="#8D8D8D"/>
<path id="Vector_5" d="M36.3702 36.4841C36.3702 36.4841 37.0739 36.4194 37.4462 34.3142C37.8003 32.3211 38.3406 29.3488 38.7674 28.2789C39.7254 25.8717 42.731 27.2219 47.076 27.2392C51.4209 27.2565 54.0906 26.1952 55.3936 27.9165C56.0928 28.8354 56.5786 31.4411 56.9509 33.2616C57.3913 35.4229 58.8078 36.4841 58.8078 36.4841C58.8078 36.4841 60.1699 35.1425 59.8884 32.7913C60.9826 31.7042 61.4048 29.7672 59.961 27.7137C60.5195 25.5826 60.3924 23.4299 58.5263 22.7397C58.5082 21.8467 57.6455 20.285 55.2256 20.2203C55.0803 18.8441 52.9374 17.3946 50.5492 18.499C48.9556 17.0538 46.1316 16.9848 44.8149 18.5421C42.7219 17.5068 40.6516 17.908 39.9251 20.1081C37.8866 19.2842 35.7845 21.2859 36.3747 23.3264C34.5178 23.8656 34.091 26.0658 34.9173 28.1322C33.3237 29.9225 34.3589 32.058 35.3078 33.3435C34.5269 35.7637 36.3747 36.4885 36.3747 36.4885L36.3702 36.4841Z" fill="#8D8D8D"/>
<path id="Vector_6" d="M35.5938 61.3674C35.5938 61.3674 38.1364 68.4942 47.589 68.6236C58.8079 68.7703 60.6648 62.0836 60.6648 62.0836C60.6648 62.0836 67.4751 64.0939 71.5567 65.5952C74.6032 66.7168 79.0117 76.5096 81.0503 81.3974C72.6282 89.7795 60.7511 94.9995 47.5936 94.9995C32.4883 94.9995 19.0721 88.1187 10.6318 77.4717C12.8702 74.0852 18.3093 66.087 20.3706 65.194C24.6837 63.3217 35.5984 61.3674 35.5984 61.3674H35.5938Z" fill="#8D8D8D"/>
<path id="Vector_7" d="M52.4198 94.7622C53.6139 93.1833 54.7489 91.462 55.6933 89.6415C60.0201 81.3068 64.8327 77.8513 64.8327 77.8513C64.8327 77.8513 62.9758 85.1894 60.1654 93.3558C57.6637 94.0245 55.0713 94.5034 52.4153 94.7622H52.4198Z" fill="#8D8D8D"/>
<path id="Vector_8" d="M52.4516 80.4181C52.4516 80.4181 52.0157 86.8891 48.4153 94.9909C48.1384 94.9952 47.8614 94.9995 47.5845 94.9995C46.6991 94.9995 45.8229 94.9736 44.9512 94.9262C48.6605 87.8037 52.447 80.4181 52.447 80.4181H52.4516Z" fill="#8D8D8D"/>
<path id="Vector_9" d="M66.1402 63.7703C66.1402 63.7703 59.6386 85.142 55.8884 94.2963C67.0982 92.3679 76.8959 86.6001 83.7289 78.4811C81.9083 73.149 81.0502 70.6986 79.4293 68.7746C77.7449 66.7772 74.8937 66.6435 74.8937 66.6435C74.8937 66.6435 73.1548 64.3139 71.77 63.2181C69.4409 61.3761 66.1356 63.7746 66.1356 63.7746L66.1402 63.7703Z" fill="#8D8D8D"/>
<path id="Vector_10" d="M25.6646 72.64C25.6646 72.64 19.7124 77.1481 16.8929 79.6243C16.0847 80.3362 15.322 81.1256 14.6455 81.8935C16.3072 83.4983 18.1006 84.9824 20.0029 86.3283C21.4331 84.5941 23.4444 81.941 24.4932 79.6243C26.2321 75.7892 25.6646 72.64 25.6646 72.64Z" fill="#8D8D8D"/>
<path id="Vector_11" d="M30.1592 80.4181C30.1592 80.4181 28.6791 86.6303 28.0571 90.8969C29.2784 91.4361 30.527 91.9322 31.8028 92.3723C31.4487 86.2852 30.1592 80.4181 30.1592 80.4181Z" fill="#8D8D8D"/>
<path id="Vector_12" d="M27.5486 63.0499C27.5486 63.0499 32.3113 75.3578 36.3702 90.789C36.6471 91.8459 36.9286 92.8813 37.2101 93.8908C38.3951 94.1496 39.5937 94.361 40.8105 94.5293C39.8571 91.0522 38.9445 87.6139 38.2271 84.6545C34.7675 70.4484 30.1592 62.4589 30.1592 62.4589L27.5486 63.0499Z" fill="#8D8D8D"/>
<path id="Vector_13" d="M79.375 74.3095C79.2297 74.0463 79.1389 73.9126 79.1389 73.9126C79.1389 73.9126 77.5271 79.6287 74.9619 86.475C76.6509 85.2973 78.249 84.0117 79.7518 82.6312C79.9788 79.8789 79.8744 77.1007 79.375 74.3095Z" fill="#8D8D8D"/>
<path id="Vector_14" d="M70.2673 89.3611C70.3853 88.9685 70.4943 88.5845 70.5987 88.2049C73.0595 79.2274 71.9017 69.3224 71.9017 69.3224C71.9017 69.3224 69.2502 81.5656 65.945 89.4732C65.6453 90.1937 65.3003 90.9745 64.928 91.8028C66.7713 91.0953 68.5556 90.2756 70.2673 89.3567V89.3611Z" fill="#8D8D8D"/>
<path id="Vector_15" d="M33.1104 66.2983C33.1104 66.2983 38.0183 73.9169 48.2428 73.9169C56.2063 73.9169 60.6648 68.5805 60.6648 68.5805C60.6648 68.5805 56.4061 71.6779 48.2428 71.2508C40.0841 70.8237 33.1104 66.2983 33.1104 66.2983Z" fill="#8D8D8D"/>
</g>
</g>
</g>
</g>
<defs>
<clipPath id="clip0_14_205">
<rect width="73.1017" height="77.6102" fill="white" transform="translate(10.6272 17.3898)"/>
</clipPath>
</defs>
</svg>
