<svg width="370" height="112" viewBox="0 0 370 112" fill="none" xmlns="http://www.w3.org/2000/svg">
<g id="Group 186">
<path id="Union" fill-rule="evenodd" clip-rule="evenodd" d="M187.241 54.9019C226.498 54.7653 291.251 60.8458 293.741 66.5742C293.741 66.5746 293.741 66.575 293.741 66.5754L293.742 66.5751C293.742 66.5748 293.741 66.5745 293.741 66.5742C293.741 54.7914 295.543 44.5275 302.305 31.4257C306.28 23.737 305.033 18.0679 293.658 14.3891C258.895 3.14957 221.863 -0.127659 185.435 0.00376856C159.996 0.096438 134.849 1.66307 110.726 6.1861C109.357 6.44283 106.412 7.84657 109.021 13.6005C106.787 9.05069 104.293 7.46336 103.13 7.7166C93.3962 9.82061 83.847 12.4384 74.5303 15.6733C64.7304 19.0756 67.019 29.4109 70.1597 35.5014C75.9301 46.6899 77.8552 56.4304 77.8552 66.8374C78.7792 62.6798 109.106 58.8337 140.123 56.6834C140.741 56.6409 141.356 50.8022 141.444 47.1982C141.632 50.6489 142.456 56.5901 143.102 56.5487C158.598 55.5652 174.617 54.8568 187.241 54.9019ZM34.0811 48.2709C34.8956 45.3372 37.7341 42.885 42.7578 40.7728C49.898 37.7727 57.3018 35.1039 65.0691 32.735C65.5684 34.8507 66.378 36.8786 67.2537 38.5767C73.0241 49.7652 74.9492 59.5057 74.9492 69.9127C75.7337 66.3842 97.6949 63.0808 123.283 60.8471L126.624 70.7674C126.68 71.1437 126.788 71.5012 126.889 71.836L126.889 71.8361C127.236 72.9859 127.503 73.8674 125.324 74.3209C123.912 74.6169 122.087 74.8275 120.461 75.0152C119.95 75.0741 119.458 75.1309 119.006 75.1872C117.488 75.3748 115.98 75.5207 114.474 75.6663H114.473C112.446 75.8623 110.423 76.0578 108.391 76.3541C101.808 77.3169 95.2518 78.377 88.744 79.5698C78.5771 81.4395 68.7014 83.707 58.7284 86.1286C55.9142 86.8126 51.2041 88.219 50.0018 90.1659L49.9483 90.7907L49.8728 90.2959C48.0236 77.865 44.2561 68.4439 36.8661 57.7709C34.2636 54.0099 33.3506 50.9026 34.0807 48.2711L34.0811 48.2709ZM328.486 40.9983C333.514 43.1096 336.351 45.5619 337.164 48.4952L337.163 48.4955C337.894 51.1267 336.979 54.2346 334.378 57.9956C326.989 68.6671 323.222 78.0897 321.373 90.5214L321.302 91.3982L321.202 90.6062C320.237 88.5675 316.157 87.3526 313.382 86.5689C303.151 83.6889 292.673 81.6647 282.5 79.7965C275.994 78.5994 269.437 77.5424 262.858 76.5799C260.828 76.2825 258.808 76.0877 256.785 75.8924L256.784 75.8923C255.274 75.7466 253.761 75.6006 252.239 75.4116C251.798 75.357 251.321 75.3019 250.825 75.2446C249.19 75.0557 247.347 74.8428 245.922 74.5452C243.742 74.0932 244.009 73.2101 244.357 72.062L244.357 72.0618L244.357 72.0617C244.458 71.7267 244.566 71.3692 244.622 70.9932L247.927 61.1804C273.497 63.4578 295.076 66.8312 296.489 70.091C296.489 58.3077 298.29 48.0435 305.053 34.9413C305.412 34.2463 305.729 33.5679 305.999 32.9055C313.831 35.2878 321.292 37.9749 328.486 40.9983ZM95.9123 87.5018C95.9123 87.4989 94.5024 85.2669 92.3554 81.8696C89.9416 82.2756 87.533 82.6978 85.1313 83.1379C74.9644 85.0076 65.0887 87.2751 55.1156 89.6967C52.3014 90.3807 47.5913 91.787 46.3891 93.7339L46.3355 94.3587L46.2601 93.8639C44.4108 81.4331 40.6434 72.012 33.2534 61.339C32.7111 60.5554 32.2422 59.8 31.8463 59.0718C23.0836 62.1806 14.9286 65.593 7.22498 69.368C2.6382 71.6139 0.285178 73.9572 0.0235518 76.5307C-0.132613 78.0798 0.487179 79.7482 1.9024 81.5747C0.84007 79.2501 0.65105 76.239 5.31084 74.5645C10.9275 72.5473 23.3606 74.4205 31.5834 79.033C31.5834 79.033 15.0425 87.9176 23.5622 110.913V111.12C23.5599 111.195 23.5599 111.271 23.5622 111.347V111.12C23.7999 103.35 48.526 99.5495 62.5457 97.3947L62.546 97.3947L62.5475 97.3944L62.5595 97.3926C63.8117 97.2001 64.9783 97.0208 66.0342 96.8529C67.0154 96.6969 68.4067 96.5149 70.0587 96.2989C79.6411 95.0458 97.9913 92.646 95.9123 87.5018ZM274.084 88.1563C274.084 88.1528 275.686 85.616 278.077 81.8335C280.28 82.2068 282.479 82.5946 284.672 82.998C294.846 84.8662 305.323 86.8904 315.554 89.7704C318.33 90.554 322.409 91.7689 323.374 93.8077L323.474 94.5997L323.545 93.7228C325.394 81.2912 329.162 71.8686 336.551 61.1971C336.944 60.6285 337.298 60.0748 337.614 59.5354C346.58 62.6949 354.911 66.1697 362.772 70.0225C367.358 72.267 369.715 74.6117 369.976 77.1851C370.13 78.732 369.513 80.4006 368.096 82.2283C369.158 79.9046 369.348 76.8934 364.686 75.2181C359.07 73.2018 346.636 75.0753 338.412 79.6875C338.412 79.6875 354.956 88.571 346.434 111.569V111.773C346.196 104.002 321.462 100.201 307.446 98.048L307.444 98.0479C306.19 97.8552 305.022 97.6757 303.965 97.5077C302.984 97.3518 301.594 97.1701 299.944 96.9543C290.361 95.7012 272.005 93.301 274.083 88.1566L274.084 88.1563ZM346.434 112C346.436 111.924 346.436 111.848 346.434 111.773V112Z" fill="#E31E24"/>
<path id="&#208;&#159;&#208;&#190;&#208;&#177;&#208;&#181;&#208;&#180;&#208;&#184;&#209;&#130;&#208;&#181;&#208;&#187;&#208;&#184;" d="M140.791 19.626V20.526L139.261 20.76V31.92L140.935 32.118V33H135.859V32.118L137.353 31.92V20.688H131.593V31.938L133.267 32.118V33H128.227V32.118L129.685 31.938V20.742L128.155 20.526V19.626H140.791ZM142.445 27.978C142.445 26.898 142.667 25.962 143.111 25.17C143.555 24.378 144.137 23.778 144.857 23.37C145.589 22.95 146.369 22.74 147.197 22.74C148.709 22.74 149.843 23.22 150.599 24.18C151.367 25.14 151.751 26.4 151.751 27.96C151.751 29.052 151.529 29.994 151.085 30.786C150.641 31.578 150.053 32.178 149.321 32.586C148.601 32.994 147.827 33.198 146.999 33.198C145.487 33.198 144.347 32.718 143.579 31.758C142.823 30.798 142.445 29.538 142.445 27.978ZM147.107 32.172C147.935 32.172 148.571 31.83 149.015 31.146C149.459 30.462 149.681 29.448 149.681 28.104C149.681 26.772 149.477 25.716 149.069 24.936C148.661 24.156 148.007 23.766 147.107 23.766C146.279 23.766 145.637 24.108 145.181 24.792C144.737 25.476 144.515 26.49 144.515 27.834C144.515 29.166 144.725 30.222 145.145 31.002C145.565 31.782 146.219 32.172 147.107 32.172ZM161.586 19.014C161.514 19.362 161.412 19.62 161.28 19.788C161.148 19.944 160.932 20.028 160.632 20.04C158.316 20.208 156.828 20.55 156.168 21.066C155.832 21.318 155.538 21.714 155.286 22.254C155.034 22.782 154.884 23.496 154.836 24.396C155.208 23.952 155.73 23.574 156.402 23.262C157.074 22.95 157.734 22.794 158.382 22.794C160.998 22.794 162.306 24.348 162.306 27.456C162.306 29.292 161.916 30.702 161.136 31.686C160.356 32.658 159.24 33.144 157.788 33.144C156.372 33.144 155.25 32.568 154.422 31.416C153.606 30.252 153.198 28.482 153.198 26.106C153.198 24.618 153.414 23.406 153.846 22.47C154.278 21.534 154.836 20.76 155.52 20.148C155.952 19.764 156.51 19.452 157.194 19.212C157.878 18.972 158.544 18.816 159.192 18.744C159.708 18.684 160.056 18.624 160.236 18.564C160.428 18.504 160.554 18.378 160.614 18.186L160.866 17.412H161.874L161.586 19.014ZM157.914 23.946C157.482 23.946 157.08 24.024 156.708 24.18C156.336 24.324 156.018 24.498 155.754 24.702C155.502 24.906 155.328 25.092 155.232 25.26C155.232 26.928 155.322 28.272 155.502 29.292C155.682 30.312 155.958 31.062 156.33 31.542C156.702 32.01 157.188 32.244 157.788 32.244C158.7 32.244 159.342 31.842 159.714 31.038C160.098 30.234 160.29 29.04 160.29 27.456C160.29 26.172 160.104 25.266 159.732 24.738C159.372 24.21 158.766 23.946 157.914 23.946ZM168.16 33.198C166.708 33.198 165.598 32.724 164.83 31.776C164.074 30.828 163.696 29.562 163.696 27.978C163.696 26.934 163.894 26.016 164.29 25.224C164.686 24.432 165.238 23.82 165.946 23.388C166.666 22.956 167.482 22.74 168.394 22.74C169.51 22.74 170.374 23.052 170.986 23.676C171.61 24.288 171.94 25.17 171.976 26.322C171.976 27.054 171.934 27.612 171.85 27.996H165.658C165.682 29.184 165.958 30.144 166.486 30.876C167.014 31.596 167.764 31.956 168.736 31.956C169.216 31.956 169.714 31.872 170.23 31.704C170.758 31.524 171.166 31.314 171.454 31.074L171.796 31.866C171.448 32.226 170.932 32.538 170.248 32.802C169.564 33.066 168.868 33.198 168.16 33.198ZM169.996 27.042C170.032 26.79 170.05 26.532 170.05 26.268C170.038 25.488 169.87 24.876 169.546 24.432C169.234 23.976 168.736 23.748 168.052 23.748C167.356 23.748 166.798 24 166.378 24.504C165.97 25.008 165.736 25.854 165.676 27.042H169.996ZM183.189 33.882C183.105 34.89 183.021 35.712 182.937 36.348H181.803C181.779 35.904 181.725 35.25 181.641 34.386C181.569 33.522 181.515 33.06 181.479 33H174.675C174.627 33.108 174.495 33.762 174.279 34.962L173.991 36.348H172.785C172.833 34.644 172.887 33.192 172.947 31.992H173.973C174.549 31.764 175.005 30.984 175.341 29.652C175.677 28.308 175.845 26.472 175.845 24.144L174.171 23.892V23.01H183.405V23.892L181.803 24.144V32.01H183.387L183.189 33.882ZM176.907 25.206C176.907 26.73 176.775 28.128 176.511 29.4C176.247 30.672 175.947 31.542 175.611 32.01H179.931V24.072H176.907V25.206ZM189.471 23.01V23.892L187.995 24.144V30.174L189.075 28.752L193.143 24.45V24.144L191.811 23.892V23.01H196.311V23.892L195.015 24.144V31.956L196.365 32.118V33H191.703V32.118L193.143 31.956V25.836L191.955 27.492L187.995 31.614V31.974L189.183 32.118V33H184.791V32.118L186.141 31.956V24.144L184.809 23.892V23.01H189.471ZM207.73 23.01L207.838 26.808H206.65L206.164 24.09L203.77 24V31.938L206.218 32.118V33H199.468V32.118L201.898 31.938V24L199.468 24.09L198.982 26.808H197.794L197.902 23.01H207.73ZM213.705 33.198C212.253 33.198 211.143 32.724 210.375 31.776C209.619 30.828 209.241 29.562 209.241 27.978C209.241 26.934 209.439 26.016 209.835 25.224C210.231 24.432 210.783 23.82 211.491 23.388C212.211 22.956 213.027 22.74 213.939 22.74C215.055 22.74 215.919 23.052 216.531 23.676C217.155 24.288 217.485 25.17 217.521 26.322C217.521 27.054 217.479 27.612 217.395 27.996H211.203C211.227 29.184 211.503 30.144 212.031 30.876C212.559 31.596 213.309 31.956 214.281 31.956C214.761 31.956 215.259 31.872 215.775 31.704C216.303 31.524 216.711 31.314 216.999 31.074L217.341 31.866C216.993 32.226 216.477 32.538 215.793 32.802C215.109 33.066 214.413 33.198 213.705 33.198ZM215.541 27.042C215.577 26.79 215.595 26.532 215.595 26.268C215.583 25.488 215.415 24.876 215.091 24.432C214.779 23.976 214.281 23.748 213.597 23.748C212.901 23.748 212.343 24 211.923 24.504C211.515 25.008 211.281 25.854 211.221 27.042H215.541ZM222.326 25.026C222.326 26.682 222.23 28.104 222.038 29.292C221.846 30.468 221.612 31.332 221.336 31.884C221.156 32.292 220.922 32.598 220.634 32.802C220.346 33.006 219.926 33.108 219.374 33.108C219.158 33.108 218.87 33.072 218.51 33L218.402 31.488C218.678 31.548 219.086 31.578 219.626 31.578C220.13 31.578 220.532 30.912 220.832 29.58C221.132 28.248 221.288 26.436 221.3 24.144L219.662 23.892V23.01H228.842V23.91L227.276 24.18V31.956L228.788 32.118V33H224.018V32.118L225.422 31.956V24.09H222.326V25.026ZM234.981 23.01V23.892L233.505 24.144V30.174L234.585 28.752L238.653 24.45V24.144L237.321 23.892V23.01H241.821V23.892L240.525 24.144V31.956L241.875 32.118V33H237.213V32.118L238.653 31.956V25.836L237.465 27.492L233.505 31.614V31.974L234.693 32.118V33H230.301V32.118L231.651 31.956V24.144L230.319 23.892V23.01H234.981Z" fill="white"/>
</g>
</svg>
