<svg width="390" height="138" viewBox="0 0 390 138" fill="none" xmlns="http://www.w3.org/2000/svg">
<g id="Group 22">
<g id="&#208;&#145;&#208;&#176;&#209;&#136;&#208;&#189;&#209;&#143; &#209;&#129;&#209;&#130;&#208;&#176;&#209;&#128;&#209;&#130;">
<path id="Rectangle 19" d="M5 69.8486L385 5.91156V68.1514L5 132.088V69.8486ZM1.50224 132.677C1.5041 132.677 1.50593 132.676 1.50779 132.676L1.50224 132.677Z" fill="#C4C4C4" stroke="white" stroke-width="10"/>
</g>
<path id="20 &#209;&#131;&#209;&#128;&#208;&#190;&#208;&#178;&#208;&#181;&#208;&#189;&#209;&#140;" d="M159.976 73.496C160.712 73.08 161.388 72.604 162.004 72.068C162.62 71.524 163.108 70.964 163.468 70.388C163.836 69.812 164.02 69.268 164.02 68.756C164.02 68.316 163.888 67.968 163.624 67.712C163.36 67.448 162.984 67.316 162.496 67.316C162.04 67.316 161.648 67.408 161.32 67.592C160.992 67.768 160.688 67.988 160.408 68.252L160.024 67.712C160.304 67.384 160.704 67.088 161.224 66.824C161.744 66.552 162.3 66.416 162.892 66.416C163.452 66.416 163.924 66.52 164.308 66.728C164.692 66.928 164.976 67.192 165.16 67.52C165.344 67.848 165.436 68.208 165.436 68.6C165.436 69.392 165.056 70.208 164.296 71.048C163.536 71.88 162.584 72.628 161.44 73.292L165.16 73.016L165.58 71.984L166.192 72.104L165.88 74H160.156L159.976 73.496ZM170.388 74.108C169.364 74.108 168.596 73.756 168.084 73.052C167.58 72.34 167.328 71.424 167.328 70.304C167.328 69.52 167.472 68.836 167.76 68.252C168.048 67.66 168.44 67.208 168.936 66.896C169.432 66.584 169.976 66.428 170.568 66.428C171.608 66.428 172.368 66.764 172.848 67.436C173.328 68.1 173.568 69.012 173.568 70.172C173.568 70.948 173.428 71.636 173.148 72.236C172.876 72.828 172.496 73.288 172.008 73.616C171.528 73.944 170.988 74.108 170.388 74.108ZM170.436 73.496C171.628 73.496 172.224 72.428 172.224 70.292C172.224 69.252 172.088 68.452 171.816 67.892C171.552 67.332 171.104 67.052 170.472 67.052C169.856 67.052 169.4 67.32 169.104 67.856C168.808 68.384 168.66 69.144 168.66 70.136C168.66 71.152 168.8 71.968 169.08 72.584C169.368 73.192 169.82 73.496 170.436 73.496ZM178.655 76.988C178.519 76.988 178.383 76.98 178.247 76.964C178.119 76.948 178.027 76.924 177.971 76.892V75.848C178.019 75.88 178.111 75.904 178.247 75.92C178.391 75.936 178.527 75.944 178.655 75.944C179.039 75.944 179.375 75.808 179.663 75.536C179.959 75.272 180.243 74.76 180.515 74H179.939L177.659 68.06L177.107 67.904V67.34H179.999V67.904L179.075 68.048L180.251 71.588L180.803 73.34L181.319 71.576L182.387 68.048L181.583 67.904V67.34H183.995V67.904L183.395 68.048C182.219 71.648 181.527 73.692 181.319 74.18C181.047 74.868 180.799 75.404 180.575 75.788C180.351 76.18 180.087 76.476 179.783 76.676C179.479 76.884 179.103 76.988 178.655 76.988ZM191.042 70.436C191.042 71.116 190.902 71.74 190.622 72.308C190.342 72.868 189.942 73.312 189.422 73.64C188.902 73.968 188.294 74.132 187.598 74.132C187.406 74.132 187.198 74.116 186.974 74.084C186.75 74.052 186.57 74.012 186.434 73.964L186.47 74.972V76.184L187.718 76.316V76.904H184.37V76.316L185.234 76.184V68.264L184.358 68.048V67.4L186.062 67.184H186.086L186.338 67.4V68.108C186.578 67.844 186.874 67.62 187.226 67.436C187.586 67.252 187.986 67.16 188.426 67.16C188.898 67.16 189.33 67.276 189.722 67.508C190.122 67.74 190.442 68.1 190.682 68.588C190.922 69.076 191.042 69.692 191.042 70.436ZM187.934 68C187.63 68 187.346 68.064 187.082 68.192C186.818 68.32 186.614 68.46 186.47 68.612V73.136C186.526 73.232 186.666 73.32 186.89 73.4C187.122 73.472 187.374 73.508 187.646 73.508C188.262 73.508 188.758 73.264 189.134 72.776C189.518 72.288 189.71 71.552 189.71 70.568C189.71 69.704 189.542 69.06 189.206 68.636C188.878 68.212 188.454 68 187.934 68ZM192.085 70.652C192.085 69.932 192.233 69.308 192.529 68.78C192.825 68.252 193.213 67.852 193.693 67.58C194.181 67.3 194.701 67.16 195.253 67.16C196.261 67.16 197.017 67.48 197.521 68.12C198.033 68.76 198.289 69.6 198.289 70.64C198.289 71.368 198.141 71.996 197.845 72.524C197.549 73.052 197.157 73.452 196.669 73.724C196.189 73.996 195.673 74.132 195.121 74.132C194.113 74.132 193.353 73.812 192.841 73.172C192.337 72.532 192.085 71.692 192.085 70.652ZM195.193 73.448C195.745 73.448 196.169 73.22 196.465 72.764C196.761 72.308 196.909 71.632 196.909 70.736C196.909 69.848 196.773 69.144 196.501 68.624C196.229 68.104 195.793 67.844 195.193 67.844C194.641 67.844 194.213 68.072 193.909 68.528C193.613 68.984 193.465 69.66 193.465 70.556C193.465 71.444 193.605 72.148 193.885 72.668C194.165 73.188 194.601 73.448 195.193 73.448ZM201.558 67.316C202.326 67.292 202.726 67.28 202.758 67.28C203.766 67.28 204.47 67.412 204.87 67.676C205.27 67.932 205.47 68.316 205.47 68.828C205.47 69.212 205.354 69.536 205.122 69.8C204.898 70.056 204.578 70.244 204.162 70.364C204.754 70.412 205.21 70.584 205.53 70.88C205.85 71.176 206.01 71.532 206.01 71.948C206.01 72.628 205.75 73.152 205.23 73.52C204.71 73.88 203.862 74.06 202.686 74.06C202.454 74.06 202.234 74.056 202.026 74.048C201.826 74.04 201.654 74.032 201.51 74.024L200.694 74H199.47V73.412L200.31 73.268V68.096L199.482 67.928V67.34H200.802L201.558 67.316ZM202.698 70.16C203.218 70.16 203.598 70.044 203.838 69.812C204.086 69.58 204.21 69.28 204.21 68.912C204.21 68.592 204.094 68.352 203.862 68.192C203.63 68.024 203.226 67.94 202.65 67.94H201.534V70.16H202.698ZM201.534 73.292C201.614 73.316 201.77 73.34 202.002 73.364C202.234 73.38 202.438 73.388 202.614 73.388C203.35 73.388 203.87 73.288 204.174 73.088C204.478 72.888 204.63 72.556 204.63 72.092C204.63 71.652 204.49 71.324 204.21 71.108C203.93 70.892 203.49 70.784 202.89 70.784H201.534V73.292ZM210.002 74.132C209.034 74.132 208.294 73.816 207.782 73.184C207.278 72.552 207.026 71.708 207.026 70.652C207.026 69.956 207.158 69.344 207.422 68.816C207.686 68.288 208.054 67.88 208.526 67.592C209.006 67.304 209.55 67.16 210.158 67.16C210.902 67.16 211.478 67.368 211.886 67.784C212.302 68.192 212.522 68.78 212.546 69.548C212.546 70.036 212.518 70.408 212.462 70.664H208.334C208.35 71.456 208.534 72.096 208.886 72.584C209.238 73.064 209.738 73.304 210.386 73.304C210.706 73.304 211.038 73.248 211.382 73.136C211.734 73.016 212.006 72.876 212.198 72.716L212.426 73.244C212.194 73.484 211.85 73.692 211.394 73.868C210.938 74.044 210.474 74.132 210.002 74.132ZM211.226 70.028C211.25 69.86 211.262 69.688 211.262 69.512C211.254 68.992 211.142 68.584 210.926 68.288C210.718 67.984 210.386 67.832 209.93 67.832C209.466 67.832 209.094 68 208.814 68.336C208.542 68.672 208.386 69.236 208.346 70.028H211.226ZM216.733 67.34V67.928L215.737 68.096V70.196H219.049V68.096L218.041 67.928V67.34H221.161V67.928L220.285 68.096V73.304L221.209 73.412V74H218.017V73.412L219.049 73.304V70.892H215.737V73.304L216.769 73.412V74H213.589V73.412L214.501 73.304V68.096L213.601 67.928V67.34H216.733ZM225.776 69.968C227.488 69.968 228.344 70.636 228.344 71.972C228.344 72.676 228.112 73.212 227.648 73.58C227.184 73.94 226.524 74.12 225.668 74.12C225.564 74.12 225.396 74.112 225.164 74.096C224.932 74.08 224.748 74.068 224.612 74.06C224.172 74.02 223.844 74 223.628 74H222.152V73.436L223.208 73.304V68.096L222.224 67.94V67.34H225.62V67.94L224.432 68.096V69.98L225.776 69.968ZM224.432 73.376C224.752 73.432 225.104 73.46 225.488 73.46C226.52 73.46 227.036 72.996 227.036 72.068C227.036 71.58 226.904 71.224 226.64 71C226.376 70.776 225.972 70.664 225.428 70.664H224.432V73.376Z" fill="white"/>
<path id="Rectangle 43" d="M308 43C308 31.9543 316.954 23 328 23H334C345.046 23 354 31.9543 354 43V69.6602L308 75V43Z" fill="white"/>
</g>
</svg>
