<svg width="440" height="139" viewBox="0 0 440 139" fill="none" xmlns="http://www.w3.org/2000/svg">
<g id="Group 17" filter="url(#filter0_d_152_530)">
<path id="Rectangle 14" d="M5 70.4001L435 5.80718V68.5999L5 133.193V70.4001ZM1.55437 133.71C1.55627 133.71 1.55813 133.71 1.56003 133.71L1.55437 133.71Z" fill="#C4C4C4" stroke="white" stroke-width="10"/>
<path id="15 &#209;&#131;&#209;&#128;&#208;&#190;&#208;&#178;&#208;&#181;&#208;&#189;&#209;&#140;" d="M189.904 66.808C189.736 66.872 189.472 66.948 189.112 67.036C188.752 67.124 188.46 67.184 188.236 67.216L188.116 66.544C188.524 66.456 188.94 66.308 189.364 66.1C189.796 65.892 190.156 65.664 190.444 65.416H190.456L191.188 65.536V72.304L192.676 72.412V73H188.356V72.412L189.904 72.304V66.808ZM194.062 74.272C194.286 74.296 194.526 74.308 194.782 74.308C195.35 74.308 195.87 74.192 196.342 73.96C196.814 73.728 197.186 73.408 197.458 73C197.73 72.592 197.866 72.128 197.866 71.608C197.866 70.32 197.27 69.676 196.078 69.676C195.814 69.676 195.518 69.716 195.19 69.796C194.87 69.868 194.59 69.956 194.35 70.06L194.026 69.832L194.614 65.512H198.034L198.154 65.284H198.898L198.682 66.52H195.502L194.95 69.316C195.166 69.204 195.442 69.104 195.778 69.016C196.114 68.928 196.45 68.884 196.786 68.884C197.554 68.884 198.158 69.1 198.598 69.532C199.038 69.964 199.258 70.592 199.258 71.416C199.258 72.048 199.074 72.632 198.706 73.168C198.346 73.704 197.834 74.132 197.17 74.452C196.506 74.772 195.75 74.932 194.902 74.932C194.558 74.932 194.278 74.904 194.062 74.848V74.272ZM204.418 75.988C204.282 75.988 204.146 75.98 204.01 75.964C203.882 75.948 203.79 75.924 203.734 75.892V74.848C203.782 74.88 203.874 74.904 204.01 74.92C204.154 74.936 204.29 74.944 204.418 74.944C204.802 74.944 205.138 74.808 205.426 74.536C205.722 74.272 206.006 73.76 206.278 73H205.702L203.422 67.06L202.87 66.904V66.34H205.762V66.904L204.838 67.048L206.014 70.588L206.566 72.34L207.082 70.576L208.15 67.048L207.346 66.904V66.34H209.758V66.904L209.158 67.048C207.982 70.648 207.29 72.692 207.082 73.18C206.81 73.868 206.562 74.404 206.338 74.788C206.114 75.18 205.85 75.476 205.546 75.676C205.242 75.884 204.866 75.988 204.418 75.988ZM216.805 69.436C216.805 70.116 216.665 70.74 216.385 71.308C216.105 71.868 215.705 72.312 215.185 72.64C214.665 72.968 214.057 73.132 213.361 73.132C213.169 73.132 212.961 73.116 212.737 73.084C212.513 73.052 212.333 73.012 212.197 72.964L212.233 73.972V75.184L213.481 75.316V75.904H210.133V75.316L210.997 75.184V67.264L210.121 67.048V66.4L211.825 66.184H211.849L212.101 66.4V67.108C212.341 66.844 212.637 66.62 212.989 66.436C213.349 66.252 213.749 66.16 214.189 66.16C214.661 66.16 215.093 66.276 215.485 66.508C215.885 66.74 216.205 67.1 216.445 67.588C216.685 68.076 216.805 68.692 216.805 69.436ZM213.697 67C213.393 67 213.109 67.064 212.845 67.192C212.581 67.32 212.377 67.46 212.233 67.612V72.136C212.289 72.232 212.429 72.32 212.653 72.4C212.885 72.472 213.137 72.508 213.409 72.508C214.025 72.508 214.521 72.264 214.897 71.776C215.281 71.288 215.473 70.552 215.473 69.568C215.473 68.704 215.305 68.06 214.969 67.636C214.641 67.212 214.217 67 213.697 67ZM217.849 69.652C217.849 68.932 217.997 68.308 218.293 67.78C218.589 67.252 218.977 66.852 219.457 66.58C219.945 66.3 220.465 66.16 221.017 66.16C222.025 66.16 222.781 66.48 223.285 67.12C223.797 67.76 224.053 68.6 224.053 69.64C224.053 70.368 223.905 70.996 223.609 71.524C223.313 72.052 222.921 72.452 222.433 72.724C221.953 72.996 221.437 73.132 220.885 73.132C219.877 73.132 219.117 72.812 218.605 72.172C218.101 71.532 217.849 70.692 217.849 69.652ZM220.957 72.448C221.509 72.448 221.933 72.22 222.229 71.764C222.525 71.308 222.673 70.632 222.673 69.736C222.673 68.848 222.537 68.144 222.265 67.624C221.993 67.104 221.557 66.844 220.957 66.844C220.405 66.844 219.977 67.072 219.673 67.528C219.377 67.984 219.229 68.66 219.229 69.556C219.229 70.444 219.369 71.148 219.649 71.668C219.929 72.188 220.365 72.448 220.957 72.448ZM227.321 66.316C228.089 66.292 228.489 66.28 228.521 66.28C229.529 66.28 230.233 66.412 230.633 66.676C231.033 66.932 231.233 67.316 231.233 67.828C231.233 68.212 231.117 68.536 230.885 68.8C230.661 69.056 230.341 69.244 229.925 69.364C230.517 69.412 230.973 69.584 231.293 69.88C231.613 70.176 231.773 70.532 231.773 70.948C231.773 71.628 231.513 72.152 230.993 72.52C230.473 72.88 229.625 73.06 228.449 73.06C228.217 73.06 227.997 73.056 227.789 73.048C227.589 73.04 227.417 73.032 227.273 73.024L226.457 73H225.233V72.412L226.073 72.268V67.096L225.245 66.928V66.34H226.565L227.321 66.316ZM228.461 69.16C228.981 69.16 229.361 69.044 229.601 68.812C229.849 68.58 229.973 68.28 229.973 67.912C229.973 67.592 229.857 67.352 229.625 67.192C229.393 67.024 228.989 66.94 228.413 66.94H227.297V69.16H228.461ZM227.297 72.292C227.377 72.316 227.533 72.34 227.765 72.364C227.997 72.38 228.201 72.388 228.377 72.388C229.113 72.388 229.633 72.288 229.937 72.088C230.241 71.888 230.393 71.556 230.393 71.092C230.393 70.652 230.253 70.324 229.973 70.108C229.693 69.892 229.253 69.784 228.653 69.784H227.297V72.292ZM235.765 73.132C234.797 73.132 234.057 72.816 233.545 72.184C233.041 71.552 232.789 70.708 232.789 69.652C232.789 68.956 232.921 68.344 233.185 67.816C233.449 67.288 233.817 66.88 234.289 66.592C234.769 66.304 235.313 66.16 235.921 66.16C236.665 66.16 237.241 66.368 237.649 66.784C238.065 67.192 238.285 67.78 238.309 68.548C238.309 69.036 238.281 69.408 238.225 69.664H234.097C234.113 70.456 234.297 71.096 234.649 71.584C235.001 72.064 235.501 72.304 236.149 72.304C236.469 72.304 236.801 72.248 237.145 72.136C237.497 72.016 237.769 71.876 237.961 71.716L238.189 72.244C237.957 72.484 237.613 72.692 237.157 72.868C236.701 73.044 236.237 73.132 235.765 73.132ZM236.989 69.028C237.013 68.86 237.025 68.688 237.025 68.512C237.017 67.992 236.905 67.584 236.689 67.288C236.481 66.984 236.149 66.832 235.693 66.832C235.229 66.832 234.857 67 234.577 67.336C234.305 67.672 234.149 68.236 234.109 69.028H236.989ZM242.497 66.34V66.928L241.501 67.096V69.196H244.813V67.096L243.805 66.928V66.34H246.925V66.928L246.049 67.096V72.304L246.973 72.412V73H243.781V72.412L244.813 72.304V69.892H241.501V72.304L242.533 72.412V73H239.353V72.412L240.265 72.304V67.096L239.365 66.928V66.34H242.497ZM251.54 68.968C253.252 68.968 254.108 69.636 254.108 70.972C254.108 71.676 253.876 72.212 253.412 72.58C252.948 72.94 252.288 73.12 251.432 73.12C251.328 73.12 251.16 73.112 250.928 73.096C250.696 73.08 250.512 73.068 250.376 73.06C249.936 73.02 249.608 73 249.392 73H247.916V72.436L248.972 72.304V67.096L247.988 66.94V66.34H251.384V66.94L250.196 67.096V68.98L251.54 68.968ZM250.196 72.376C250.516 72.432 250.868 72.46 251.252 72.46C252.284 72.46 252.8 71.996 252.8 71.068C252.8 70.58 252.668 70.224 252.404 70C252.14 69.776 251.736 69.664 251.192 69.664H250.196V72.376Z" fill="white"/>
<path id="Rectangle 38" d="M333 47C333 35.9543 341.954 27 353 27H359C370.046 27 379 35.9543 379 47V73.6602L333 79V47Z" fill="white"/>
</g>
<defs>
<filter id="filter0_d_152_530" x="-4" y="0.322266" width="448" height="146.355" filterUnits="userSpaceOnUse" color-interpolation-filters="sRGB">
<feFlood flood-opacity="0" result="BackgroundImageFix"/>
<feColorMatrix in="SourceAlpha" type="matrix" values="0 0 0 0 0 0 0 0 0 0 0 0 0 0 0 0 0 0 127 0" result="hardAlpha"/>
<feOffset dy="4"/>
<feGaussianBlur stdDeviation="2"/>
<feComposite in2="hardAlpha" operator="out"/>
<feColorMatrix type="matrix" values="0 0 0 0 0 0 0 0 0 0 0 0 0 0 0 0 0 0 0.25 0"/>
<feBlend mode="normal" in2="BackgroundImageFix" result="effect1_dropShadow_152_530"/>
<feBlend mode="normal" in="SourceGraphic" in2="effect1_dropShadow_152_530" result="shape"/>
</filter>
</defs>
</svg>
