<svg width="480" height="138" viewBox="0 0 480 138" fill="none" xmlns="http://www.w3.org/2000/svg">
<g id="Group 13">
<path id="Rectangle 10" d="M5 69.9826L475 5.73005V68.0174L5 132.27V69.9826ZM1.59367 132.736C1.59494 132.735 1.59619 132.735 1.59746 132.735L1.59367 132.736Z" fill="#C4C4C4" stroke="white" stroke-width="10"/>
<path id="11 &#209;&#131;&#209;&#128;&#208;&#190;&#208;&#178;&#208;&#181;&#208;&#189;&#209;&#140;" d="M210.824 66.808C210.656 66.872 210.392 66.948 210.032 67.036C209.672 67.124 209.38 67.184 209.156 67.216L209.036 66.544C209.444 66.456 209.86 66.308 210.284 66.1C210.716 65.892 211.076 65.664 211.364 65.416H211.376L212.108 65.536V72.304L213.596 72.412V73H209.276V72.412L210.824 72.304V66.808ZM216.11 66.808C215.942 66.872 215.678 66.948 215.318 67.036C214.958 67.124 214.666 67.184 214.442 67.216L214.322 66.544C214.73 66.456 215.146 66.308 215.57 66.1C216.002 65.892 216.362 65.664 216.65 65.416H216.662L217.394 65.536V72.304L218.882 72.412V73H214.562V72.412L216.11 72.304V66.808ZM223.498 75.988C223.362 75.988 223.226 75.98 223.09 75.964C222.962 75.948 222.87 75.924 222.814 75.892V74.848C222.862 74.88 222.954 74.904 223.09 74.92C223.234 74.936 223.37 74.944 223.498 74.944C223.882 74.944 224.218 74.808 224.506 74.536C224.802 74.272 225.086 73.76 225.358 73H224.782L222.502 67.06L221.95 66.904V66.34H224.842V66.904L223.918 67.048L225.094 70.588L225.646 72.34L226.162 70.576L227.23 67.048L226.426 66.904V66.34H228.838V66.904L228.238 67.048C227.062 70.648 226.37 72.692 226.162 73.18C225.89 73.868 225.642 74.404 225.418 74.788C225.194 75.18 224.93 75.476 224.626 75.676C224.322 75.884 223.946 75.988 223.498 75.988ZM235.886 69.436C235.886 70.116 235.746 70.74 235.466 71.308C235.186 71.868 234.786 72.312 234.266 72.64C233.746 72.968 233.138 73.132 232.442 73.132C232.25 73.132 232.042 73.116 231.818 73.084C231.594 73.052 231.414 73.012 231.278 72.964L231.314 73.972V75.184L232.562 75.316V75.904H229.214V75.316L230.078 75.184V67.264L229.202 67.048V66.4L230.906 66.184H230.93L231.182 66.4V67.108C231.422 66.844 231.718 66.62 232.07 66.436C232.43 66.252 232.83 66.16 233.27 66.16C233.742 66.16 234.174 66.276 234.566 66.508C234.966 66.74 235.286 67.1 235.526 67.588C235.766 68.076 235.886 68.692 235.886 69.436ZM232.778 67C232.474 67 232.19 67.064 231.926 67.192C231.662 67.32 231.458 67.46 231.314 67.612V72.136C231.37 72.232 231.51 72.32 231.734 72.4C231.966 72.472 232.218 72.508 232.49 72.508C233.106 72.508 233.602 72.264 233.978 71.776C234.362 71.288 234.554 70.552 234.554 69.568C234.554 68.704 234.386 68.06 234.05 67.636C233.722 67.212 233.298 67 232.778 67ZM236.929 69.652C236.929 68.932 237.077 68.308 237.373 67.78C237.669 67.252 238.057 66.852 238.537 66.58C239.025 66.3 239.545 66.16 240.097 66.16C241.105 66.16 241.861 66.48 242.365 67.12C242.877 67.76 243.133 68.6 243.133 69.64C243.133 70.368 242.985 70.996 242.689 71.524C242.393 72.052 242.001 72.452 241.513 72.724C241.033 72.996 240.517 73.132 239.965 73.132C238.957 73.132 238.197 72.812 237.685 72.172C237.181 71.532 236.929 70.692 236.929 69.652ZM240.037 72.448C240.589 72.448 241.013 72.22 241.309 71.764C241.605 71.308 241.753 70.632 241.753 69.736C241.753 68.848 241.617 68.144 241.345 67.624C241.073 67.104 240.637 66.844 240.037 66.844C239.485 66.844 239.057 67.072 238.753 67.528C238.457 67.984 238.309 68.66 238.309 69.556C238.309 70.444 238.449 71.148 238.729 71.668C239.009 72.188 239.445 72.448 240.037 72.448ZM246.401 66.316C247.169 66.292 247.569 66.28 247.601 66.28C248.609 66.28 249.313 66.412 249.713 66.676C250.113 66.932 250.313 67.316 250.313 67.828C250.313 68.212 250.197 68.536 249.965 68.8C249.741 69.056 249.421 69.244 249.005 69.364C249.597 69.412 250.053 69.584 250.373 69.88C250.693 70.176 250.853 70.532 250.853 70.948C250.853 71.628 250.593 72.152 250.073 72.52C249.553 72.88 248.705 73.06 247.529 73.06C247.297 73.06 247.077 73.056 246.869 73.048C246.669 73.04 246.497 73.032 246.353 73.024L245.537 73H244.313V72.412L245.153 72.268V67.096L244.325 66.928V66.34H245.645L246.401 66.316ZM247.541 69.16C248.061 69.16 248.441 69.044 248.681 68.812C248.929 68.58 249.053 68.28 249.053 67.912C249.053 67.592 248.937 67.352 248.705 67.192C248.473 67.024 248.069 66.94 247.493 66.94H246.377V69.16H247.541ZM246.377 72.292C246.457 72.316 246.613 72.34 246.845 72.364C247.077 72.38 247.281 72.388 247.457 72.388C248.193 72.388 248.713 72.288 249.017 72.088C249.321 71.888 249.473 71.556 249.473 71.092C249.473 70.652 249.333 70.324 249.053 70.108C248.773 69.892 248.333 69.784 247.733 69.784H246.377V72.292ZM254.846 73.132C253.878 73.132 253.138 72.816 252.626 72.184C252.122 71.552 251.87 70.708 251.87 69.652C251.87 68.956 252.002 68.344 252.266 67.816C252.53 67.288 252.898 66.88 253.37 66.592C253.85 66.304 254.394 66.16 255.002 66.16C255.746 66.16 256.322 66.368 256.73 66.784C257.146 67.192 257.366 67.78 257.39 68.548C257.39 69.036 257.362 69.408 257.306 69.664H253.178C253.194 70.456 253.378 71.096 253.73 71.584C254.082 72.064 254.582 72.304 255.23 72.304C255.55 72.304 255.882 72.248 256.226 72.136C256.578 72.016 256.85 71.876 257.042 71.716L257.27 72.244C257.038 72.484 256.694 72.692 256.238 72.868C255.782 73.044 255.318 73.132 254.846 73.132ZM256.07 69.028C256.094 68.86 256.106 68.688 256.106 68.512C256.098 67.992 255.986 67.584 255.77 67.288C255.562 66.984 255.23 66.832 254.774 66.832C254.31 66.832 253.938 67 253.658 67.336C253.386 67.672 253.23 68.236 253.19 69.028H256.07ZM261.577 66.34V66.928L260.581 67.096V69.196H263.893V67.096L262.885 66.928V66.34H266.005V66.928L265.129 67.096V72.304L266.053 72.412V73H262.861V72.412L263.893 72.304V69.892H260.581V72.304L261.613 72.412V73H258.433V72.412L259.345 72.304V67.096L258.445 66.928V66.34H261.577ZM270.62 68.968C272.332 68.968 273.188 69.636 273.188 70.972C273.188 71.676 272.956 72.212 272.492 72.58C272.028 72.94 271.368 73.12 270.512 73.12C270.408 73.12 270.24 73.112 270.008 73.096C269.776 73.08 269.592 73.068 269.456 73.06C269.016 73.02 268.688 73 268.472 73H266.996V72.436L268.052 72.304V67.096L267.068 66.94V66.34H270.464V66.94L269.276 67.096V68.98L270.62 68.968ZM269.276 72.376C269.596 72.432 269.948 72.46 270.332 72.46C271.364 72.46 271.88 71.996 271.88 71.068C271.88 70.58 271.748 70.224 271.484 70C271.22 69.776 270.816 69.664 270.272 69.664H269.276V72.376Z" fill="white"/>
<path id="Rectangle 34" d="M353 47C353 35.9543 361.954 27 373 27H379C390.046 27 399 35.9543 399 47V73.6602L353 79V47Z" fill="white"/>
</g>
</svg>
