<svg width="450" height="138" viewBox="0 0 450 138" fill="none" xmlns="http://www.w3.org/2000/svg">
<g id="Group 16">
<path id="Rectangle 13" d="M5 69.9434L445 5.78199V68.0566L5 132.218V69.9434ZM1.56712 132.719C1.56854 132.718 1.56994 132.718 1.57137 132.718L1.56712 132.719ZM2.43289 70.3177L2.43827 70.3169C2.43647 70.3172 2.43467 70.3175 2.43287 70.3177L1.99999 67.3491L2.43289 70.3177ZM448.428 5.28206L448.433 5.2814L448 2.31279L448.433 5.2814C448.431 5.28162 448.43 5.28184 448.428 5.28206Z" fill="#C4C4C4" stroke="white" stroke-width="10"/>
<path id="14 &#209;&#131;&#209;&#128;&#208;&#190;&#208;&#178;&#208;&#181;&#208;&#189;&#209;&#140;" d="M194.606 65.808C194.438 65.872 194.174 65.948 193.814 66.036C193.454 66.124 193.162 66.184 192.938 66.216L192.818 65.544C193.226 65.456 193.642 65.308 194.066 65.1C194.498 64.892 194.858 64.664 195.146 64.416H195.158L195.89 64.536V71.304L197.378 71.412V72H193.058V71.412L194.606 71.304V65.808ZM202.375 72H198.391L198.079 71.46C198.551 70.564 199.131 69.38 199.819 67.908C200.507 66.428 201.123 65.072 201.667 63.84H201.979L202.939 64.356L199.699 70.596L199.219 71.328L202.375 71.16L202.423 68.82L203.443 68.736V71.1L205.135 71.016V72H203.443V73.932H202.375V72ZM209.717 74.988C209.581 74.988 209.445 74.98 209.309 74.964C209.181 74.948 209.089 74.924 209.033 74.892V73.848C209.081 73.88 209.173 73.904 209.309 73.92C209.453 73.936 209.589 73.944 209.717 73.944C210.101 73.944 210.437 73.808 210.725 73.536C211.021 73.272 211.305 72.76 211.577 72H211.001L208.721 66.06L208.169 65.904V65.34H211.061V65.904L210.137 66.048L211.313 69.588L211.865 71.34L212.381 69.576L213.449 66.048L212.645 65.904V65.34H215.057V65.904L214.457 66.048C213.281 69.648 212.589 71.692 212.381 72.18C212.109 72.868 211.861 73.404 211.637 73.788C211.413 74.18 211.149 74.476 210.845 74.676C210.541 74.884 210.165 74.988 209.717 74.988ZM222.104 68.436C222.104 69.116 221.964 69.74 221.684 70.308C221.404 70.868 221.004 71.312 220.484 71.64C219.964 71.968 219.356 72.132 218.66 72.132C218.468 72.132 218.26 72.116 218.036 72.084C217.812 72.052 217.632 72.012 217.496 71.964L217.532 72.972V74.184L218.78 74.316V74.904H215.432V74.316L216.296 74.184V66.264L215.42 66.048V65.4L217.124 65.184H217.148L217.4 65.4V66.108C217.64 65.844 217.936 65.62 218.288 65.436C218.648 65.252 219.048 65.16 219.488 65.16C219.96 65.16 220.392 65.276 220.784 65.508C221.184 65.74 221.504 66.1 221.744 66.588C221.984 67.076 222.104 67.692 222.104 68.436ZM218.996 66C218.692 66 218.408 66.064 218.144 66.192C217.88 66.32 217.676 66.46 217.532 66.612V71.136C217.588 71.232 217.728 71.32 217.952 71.4C218.184 71.472 218.436 71.508 218.708 71.508C219.324 71.508 219.82 71.264 220.196 70.776C220.58 70.288 220.772 69.552 220.772 68.568C220.772 67.704 220.604 67.06 220.268 66.636C219.94 66.212 219.516 66 218.996 66ZM223.147 68.652C223.147 67.932 223.295 67.308 223.591 66.78C223.887 66.252 224.275 65.852 224.755 65.58C225.243 65.3 225.763 65.16 226.315 65.16C227.323 65.16 228.079 65.48 228.583 66.12C229.095 66.76 229.351 67.6 229.351 68.64C229.351 69.368 229.203 69.996 228.907 70.524C228.611 71.052 228.219 71.452 227.731 71.724C227.251 71.996 226.735 72.132 226.183 72.132C225.175 72.132 224.415 71.812 223.903 71.172C223.399 70.532 223.147 69.692 223.147 68.652ZM226.255 71.448C226.807 71.448 227.231 71.22 227.527 70.764C227.823 70.308 227.971 69.632 227.971 68.736C227.971 67.848 227.835 67.144 227.563 66.624C227.291 66.104 226.855 65.844 226.255 65.844C225.703 65.844 225.275 66.072 224.971 66.528C224.675 66.984 224.527 67.66 224.527 68.556C224.527 69.444 224.667 70.148 224.947 70.668C225.227 71.188 225.663 71.448 226.255 71.448ZM232.62 65.316C233.388 65.292 233.788 65.28 233.82 65.28C234.828 65.28 235.532 65.412 235.932 65.676C236.332 65.932 236.532 66.316 236.532 66.828C236.532 67.212 236.416 67.536 236.184 67.8C235.96 68.056 235.64 68.244 235.224 68.364C235.816 68.412 236.272 68.584 236.592 68.88C236.912 69.176 237.072 69.532 237.072 69.948C237.072 70.628 236.812 71.152 236.292 71.52C235.772 71.88 234.924 72.06 233.748 72.06C233.516 72.06 233.296 72.056 233.088 72.048C232.888 72.04 232.716 72.032 232.572 72.024L231.756 72H230.532V71.412L231.372 71.268V66.096L230.544 65.928V65.34H231.864L232.62 65.316ZM233.76 68.16C234.28 68.16 234.66 68.044 234.9 67.812C235.148 67.58 235.272 67.28 235.272 66.912C235.272 66.592 235.156 66.352 234.924 66.192C234.692 66.024 234.288 65.94 233.712 65.94H232.596V68.16H233.76ZM232.596 71.292C232.676 71.316 232.832 71.34 233.064 71.364C233.296 71.38 233.5 71.388 233.676 71.388C234.412 71.388 234.932 71.288 235.236 71.088C235.54 70.888 235.692 70.556 235.692 70.092C235.692 69.652 235.552 69.324 235.272 69.108C234.992 68.892 234.552 68.784 233.952 68.784H232.596V71.292ZM241.064 72.132C240.096 72.132 239.356 71.816 238.844 71.184C238.34 70.552 238.088 69.708 238.088 68.652C238.088 67.956 238.22 67.344 238.484 66.816C238.748 66.288 239.116 65.88 239.588 65.592C240.068 65.304 240.612 65.16 241.22 65.16C241.964 65.16 242.54 65.368 242.948 65.784C243.364 66.192 243.584 66.78 243.608 67.548C243.608 68.036 243.58 68.408 243.524 68.664H239.396C239.412 69.456 239.596 70.096 239.948 70.584C240.3 71.064 240.8 71.304 241.448 71.304C241.768 71.304 242.1 71.248 242.444 71.136C242.796 71.016 243.068 70.876 243.26 70.716L243.488 71.244C243.256 71.484 242.912 71.692 242.456 71.868C242 72.044 241.536 72.132 241.064 72.132ZM242.288 68.028C242.312 67.86 242.324 67.688 242.324 67.512C242.316 66.992 242.204 66.584 241.988 66.288C241.78 65.984 241.448 65.832 240.992 65.832C240.528 65.832 240.156 66 239.876 66.336C239.604 66.672 239.448 67.236 239.408 68.028H242.288ZM247.796 65.34V65.928L246.8 66.096V68.196H250.112V66.096L249.104 65.928V65.34H252.224V65.928L251.348 66.096V71.304L252.272 71.412V72H249.08V71.412L250.112 71.304V68.892H246.8V71.304L247.832 71.412V72H244.652V71.412L245.564 71.304V66.096L244.664 65.928V65.34H247.796ZM256.839 67.968C258.551 67.968 259.407 68.636 259.407 69.972C259.407 70.676 259.175 71.212 258.711 71.58C258.247 71.94 257.587 72.12 256.731 72.12C256.627 72.12 256.459 72.112 256.227 72.096C255.995 72.08 255.811 72.068 255.675 72.06C255.235 72.02 254.907 72 254.691 72H253.215V71.436L254.271 71.304V66.096L253.287 65.94V65.34H256.683V65.94L255.495 66.096V67.98L256.839 67.968ZM255.495 71.376C255.815 71.432 256.167 71.46 256.551 71.46C257.583 71.46 258.099 70.996 258.099 70.068C258.099 69.58 257.967 69.224 257.703 69C257.439 68.776 257.035 68.664 256.491 68.664H255.495V71.376Z" fill="white"/>
<path id="Rectangle 37" d="M338 47C338 35.9543 346.954 27 358 27H364C375.046 27 384 35.9543 384 47V73.6602L338 79V47Z" fill="white"/>
</g>
</svg>
