<svg width="430" height="138" viewBox="0 0 430 138" fill="none" xmlns="http://www.w3.org/2000/svg">
<g id="&#208;&#178;&#209;&#133;&#208;&#190;&#208;&#180;">
<g id="Group 18">
<path id="Rectangle 15" d="M5 69.9145L425 5.8209V68.0855L5 132.179V69.9145Z" fill="#C4C4C4" stroke="white" stroke-width="10"/>
<path id="16 &#209;&#131;&#209;&#128;&#208;&#190;&#208;&#178;&#208;&#181;&#208;&#189;&#209;&#140;" d="M184.483 67.808C184.315 67.872 184.051 67.948 183.691 68.036C183.331 68.124 183.039 68.184 182.815 68.216L182.695 67.544C183.103 67.456 183.519 67.308 183.943 67.1C184.375 66.892 184.735 66.664 185.023 66.416H185.035L185.767 66.536V73.304L187.255 73.412V74H182.935V73.412L184.483 73.304V67.808ZM191.532 74.132C190.884 74.132 190.324 73.972 189.852 73.652C189.388 73.324 189.032 72.884 188.784 72.332C188.544 71.772 188.424 71.152 188.424 70.472C188.424 69.464 188.668 68.536 189.156 67.688C189.644 66.832 190.268 66.132 191.028 65.588C191.796 65.036 192.58 64.696 193.38 64.568L193.656 65.084C192.72 65.38 191.932 65.876 191.292 66.572C190.652 67.26 190.216 68.044 189.984 68.924C190.184 68.692 190.46 68.496 190.812 68.336C191.164 68.168 191.572 68.084 192.036 68.084C192.868 68.084 193.504 68.328 193.944 68.816C194.392 69.304 194.616 69.98 194.616 70.844C194.616 71.428 194.492 71.972 194.244 72.476C194.004 72.972 193.648 73.372 193.176 73.676C192.712 73.98 192.164 74.132 191.532 74.132ZM191.676 68.828C191.244 68.828 190.86 68.928 190.524 69.128C190.188 69.32 189.956 69.528 189.828 69.752C189.812 69.944 189.804 70.1 189.804 70.22C189.78 71.188 189.908 71.98 190.188 72.596C190.468 73.212 190.94 73.52 191.604 73.52C191.972 73.52 192.284 73.408 192.54 73.184C192.796 72.952 192.984 72.652 193.104 72.284C193.232 71.916 193.296 71.528 193.296 71.12C193.296 70.328 193.148 69.748 192.852 69.38C192.564 69.012 192.172 68.828 191.676 68.828ZM199.84 76.988C199.704 76.988 199.568 76.98 199.432 76.964C199.304 76.948 199.212 76.924 199.156 76.892V75.848C199.204 75.88 199.296 75.904 199.432 75.92C199.576 75.936 199.712 75.944 199.84 75.944C200.224 75.944 200.56 75.808 200.848 75.536C201.144 75.272 201.428 74.76 201.7 74H201.124L198.844 68.06L198.292 67.904V67.34H201.184V67.904L200.26 68.048L201.436 71.588L201.988 73.34L202.504 71.576L203.572 68.048L202.768 67.904V67.34H205.18V67.904L204.58 68.048C203.404 71.648 202.712 73.692 202.504 74.18C202.232 74.868 201.984 75.404 201.76 75.788C201.536 76.18 201.272 76.476 200.968 76.676C200.664 76.884 200.288 76.988 199.84 76.988ZM212.227 70.436C212.227 71.116 212.087 71.74 211.807 72.308C211.527 72.868 211.127 73.312 210.607 73.64C210.087 73.968 209.479 74.132 208.783 74.132C208.591 74.132 208.383 74.116 208.159 74.084C207.935 74.052 207.755 74.012 207.619 73.964L207.655 74.972V76.184L208.903 76.316V76.904H205.555V76.316L206.419 76.184V68.264L205.543 68.048V67.4L207.247 67.184H207.271L207.523 67.4V68.108C207.763 67.844 208.059 67.62 208.411 67.436C208.771 67.252 209.171 67.16 209.611 67.16C210.083 67.16 210.515 67.276 210.907 67.508C211.307 67.74 211.627 68.1 211.867 68.588C212.107 69.076 212.227 69.692 212.227 70.436ZM209.119 68C208.815 68 208.531 68.064 208.267 68.192C208.003 68.32 207.799 68.46 207.655 68.612V73.136C207.711 73.232 207.851 73.32 208.075 73.4C208.307 73.472 208.559 73.508 208.831 73.508C209.447 73.508 209.943 73.264 210.319 72.776C210.703 72.288 210.895 71.552 210.895 70.568C210.895 69.704 210.727 69.06 210.391 68.636C210.063 68.212 209.639 68 209.119 68ZM213.27 70.652C213.27 69.932 213.418 69.308 213.714 68.78C214.01 68.252 214.398 67.852 214.878 67.58C215.366 67.3 215.886 67.16 216.438 67.16C217.446 67.16 218.202 67.48 218.706 68.12C219.218 68.76 219.474 69.6 219.474 70.64C219.474 71.368 219.326 71.996 219.03 72.524C218.734 73.052 218.342 73.452 217.854 73.724C217.374 73.996 216.858 74.132 216.306 74.132C215.298 74.132 214.538 73.812 214.026 73.172C213.522 72.532 213.27 71.692 213.27 70.652ZM216.378 73.448C216.93 73.448 217.354 73.22 217.65 72.764C217.946 72.308 218.094 71.632 218.094 70.736C218.094 69.848 217.958 69.144 217.686 68.624C217.414 68.104 216.978 67.844 216.378 67.844C215.826 67.844 215.398 68.072 215.094 68.528C214.798 68.984 214.65 69.66 214.65 70.556C214.65 71.444 214.79 72.148 215.07 72.668C215.35 73.188 215.786 73.448 216.378 73.448ZM222.743 67.316C223.511 67.292 223.911 67.28 223.943 67.28C224.951 67.28 225.655 67.412 226.055 67.676C226.455 67.932 226.655 68.316 226.655 68.828C226.655 69.212 226.539 69.536 226.307 69.8C226.083 70.056 225.763 70.244 225.347 70.364C225.939 70.412 226.395 70.584 226.715 70.88C227.035 71.176 227.195 71.532 227.195 71.948C227.195 72.628 226.935 73.152 226.415 73.52C225.895 73.88 225.047 74.06 223.871 74.06C223.639 74.06 223.419 74.056 223.211 74.048C223.011 74.04 222.839 74.032 222.695 74.024L221.879 74H220.655V73.412L221.495 73.268V68.096L220.667 67.928V67.34H221.987L222.743 67.316ZM223.883 70.16C224.403 70.16 224.783 70.044 225.023 69.812C225.271 69.58 225.395 69.28 225.395 68.912C225.395 68.592 225.279 68.352 225.047 68.192C224.815 68.024 224.411 67.94 223.835 67.94H222.719V70.16H223.883ZM222.719 73.292C222.799 73.316 222.955 73.34 223.187 73.364C223.419 73.38 223.623 73.388 223.799 73.388C224.535 73.388 225.055 73.288 225.359 73.088C225.663 72.888 225.815 72.556 225.815 72.092C225.815 71.652 225.675 71.324 225.395 71.108C225.115 70.892 224.675 70.784 224.075 70.784H222.719V73.292ZM231.187 74.132C230.219 74.132 229.479 73.816 228.967 73.184C228.463 72.552 228.211 71.708 228.211 70.652C228.211 69.956 228.343 69.344 228.607 68.816C228.871 68.288 229.239 67.88 229.711 67.592C230.191 67.304 230.735 67.16 231.343 67.16C232.087 67.16 232.663 67.368 233.071 67.784C233.487 68.192 233.707 68.78 233.731 69.548C233.731 70.036 233.703 70.408 233.647 70.664H229.519C229.535 71.456 229.719 72.096 230.071 72.584C230.423 73.064 230.923 73.304 231.571 73.304C231.891 73.304 232.223 73.248 232.567 73.136C232.919 73.016 233.191 72.876 233.383 72.716L233.611 73.244C233.379 73.484 233.035 73.692 232.579 73.868C232.123 74.044 231.659 74.132 231.187 74.132ZM232.411 70.028C232.435 69.86 232.447 69.688 232.447 69.512C232.439 68.992 232.327 68.584 232.111 68.288C231.903 67.984 231.571 67.832 231.115 67.832C230.651 67.832 230.279 68 229.999 68.336C229.727 68.672 229.571 69.236 229.531 70.028H232.411ZM237.919 67.34V67.928L236.923 68.096V70.196H240.235V68.096L239.227 67.928V67.34H242.347V67.928L241.471 68.096V73.304L242.395 73.412V74H239.203V73.412L240.235 73.304V70.892H236.923V73.304L237.955 73.412V74H234.775V73.412L235.687 73.304V68.096L234.787 67.928V67.34H237.919ZM246.962 69.968C248.674 69.968 249.53 70.636 249.53 71.972C249.53 72.676 249.298 73.212 248.834 73.58C248.37 73.94 247.71 74.12 246.854 74.12C246.75 74.12 246.582 74.112 246.35 74.096C246.118 74.08 245.934 74.068 245.798 74.06C245.358 74.02 245.03 74 244.814 74H243.338V73.436L244.394 73.304V68.096L243.41 67.94V67.34H246.806V67.94L245.618 68.096V69.98L246.962 69.968ZM245.618 73.376C245.938 73.432 246.29 73.46 246.674 73.46C247.706 73.46 248.222 72.996 248.222 72.068C248.222 71.58 248.09 71.224 247.826 71C247.562 70.776 247.158 70.664 246.614 70.664H245.618V73.376Z" fill="white"/>
<path id="Rectangle 39" d="M328 46C328 34.9543 336.954 26 348 26H354C365.046 26 374 34.9543 374 46V72.6602L328 78V46Z" fill="white"/>
</g>
</g>
</svg>
