<svg width="560" height="138" viewBox="0 0 560 138" fill="none" xmlns="http://www.w3.org/2000/svg">
<g id="Group 5">
<path id="Rectangle 21" d="M5 70.0679L555 5.6201V67.9321L5 132.38V70.0679Z" fill="#C4C4C4" stroke="white" stroke-width="10"/>
<path id="3 &#209;&#131;&#209;&#128;&#208;&#190;&#208;&#178;&#208;&#181;&#208;&#189;&#209;&#140;" d="M251.88 76.932C251.696 76.932 251.492 76.916 251.268 76.884C251.044 76.86 250.856 76.828 250.704 76.788V76.104C250.968 76.184 251.284 76.224 251.652 76.224C252.284 76.224 252.828 76.124 253.284 75.924C253.748 75.724 254.1 75.452 254.34 75.108C254.588 74.764 254.712 74.388 254.712 73.98C254.712 73.436 254.544 73.016 254.208 72.72C253.88 72.416 253.372 72.26 252.684 72.252L252.312 72.348C252.048 72.428 251.92 72.464 251.928 72.456L251.724 71.82C252.06 71.756 252.376 71.66 252.672 71.532C253.168 71.324 253.568 71.048 253.872 70.704C254.176 70.352 254.328 69.98 254.328 69.588C254.328 69.132 254.192 68.8 253.92 68.592C253.656 68.376 253.316 68.268 252.9 68.268C252.54 68.268 252.192 68.332 251.856 68.46C251.528 68.588 251.244 68.744 251.004 68.928L250.68 68.388C250.904 68.164 251.26 67.948 251.748 67.74C252.244 67.524 252.748 67.416 253.26 67.416C253.988 67.416 254.576 67.576 255.024 67.896C255.472 68.208 255.696 68.688 255.696 69.336C255.696 69.904 255.472 70.42 255.024 70.884C254.576 71.348 254.044 71.688 253.428 71.904C253.508 71.896 253.62 71.892 253.764 71.892C254.236 71.892 254.652 71.98 255.012 72.156C255.372 72.332 255.648 72.572 255.84 72.876C256.04 73.172 256.14 73.508 256.14 73.884C256.14 74.468 255.964 74.992 255.612 75.456C255.26 75.92 254.76 76.28 254.112 76.536C253.472 76.8 252.728 76.932 251.88 76.932ZM261.071 77.988C260.935 77.988 260.799 77.98 260.663 77.964C260.535 77.948 260.443 77.924 260.387 77.892V76.848C260.435 76.88 260.527 76.904 260.663 76.92C260.807 76.936 260.943 76.944 261.071 76.944C261.455 76.944 261.791 76.808 262.079 76.536C262.375 76.272 262.659 75.76 262.931 75H262.355L260.075 69.06L259.523 68.904V68.34H262.415V68.904L261.491 69.048L262.667 72.588L263.219 74.34L263.735 72.576L264.803 69.048L263.999 68.904V68.34H266.411V68.904L265.811 69.048C264.635 72.648 263.943 74.692 263.735 75.18C263.463 75.868 263.215 76.404 262.991 76.788C262.767 77.18 262.503 77.476 262.199 77.676C261.895 77.884 261.519 77.988 261.071 77.988ZM273.458 71.436C273.458 72.116 273.318 72.74 273.038 73.308C272.758 73.868 272.358 74.312 271.838 74.64C271.318 74.968 270.71 75.132 270.014 75.132C269.822 75.132 269.614 75.116 269.39 75.084C269.166 75.052 268.986 75.012 268.85 74.964L268.886 75.972V77.184L270.134 77.316V77.904H266.786V77.316L267.65 77.184V69.264L266.774 69.048V68.4L268.478 68.184H268.502L268.754 68.4V69.108C268.994 68.844 269.29 68.62 269.642 68.436C270.002 68.252 270.402 68.16 270.842 68.16C271.314 68.16 271.746 68.276 272.138 68.508C272.538 68.74 272.858 69.1 273.098 69.588C273.338 70.076 273.458 70.692 273.458 71.436ZM270.35 69C270.046 69 269.762 69.064 269.498 69.192C269.234 69.32 269.03 69.46 268.886 69.612V74.136C268.942 74.232 269.082 74.32 269.306 74.4C269.538 74.472 269.79 74.508 270.062 74.508C270.678 74.508 271.174 74.264 271.55 73.776C271.934 73.288 272.126 72.552 272.126 71.568C272.126 70.704 271.958 70.06 271.622 69.636C271.294 69.212 270.87 69 270.35 69ZM274.501 71.652C274.501 70.932 274.649 70.308 274.945 69.78C275.241 69.252 275.629 68.852 276.109 68.58C276.597 68.3 277.117 68.16 277.669 68.16C278.677 68.16 279.433 68.48 279.937 69.12C280.449 69.76 280.705 70.6 280.705 71.64C280.705 72.368 280.557 72.996 280.261 73.524C279.965 74.052 279.573 74.452 279.085 74.724C278.605 74.996 278.089 75.132 277.537 75.132C276.529 75.132 275.769 74.812 275.257 74.172C274.753 73.532 274.501 72.692 274.501 71.652ZM277.609 74.448C278.161 74.448 278.585 74.22 278.881 73.764C279.177 73.308 279.325 72.632 279.325 71.736C279.325 70.848 279.189 70.144 278.917 69.624C278.645 69.104 278.209 68.844 277.609 68.844C277.057 68.844 276.629 69.072 276.325 69.528C276.029 69.984 275.881 70.66 275.881 71.556C275.881 72.444 276.021 73.148 276.301 73.668C276.581 74.188 277.017 74.448 277.609 74.448ZM283.974 68.316C284.742 68.292 285.142 68.28 285.174 68.28C286.182 68.28 286.886 68.412 287.286 68.676C287.686 68.932 287.886 69.316 287.886 69.828C287.886 70.212 287.77 70.536 287.538 70.8C287.314 71.056 286.994 71.244 286.578 71.364C287.17 71.412 287.626 71.584 287.946 71.88C288.266 72.176 288.426 72.532 288.426 72.948C288.426 73.628 288.166 74.152 287.646 74.52C287.126 74.88 286.278 75.06 285.102 75.06C284.87 75.06 284.65 75.056 284.442 75.048C284.242 75.04 284.07 75.032 283.926 75.024L283.11 75H281.886V74.412L282.726 74.268V69.096L281.898 68.928V68.34H283.218L283.974 68.316ZM285.114 71.16C285.634 71.16 286.014 71.044 286.254 70.812C286.502 70.58 286.626 70.28 286.626 69.912C286.626 69.592 286.51 69.352 286.278 69.192C286.046 69.024 285.642 68.94 285.066 68.94H283.95V71.16H285.114ZM283.95 74.292C284.03 74.316 284.186 74.34 284.418 74.364C284.65 74.38 284.854 74.388 285.03 74.388C285.766 74.388 286.286 74.288 286.59 74.088C286.894 73.888 287.046 73.556 287.046 73.092C287.046 72.652 286.906 72.324 286.626 72.108C286.346 71.892 285.906 71.784 285.306 71.784H283.95V74.292ZM292.418 75.132C291.45 75.132 290.71 74.816 290.198 74.184C289.694 73.552 289.442 72.708 289.442 71.652C289.442 70.956 289.574 70.344 289.838 69.816C290.102 69.288 290.47 68.88 290.942 68.592C291.422 68.304 291.966 68.16 292.574 68.16C293.318 68.16 293.894 68.368 294.302 68.784C294.718 69.192 294.938 69.78 294.962 70.548C294.962 71.036 294.934 71.408 294.878 71.664H290.75C290.766 72.456 290.95 73.096 291.302 73.584C291.654 74.064 292.154 74.304 292.802 74.304C293.122 74.304 293.454 74.248 293.798 74.136C294.15 74.016 294.422 73.876 294.614 73.716L294.842 74.244C294.61 74.484 294.266 74.692 293.81 74.868C293.354 75.044 292.89 75.132 292.418 75.132ZM293.642 71.028C293.666 70.86 293.678 70.688 293.678 70.512C293.67 69.992 293.558 69.584 293.342 69.288C293.134 68.984 292.802 68.832 292.346 68.832C291.882 68.832 291.51 69 291.23 69.336C290.958 69.672 290.802 70.236 290.762 71.028H293.642ZM299.149 68.34V68.928L298.153 69.096V71.196H301.465V69.096L300.457 68.928V68.34H303.577V68.928L302.701 69.096V74.304L303.625 74.412V75H300.433V74.412L301.465 74.304V71.892H298.153V74.304L299.185 74.412V75H296.005V74.412L296.917 74.304V69.096L296.017 68.928V68.34H299.149ZM308.192 70.968C309.904 70.968 310.76 71.636 310.76 72.972C310.76 73.676 310.528 74.212 310.064 74.58C309.6 74.94 308.94 75.12 308.084 75.12C307.98 75.12 307.812 75.112 307.58 75.096C307.348 75.08 307.164 75.068 307.028 75.06C306.588 75.02 306.26 75 306.044 75H304.568V74.436L305.624 74.304V69.096L304.64 68.94V68.34H308.036V68.94L306.848 69.096V70.98L308.192 70.968ZM306.848 74.376C307.168 74.432 307.52 74.46 307.904 74.46C308.936 74.46 309.452 73.996 309.452 73.068C309.452 72.58 309.32 72.224 309.056 72C308.792 71.776 308.388 71.664 307.844 71.664H306.848V74.376Z" fill="white"/>
<path id="Rectangle 26" d="M393 49C393 37.9543 401.954 29 413 29H419C430.046 29 439 37.9543 439 49V75.6602L393 81V49Z" fill="white"/>
</g>
</svg>
