<svg width="420" height="137" viewBox="0 0 420 137" fill="none" xmlns="http://www.w3.org/2000/svg">
<g id="Group 19">
<path id="Rectangle 16" d="M5 69.4283L415 5.83531V67.5716L5 131.165V69.4283ZM417.54 67.1776L417.533 67.1787C417.536 67.1783 417.538 67.178 417.54 67.1776Z" fill="#C4C4C4" stroke="white" stroke-width="10"/>
<path id="17 &#209;&#131;&#209;&#128;&#208;&#190;&#208;&#178;&#208;&#181;&#208;&#189;&#209;&#140;" d="M179.94 65.808C179.772 65.872 179.508 65.948 179.148 66.036C178.788 66.124 178.496 66.184 178.272 66.216L178.152 65.544C178.56 65.456 178.976 65.308 179.4 65.1C179.832 64.892 180.192 64.664 180.48 64.416H180.492L181.224 64.536V71.304L182.712 71.412V72H178.392V71.412L179.94 71.304V65.808ZM184.901 73.716C185.333 72.772 185.745 71.824 186.137 70.872C186.537 69.912 187.093 68.556 187.805 66.804L188.369 65.388L184.817 65.436L184.313 67.032L183.545 66.888L183.797 64.512H189.269L189.521 64.836C189.129 65.932 188.581 67.472 187.877 69.456C187.173 71.432 186.629 72.972 186.245 74.076L184.901 73.716ZM194.383 74.988C194.247 74.988 194.111 74.98 193.975 74.964C193.847 74.948 193.755 74.924 193.699 74.892V73.848C193.747 73.88 193.839 73.904 193.975 73.92C194.119 73.936 194.255 73.944 194.383 73.944C194.767 73.944 195.103 73.808 195.391 73.536C195.687 73.272 195.971 72.76 196.243 72H195.667L193.387 66.06L192.835 65.904V65.34H195.727V65.904L194.803 66.048L195.979 69.588L196.531 71.34L197.047 69.576L198.115 66.048L197.311 65.904V65.34H199.723V65.904L199.123 66.048C197.947 69.648 197.255 71.692 197.047 72.18C196.775 72.868 196.527 73.404 196.303 73.788C196.079 74.18 195.815 74.476 195.511 74.676C195.207 74.884 194.831 74.988 194.383 74.988ZM206.77 68.436C206.77 69.116 206.63 69.74 206.35 70.308C206.07 70.868 205.67 71.312 205.15 71.64C204.63 71.968 204.022 72.132 203.326 72.132C203.134 72.132 202.926 72.116 202.702 72.084C202.478 72.052 202.298 72.012 202.162 71.964L202.198 72.972V74.184L203.446 74.316V74.904H200.098V74.316L200.962 74.184V66.264L200.086 66.048V65.4L201.79 65.184H201.814L202.066 65.4V66.108C202.306 65.844 202.602 65.62 202.954 65.436C203.314 65.252 203.714 65.16 204.154 65.16C204.626 65.16 205.058 65.276 205.45 65.508C205.85 65.74 206.17 66.1 206.41 66.588C206.65 67.076 206.77 67.692 206.77 68.436ZM203.662 66C203.358 66 203.074 66.064 202.81 66.192C202.546 66.32 202.342 66.46 202.198 66.612V71.136C202.254 71.232 202.394 71.32 202.618 71.4C202.85 71.472 203.102 71.508 203.374 71.508C203.99 71.508 204.486 71.264 204.862 70.776C205.246 70.288 205.438 69.552 205.438 68.568C205.438 67.704 205.27 67.06 204.934 66.636C204.606 66.212 204.182 66 203.662 66ZM207.813 68.652C207.813 67.932 207.961 67.308 208.257 66.78C208.553 66.252 208.941 65.852 209.421 65.58C209.909 65.3 210.429 65.16 210.981 65.16C211.989 65.16 212.745 65.48 213.249 66.12C213.761 66.76 214.017 67.6 214.017 68.64C214.017 69.368 213.869 69.996 213.573 70.524C213.277 71.052 212.885 71.452 212.397 71.724C211.917 71.996 211.401 72.132 210.849 72.132C209.841 72.132 209.081 71.812 208.569 71.172C208.065 70.532 207.813 69.692 207.813 68.652ZM210.921 71.448C211.473 71.448 211.897 71.22 212.193 70.764C212.489 70.308 212.637 69.632 212.637 68.736C212.637 67.848 212.501 67.144 212.229 66.624C211.957 66.104 211.521 65.844 210.921 65.844C210.369 65.844 209.941 66.072 209.637 66.528C209.341 66.984 209.193 67.66 209.193 68.556C209.193 69.444 209.333 70.148 209.613 70.668C209.893 71.188 210.329 71.448 210.921 71.448ZM217.286 65.316C218.054 65.292 218.454 65.28 218.486 65.28C219.494 65.28 220.198 65.412 220.598 65.676C220.998 65.932 221.198 66.316 221.198 66.828C221.198 67.212 221.082 67.536 220.85 67.8C220.626 68.056 220.306 68.244 219.89 68.364C220.482 68.412 220.938 68.584 221.258 68.88C221.578 69.176 221.738 69.532 221.738 69.948C221.738 70.628 221.478 71.152 220.958 71.52C220.438 71.88 219.59 72.06 218.414 72.06C218.182 72.06 217.962 72.056 217.754 72.048C217.554 72.04 217.382 72.032 217.238 72.024L216.422 72H215.198V71.412L216.038 71.268V66.096L215.21 65.928V65.34H216.53L217.286 65.316ZM218.426 68.16C218.946 68.16 219.326 68.044 219.566 67.812C219.814 67.58 219.938 67.28 219.938 66.912C219.938 66.592 219.822 66.352 219.59 66.192C219.358 66.024 218.954 65.94 218.378 65.94H217.262V68.16H218.426ZM217.262 71.292C217.342 71.316 217.498 71.34 217.73 71.364C217.962 71.38 218.166 71.388 218.342 71.388C219.078 71.388 219.598 71.288 219.902 71.088C220.206 70.888 220.358 70.556 220.358 70.092C220.358 69.652 220.218 69.324 219.938 69.108C219.658 68.892 219.218 68.784 218.618 68.784H217.262V71.292ZM225.73 72.132C224.762 72.132 224.022 71.816 223.51 71.184C223.006 70.552 222.754 69.708 222.754 68.652C222.754 67.956 222.886 67.344 223.15 66.816C223.414 66.288 223.782 65.88 224.254 65.592C224.734 65.304 225.278 65.16 225.886 65.16C226.63 65.16 227.206 65.368 227.614 65.784C228.03 66.192 228.25 66.78 228.274 67.548C228.274 68.036 228.246 68.408 228.19 68.664H224.062C224.078 69.456 224.262 70.096 224.614 70.584C224.966 71.064 225.466 71.304 226.114 71.304C226.434 71.304 226.766 71.248 227.11 71.136C227.462 71.016 227.734 70.876 227.926 70.716L228.154 71.244C227.922 71.484 227.578 71.692 227.122 71.868C226.666 72.044 226.202 72.132 225.73 72.132ZM226.954 68.028C226.978 67.86 226.99 67.688 226.99 67.512C226.982 66.992 226.87 66.584 226.654 66.288C226.446 65.984 226.114 65.832 225.658 65.832C225.194 65.832 224.822 66 224.542 66.336C224.27 66.672 224.114 67.236 224.074 68.028H226.954ZM232.462 65.34V65.928L231.466 66.096V68.196H234.778V66.096L233.77 65.928V65.34H236.89V65.928L236.014 66.096V71.304L236.938 71.412V72H233.746V71.412L234.778 71.304V68.892H231.466V71.304L232.498 71.412V72H229.318V71.412L230.23 71.304V66.096L229.33 65.928V65.34H232.462ZM241.505 67.968C243.217 67.968 244.073 68.636 244.073 69.972C244.073 70.676 243.841 71.212 243.377 71.58C242.913 71.94 242.253 72.12 241.397 72.12C241.293 72.12 241.125 72.112 240.893 72.096C240.661 72.08 240.477 72.068 240.341 72.06C239.901 72.02 239.573 72 239.357 72H237.881V71.436L238.937 71.304V66.096L237.953 65.94V65.34H241.349V65.94L240.161 66.096V67.98L241.505 67.968ZM240.161 71.376C240.481 71.432 240.833 71.46 241.217 71.46C242.249 71.46 242.765 70.996 242.765 70.068C242.765 69.58 242.633 69.224 242.369 69C242.105 68.776 241.701 68.664 241.157 68.664H240.161V71.376Z" fill="white"/>
<path id="Rectangle 40" d="M323 45C323 33.9543 331.954 25 343 25H349C360.046 25 369 33.9543 369 45V71.6602L323 77V45Z" fill="white"/>
</g>
</svg>
