<svg width="460" height="138" viewBox="0 0 460 138" fill="none" xmlns="http://www.w3.org/2000/svg">
<g id="Group 15">
<path id="Rectangle 12" d="M5 69.957L455 5.76388V68.043L5 132.236V69.957Z" fill="#C4C4C4" stroke="white" stroke-width="10"/>
<path id="13 &#209;&#131;&#209;&#128;&#208;&#190;&#208;&#178;&#208;&#181;&#208;&#189;&#209;&#140;" d="M200.11 67.808C199.942 67.872 199.678 67.948 199.318 68.036C198.958 68.124 198.666 68.184 198.442 68.216L198.322 67.544C198.73 67.456 199.146 67.308 199.57 67.1C200.002 66.892 200.362 66.664 200.65 66.416H200.662L201.394 66.536V73.304L202.882 73.412V74H198.562V73.412L200.11 73.304V67.808ZM205.023 75.932C204.839 75.932 204.635 75.916 204.411 75.884C204.187 75.86 203.999 75.828 203.847 75.788V75.104C204.111 75.184 204.427 75.224 204.795 75.224C205.427 75.224 205.971 75.124 206.427 74.924C206.891 74.724 207.243 74.452 207.483 74.108C207.731 73.764 207.855 73.388 207.855 72.98C207.855 72.436 207.687 72.016 207.351 71.72C207.023 71.416 206.515 71.26 205.827 71.252L205.455 71.348C205.191 71.428 205.063 71.464 205.071 71.456L204.867 70.82C205.203 70.756 205.519 70.66 205.815 70.532C206.311 70.324 206.711 70.048 207.015 69.704C207.319 69.352 207.471 68.98 207.471 68.588C207.471 68.132 207.335 67.8 207.063 67.592C206.799 67.376 206.459 67.268 206.043 67.268C205.683 67.268 205.335 67.332 204.999 67.46C204.671 67.588 204.387 67.744 204.147 67.928L203.823 67.388C204.047 67.164 204.403 66.948 204.891 66.74C205.387 66.524 205.891 66.416 206.403 66.416C207.131 66.416 207.719 66.576 208.167 66.896C208.615 67.208 208.839 67.688 208.839 68.336C208.839 68.904 208.615 69.42 208.167 69.884C207.719 70.348 207.187 70.688 206.571 70.904C206.651 70.896 206.763 70.892 206.907 70.892C207.379 70.892 207.795 70.98 208.155 71.156C208.515 71.332 208.791 71.572 208.983 71.876C209.183 72.172 209.283 72.508 209.283 72.884C209.283 73.468 209.107 73.992 208.755 74.456C208.403 74.92 207.903 75.28 207.255 75.536C206.615 75.8 205.871 75.932 205.023 75.932ZM214.213 76.988C214.077 76.988 213.941 76.98 213.805 76.964C213.677 76.948 213.585 76.924 213.529 76.892V75.848C213.577 75.88 213.669 75.904 213.805 75.92C213.949 75.936 214.085 75.944 214.213 75.944C214.597 75.944 214.933 75.808 215.221 75.536C215.517 75.272 215.801 74.76 216.073 74H215.497L213.217 68.06L212.665 67.904V67.34H215.557V67.904L214.633 68.048L215.809 71.588L216.361 73.34L216.877 71.576L217.945 68.048L217.141 67.904V67.34H219.553V67.904L218.953 68.048C217.777 71.648 217.085 73.692 216.877 74.18C216.605 74.868 216.357 75.404 216.133 75.788C215.909 76.18 215.645 76.476 215.341 76.676C215.037 76.884 214.661 76.988 214.213 76.988ZM226.6 70.436C226.6 71.116 226.46 71.74 226.18 72.308C225.9 72.868 225.5 73.312 224.98 73.64C224.46 73.968 223.852 74.132 223.156 74.132C222.964 74.132 222.756 74.116 222.532 74.084C222.308 74.052 222.128 74.012 221.992 73.964L222.028 74.972V76.184L223.276 76.316V76.904H219.928V76.316L220.792 76.184V68.264L219.916 68.048V67.4L221.62 67.184H221.644L221.896 67.4V68.108C222.136 67.844 222.432 67.62 222.784 67.436C223.144 67.252 223.544 67.16 223.984 67.16C224.456 67.16 224.888 67.276 225.28 67.508C225.68 67.74 226 68.1 226.24 68.588C226.48 69.076 226.6 69.692 226.6 70.436ZM223.492 68C223.188 68 222.904 68.064 222.64 68.192C222.376 68.32 222.172 68.46 222.028 68.612V73.136C222.084 73.232 222.224 73.32 222.448 73.4C222.68 73.472 222.932 73.508 223.204 73.508C223.82 73.508 224.316 73.264 224.692 72.776C225.076 72.288 225.268 71.552 225.268 70.568C225.268 69.704 225.1 69.06 224.764 68.636C224.436 68.212 224.012 68 223.492 68ZM227.644 70.652C227.644 69.932 227.792 69.308 228.088 68.78C228.384 68.252 228.772 67.852 229.252 67.58C229.74 67.3 230.26 67.16 230.812 67.16C231.82 67.16 232.576 67.48 233.08 68.12C233.592 68.76 233.848 69.6 233.848 70.64C233.848 71.368 233.7 71.996 233.404 72.524C233.108 73.052 232.716 73.452 232.228 73.724C231.748 73.996 231.232 74.132 230.68 74.132C229.672 74.132 228.912 73.812 228.4 73.172C227.896 72.532 227.644 71.692 227.644 70.652ZM230.752 73.448C231.304 73.448 231.728 73.22 232.024 72.764C232.32 72.308 232.468 71.632 232.468 70.736C232.468 69.848 232.332 69.144 232.06 68.624C231.788 68.104 231.352 67.844 230.752 67.844C230.2 67.844 229.772 68.072 229.468 68.528C229.172 68.984 229.024 69.66 229.024 70.556C229.024 71.444 229.164 72.148 229.444 72.668C229.724 73.188 230.16 73.448 230.752 73.448ZM237.116 67.316C237.884 67.292 238.284 67.28 238.316 67.28C239.324 67.28 240.028 67.412 240.428 67.676C240.828 67.932 241.028 68.316 241.028 68.828C241.028 69.212 240.912 69.536 240.68 69.8C240.456 70.056 240.136 70.244 239.72 70.364C240.312 70.412 240.768 70.584 241.088 70.88C241.408 71.176 241.568 71.532 241.568 71.948C241.568 72.628 241.308 73.152 240.788 73.52C240.268 73.88 239.42 74.06 238.244 74.06C238.012 74.06 237.792 74.056 237.584 74.048C237.384 74.04 237.212 74.032 237.068 74.024L236.252 74H235.028V73.412L235.868 73.268V68.096L235.04 67.928V67.34H236.36L237.116 67.316ZM238.256 70.16C238.776 70.16 239.156 70.044 239.396 69.812C239.644 69.58 239.768 69.28 239.768 68.912C239.768 68.592 239.652 68.352 239.42 68.192C239.188 68.024 238.784 67.94 238.208 67.94H237.092V70.16H238.256ZM237.092 73.292C237.172 73.316 237.328 73.34 237.56 73.364C237.792 73.38 237.996 73.388 238.172 73.388C238.908 73.388 239.428 73.288 239.732 73.088C240.036 72.888 240.188 72.556 240.188 72.092C240.188 71.652 240.048 71.324 239.768 71.108C239.488 70.892 239.048 70.784 238.448 70.784H237.092V73.292ZM245.56 74.132C244.592 74.132 243.852 73.816 243.34 73.184C242.836 72.552 242.584 71.708 242.584 70.652C242.584 69.956 242.716 69.344 242.98 68.816C243.244 68.288 243.612 67.88 244.084 67.592C244.564 67.304 245.108 67.16 245.716 67.16C246.46 67.16 247.036 67.368 247.444 67.784C247.86 68.192 248.08 68.78 248.104 69.548C248.104 70.036 248.076 70.408 248.02 70.664H243.892C243.908 71.456 244.092 72.096 244.444 72.584C244.796 73.064 245.296 73.304 245.944 73.304C246.264 73.304 246.596 73.248 246.94 73.136C247.292 73.016 247.564 72.876 247.756 72.716L247.984 73.244C247.752 73.484 247.408 73.692 246.952 73.868C246.496 74.044 246.032 74.132 245.56 74.132ZM246.784 70.028C246.808 69.86 246.82 69.688 246.82 69.512C246.812 68.992 246.7 68.584 246.484 68.288C246.276 67.984 245.944 67.832 245.488 67.832C245.024 67.832 244.652 68 244.372 68.336C244.1 68.672 243.944 69.236 243.904 70.028H246.784ZM252.292 67.34V67.928L251.296 68.096V70.196H254.608V68.096L253.6 67.928V67.34H256.72V67.928L255.844 68.096V73.304L256.768 73.412V74H253.576V73.412L254.608 73.304V70.892H251.296V73.304L252.328 73.412V74H249.148V73.412L250.06 73.304V68.096L249.16 67.928V67.34H252.292ZM261.335 69.968C263.047 69.968 263.903 70.636 263.903 71.972C263.903 72.676 263.671 73.212 263.207 73.58C262.743 73.94 262.083 74.12 261.227 74.12C261.123 74.12 260.955 74.112 260.723 74.096C260.491 74.08 260.307 74.068 260.171 74.06C259.731 74.02 259.403 74 259.187 74H257.711V73.436L258.767 73.304V68.096L257.783 67.94V67.34H261.179V67.94L259.991 68.096V69.98L261.335 69.968ZM259.991 73.376C260.311 73.432 260.663 73.46 261.047 73.46C262.079 73.46 262.595 72.996 262.595 72.068C262.595 71.58 262.463 71.224 262.199 71C261.935 70.776 261.531 70.664 260.987 70.664H259.991V73.376Z" fill="white"/>
<path id="Rectangle 36" d="M343 47C343 35.9543 351.954 27 363 27H369C380.046 27 389 35.9543 389 47V73.6602L343 79V47Z" fill="white"/>
</g>
</svg>
