<svg width="470" height="139" viewBox="0 0 470 139" fill="none" xmlns="http://www.w3.org/2000/svg">
<g id="Group 14">
<path id="Rectangle 11" d="M5 70.4412L465 5.75234V68.5588L5 133.248V70.4412ZM1.58222 133.728C1.58364 133.728 1.58503 133.728 1.58645 133.728L1.58222 133.728Z" fill="#C4C4C4" stroke="white" stroke-width="10"/>
<path id="12 &#209;&#131;&#209;&#128;&#208;&#190;&#208;&#178;&#208;&#181;&#208;&#189;&#209;&#140;" d="M204.881 66.808C204.713 66.872 204.449 66.948 204.089 67.036C203.729 67.124 203.437 67.184 203.213 67.216L203.093 66.544C203.501 66.456 203.917 66.308 204.341 66.1C204.773 65.892 205.133 65.664 205.421 65.416H205.433L206.165 65.536V72.304L207.653 72.412V73H203.333V72.412L204.881 72.304V66.808ZM208.474 72.496C209.21 72.08 209.886 71.604 210.502 71.068C211.118 70.524 211.606 69.964 211.966 69.388C212.334 68.812 212.518 68.268 212.518 67.756C212.518 67.316 212.386 66.968 212.122 66.712C211.858 66.448 211.482 66.316 210.994 66.316C210.538 66.316 210.146 66.408 209.818 66.592C209.49 66.768 209.186 66.988 208.906 67.252L208.522 66.712C208.802 66.384 209.202 66.088 209.722 65.824C210.242 65.552 210.798 65.416 211.39 65.416C211.95 65.416 212.422 65.52 212.806 65.728C213.19 65.928 213.474 66.192 213.658 66.52C213.842 66.848 213.934 67.208 213.934 67.6C213.934 68.392 213.554 69.208 212.794 70.048C212.034 70.88 211.082 71.628 209.938 72.292L213.658 72.016L214.078 70.984L214.69 71.104L214.378 73H208.654L208.474 72.496ZM219.442 75.988C219.306 75.988 219.17 75.98 219.034 75.964C218.906 75.948 218.814 75.924 218.758 75.892V74.848C218.806 74.88 218.898 74.904 219.034 74.92C219.178 74.936 219.314 74.944 219.442 74.944C219.826 74.944 220.162 74.808 220.45 74.536C220.746 74.272 221.03 73.76 221.302 73H220.726L218.446 67.06L217.894 66.904V66.34H220.786V66.904L219.862 67.048L221.038 70.588L221.59 72.34L222.106 70.576L223.174 67.048L222.37 66.904V66.34H224.782V66.904L224.182 67.048C223.006 70.648 222.314 72.692 222.106 73.18C221.834 73.868 221.586 74.404 221.362 74.788C221.138 75.18 220.874 75.476 220.57 75.676C220.266 75.884 219.89 75.988 219.442 75.988ZM231.829 69.436C231.829 70.116 231.689 70.74 231.409 71.308C231.129 71.868 230.729 72.312 230.209 72.64C229.689 72.968 229.081 73.132 228.385 73.132C228.193 73.132 227.985 73.116 227.761 73.084C227.537 73.052 227.357 73.012 227.221 72.964L227.257 73.972V75.184L228.505 75.316V75.904H225.157V75.316L226.021 75.184V67.264L225.145 67.048V66.4L226.849 66.184H226.873L227.125 66.4V67.108C227.365 66.844 227.661 66.62 228.013 66.436C228.373 66.252 228.773 66.16 229.213 66.16C229.685 66.16 230.117 66.276 230.509 66.508C230.909 66.74 231.229 67.1 231.469 67.588C231.709 68.076 231.829 68.692 231.829 69.436ZM228.721 67C228.417 67 228.133 67.064 227.869 67.192C227.605 67.32 227.401 67.46 227.257 67.612V72.136C227.313 72.232 227.453 72.32 227.677 72.4C227.909 72.472 228.161 72.508 228.433 72.508C229.049 72.508 229.545 72.264 229.921 71.776C230.305 71.288 230.497 70.552 230.497 69.568C230.497 68.704 230.329 68.06 229.993 67.636C229.665 67.212 229.241 67 228.721 67ZM232.872 69.652C232.872 68.932 233.02 68.308 233.316 67.78C233.612 67.252 234 66.852 234.48 66.58C234.968 66.3 235.488 66.16 236.04 66.16C237.048 66.16 237.804 66.48 238.308 67.12C238.82 67.76 239.076 68.6 239.076 69.64C239.076 70.368 238.928 70.996 238.632 71.524C238.336 72.052 237.944 72.452 237.456 72.724C236.976 72.996 236.46 73.132 235.908 73.132C234.9 73.132 234.14 72.812 233.628 72.172C233.124 71.532 232.872 70.692 232.872 69.652ZM235.98 72.448C236.532 72.448 236.956 72.22 237.252 71.764C237.548 71.308 237.696 70.632 237.696 69.736C237.696 68.848 237.56 68.144 237.288 67.624C237.016 67.104 236.58 66.844 235.98 66.844C235.428 66.844 235 67.072 234.696 67.528C234.4 67.984 234.252 68.66 234.252 69.556C234.252 70.444 234.392 71.148 234.672 71.668C234.952 72.188 235.388 72.448 235.98 72.448ZM242.345 66.316C243.113 66.292 243.513 66.28 243.545 66.28C244.553 66.28 245.257 66.412 245.657 66.676C246.057 66.932 246.257 67.316 246.257 67.828C246.257 68.212 246.141 68.536 245.909 68.8C245.685 69.056 245.365 69.244 244.949 69.364C245.541 69.412 245.997 69.584 246.317 69.88C246.637 70.176 246.797 70.532 246.797 70.948C246.797 71.628 246.537 72.152 246.017 72.52C245.497 72.88 244.649 73.06 243.473 73.06C243.241 73.06 243.021 73.056 242.813 73.048C242.613 73.04 242.441 73.032 242.297 73.024L241.481 73H240.257V72.412L241.097 72.268V67.096L240.269 66.928V66.34H241.589L242.345 66.316ZM243.485 69.16C244.005 69.16 244.385 69.044 244.625 68.812C244.873 68.58 244.997 68.28 244.997 67.912C244.997 67.592 244.881 67.352 244.649 67.192C244.417 67.024 244.013 66.94 243.437 66.94H242.321V69.16H243.485ZM242.321 72.292C242.401 72.316 242.557 72.34 242.789 72.364C243.021 72.38 243.225 72.388 243.401 72.388C244.137 72.388 244.657 72.288 244.961 72.088C245.265 71.888 245.417 71.556 245.417 71.092C245.417 70.652 245.277 70.324 244.997 70.108C244.717 69.892 244.277 69.784 243.677 69.784H242.321V72.292ZM250.789 73.132C249.821 73.132 249.081 72.816 248.569 72.184C248.065 71.552 247.813 70.708 247.813 69.652C247.813 68.956 247.945 68.344 248.209 67.816C248.473 67.288 248.841 66.88 249.313 66.592C249.793 66.304 250.337 66.16 250.945 66.16C251.689 66.16 252.265 66.368 252.673 66.784C253.089 67.192 253.309 67.78 253.333 68.548C253.333 69.036 253.305 69.408 253.249 69.664H249.121C249.137 70.456 249.321 71.096 249.673 71.584C250.025 72.064 250.525 72.304 251.173 72.304C251.493 72.304 251.825 72.248 252.169 72.136C252.521 72.016 252.793 71.876 252.985 71.716L253.213 72.244C252.981 72.484 252.637 72.692 252.181 72.868C251.725 73.044 251.261 73.132 250.789 73.132ZM252.013 69.028C252.037 68.86 252.049 68.688 252.049 68.512C252.041 67.992 251.929 67.584 251.713 67.288C251.505 66.984 251.173 66.832 250.717 66.832C250.253 66.832 249.881 67 249.601 67.336C249.329 67.672 249.173 68.236 249.133 69.028H252.013ZM257.52 66.34V66.928L256.524 67.096V69.196H259.836V67.096L258.828 66.928V66.34H261.948V66.928L261.072 67.096V72.304L261.996 72.412V73H258.804V72.412L259.836 72.304V69.892H256.524V72.304L257.556 72.412V73H254.376V72.412L255.288 72.304V67.096L254.388 66.928V66.34H257.52ZM266.563 68.968C268.275 68.968 269.131 69.636 269.131 70.972C269.131 71.676 268.899 72.212 268.435 72.58C267.971 72.94 267.311 73.12 266.455 73.12C266.351 73.12 266.183 73.112 265.951 73.096C265.719 73.08 265.535 73.068 265.399 73.06C264.959 73.02 264.631 73 264.415 73H262.939V72.436L263.995 72.304V67.096L263.011 66.94V66.34H266.407V66.94L265.219 67.096V68.98L266.563 68.968ZM265.219 72.376C265.539 72.432 265.891 72.46 266.275 72.46C267.307 72.46 267.823 71.996 267.823 71.068C267.823 70.58 267.691 70.224 267.427 70C267.163 69.776 266.759 69.664 266.215 69.664H265.219V72.376Z" fill="white"/>
<path id="Rectangle 35" d="M348 48C348 36.9543 356.954 28 368 28H374C385.046 28 394 36.9543 394 48V74.6602L348 80V48Z" fill="white"/>
</g>
</svg>
