<svg width="550" height="137" viewBox="0 0 550 137" fill="none" xmlns="http://www.w3.org/2000/svg">
<g id="Group 6">
<path id="Rectangle 20" d="M5 69.5868L545 5.62717V67.4132L5 131.373V69.5868Z" fill="#C4C4C4" stroke="white" stroke-width="10"/>
<path id="4 &#209;&#131;&#209;&#128;&#208;&#190;&#208;&#178;&#208;&#181;&#208;&#189;&#209;&#140;" d="M249.232 75H245.248L244.936 74.46C245.408 73.564 245.988 72.38 246.676 70.908C247.364 69.428 247.98 68.072 248.524 66.84H248.836L249.796 67.356L246.556 73.596L246.076 74.328L249.232 74.16L249.28 71.82L250.3 71.736V74.1L251.992 74.016V75H250.3V76.932H249.232V75ZM256.575 77.988C256.439 77.988 256.303 77.98 256.167 77.964C256.039 77.948 255.947 77.924 255.891 77.892V76.848C255.939 76.88 256.031 76.904 256.167 76.92C256.311 76.936 256.447 76.944 256.575 76.944C256.959 76.944 257.295 76.808 257.583 76.536C257.879 76.272 258.163 75.76 258.435 75H257.859L255.579 69.06L255.026 68.904V68.34H257.919V68.904L256.995 69.048L258.171 72.588L258.723 74.34L259.239 72.576L260.307 69.048L259.503 68.904V68.34H261.915V68.904L261.315 69.048C260.139 72.648 259.447 74.692 259.239 75.18C258.967 75.868 258.719 76.404 258.495 76.788C258.271 77.18 258.007 77.476 257.703 77.676C257.399 77.884 257.023 77.988 256.575 77.988ZM268.962 71.436C268.962 72.116 268.822 72.74 268.542 73.308C268.262 73.868 267.862 74.312 267.342 74.64C266.822 74.968 266.214 75.132 265.518 75.132C265.326 75.132 265.118 75.116 264.894 75.084C264.67 75.052 264.49 75.012 264.354 74.964L264.39 75.972V77.184L265.638 77.316V77.904H262.29V77.316L263.154 77.184V69.264L262.278 69.048V68.4L263.982 68.184H264.006L264.258 68.4V69.108C264.498 68.844 264.794 68.62 265.146 68.436C265.506 68.252 265.906 68.16 266.346 68.16C266.818 68.16 267.25 68.276 267.642 68.508C268.042 68.74 268.362 69.1 268.602 69.588C268.842 70.076 268.962 70.692 268.962 71.436ZM265.854 69C265.55 69 265.266 69.064 265.002 69.192C264.738 69.32 264.534 69.46 264.39 69.612V74.136C264.446 74.232 264.586 74.32 264.81 74.4C265.042 74.472 265.294 74.508 265.566 74.508C266.182 74.508 266.678 74.264 267.054 73.776C267.438 73.288 267.63 72.552 267.63 71.568C267.63 70.704 267.462 70.06 267.126 69.636C266.798 69.212 266.374 69 265.854 69ZM270.005 71.652C270.005 70.932 270.153 70.308 270.449 69.78C270.745 69.252 271.133 68.852 271.613 68.58C272.101 68.3 272.621 68.16 273.173 68.16C274.181 68.16 274.937 68.48 275.441 69.12C275.953 69.76 276.209 70.6 276.209 71.64C276.209 72.368 276.061 72.996 275.765 73.524C275.469 74.052 275.077 74.452 274.589 74.724C274.109 74.996 273.593 75.132 273.041 75.132C272.033 75.132 271.273 74.812 270.761 74.172C270.257 73.532 270.005 72.692 270.005 71.652ZM273.113 74.448C273.665 74.448 274.089 74.22 274.385 73.764C274.681 73.308 274.829 72.632 274.829 71.736C274.829 70.848 274.693 70.144 274.421 69.624C274.149 69.104 273.713 68.844 273.113 68.844C272.561 68.844 272.133 69.072 271.829 69.528C271.533 69.984 271.385 70.66 271.385 71.556C271.385 72.444 271.525 73.148 271.805 73.668C272.085 74.188 272.521 74.448 273.113 74.448ZM279.478 68.316C280.246 68.292 280.646 68.28 280.678 68.28C281.686 68.28 282.39 68.412 282.79 68.676C283.19 68.932 283.39 69.316 283.39 69.828C283.39 70.212 283.274 70.536 283.042 70.8C282.818 71.056 282.498 71.244 282.082 71.364C282.674 71.412 283.13 71.584 283.45 71.88C283.77 72.176 283.93 72.532 283.93 72.948C283.93 73.628 283.67 74.152 283.15 74.52C282.63 74.88 281.782 75.06 280.606 75.06C280.374 75.06 280.154 75.056 279.946 75.048C279.746 75.04 279.574 75.032 279.43 75.024L278.614 75H277.39V74.412L278.23 74.268V69.096L277.402 68.928V68.34H278.722L279.478 68.316ZM280.618 71.16C281.138 71.16 281.518 71.044 281.758 70.812C282.006 70.58 282.13 70.28 282.13 69.912C282.13 69.592 282.014 69.352 281.782 69.192C281.55 69.024 281.146 68.94 280.57 68.94H279.454V71.16H280.618ZM279.454 74.292C279.534 74.316 279.69 74.34 279.922 74.364C280.154 74.38 280.358 74.388 280.534 74.388C281.27 74.388 281.79 74.288 282.094 74.088C282.398 73.888 282.55 73.556 282.55 73.092C282.55 72.652 282.41 72.324 282.13 72.108C281.85 71.892 281.41 71.784 280.81 71.784H279.454V74.292ZM287.922 75.132C286.954 75.132 286.214 74.816 285.702 74.184C285.198 73.552 284.946 72.708 284.946 71.652C284.946 70.956 285.078 70.344 285.342 69.816C285.606 69.288 285.974 68.88 286.446 68.592C286.926 68.304 287.47 68.16 288.078 68.16C288.822 68.16 289.398 68.368 289.806 68.784C290.222 69.192 290.442 69.78 290.466 70.548C290.466 71.036 290.438 71.408 290.382 71.664H286.254C286.27 72.456 286.454 73.096 286.806 73.584C287.158 74.064 287.658 74.304 288.306 74.304C288.626 74.304 288.958 74.248 289.302 74.136C289.654 74.016 289.926 73.876 290.118 73.716L290.346 74.244C290.114 74.484 289.77 74.692 289.314 74.868C288.858 75.044 288.394 75.132 287.922 75.132ZM289.146 71.028C289.17 70.86 289.182 70.688 289.182 70.512C289.174 69.992 289.062 69.584 288.846 69.288C288.638 68.984 288.306 68.832 287.85 68.832C287.386 68.832 287.014 69 286.734 69.336C286.462 69.672 286.306 70.236 286.266 71.028H289.146ZM294.653 68.34V68.928L293.657 69.096V71.196H296.969V69.096L295.961 68.928V68.34H299.081V68.928L298.205 69.096V74.304L299.129 74.412V75H295.937V74.412L296.969 74.304V71.892H293.657V74.304L294.689 74.412V75H291.509V74.412L292.421 74.304V69.096L291.521 68.928V68.34H294.653ZM303.696 70.968C305.408 70.968 306.264 71.636 306.264 72.972C306.264 73.676 306.032 74.212 305.568 74.58C305.104 74.94 304.444 75.12 303.588 75.12C303.484 75.12 303.316 75.112 303.084 75.096C302.852 75.08 302.668 75.068 302.532 75.06C302.092 75.02 301.764 75 301.548 75H300.072V74.436L301.128 74.304V69.096L300.144 68.94V68.34H303.54V68.94L302.352 69.096V70.98L303.696 70.968ZM302.352 74.376C302.672 74.432 303.024 74.46 303.408 74.46C304.44 74.46 304.956 73.996 304.956 73.068C304.956 72.58 304.824 72.224 304.56 72C304.296 71.776 303.892 71.664 303.348 71.664H302.352V74.376Z" fill="white"/>
<path id="Rectangle 27" d="M388 49C388 37.9543 396.954 29 408 29H414C425.046 29 434 37.9543 434 49V75.6602L388 81V49Z" fill="white"/>
</g>
</svg>
