<svg width="510" height="138" viewBox="0 0 510 138" fill="none" xmlns="http://www.w3.org/2000/svg">
<g id="Group 10">
<path id="Rectangle 7" d="M5 70.0175L505 5.68455V67.9825L5 132.315V70.0175Z" fill="#C4C4C4" stroke="white" stroke-width="10"/>
<path id="8 &#209;&#131;&#209;&#128;&#208;&#190;&#208;&#178;&#208;&#181;&#208;&#189;&#209;&#140;" d="M225.337 70.804C225.337 70.332 225.489 69.896 225.793 69.496C226.105 69.088 226.569 68.748 227.185 68.476C226.713 68.172 226.349 67.852 226.093 67.516C225.837 67.172 225.709 66.744 225.709 66.232C225.709 65.76 225.833 65.356 226.081 65.02C226.337 64.676 226.673 64.416 227.089 64.24C227.505 64.064 227.953 63.976 228.433 63.976C229.209 63.976 229.833 64.156 230.305 64.516C230.777 64.876 231.013 65.356 231.013 65.956C231.013 66.412 230.873 66.836 230.593 67.228C230.321 67.612 229.925 67.948 229.405 68.236C230.045 68.596 230.541 68.96 230.893 69.328C231.245 69.696 231.421 70.152 231.421 70.696C231.421 71.184 231.277 71.612 230.989 71.98C230.709 72.34 230.333 72.62 229.861 72.82C229.389 73.02 228.877 73.12 228.325 73.12C227.813 73.12 227.329 73.04 226.873 72.88C226.425 72.72 226.057 72.468 225.769 72.124C225.481 71.772 225.337 71.332 225.337 70.804ZM226.813 65.956C226.813 66.244 226.901 66.5 227.077 66.724C227.253 66.948 227.469 67.14 227.725 67.3C227.981 67.46 228.349 67.668 228.829 67.924C229.189 67.732 229.473 67.488 229.681 67.192C229.889 66.896 229.993 66.576 229.993 66.232C229.993 65.704 229.849 65.292 229.561 64.996C229.273 64.692 228.885 64.54 228.397 64.54C227.957 64.54 227.581 64.668 227.269 64.924C226.965 65.18 226.813 65.524 226.813 65.956ZM230.149 70.948C230.149 70.66 230.065 70.408 229.897 70.192C229.729 69.968 229.517 69.776 229.261 69.616C229.013 69.456 228.669 69.264 228.229 69.04C228.005 68.928 227.837 68.84 227.725 68.776C227.349 68.968 227.045 69.224 226.813 69.544C226.581 69.864 226.465 70.208 226.465 70.576C226.465 71.168 226.637 71.64 226.981 71.992C227.333 72.336 227.809 72.508 228.409 72.508C228.697 72.508 228.973 72.444 229.237 72.316C229.509 72.188 229.729 72.004 229.897 71.764C230.065 71.524 230.149 71.252 230.149 70.948ZM236.51 75.988C236.374 75.988 236.238 75.98 236.102 75.964C235.974 75.948 235.882 75.924 235.826 75.892V74.848C235.874 74.88 235.966 74.904 236.102 74.92C236.246 74.936 236.382 74.944 236.51 74.944C236.894 74.944 237.23 74.808 237.518 74.536C237.814 74.272 238.098 73.76 238.37 73H237.794L235.514 67.06L234.962 66.904V66.34H237.854V66.904L236.93 67.048L238.106 70.588L238.658 72.34L239.174 70.576L240.242 67.048L239.438 66.904V66.34H241.85V66.904L241.25 67.048C240.074 70.648 239.382 72.692 239.174 73.18C238.902 73.868 238.654 74.404 238.43 74.788C238.206 75.18 237.942 75.476 237.638 75.676C237.334 75.884 236.958 75.988 236.51 75.988ZM248.897 69.436C248.897 70.116 248.757 70.74 248.477 71.308C248.197 71.868 247.797 72.312 247.277 72.64C246.757 72.968 246.149 73.132 245.453 73.132C245.261 73.132 245.053 73.116 244.829 73.084C244.605 73.052 244.425 73.012 244.289 72.964L244.325 73.972V75.184L245.573 75.316V75.904H242.225V75.316L243.089 75.184V67.264L242.213 67.048V66.4L243.917 66.184H243.941L244.193 66.4V67.108C244.433 66.844 244.729 66.62 245.081 66.436C245.441 66.252 245.841 66.16 246.281 66.16C246.753 66.16 247.185 66.276 247.577 66.508C247.977 66.74 248.297 67.1 248.537 67.588C248.777 68.076 248.897 68.692 248.897 69.436ZM245.789 67C245.485 67 245.201 67.064 244.937 67.192C244.673 67.32 244.469 67.46 244.325 67.612V72.136C244.381 72.232 244.521 72.32 244.745 72.4C244.977 72.472 245.229 72.508 245.501 72.508C246.117 72.508 246.613 72.264 246.989 71.776C247.373 71.288 247.565 70.552 247.565 69.568C247.565 68.704 247.397 68.06 247.061 67.636C246.733 67.212 246.309 67 245.789 67ZM249.94 69.652C249.94 68.932 250.088 68.308 250.384 67.78C250.68 67.252 251.068 66.852 251.548 66.58C252.036 66.3 252.556 66.16 253.108 66.16C254.116 66.16 254.872 66.48 255.376 67.12C255.888 67.76 256.144 68.6 256.144 69.64C256.144 70.368 255.996 70.996 255.7 71.524C255.404 72.052 255.012 72.452 254.524 72.724C254.044 72.996 253.528 73.132 252.976 73.132C251.968 73.132 251.208 72.812 250.696 72.172C250.192 71.532 249.94 70.692 249.94 69.652ZM253.048 72.448C253.6 72.448 254.024 72.22 254.32 71.764C254.616 71.308 254.764 70.632 254.764 69.736C254.764 68.848 254.628 68.144 254.356 67.624C254.084 67.104 253.648 66.844 253.048 66.844C252.496 66.844 252.068 67.072 251.764 67.528C251.468 67.984 251.32 68.66 251.32 69.556C251.32 70.444 251.46 71.148 251.74 71.668C252.02 72.188 252.456 72.448 253.048 72.448ZM259.413 66.316C260.181 66.292 260.581 66.28 260.613 66.28C261.621 66.28 262.325 66.412 262.725 66.676C263.125 66.932 263.325 67.316 263.325 67.828C263.325 68.212 263.209 68.536 262.977 68.8C262.753 69.056 262.433 69.244 262.017 69.364C262.609 69.412 263.065 69.584 263.385 69.88C263.705 70.176 263.865 70.532 263.865 70.948C263.865 71.628 263.605 72.152 263.085 72.52C262.565 72.88 261.717 73.06 260.541 73.06C260.309 73.06 260.089 73.056 259.881 73.048C259.681 73.04 259.509 73.032 259.365 73.024L258.549 73H257.325V72.412L258.165 72.268V67.096L257.337 66.928V66.34H258.657L259.413 66.316ZM260.553 69.16C261.073 69.16 261.453 69.044 261.693 68.812C261.941 68.58 262.065 68.28 262.065 67.912C262.065 67.592 261.949 67.352 261.717 67.192C261.485 67.024 261.081 66.94 260.505 66.94H259.389V69.16H260.553ZM259.389 72.292C259.469 72.316 259.625 72.34 259.857 72.364C260.089 72.38 260.293 72.388 260.469 72.388C261.205 72.388 261.725 72.288 262.029 72.088C262.333 71.888 262.485 71.556 262.485 71.092C262.485 70.652 262.345 70.324 262.065 70.108C261.785 69.892 261.345 69.784 260.745 69.784H259.389V72.292ZM267.857 73.132C266.889 73.132 266.149 72.816 265.637 72.184C265.133 71.552 264.881 70.708 264.881 69.652C264.881 68.956 265.013 68.344 265.277 67.816C265.541 67.288 265.909 66.88 266.381 66.592C266.861 66.304 267.405 66.16 268.013 66.16C268.757 66.16 269.333 66.368 269.741 66.784C270.157 67.192 270.377 67.78 270.401 68.548C270.401 69.036 270.373 69.408 270.317 69.664H266.189C266.205 70.456 266.389 71.096 266.741 71.584C267.093 72.064 267.593 72.304 268.241 72.304C268.561 72.304 268.893 72.248 269.237 72.136C269.589 72.016 269.861 71.876 270.053 71.716L270.281 72.244C270.049 72.484 269.705 72.692 269.249 72.868C268.793 73.044 268.329 73.132 267.857 73.132ZM269.081 69.028C269.105 68.86 269.117 68.688 269.117 68.512C269.109 67.992 268.997 67.584 268.781 67.288C268.573 66.984 268.241 66.832 267.785 66.832C267.321 66.832 266.949 67 266.669 67.336C266.397 67.672 266.241 68.236 266.201 69.028H269.081ZM274.589 66.34V66.928L273.593 67.096V69.196H276.905V67.096L275.897 66.928V66.34H279.017V66.928L278.141 67.096V72.304L279.065 72.412V73H275.873V72.412L276.905 72.304V69.892H273.593V72.304L274.625 72.412V73H271.445V72.412L272.357 72.304V67.096L271.457 66.928V66.34H274.589ZM283.632 68.968C285.344 68.968 286.2 69.636 286.2 70.972C286.2 71.676 285.968 72.212 285.504 72.58C285.04 72.94 284.38 73.12 283.524 73.12C283.42 73.12 283.252 73.112 283.02 73.096C282.788 73.08 282.604 73.068 282.468 73.06C282.028 73.02 281.7 73 281.484 73H280.008V72.436L281.064 72.304V67.096L280.08 66.94V66.34H283.476V66.94L282.288 67.096V68.98L283.632 68.968ZM282.288 72.376C282.608 72.432 282.96 72.46 283.344 72.46C284.376 72.46 284.892 71.996 284.892 71.068C284.892 70.58 284.76 70.224 284.496 70C284.232 69.776 283.828 69.664 283.284 69.664H282.288V72.376Z" fill="white"/>
<path id="Rectangle 31" d="M368 50C368 38.9543 376.954 30 388 30H394C405.046 30 414 38.9543 414 50V76.6602L368 82V50Z" fill="white"/>
</g>
</svg>
