<svg width="400" height="138" viewBox="0 0 400 138" fill="none" xmlns="http://www.w3.org/2000/svg">
<g id="Group 21">
<path id="Rectangle 18" d="M5 69.8662L395 5.88708V68.1338L5 132.113V69.8662ZM398.481 5.31601L398.486 5.31526L398 2.35483L398.486 5.31526C398.484 5.31551 398.483 5.31576 398.481 5.31601Z" fill="#C4C4C4" stroke="white" stroke-width="10"/>
<path id="19 &#209;&#131;&#209;&#128;&#208;&#190;&#208;&#178;&#208;&#181;&#208;&#189;&#209;&#140;" d="M169.506 65.808C169.338 65.872 169.074 65.948 168.714 66.036C168.354 66.124 168.062 66.184 167.838 66.216L167.718 65.544C168.126 65.456 168.542 65.308 168.966 65.1C169.398 64.892 169.758 64.664 170.046 64.416H170.058L170.79 64.536V71.304L172.278 71.412V72H167.958V71.412L169.506 71.304V65.808ZM176.507 64.416C177.179 64.416 177.747 64.572 178.211 64.884C178.675 65.188 179.019 65.608 179.243 66.144C179.475 66.68 179.591 67.284 179.591 67.956C179.591 69.012 179.367 69.976 178.919 70.848C178.471 71.72 177.883 72.428 177.155 72.972C176.435 73.524 175.671 73.868 174.863 74.004L174.587 73.476C175.515 73.172 176.271 72.68 176.855 72C177.439 71.32 177.835 70.528 178.043 69.624C177.843 69.856 177.571 70.056 177.227 70.224C176.883 70.384 176.511 70.464 176.111 70.464C175.559 70.464 175.075 70.348 174.659 70.116C174.251 69.876 173.935 69.54 173.711 69.108C173.487 68.668 173.375 68.16 173.375 67.584C173.375 67.016 173.499 66.492 173.747 66.012C174.003 65.532 174.367 65.148 174.839 64.86C175.311 64.564 175.867 64.416 176.507 64.416ZM176.363 69.732C176.795 69.732 177.179 69.632 177.515 69.432C177.851 69.224 178.075 69.004 178.187 68.772L178.223 68.22C178.223 67.244 178.091 66.468 177.827 65.892C177.571 65.316 177.103 65.028 176.423 65.028C176.055 65.028 175.739 65.14 175.475 65.364C175.219 65.58 175.027 65.864 174.899 66.216C174.771 66.568 174.707 66.94 174.707 67.332C174.707 68.156 174.855 68.764 175.151 69.156C175.455 69.54 175.859 69.732 176.363 69.732ZM184.817 74.988C184.681 74.988 184.545 74.98 184.409 74.964C184.281 74.948 184.189 74.924 184.133 74.892V73.848C184.181 73.88 184.273 73.904 184.409 73.92C184.553 73.936 184.689 73.944 184.817 73.944C185.201 73.944 185.537 73.808 185.825 73.536C186.121 73.272 186.405 72.76 186.677 72H186.101L183.821 66.06L183.269 65.904V65.34H186.161V65.904L185.237 66.048L186.413 69.588L186.965 71.34L187.481 69.576L188.549 66.048L187.745 65.904V65.34H190.157V65.904L189.557 66.048C188.381 69.648 187.689 71.692 187.481 72.18C187.209 72.868 186.961 73.404 186.737 73.788C186.513 74.18 186.249 74.476 185.945 74.676C185.641 74.884 185.265 74.988 184.817 74.988ZM197.204 68.436C197.204 69.116 197.064 69.74 196.784 70.308C196.504 70.868 196.104 71.312 195.584 71.64C195.064 71.968 194.456 72.132 193.76 72.132C193.568 72.132 193.36 72.116 193.136 72.084C192.912 72.052 192.732 72.012 192.596 71.964L192.632 72.972V74.184L193.88 74.316V74.904H190.532V74.316L191.396 74.184V66.264L190.52 66.048V65.4L192.224 65.184H192.248L192.5 65.4V66.108C192.74 65.844 193.036 65.62 193.388 65.436C193.748 65.252 194.148 65.16 194.588 65.16C195.06 65.16 195.492 65.276 195.884 65.508C196.284 65.74 196.604 66.1 196.844 66.588C197.084 67.076 197.204 67.692 197.204 68.436ZM194.096 66C193.792 66 193.508 66.064 193.244 66.192C192.98 66.32 192.776 66.46 192.632 66.612V71.136C192.688 71.232 192.828 71.32 193.052 71.4C193.284 71.472 193.536 71.508 193.808 71.508C194.424 71.508 194.92 71.264 195.296 70.776C195.68 70.288 195.872 69.552 195.872 68.568C195.872 67.704 195.704 67.06 195.368 66.636C195.04 66.212 194.616 66 194.096 66ZM198.247 68.652C198.247 67.932 198.395 67.308 198.691 66.78C198.987 66.252 199.375 65.852 199.855 65.58C200.343 65.3 200.863 65.16 201.415 65.16C202.423 65.16 203.179 65.48 203.683 66.12C204.195 66.76 204.451 67.6 204.451 68.64C204.451 69.368 204.303 69.996 204.007 70.524C203.711 71.052 203.319 71.452 202.831 71.724C202.351 71.996 201.835 72.132 201.283 72.132C200.275 72.132 199.515 71.812 199.003 71.172C198.499 70.532 198.247 69.692 198.247 68.652ZM201.355 71.448C201.907 71.448 202.331 71.22 202.627 70.764C202.923 70.308 203.071 69.632 203.071 68.736C203.071 67.848 202.935 67.144 202.663 66.624C202.391 66.104 201.955 65.844 201.355 65.844C200.803 65.844 200.375 66.072 200.071 66.528C199.775 66.984 199.627 67.66 199.627 68.556C199.627 69.444 199.767 70.148 200.047 70.668C200.327 71.188 200.763 71.448 201.355 71.448ZM207.72 65.316C208.488 65.292 208.888 65.28 208.92 65.28C209.928 65.28 210.632 65.412 211.032 65.676C211.432 65.932 211.632 66.316 211.632 66.828C211.632 67.212 211.516 67.536 211.284 67.8C211.06 68.056 210.74 68.244 210.324 68.364C210.916 68.412 211.372 68.584 211.692 68.88C212.012 69.176 212.172 69.532 212.172 69.948C212.172 70.628 211.912 71.152 211.392 71.52C210.872 71.88 210.024 72.06 208.848 72.06C208.616 72.06 208.396 72.056 208.188 72.048C207.988 72.04 207.816 72.032 207.672 72.024L206.856 72H205.632V71.412L206.472 71.268V66.096L205.644 65.928V65.34H206.964L207.72 65.316ZM208.86 68.16C209.38 68.16 209.76 68.044 210 67.812C210.248 67.58 210.372 67.28 210.372 66.912C210.372 66.592 210.256 66.352 210.024 66.192C209.792 66.024 209.388 65.94 208.812 65.94H207.696V68.16H208.86ZM207.696 71.292C207.776 71.316 207.932 71.34 208.164 71.364C208.396 71.38 208.6 71.388 208.776 71.388C209.512 71.388 210.032 71.288 210.336 71.088C210.64 70.888 210.792 70.556 210.792 70.092C210.792 69.652 210.652 69.324 210.372 69.108C210.092 68.892 209.652 68.784 209.052 68.784H207.696V71.292ZM216.164 72.132C215.196 72.132 214.456 71.816 213.944 71.184C213.44 70.552 213.188 69.708 213.188 68.652C213.188 67.956 213.32 67.344 213.584 66.816C213.848 66.288 214.216 65.88 214.688 65.592C215.168 65.304 215.712 65.16 216.32 65.16C217.064 65.16 217.64 65.368 218.048 65.784C218.464 66.192 218.684 66.78 218.708 67.548C218.708 68.036 218.68 68.408 218.624 68.664H214.496C214.512 69.456 214.696 70.096 215.048 70.584C215.4 71.064 215.9 71.304 216.548 71.304C216.868 71.304 217.2 71.248 217.544 71.136C217.896 71.016 218.168 70.876 218.36 70.716L218.588 71.244C218.356 71.484 218.012 71.692 217.556 71.868C217.1 72.044 216.636 72.132 216.164 72.132ZM217.388 68.028C217.412 67.86 217.424 67.688 217.424 67.512C217.416 66.992 217.304 66.584 217.088 66.288C216.88 65.984 216.548 65.832 216.092 65.832C215.628 65.832 215.256 66 214.976 66.336C214.704 66.672 214.548 67.236 214.508 68.028H217.388ZM222.895 65.34V65.928L221.899 66.096V68.196H225.211V66.096L224.203 65.928V65.34H227.323V65.928L226.447 66.096V71.304L227.371 71.412V72H224.179V71.412L225.211 71.304V68.892H221.899V71.304L222.931 71.412V72H219.751V71.412L220.663 71.304V66.096L219.763 65.928V65.34H222.895ZM231.938 67.968C233.65 67.968 234.506 68.636 234.506 69.972C234.506 70.676 234.274 71.212 233.81 71.58C233.346 71.94 232.686 72.12 231.83 72.12C231.726 72.12 231.558 72.112 231.326 72.096C231.094 72.08 230.91 72.068 230.774 72.06C230.334 72.02 230.006 72 229.79 72H228.314V71.436L229.37 71.304V66.096L228.386 65.94V65.34H231.782V65.94L230.594 66.096V67.98L231.938 67.968ZM230.594 71.376C230.914 71.432 231.266 71.46 231.65 71.46C232.682 71.46 233.198 70.996 233.198 70.068C233.198 69.58 233.066 69.224 232.802 69C232.538 68.776 232.134 68.664 231.59 68.664H230.594V71.376Z" fill="white"/>
<path id="Rectangle 42" d="M313 42C313 30.9543 321.954 22 333 22H339C350.046 22 359 30.9543 359 42V68.6602L313 74V42Z" fill="white"/>
</g>
</svg>
