<svg width="530" height="139" viewBox="0 0 530 139" fill="none" xmlns="http://www.w3.org/2000/svg">
<g id="Group 8">
<path id="Rectangle 5" d="M5 70.5103L525 5.66228V68.4897L5 133.338V70.5103ZM1.62873 133.758C1.63042 133.758 1.63208 133.758 1.63378 133.758L1.62873 133.758Z" fill="#C4C4C4" stroke="white" stroke-width="10"/>
<path id="6 &#209;&#131;&#209;&#128;&#208;&#190;&#208;&#178;&#208;&#181;&#208;&#189;&#209;&#140;" d="M238.389 73.132C237.741 73.132 237.181 72.972 236.709 72.652C236.245 72.324 235.889 71.884 235.641 71.332C235.401 70.772 235.281 70.152 235.281 69.472C235.281 68.464 235.525 67.536 236.013 66.688C236.501 65.832 237.125 65.132 237.885 64.588C238.653 64.036 239.437 63.696 240.237 63.568L240.513 64.084C239.577 64.38 238.789 64.876 238.149 65.572C237.509 66.26 237.073 67.044 236.841 67.924C237.041 67.692 237.317 67.496 237.669 67.336C238.021 67.168 238.429 67.084 238.893 67.084C239.725 67.084 240.361 67.328 240.801 67.816C241.249 68.304 241.473 68.98 241.473 69.844C241.473 70.428 241.349 70.972 241.101 71.476C240.861 71.972 240.505 72.372 240.033 72.676C239.569 72.98 239.021 73.132 238.389 73.132ZM238.533 67.828C238.101 67.828 237.717 67.928 237.381 68.128C237.045 68.32 236.813 68.528 236.685 68.752C236.669 68.944 236.661 69.1 236.661 69.22C236.637 70.188 236.765 70.98 237.045 71.596C237.325 72.212 237.797 72.52 238.461 72.52C238.829 72.52 239.141 72.408 239.397 72.184C239.653 71.952 239.841 71.652 239.961 71.284C240.089 70.916 240.153 70.528 240.153 70.12C240.153 69.328 240.005 68.748 239.709 68.38C239.421 68.012 239.029 67.828 238.533 67.828ZM246.698 75.988C246.562 75.988 246.426 75.98 246.29 75.964C246.162 75.948 246.07 75.924 246.014 75.892V74.848C246.062 74.88 246.154 74.904 246.29 74.92C246.434 74.936 246.57 74.944 246.698 74.944C247.082 74.944 247.418 74.808 247.706 74.536C248.002 74.272 248.286 73.76 248.558 73H247.982L245.702 67.06L245.15 66.904V66.34H248.042V66.904L247.118 67.048L248.294 70.588L248.846 72.34L249.362 70.576L250.43 67.048L249.626 66.904V66.34H252.038V66.904L251.438 67.048C250.262 70.648 249.57 72.692 249.362 73.18C249.09 73.868 248.842 74.404 248.618 74.788C248.394 75.18 248.13 75.476 247.826 75.676C247.522 75.884 247.146 75.988 246.698 75.988ZM259.085 69.436C259.085 70.116 258.945 70.74 258.665 71.308C258.385 71.868 257.985 72.312 257.465 72.64C256.945 72.968 256.337 73.132 255.641 73.132C255.449 73.132 255.241 73.116 255.017 73.084C254.793 73.052 254.613 73.012 254.477 72.964L254.513 73.972V75.184L255.761 75.316V75.904H252.413V75.316L253.277 75.184V67.264L252.401 67.048V66.4L254.105 66.184H254.129L254.381 66.4V67.108C254.621 66.844 254.917 66.62 255.269 66.436C255.629 66.252 256.029 66.16 256.469 66.16C256.941 66.16 257.373 66.276 257.765 66.508C258.165 66.74 258.485 67.1 258.725 67.588C258.965 68.076 259.085 68.692 259.085 69.436ZM255.977 67C255.673 67 255.389 67.064 255.125 67.192C254.861 67.32 254.657 67.46 254.513 67.612V72.136C254.569 72.232 254.709 72.32 254.933 72.4C255.165 72.472 255.417 72.508 255.689 72.508C256.305 72.508 256.801 72.264 257.177 71.776C257.561 71.288 257.753 70.552 257.753 69.568C257.753 68.704 257.585 68.06 257.249 67.636C256.921 67.212 256.497 67 255.977 67ZM260.128 69.652C260.128 68.932 260.276 68.308 260.572 67.78C260.868 67.252 261.256 66.852 261.736 66.58C262.224 66.3 262.744 66.16 263.296 66.16C264.304 66.16 265.06 66.48 265.564 67.12C266.076 67.76 266.332 68.6 266.332 69.64C266.332 70.368 266.184 70.996 265.888 71.524C265.592 72.052 265.2 72.452 264.712 72.724C264.232 72.996 263.716 73.132 263.164 73.132C262.156 73.132 261.396 72.812 260.884 72.172C260.38 71.532 260.128 70.692 260.128 69.652ZM263.236 72.448C263.788 72.448 264.212 72.22 264.508 71.764C264.804 71.308 264.952 70.632 264.952 69.736C264.952 68.848 264.816 68.144 264.544 67.624C264.272 67.104 263.836 66.844 263.236 66.844C262.684 66.844 262.256 67.072 261.952 67.528C261.656 67.984 261.508 68.66 261.508 69.556C261.508 70.444 261.648 71.148 261.928 71.668C262.208 72.188 262.644 72.448 263.236 72.448ZM269.601 66.316C270.369 66.292 270.769 66.28 270.801 66.28C271.809 66.28 272.513 66.412 272.913 66.676C273.313 66.932 273.513 67.316 273.513 67.828C273.513 68.212 273.397 68.536 273.165 68.8C272.941 69.056 272.621 69.244 272.205 69.364C272.797 69.412 273.253 69.584 273.573 69.88C273.893 70.176 274.053 70.532 274.053 70.948C274.053 71.628 273.793 72.152 273.273 72.52C272.753 72.88 271.905 73.06 270.729 73.06C270.497 73.06 270.277 73.056 270.069 73.048C269.869 73.04 269.697 73.032 269.553 73.024L268.737 73H267.513V72.412L268.353 72.268V67.096L267.525 66.928V66.34H268.845L269.601 66.316ZM270.741 69.16C271.261 69.16 271.641 69.044 271.881 68.812C272.129 68.58 272.253 68.28 272.253 67.912C272.253 67.592 272.137 67.352 271.905 67.192C271.673 67.024 271.269 66.94 270.693 66.94H269.577V69.16H270.741ZM269.577 72.292C269.657 72.316 269.813 72.34 270.045 72.364C270.277 72.38 270.481 72.388 270.657 72.388C271.393 72.388 271.913 72.288 272.217 72.088C272.521 71.888 272.673 71.556 272.673 71.092C272.673 70.652 272.533 70.324 272.253 70.108C271.973 69.892 271.533 69.784 270.933 69.784H269.577V72.292ZM278.045 73.132C277.077 73.132 276.337 72.816 275.825 72.184C275.321 71.552 275.069 70.708 275.069 69.652C275.069 68.956 275.201 68.344 275.465 67.816C275.729 67.288 276.097 66.88 276.569 66.592C277.049 66.304 277.593 66.16 278.201 66.16C278.945 66.16 279.521 66.368 279.929 66.784C280.345 67.192 280.565 67.78 280.589 68.548C280.589 69.036 280.561 69.408 280.505 69.664H276.377C276.393 70.456 276.577 71.096 276.929 71.584C277.281 72.064 277.781 72.304 278.429 72.304C278.749 72.304 279.081 72.248 279.425 72.136C279.777 72.016 280.049 71.876 280.241 71.716L280.469 72.244C280.237 72.484 279.893 72.692 279.437 72.868C278.981 73.044 278.517 73.132 278.045 73.132ZM279.269 69.028C279.293 68.86 279.305 68.688 279.305 68.512C279.297 67.992 279.185 67.584 278.969 67.288C278.761 66.984 278.429 66.832 277.973 66.832C277.509 66.832 277.137 67 276.857 67.336C276.585 67.672 276.429 68.236 276.389 69.028H279.269ZM284.776 66.34V66.928L283.78 67.096V69.196H287.092V67.096L286.084 66.928V66.34H289.204V66.928L288.328 67.096V72.304L289.252 72.412V73H286.06V72.412L287.092 72.304V69.892H283.78V72.304L284.812 72.412V73H281.632V72.412L282.544 72.304V67.096L281.644 66.928V66.34H284.776ZM293.819 68.968C295.531 68.968 296.387 69.636 296.387 70.972C296.387 71.676 296.155 72.212 295.691 72.58C295.227 72.94 294.567 73.12 293.711 73.12C293.607 73.12 293.439 73.112 293.207 73.096C292.975 73.08 292.791 73.068 292.655 73.06C292.215 73.02 291.887 73 291.671 73H290.195V72.436L291.251 72.304V67.096L290.267 66.94V66.34H293.663V66.94L292.475 67.096V68.98L293.819 68.968ZM292.475 72.376C292.795 72.432 293.147 72.46 293.531 72.46C294.563 72.46 295.079 71.996 295.079 71.068C295.079 70.58 294.947 70.224 294.683 70C294.419 69.776 294.015 69.664 293.471 69.664H292.475V72.376Z" fill="white"/>
<path id="Rectangle 29" d="M378 50C378 38.9543 386.954 30 398 30H404C415.046 30 424 38.9543 424 50V76.6602L378 82V50Z" fill="white"/>
</g>
</svg>
