<svg width="490" height="138" viewBox="0 0 490 138" fill="none" xmlns="http://www.w3.org/2000/svg">
<g id="Group 12">
<path id="Rectangle 9" d="M5 69.9946L485 5.71422V68.0054L5 132.286V69.9946Z" fill="#C4C4C4" stroke="white" stroke-width="10"/>
<path id="10 &#209;&#131;&#209;&#128;&#208;&#190;&#208;&#178;&#208;&#181;&#208;&#189;&#209;&#140;" d="M214.611 65.808C214.443 65.872 214.179 65.948 213.819 66.036C213.459 66.124 213.167 66.184 212.943 66.216L212.823 65.544C213.231 65.456 213.647 65.308 214.071 65.1C214.503 64.892 214.863 64.664 215.151 64.416H215.163L215.895 64.536V71.304L217.383 71.412V72H213.063V71.412L214.611 71.304V65.808ZM221.445 72.108C220.421 72.108 219.653 71.756 219.141 71.052C218.637 70.34 218.385 69.424 218.385 68.304C218.385 67.52 218.529 66.836 218.817 66.252C219.105 65.66 219.497 65.208 219.993 64.896C220.489 64.584 221.033 64.428 221.625 64.428C222.665 64.428 223.425 64.764 223.905 65.436C224.385 66.1 224.625 67.012 224.625 68.172C224.625 68.948 224.485 69.636 224.205 70.236C223.933 70.828 223.553 71.288 223.065 71.616C222.585 71.944 222.045 72.108 221.445 72.108ZM221.493 71.496C222.685 71.496 223.281 70.428 223.281 68.292C223.281 67.252 223.145 66.452 222.873 65.892C222.609 65.332 222.161 65.052 221.529 65.052C220.913 65.052 220.457 65.32 220.161 65.856C219.865 66.384 219.717 67.144 219.717 68.136C219.717 69.152 219.857 69.968 220.137 70.584C220.425 71.192 220.877 71.496 221.493 71.496ZM229.711 74.988C229.575 74.988 229.439 74.98 229.303 74.964C229.175 74.948 229.083 74.924 229.027 74.892V73.848C229.075 73.88 229.167 73.904 229.303 73.92C229.447 73.936 229.583 73.944 229.711 73.944C230.095 73.944 230.431 73.808 230.719 73.536C231.015 73.272 231.299 72.76 231.571 72H230.995L228.715 66.06L228.163 65.904V65.34H231.055V65.904L230.131 66.048L231.307 69.588L231.859 71.34L232.375 69.576L233.443 66.048L232.639 65.904V65.34H235.051V65.904L234.451 66.048C233.275 69.648 232.583 71.692 232.375 72.18C232.103 72.868 231.855 73.404 231.631 73.788C231.407 74.18 231.143 74.476 230.839 74.676C230.535 74.884 230.159 74.988 229.711 74.988ZM242.098 68.436C242.098 69.116 241.958 69.74 241.678 70.308C241.398 70.868 240.998 71.312 240.478 71.64C239.958 71.968 239.35 72.132 238.654 72.132C238.462 72.132 238.254 72.116 238.03 72.084C237.806 72.052 237.626 72.012 237.49 71.964L237.526 72.972V74.184L238.774 74.316V74.904H235.426V74.316L236.29 74.184V66.264L235.414 66.048V65.4L237.118 65.184H237.142L237.394 65.4V66.108C237.634 65.844 237.93 65.62 238.282 65.436C238.642 65.252 239.042 65.16 239.482 65.16C239.954 65.16 240.386 65.276 240.778 65.508C241.178 65.74 241.498 66.1 241.738 66.588C241.978 67.076 242.098 67.692 242.098 68.436ZM238.99 66C238.686 66 238.402 66.064 238.138 66.192C237.874 66.32 237.67 66.46 237.526 66.612V71.136C237.582 71.232 237.722 71.32 237.946 71.4C238.178 71.472 238.43 71.508 238.702 71.508C239.318 71.508 239.814 71.264 240.19 70.776C240.574 70.288 240.766 69.552 240.766 68.568C240.766 67.704 240.598 67.06 240.262 66.636C239.934 66.212 239.51 66 238.99 66ZM243.142 68.652C243.142 67.932 243.29 67.308 243.586 66.78C243.882 66.252 244.27 65.852 244.75 65.58C245.238 65.3 245.758 65.16 246.31 65.16C247.318 65.16 248.074 65.48 248.578 66.12C249.09 66.76 249.346 67.6 249.346 68.64C249.346 69.368 249.198 69.996 248.902 70.524C248.606 71.052 248.214 71.452 247.726 71.724C247.246 71.996 246.73 72.132 246.178 72.132C245.17 72.132 244.41 71.812 243.898 71.172C243.394 70.532 243.142 69.692 243.142 68.652ZM246.25 71.448C246.802 71.448 247.226 71.22 247.522 70.764C247.818 70.308 247.966 69.632 247.966 68.736C247.966 67.848 247.83 67.144 247.558 66.624C247.286 66.104 246.85 65.844 246.25 65.844C245.698 65.844 245.27 66.072 244.966 66.528C244.67 66.984 244.522 67.66 244.522 68.556C244.522 69.444 244.662 70.148 244.942 70.668C245.222 71.188 245.658 71.448 246.25 71.448ZM252.614 65.316C253.382 65.292 253.782 65.28 253.814 65.28C254.822 65.28 255.526 65.412 255.926 65.676C256.326 65.932 256.526 66.316 256.526 66.828C256.526 67.212 256.41 67.536 256.178 67.8C255.954 68.056 255.634 68.244 255.218 68.364C255.81 68.412 256.266 68.584 256.586 68.88C256.906 69.176 257.066 69.532 257.066 69.948C257.066 70.628 256.806 71.152 256.286 71.52C255.766 71.88 254.918 72.06 253.742 72.06C253.51 72.06 253.29 72.056 253.082 72.048C252.882 72.04 252.71 72.032 252.566 72.024L251.75 72H250.526V71.412L251.366 71.268V66.096L250.538 65.928V65.34H251.858L252.614 65.316ZM253.754 68.16C254.274 68.16 254.654 68.044 254.894 67.812C255.142 67.58 255.266 67.28 255.266 66.912C255.266 66.592 255.15 66.352 254.918 66.192C254.686 66.024 254.282 65.94 253.706 65.94H252.59V68.16H253.754ZM252.59 71.292C252.67 71.316 252.826 71.34 253.058 71.364C253.29 71.38 253.494 71.388 253.67 71.388C254.406 71.388 254.926 71.288 255.23 71.088C255.534 70.888 255.686 70.556 255.686 70.092C255.686 69.652 255.546 69.324 255.266 69.108C254.986 68.892 254.546 68.784 253.946 68.784H252.59V71.292ZM261.058 72.132C260.09 72.132 259.35 71.816 258.838 71.184C258.334 70.552 258.082 69.708 258.082 68.652C258.082 67.956 258.214 67.344 258.478 66.816C258.742 66.288 259.11 65.88 259.582 65.592C260.062 65.304 260.606 65.16 261.214 65.16C261.958 65.16 262.534 65.368 262.942 65.784C263.358 66.192 263.578 66.78 263.602 67.548C263.602 68.036 263.574 68.408 263.518 68.664H259.39C259.406 69.456 259.59 70.096 259.942 70.584C260.294 71.064 260.794 71.304 261.442 71.304C261.762 71.304 262.094 71.248 262.438 71.136C262.79 71.016 263.062 70.876 263.254 70.716L263.482 71.244C263.25 71.484 262.906 71.692 262.45 71.868C261.994 72.044 261.53 72.132 261.058 72.132ZM262.282 68.028C262.306 67.86 262.318 67.688 262.318 67.512C262.31 66.992 262.198 66.584 261.982 66.288C261.774 65.984 261.442 65.832 260.986 65.832C260.522 65.832 260.15 66 259.87 66.336C259.598 66.672 259.442 67.236 259.402 68.028H262.282ZM267.79 65.34V65.928L266.794 66.096V68.196H270.106V66.096L269.098 65.928V65.34H272.218V65.928L271.342 66.096V71.304L272.266 71.412V72H269.074V71.412L270.106 71.304V68.892H266.794V71.304L267.826 71.412V72H264.646V71.412L265.558 71.304V66.096L264.658 65.928V65.34H267.79ZM276.833 67.968C278.545 67.968 279.401 68.636 279.401 69.972C279.401 70.676 279.169 71.212 278.705 71.58C278.241 71.94 277.581 72.12 276.725 72.12C276.621 72.12 276.453 72.112 276.221 72.096C275.989 72.08 275.805 72.068 275.669 72.06C275.229 72.02 274.901 72 274.685 72H273.209V71.436L274.265 71.304V66.096L273.281 65.94V65.34H276.677V65.94L275.489 66.096V67.98L276.833 67.968ZM275.489 71.376C275.809 71.432 276.161 71.46 276.545 71.46C277.577 71.46 278.093 70.996 278.093 70.068C278.093 69.58 277.961 69.224 277.697 69C277.433 68.776 277.029 68.664 276.485 68.664H275.489V71.376Z" fill="white"/>
<path id="Rectangle 33" d="M358 47C358 35.9543 366.954 27 378 27H384C395.046 27 404 35.9543 404 47V73.6602L358 79V47Z" fill="white"/>
</g>
</svg>
