<svg width="500" height="139" viewBox="0 0 500 139" fill="none" xmlns="http://www.w3.org/2000/svg">
<g id="Group 11">
<path id="Rectangle 8" d="M5 70.4777L495 5.70445V68.5224L5 133.296V70.4777Z" fill="#C4C4C4" stroke="white" stroke-width="10"/>
<path id="9 &#209;&#131;&#209;&#128;&#208;&#190;&#208;&#178;&#208;&#181;&#208;&#189;&#209;&#140;" d="M223.365 65.416C224.037 65.416 224.605 65.572 225.069 65.884C225.533 66.188 225.877 66.608 226.101 67.144C226.333 67.68 226.449 68.284 226.449 68.956C226.449 70.012 226.225 70.976 225.777 71.848C225.329 72.72 224.741 73.428 224.013 73.972C223.293 74.524 222.529 74.868 221.721 75.004L221.445 74.476C222.373 74.172 223.129 73.68 223.713 73C224.297 72.32 224.693 71.528 224.901 70.624C224.701 70.856 224.429 71.056 224.085 71.224C223.741 71.384 223.369 71.464 222.969 71.464C222.417 71.464 221.933 71.348 221.517 71.116C221.109 70.876 220.793 70.54 220.569 70.108C220.345 69.668 220.233 69.16 220.233 68.584C220.233 68.016 220.357 67.492 220.605 67.012C220.861 66.532 221.225 66.148 221.697 65.86C222.169 65.564 222.725 65.416 223.365 65.416ZM223.221 70.732C223.653 70.732 224.037 70.632 224.373 70.432C224.709 70.224 224.933 70.004 225.045 69.772L225.081 69.22C225.081 68.244 224.949 67.468 224.685 66.892C224.429 66.316 223.961 66.028 223.281 66.028C222.913 66.028 222.597 66.14 222.333 66.364C222.077 66.58 221.885 66.864 221.757 67.216C221.629 67.568 221.565 67.94 221.565 68.332C221.565 69.156 221.713 69.764 222.009 70.156C222.313 70.54 222.717 70.732 223.221 70.732ZM231.674 75.988C231.538 75.988 231.402 75.98 231.266 75.964C231.138 75.948 231.046 75.924 230.99 75.892V74.848C231.038 74.88 231.13 74.904 231.266 74.92C231.41 74.936 231.546 74.944 231.674 74.944C232.058 74.944 232.394 74.808 232.682 74.536C232.978 74.272 233.262 73.76 233.534 73H232.958L230.678 67.06L230.126 66.904V66.34H233.018V66.904L232.094 67.048L233.27 70.588L233.822 72.34L234.338 70.576L235.406 67.048L234.602 66.904V66.34H237.014V66.904L236.414 67.048C235.238 70.648 234.546 72.692 234.338 73.18C234.066 73.868 233.818 74.404 233.594 74.788C233.37 75.18 233.106 75.476 232.802 75.676C232.498 75.884 232.122 75.988 231.674 75.988ZM244.061 69.436C244.061 70.116 243.921 70.74 243.641 71.308C243.361 71.868 242.961 72.312 242.441 72.64C241.921 72.968 241.313 73.132 240.617 73.132C240.425 73.132 240.217 73.116 239.993 73.084C239.769 73.052 239.589 73.012 239.453 72.964L239.489 73.972V75.184L240.737 75.316V75.904H237.389V75.316L238.253 75.184V67.264L237.377 67.048V66.4L239.081 66.184H239.105L239.357 66.4V67.108C239.597 66.844 239.893 66.62 240.245 66.436C240.605 66.252 241.005 66.16 241.445 66.16C241.917 66.16 242.349 66.276 242.741 66.508C243.141 66.74 243.461 67.1 243.701 67.588C243.941 68.076 244.061 68.692 244.061 69.436ZM240.953 67C240.649 67 240.365 67.064 240.101 67.192C239.837 67.32 239.633 67.46 239.489 67.612V72.136C239.545 72.232 239.685 72.32 239.909 72.4C240.141 72.472 240.393 72.508 240.665 72.508C241.281 72.508 241.777 72.264 242.153 71.776C242.537 71.288 242.729 70.552 242.729 69.568C242.729 68.704 242.561 68.06 242.225 67.636C241.897 67.212 241.473 67 240.953 67ZM245.104 69.652C245.104 68.932 245.252 68.308 245.548 67.78C245.844 67.252 246.232 66.852 246.712 66.58C247.2 66.3 247.72 66.16 248.272 66.16C249.28 66.16 250.036 66.48 250.54 67.12C251.052 67.76 251.308 68.6 251.308 69.64C251.308 70.368 251.16 70.996 250.864 71.524C250.568 72.052 250.176 72.452 249.688 72.724C249.208 72.996 248.692 73.132 248.14 73.132C247.132 73.132 246.372 72.812 245.86 72.172C245.356 71.532 245.104 70.692 245.104 69.652ZM248.212 72.448C248.764 72.448 249.188 72.22 249.484 71.764C249.78 71.308 249.928 70.632 249.928 69.736C249.928 68.848 249.792 68.144 249.52 67.624C249.248 67.104 248.812 66.844 248.212 66.844C247.66 66.844 247.232 67.072 246.928 67.528C246.632 67.984 246.484 68.66 246.484 69.556C246.484 70.444 246.624 71.148 246.904 71.668C247.184 72.188 247.62 72.448 248.212 72.448ZM254.577 66.316C255.345 66.292 255.745 66.28 255.777 66.28C256.785 66.28 257.489 66.412 257.889 66.676C258.289 66.932 258.489 67.316 258.489 67.828C258.489 68.212 258.373 68.536 258.141 68.8C257.917 69.056 257.597 69.244 257.181 69.364C257.773 69.412 258.229 69.584 258.549 69.88C258.869 70.176 259.029 70.532 259.029 70.948C259.029 71.628 258.769 72.152 258.249 72.52C257.729 72.88 256.881 73.06 255.705 73.06C255.473 73.06 255.253 73.056 255.045 73.048C254.845 73.04 254.673 73.032 254.529 73.024L253.713 73H252.489V72.412L253.329 72.268V67.096L252.501 66.928V66.34H253.821L254.577 66.316ZM255.717 69.16C256.237 69.16 256.617 69.044 256.857 68.812C257.105 68.58 257.229 68.28 257.229 67.912C257.229 67.592 257.113 67.352 256.881 67.192C256.649 67.024 256.245 66.94 255.669 66.94H254.553V69.16H255.717ZM254.553 72.292C254.633 72.316 254.789 72.34 255.021 72.364C255.253 72.38 255.457 72.388 255.633 72.388C256.369 72.388 256.889 72.288 257.193 72.088C257.497 71.888 257.649 71.556 257.649 71.092C257.649 70.652 257.509 70.324 257.229 70.108C256.949 69.892 256.509 69.784 255.909 69.784H254.553V72.292ZM263.021 73.132C262.053 73.132 261.313 72.816 260.801 72.184C260.297 71.552 260.045 70.708 260.045 69.652C260.045 68.956 260.177 68.344 260.441 67.816C260.705 67.288 261.073 66.88 261.545 66.592C262.025 66.304 262.569 66.16 263.177 66.16C263.921 66.16 264.497 66.368 264.905 66.784C265.321 67.192 265.541 67.78 265.565 68.548C265.565 69.036 265.537 69.408 265.481 69.664H261.353C261.369 70.456 261.553 71.096 261.905 71.584C262.257 72.064 262.757 72.304 263.405 72.304C263.725 72.304 264.057 72.248 264.401 72.136C264.753 72.016 265.025 71.876 265.217 71.716L265.445 72.244C265.213 72.484 264.869 72.692 264.413 72.868C263.957 73.044 263.493 73.132 263.021 73.132ZM264.245 69.028C264.269 68.86 264.281 68.688 264.281 68.512C264.273 67.992 264.161 67.584 263.945 67.288C263.737 66.984 263.405 66.832 262.949 66.832C262.485 66.832 262.113 67 261.833 67.336C261.561 67.672 261.405 68.236 261.365 69.028H264.245ZM269.753 66.34V66.928L268.757 67.096V69.196H272.069V67.096L271.061 66.928V66.34H274.181V66.928L273.305 67.096V72.304L274.229 72.412V73H271.037V72.412L272.069 72.304V69.892H268.757V72.304L269.789 72.412V73H266.609V72.412L267.521 72.304V67.096L266.621 66.928V66.34H269.753ZM278.796 68.968C280.508 68.968 281.364 69.636 281.364 70.972C281.364 71.676 281.132 72.212 280.668 72.58C280.204 72.94 279.544 73.12 278.688 73.12C278.584 73.12 278.416 73.112 278.184 73.096C277.952 73.08 277.768 73.068 277.632 73.06C277.192 73.02 276.864 73 276.648 73H275.172V72.436L276.228 72.304V67.096L275.244 66.94V66.34H278.64V66.94L277.452 67.096V68.98L278.796 68.968ZM277.452 72.376C277.772 72.432 278.124 72.46 278.508 72.46C279.54 72.46 280.056 71.996 280.056 71.068C280.056 70.58 279.924 70.224 279.66 70C279.396 69.776 278.992 69.664 278.448 69.664H277.452V72.376Z" fill="white"/>
<path id="Rectangle 32" d="M363 50C363 38.9543 371.954 30 383 30H389C400.046 30 409 38.9543 409 50V76.6602L363 82V50Z" fill="white"/>
</g>
</svg>
