<svg width="520" height="138" viewBox="0 0 520 138" fill="none" xmlns="http://www.w3.org/2000/svg">
<g id="Group 9">
<path id="Rectangle 6" d="M5 70.0283L515 5.67061V67.9717L5 132.329V70.0283ZM517.624 67.6405L517.618 67.6414C517.62 67.6411 517.622 67.6408 517.624 67.6405ZM2.3756 70.3595L2.38178 70.3587C2.37971 70.359 2.37765 70.3592 2.37559 70.3595L2 67.3831L2.3756 70.3595Z" fill="#C4C4C4" stroke="white" stroke-width="10"/>
<path id="7 &#209;&#131;&#209;&#128;&#208;&#190;&#208;&#178;&#208;&#181;&#208;&#189;&#209;&#140;" d="M231.758 73.716C232.19 72.772 232.602 71.824 232.994 70.872C233.394 69.912 233.95 68.556 234.662 66.804L235.226 65.388L231.674 65.436L231.17 67.032L230.402 66.888L230.654 64.512H236.126L236.378 64.836C235.986 65.932 235.438 67.472 234.734 69.456C234.03 71.432 233.486 72.972 233.102 74.076L231.758 73.716ZM241.241 74.988C241.105 74.988 240.969 74.98 240.833 74.964C240.705 74.948 240.613 74.924 240.557 74.892V73.848C240.605 73.88 240.697 73.904 240.833 73.92C240.977 73.936 241.113 73.944 241.241 73.944C241.625 73.944 241.961 73.808 242.249 73.536C242.545 73.272 242.829 72.76 243.101 72H242.525L240.245 66.06L239.693 65.904V65.34H242.585V65.904L241.661 66.048L242.837 69.588L243.389 71.34L243.905 69.576L244.973 66.048L244.169 65.904V65.34H246.581V65.904L245.981 66.048C244.805 69.648 244.113 71.692 243.905 72.18C243.633 72.868 243.385 73.404 243.161 73.788C242.937 74.18 242.673 74.476 242.369 74.676C242.065 74.884 241.689 74.988 241.241 74.988ZM253.628 68.436C253.628 69.116 253.488 69.74 253.208 70.308C252.928 70.868 252.528 71.312 252.008 71.64C251.488 71.968 250.88 72.132 250.184 72.132C249.992 72.132 249.784 72.116 249.56 72.084C249.336 72.052 249.156 72.012 249.02 71.964L249.056 72.972V74.184L250.304 74.316V74.904H246.956V74.316L247.82 74.184V66.264L246.944 66.048V65.4L248.648 65.184H248.672L248.924 65.4V66.108C249.164 65.844 249.46 65.62 249.812 65.436C250.172 65.252 250.572 65.16 251.012 65.16C251.484 65.16 251.916 65.276 252.308 65.508C252.708 65.74 253.028 66.1 253.268 66.588C253.508 67.076 253.628 67.692 253.628 68.436ZM250.52 66C250.216 66 249.932 66.064 249.668 66.192C249.404 66.32 249.2 66.46 249.056 66.612V71.136C249.112 71.232 249.252 71.32 249.476 71.4C249.708 71.472 249.96 71.508 250.232 71.508C250.848 71.508 251.344 71.264 251.72 70.776C252.104 70.288 252.296 69.552 252.296 68.568C252.296 67.704 252.128 67.06 251.792 66.636C251.464 66.212 251.04 66 250.52 66ZM254.671 68.652C254.671 67.932 254.819 67.308 255.115 66.78C255.411 66.252 255.799 65.852 256.279 65.58C256.767 65.3 257.287 65.16 257.839 65.16C258.847 65.16 259.603 65.48 260.107 66.12C260.619 66.76 260.875 67.6 260.875 68.64C260.875 69.368 260.727 69.996 260.431 70.524C260.135 71.052 259.743 71.452 259.255 71.724C258.775 71.996 258.259 72.132 257.707 72.132C256.699 72.132 255.939 71.812 255.427 71.172C254.923 70.532 254.671 69.692 254.671 68.652ZM257.779 71.448C258.331 71.448 258.755 71.22 259.051 70.764C259.347 70.308 259.495 69.632 259.495 68.736C259.495 67.848 259.359 67.144 259.087 66.624C258.815 66.104 258.379 65.844 257.779 65.844C257.227 65.844 256.799 66.072 256.495 66.528C256.199 66.984 256.051 67.66 256.051 68.556C256.051 69.444 256.191 70.148 256.471 70.668C256.751 71.188 257.187 71.448 257.779 71.448ZM264.144 65.316C264.912 65.292 265.312 65.28 265.344 65.28C266.352 65.28 267.056 65.412 267.456 65.676C267.856 65.932 268.056 66.316 268.056 66.828C268.056 67.212 267.94 67.536 267.708 67.8C267.484 68.056 267.164 68.244 266.748 68.364C267.34 68.412 267.796 68.584 268.116 68.88C268.436 69.176 268.596 69.532 268.596 69.948C268.596 70.628 268.336 71.152 267.816 71.52C267.296 71.88 266.448 72.06 265.272 72.06C265.04 72.06 264.82 72.056 264.612 72.048C264.412 72.04 264.24 72.032 264.096 72.024L263.28 72H262.056V71.412L262.896 71.268V66.096L262.068 65.928V65.34H263.388L264.144 65.316ZM265.284 68.16C265.804 68.16 266.184 68.044 266.424 67.812C266.672 67.58 266.796 67.28 266.796 66.912C266.796 66.592 266.68 66.352 266.448 66.192C266.216 66.024 265.812 65.94 265.236 65.94H264.12V68.16H265.284ZM264.12 71.292C264.2 71.316 264.356 71.34 264.588 71.364C264.82 71.38 265.024 71.388 265.2 71.388C265.936 71.388 266.456 71.288 266.76 71.088C267.064 70.888 267.216 70.556 267.216 70.092C267.216 69.652 267.076 69.324 266.796 69.108C266.516 68.892 266.076 68.784 265.476 68.784H264.12V71.292ZM272.588 72.132C271.62 72.132 270.88 71.816 270.368 71.184C269.864 70.552 269.612 69.708 269.612 68.652C269.612 67.956 269.744 67.344 270.008 66.816C270.272 66.288 270.64 65.88 271.112 65.592C271.592 65.304 272.136 65.16 272.744 65.16C273.488 65.16 274.064 65.368 274.472 65.784C274.888 66.192 275.108 66.78 275.132 67.548C275.132 68.036 275.104 68.408 275.048 68.664H270.92C270.936 69.456 271.12 70.096 271.472 70.584C271.824 71.064 272.324 71.304 272.972 71.304C273.292 71.304 273.624 71.248 273.968 71.136C274.32 71.016 274.592 70.876 274.784 70.716L275.012 71.244C274.78 71.484 274.436 71.692 273.98 71.868C273.524 72.044 273.06 72.132 272.588 72.132ZM273.812 68.028C273.836 67.86 273.848 67.688 273.848 67.512C273.84 66.992 273.728 66.584 273.512 66.288C273.304 65.984 272.972 65.832 272.516 65.832C272.052 65.832 271.68 66 271.4 66.336C271.128 66.672 270.972 67.236 270.932 68.028H273.812ZM279.319 65.34V65.928L278.323 66.096V68.196H281.635V66.096L280.627 65.928V65.34H283.747V65.928L282.871 66.096V71.304L283.795 71.412V72H280.603V71.412L281.635 71.304V68.892H278.323V71.304L279.355 71.412V72H276.175V71.412L277.087 71.304V66.096L276.187 65.928V65.34H279.319ZM288.362 67.968C290.074 67.968 290.93 68.636 290.93 69.972C290.93 70.676 290.698 71.212 290.234 71.58C289.77 71.94 289.11 72.12 288.254 72.12C288.15 72.12 287.982 72.112 287.75 72.096C287.518 72.08 287.334 72.068 287.198 72.06C286.758 72.02 286.43 72 286.214 72H284.738V71.436L285.794 71.304V66.096L284.81 65.94V65.34H288.206V65.94L287.018 66.096V67.98L288.362 67.968ZM287.018 71.376C287.338 71.432 287.69 71.46 288.074 71.46C289.106 71.46 289.622 70.996 289.622 70.068C289.622 69.58 289.49 69.224 289.226 69C288.962 68.776 288.558 68.664 288.014 68.664H287.018V71.376Z" fill="white"/>
<path id="Rectangle 30" d="M373 49C373 37.9543 381.954 29 393 29H399C410.046 29 419 37.9543 419 49V75.6602L373 81V49Z" fill="white"/>
</g>
</svg>
