<svg width="410" height="138" viewBox="0 0 410 138" fill="none" xmlns="http://www.w3.org/2000/svg">
<g id="Group 20">
<path id="Rectangle 17" d="M5 69.883L405 5.86387V68.117L5 132.136V69.883ZM407.526 67.7127L407.522 67.7134L407.526 67.7127Z" fill="#C4C4C4" stroke="white" stroke-width="10"/>
<path id="18 &#209;&#131;&#209;&#128;&#208;&#190;&#208;&#178;&#208;&#181;&#208;&#189;&#209;&#140;" d="M174.67 67.808C174.502 67.872 174.238 67.948 173.878 68.036C173.518 68.124 173.226 68.184 173.002 68.216L172.882 67.544C173.29 67.456 173.706 67.308 174.13 67.1C174.562 66.892 174.922 66.664 175.21 66.416H175.222L175.954 66.536V73.304L177.442 73.412V74H173.122V73.412L174.67 73.304V67.808ZM178.479 71.804C178.479 71.332 178.631 70.896 178.935 70.496C179.247 70.088 179.711 69.748 180.327 69.476C179.855 69.172 179.491 68.852 179.235 68.516C178.979 68.172 178.851 67.744 178.851 67.232C178.851 66.76 178.975 66.356 179.223 66.02C179.479 65.676 179.815 65.416 180.231 65.24C180.647 65.064 181.095 64.976 181.575 64.976C182.351 64.976 182.975 65.156 183.447 65.516C183.919 65.876 184.155 66.356 184.155 66.956C184.155 67.412 184.015 67.836 183.735 68.228C183.463 68.612 183.067 68.948 182.547 69.236C183.187 69.596 183.683 69.96 184.035 70.328C184.387 70.696 184.563 71.152 184.563 71.696C184.563 72.184 184.419 72.612 184.131 72.98C183.851 73.34 183.475 73.62 183.003 73.82C182.531 74.02 182.019 74.12 181.467 74.12C180.955 74.12 180.471 74.04 180.015 73.88C179.567 73.72 179.199 73.468 178.911 73.124C178.623 72.772 178.479 72.332 178.479 71.804ZM179.955 66.956C179.955 67.244 180.043 67.5 180.219 67.724C180.395 67.948 180.611 68.14 180.867 68.3C181.123 68.46 181.491 68.668 181.971 68.924C182.331 68.732 182.615 68.488 182.823 68.192C183.031 67.896 183.135 67.576 183.135 67.232C183.135 66.704 182.991 66.292 182.703 65.996C182.415 65.692 182.027 65.54 181.539 65.54C181.099 65.54 180.723 65.668 180.411 65.924C180.107 66.18 179.955 66.524 179.955 66.956ZM183.291 71.948C183.291 71.66 183.207 71.408 183.039 71.192C182.871 70.968 182.659 70.776 182.403 70.616C182.155 70.456 181.811 70.264 181.371 70.04C181.147 69.928 180.979 69.84 180.867 69.776C180.491 69.968 180.187 70.224 179.955 70.544C179.723 70.864 179.607 71.208 179.607 71.576C179.607 72.168 179.779 72.64 180.123 72.992C180.475 73.336 180.951 73.508 181.551 73.508C181.839 73.508 182.115 73.444 182.379 73.316C182.651 73.188 182.871 73.004 183.039 72.764C183.207 72.524 183.291 72.252 183.291 71.948ZM189.653 76.988C189.517 76.988 189.381 76.98 189.245 76.964C189.117 76.948 189.025 76.924 188.969 76.892V75.848C189.017 75.88 189.109 75.904 189.245 75.92C189.389 75.936 189.525 75.944 189.653 75.944C190.037 75.944 190.373 75.808 190.661 75.536C190.957 75.272 191.241 74.76 191.513 74H190.937L188.657 68.06L188.105 67.904V67.34H190.997V67.904L190.073 68.048L191.249 71.588L191.801 73.34L192.317 71.576L193.385 68.048L192.581 67.904V67.34H194.993V67.904L194.393 68.048C193.217 71.648 192.525 73.692 192.317 74.18C192.045 74.868 191.797 75.404 191.573 75.788C191.349 76.18 191.085 76.476 190.781 76.676C190.477 76.884 190.101 76.988 189.653 76.988ZM202.04 70.436C202.04 71.116 201.9 71.74 201.62 72.308C201.34 72.868 200.94 73.312 200.42 73.64C199.9 73.968 199.292 74.132 198.596 74.132C198.404 74.132 198.196 74.116 197.972 74.084C197.748 74.052 197.568 74.012 197.432 73.964L197.468 74.972V76.184L198.716 76.316V76.904H195.368V76.316L196.232 76.184V68.264L195.356 68.048V67.4L197.06 67.184H197.084L197.336 67.4V68.108C197.576 67.844 197.872 67.62 198.224 67.436C198.584 67.252 198.984 67.16 199.424 67.16C199.896 67.16 200.328 67.276 200.72 67.508C201.12 67.74 201.44 68.1 201.68 68.588C201.92 69.076 202.04 69.692 202.04 70.436ZM198.932 68C198.628 68 198.344 68.064 198.08 68.192C197.816 68.32 197.612 68.46 197.468 68.612V73.136C197.524 73.232 197.664 73.32 197.888 73.4C198.12 73.472 198.372 73.508 198.644 73.508C199.26 73.508 199.756 73.264 200.132 72.776C200.516 72.288 200.708 71.552 200.708 70.568C200.708 69.704 200.54 69.06 200.204 68.636C199.876 68.212 199.452 68 198.932 68ZM203.083 70.652C203.083 69.932 203.231 69.308 203.527 68.78C203.823 68.252 204.211 67.852 204.691 67.58C205.179 67.3 205.699 67.16 206.251 67.16C207.259 67.16 208.015 67.48 208.519 68.12C209.031 68.76 209.287 69.6 209.287 70.64C209.287 71.368 209.139 71.996 208.843 72.524C208.547 73.052 208.155 73.452 207.667 73.724C207.187 73.996 206.671 74.132 206.119 74.132C205.111 74.132 204.351 73.812 203.839 73.172C203.335 72.532 203.083 71.692 203.083 70.652ZM206.191 73.448C206.743 73.448 207.167 73.22 207.463 72.764C207.759 72.308 207.907 71.632 207.907 70.736C207.907 69.848 207.771 69.144 207.499 68.624C207.227 68.104 206.791 67.844 206.191 67.844C205.639 67.844 205.211 68.072 204.907 68.528C204.611 68.984 204.463 69.66 204.463 70.556C204.463 71.444 204.603 72.148 204.883 72.668C205.163 73.188 205.599 73.448 206.191 73.448ZM212.556 67.316C213.324 67.292 213.724 67.28 213.756 67.28C214.764 67.28 215.468 67.412 215.868 67.676C216.268 67.932 216.468 68.316 216.468 68.828C216.468 69.212 216.352 69.536 216.12 69.8C215.896 70.056 215.576 70.244 215.16 70.364C215.752 70.412 216.208 70.584 216.528 70.88C216.848 71.176 217.008 71.532 217.008 71.948C217.008 72.628 216.748 73.152 216.228 73.52C215.708 73.88 214.86 74.06 213.684 74.06C213.452 74.06 213.232 74.056 213.024 74.048C212.824 74.04 212.652 74.032 212.508 74.024L211.692 74H210.468V73.412L211.308 73.268V68.096L210.48 67.928V67.34H211.8L212.556 67.316ZM213.696 70.16C214.216 70.16 214.596 70.044 214.836 69.812C215.084 69.58 215.208 69.28 215.208 68.912C215.208 68.592 215.092 68.352 214.86 68.192C214.628 68.024 214.224 67.94 213.648 67.94H212.532V70.16H213.696ZM212.532 73.292C212.612 73.316 212.768 73.34 213 73.364C213.232 73.38 213.436 73.388 213.612 73.388C214.348 73.388 214.868 73.288 215.172 73.088C215.476 72.888 215.628 72.556 215.628 72.092C215.628 71.652 215.488 71.324 215.208 71.108C214.928 70.892 214.488 70.784 213.888 70.784H212.532V73.292ZM221 74.132C220.032 74.132 219.292 73.816 218.78 73.184C218.276 72.552 218.024 71.708 218.024 70.652C218.024 69.956 218.156 69.344 218.42 68.816C218.684 68.288 219.052 67.88 219.524 67.592C220.004 67.304 220.548 67.16 221.156 67.16C221.9 67.16 222.476 67.368 222.884 67.784C223.3 68.192 223.52 68.78 223.544 69.548C223.544 70.036 223.516 70.408 223.46 70.664H219.332C219.348 71.456 219.532 72.096 219.884 72.584C220.236 73.064 220.736 73.304 221.384 73.304C221.704 73.304 222.036 73.248 222.38 73.136C222.732 73.016 223.004 72.876 223.196 72.716L223.424 73.244C223.192 73.484 222.848 73.692 222.392 73.868C221.936 74.044 221.472 74.132 221 74.132ZM222.224 70.028C222.248 69.86 222.26 69.688 222.26 69.512C222.252 68.992 222.14 68.584 221.924 68.288C221.716 67.984 221.384 67.832 220.928 67.832C220.464 67.832 220.092 68 219.812 68.336C219.54 68.672 219.384 69.236 219.344 70.028H222.224ZM227.731 67.34V67.928L226.735 68.096V70.196H230.047V68.096L229.039 67.928V67.34H232.159V67.928L231.283 68.096V73.304L232.207 73.412V74H229.015V73.412L230.047 73.304V70.892H226.735V73.304L227.767 73.412V74H224.587V73.412L225.499 73.304V68.096L224.599 67.928V67.34H227.731ZM236.774 69.968C238.486 69.968 239.342 70.636 239.342 71.972C239.342 72.676 239.11 73.212 238.646 73.58C238.182 73.94 237.522 74.12 236.666 74.12C236.562 74.12 236.394 74.112 236.162 74.096C235.93 74.08 235.746 74.068 235.61 74.06C235.17 74.02 234.842 74 234.626 74H233.15V73.436L234.206 73.304V68.096L233.222 67.94V67.34H236.618V67.94L235.43 68.096V69.98L236.774 69.968ZM235.43 73.376C235.75 73.432 236.102 73.46 236.486 73.46C237.518 73.46 238.034 72.996 238.034 72.068C238.034 71.58 237.902 71.224 237.638 71C237.374 70.776 236.97 70.664 236.426 70.664H235.43V73.376Z" fill="white"/>
<path id="Rectangle 41" d="M318 43C318 31.9543 326.954 23 338 23H344C355.046 23 364 31.9543 364 43V69.6602L318 75V43Z" fill="white"/>
</g>
</svg>
