<svg width="570" height="138" viewBox="0 0 570 138" fill="none" xmlns="http://www.w3.org/2000/svg">
<g id="Group 4">
<path id="Rectangle 22" d="M5 70.077L565 5.60863V67.923L5 132.391V70.077Z" fill="#C4C4C4" stroke="white" stroke-width="10"/>
<path id="2 &#209;&#131;&#209;&#128;&#208;&#190;&#208;&#178;&#208;&#181;&#208;&#189;&#209;&#140;" d="M255.332 75.496C256.068 75.08 256.744 74.604 257.36 74.068C257.976 73.524 258.464 72.964 258.824 72.388C259.192 71.812 259.376 71.268 259.376 70.756C259.376 70.316 259.244 69.968 258.98 69.712C258.716 69.448 258.34 69.316 257.852 69.316C257.396 69.316 257.004 69.408 256.676 69.592C256.348 69.768 256.044 69.988 255.764 70.252L255.38 69.712C255.66 69.384 256.06 69.088 256.58 68.824C257.1 68.552 257.656 68.416 258.248 68.416C258.808 68.416 259.28 68.52 259.664 68.728C260.048 68.928 260.332 69.192 260.516 69.52C260.7 69.848 260.792 70.208 260.792 70.6C260.792 71.392 260.412 72.208 259.652 73.048C258.892 73.88 257.94 74.628 256.796 75.292L260.516 75.016L260.936 73.984L261.548 74.104L261.236 76H255.512L255.332 75.496ZM266.299 78.988C266.163 78.988 266.027 78.98 265.891 78.964C265.763 78.948 265.671 78.924 265.615 78.892V77.848C265.663 77.88 265.755 77.904 265.891 77.92C266.035 77.936 266.171 77.944 266.299 77.944C266.683 77.944 267.019 77.808 267.307 77.536C267.603 77.272 267.887 76.76 268.159 76H267.583L265.303 70.06L264.751 69.904V69.34H267.643V69.904L266.719 70.048L267.895 73.588L268.447 75.34L268.963 73.576L270.031 70.048L269.227 69.904V69.34H271.639V69.904L271.039 70.048C269.863 73.648 269.171 75.692 268.963 76.18C268.691 76.868 268.443 77.404 268.219 77.788C267.995 78.18 267.731 78.476 267.427 78.676C267.123 78.884 266.747 78.988 266.299 78.988ZM278.686 72.436C278.686 73.116 278.546 73.74 278.266 74.308C277.986 74.868 277.586 75.312 277.066 75.64C276.546 75.968 275.938 76.132 275.242 76.132C275.05 76.132 274.842 76.116 274.618 76.084C274.394 76.052 274.214 76.012 274.078 75.964L274.114 76.972V78.184L275.362 78.316V78.904H272.014V78.316L272.878 78.184V70.264L272.002 70.048V69.4L273.706 69.184H273.73L273.982 69.4V70.108C274.222 69.844 274.518 69.62 274.87 69.436C275.23 69.252 275.63 69.16 276.07 69.16C276.542 69.16 276.974 69.276 277.366 69.508C277.766 69.74 278.086 70.1 278.326 70.588C278.566 71.076 278.686 71.692 278.686 72.436ZM275.578 70C275.274 70 274.99 70.064 274.726 70.192C274.462 70.32 274.258 70.46 274.114 70.612V75.136C274.17 75.232 274.31 75.32 274.534 75.4C274.766 75.472 275.018 75.508 275.29 75.508C275.906 75.508 276.402 75.264 276.778 74.776C277.162 74.288 277.354 73.552 277.354 72.568C277.354 71.704 277.186 71.06 276.85 70.636C276.522 70.212 276.098 70 275.578 70ZM279.729 72.652C279.729 71.932 279.877 71.308 280.173 70.78C280.469 70.252 280.857 69.852 281.337 69.58C281.825 69.3 282.345 69.16 282.897 69.16C283.905 69.16 284.661 69.48 285.165 70.12C285.677 70.76 285.933 71.6 285.933 72.64C285.933 73.368 285.785 73.996 285.489 74.524C285.193 75.052 284.801 75.452 284.313 75.724C283.833 75.996 283.317 76.132 282.765 76.132C281.757 76.132 280.997 75.812 280.485 75.172C279.981 74.532 279.729 73.692 279.729 72.652ZM282.837 75.448C283.389 75.448 283.813 75.22 284.109 74.764C284.405 74.308 284.553 73.632 284.553 72.736C284.553 71.848 284.417 71.144 284.145 70.624C283.873 70.104 283.437 69.844 282.837 69.844C282.285 69.844 281.857 70.072 281.553 70.528C281.257 70.984 281.109 71.66 281.109 72.556C281.109 73.444 281.249 74.148 281.529 74.668C281.809 75.188 282.245 75.448 282.837 75.448ZM289.202 69.316C289.97 69.292 290.37 69.28 290.402 69.28C291.41 69.28 292.114 69.412 292.514 69.676C292.914 69.932 293.114 70.316 293.114 70.828C293.114 71.212 292.998 71.536 292.766 71.8C292.542 72.056 292.222 72.244 291.806 72.364C292.398 72.412 292.854 72.584 293.174 72.88C293.494 73.176 293.654 73.532 293.654 73.948C293.654 74.628 293.394 75.152 292.874 75.52C292.354 75.88 291.506 76.06 290.33 76.06C290.098 76.06 289.878 76.056 289.67 76.048C289.47 76.04 289.298 76.032 289.154 76.024L288.338 76H287.114V75.412L287.954 75.268V70.096L287.126 69.928V69.34H288.446L289.202 69.316ZM290.342 72.16C290.862 72.16 291.242 72.044 291.482 71.812C291.73 71.58 291.854 71.28 291.854 70.912C291.854 70.592 291.738 70.352 291.506 70.192C291.274 70.024 290.87 69.94 290.294 69.94H289.178V72.16H290.342ZM289.178 75.292C289.258 75.316 289.414 75.34 289.646 75.364C289.878 75.38 290.082 75.388 290.258 75.388C290.994 75.388 291.514 75.288 291.818 75.088C292.122 74.888 292.274 74.556 292.274 74.092C292.274 73.652 292.134 73.324 291.854 73.108C291.574 72.892 291.134 72.784 290.534 72.784H289.178V75.292ZM297.646 76.132C296.678 76.132 295.938 75.816 295.426 75.184C294.922 74.552 294.67 73.708 294.67 72.652C294.67 71.956 294.802 71.344 295.066 70.816C295.33 70.288 295.698 69.88 296.17 69.592C296.65 69.304 297.194 69.16 297.802 69.16C298.546 69.16 299.122 69.368 299.53 69.784C299.946 70.192 300.166 70.78 300.19 71.548C300.19 72.036 300.162 72.408 300.106 72.664H295.978C295.994 73.456 296.178 74.096 296.53 74.584C296.882 75.064 297.382 75.304 298.03 75.304C298.35 75.304 298.682 75.248 299.026 75.136C299.378 75.016 299.65 74.876 299.842 74.716L300.07 75.244C299.838 75.484 299.494 75.692 299.038 75.868C298.582 76.044 298.118 76.132 297.646 76.132ZM298.87 72.028C298.894 71.86 298.906 71.688 298.906 71.512C298.898 70.992 298.786 70.584 298.57 70.288C298.362 69.984 298.03 69.832 297.574 69.832C297.11 69.832 296.738 70 296.458 70.336C296.186 70.672 296.03 71.236 295.99 72.028H298.87ZM304.378 69.34V69.928L303.382 70.096V72.196H306.694V70.096L305.686 69.928V69.34H308.806V69.928L307.93 70.096V75.304L308.854 75.412V76H305.662V75.412L306.694 75.304V72.892H303.382V75.304L304.414 75.412V76H301.234V75.412L302.146 75.304V70.096L301.246 69.928V69.34H304.378ZM313.421 71.968C315.133 71.968 315.989 72.636 315.989 73.972C315.989 74.676 315.757 75.212 315.293 75.58C314.829 75.94 314.169 76.12 313.313 76.12C313.209 76.12 313.041 76.112 312.809 76.096C312.577 76.08 312.393 76.068 312.257 76.06C311.817 76.02 311.489 76 311.273 76H309.797V75.436L310.853 75.304V70.096L309.869 69.94V69.34H313.265V69.94L312.077 70.096V71.98L313.421 71.968ZM312.077 75.376C312.397 75.432 312.749 75.46 313.133 75.46C314.165 75.46 314.681 74.996 314.681 74.068C314.681 73.58 314.549 73.224 314.285 73C314.021 72.776 313.617 72.664 313.073 72.664H312.077V75.376Z" fill="white"/>
<path id="Rectangle 24" d="M398 50C398 38.9543 406.954 30 418 30H424C435.046 30 444 38.9543 444 50V76.6602L398 82V50Z" fill="white"/>
</g>
</svg>
