<svg width="540" height="138" viewBox="0 0 540 138" fill="none" xmlns="http://www.w3.org/2000/svg">
<g id="Group 7">
<path id="Rectangle 4" d="M5 70.0488L535 5.64437V67.9512L5 132.356V70.0488Z" fill="#C4C4C4" stroke="white" stroke-width="10"/>
<path id="5 &#209;&#131;&#209;&#128;&#208;&#190;&#208;&#178;&#208;&#181;&#208;&#189;&#209;&#140;" d="M243.919 73.272C244.143 73.296 244.383 73.308 244.639 73.308C245.207 73.308 245.727 73.192 246.199 72.96C246.671 72.728 247.043 72.408 247.315 72C247.587 71.592 247.723 71.128 247.723 70.608C247.723 69.32 247.127 68.676 245.935 68.676C245.671 68.676 245.375 68.716 245.047 68.796C244.727 68.868 244.447 68.956 244.207 69.06L243.883 68.832L244.471 64.512H247.891L248.011 64.284H248.755L248.539 65.52H245.359L244.807 68.316C245.023 68.204 245.299 68.104 245.635 68.016C245.971 67.928 246.307 67.884 246.643 67.884C247.411 67.884 248.015 68.1 248.455 68.532C248.895 68.964 249.115 69.592 249.115 70.416C249.115 71.048 248.931 71.632 248.563 72.168C248.203 72.704 247.691 73.132 247.027 73.452C246.363 73.772 245.607 73.932 244.759 73.932C244.415 73.932 244.135 73.904 243.919 73.848V73.272ZM254.276 74.988C254.14 74.988 254.004 74.98 253.868 74.964C253.74 74.948 253.648 74.924 253.592 74.892V73.848C253.64 73.88 253.732 73.904 253.868 73.92C254.012 73.936 254.148 73.944 254.276 73.944C254.66 73.944 254.996 73.808 255.284 73.536C255.58 73.272 255.864 72.76 256.136 72H255.56L253.28 66.06L252.728 65.904V65.34H255.62V65.904L254.696 66.048L255.872 69.588L256.424 71.34L256.94 69.576L258.008 66.048L257.204 65.904V65.34H259.616V65.904L259.016 66.048C257.84 69.648 257.148 71.692 256.94 72.18C256.668 72.868 256.42 73.404 256.196 73.788C255.972 74.18 255.708 74.476 255.404 74.676C255.1 74.884 254.724 74.988 254.276 74.988ZM266.663 68.436C266.663 69.116 266.523 69.74 266.243 70.308C265.963 70.868 265.563 71.312 265.043 71.64C264.523 71.968 263.915 72.132 263.219 72.132C263.027 72.132 262.819 72.116 262.595 72.084C262.371 72.052 262.191 72.012 262.055 71.964L262.091 72.972V74.184L263.339 74.316V74.904H259.991V74.316L260.855 74.184V66.264L259.979 66.048V65.4L261.683 65.184H261.707L261.959 65.4V66.108C262.199 65.844 262.495 65.62 262.847 65.436C263.207 65.252 263.607 65.16 264.047 65.16C264.519 65.16 264.951 65.276 265.343 65.508C265.743 65.74 266.063 66.1 266.303 66.588C266.543 67.076 266.663 67.692 266.663 68.436ZM263.555 66C263.251 66 262.967 66.064 262.703 66.192C262.439 66.32 262.235 66.46 262.091 66.612V71.136C262.147 71.232 262.287 71.32 262.511 71.4C262.743 71.472 262.995 71.508 263.267 71.508C263.883 71.508 264.379 71.264 264.755 70.776C265.139 70.288 265.331 69.552 265.331 68.568C265.331 67.704 265.163 67.06 264.827 66.636C264.499 66.212 264.075 66 263.555 66ZM267.706 68.652C267.706 67.932 267.854 67.308 268.15 66.78C268.446 66.252 268.834 65.852 269.314 65.58C269.802 65.3 270.322 65.16 270.874 65.16C271.882 65.16 272.638 65.48 273.142 66.12C273.654 66.76 273.91 67.6 273.91 68.64C273.91 69.368 273.762 69.996 273.466 70.524C273.17 71.052 272.778 71.452 272.29 71.724C271.81 71.996 271.294 72.132 270.742 72.132C269.734 72.132 268.974 71.812 268.462 71.172C267.958 70.532 267.706 69.692 267.706 68.652ZM270.814 71.448C271.366 71.448 271.79 71.22 272.086 70.764C272.382 70.308 272.53 69.632 272.53 68.736C272.53 67.848 272.394 67.144 272.122 66.624C271.85 66.104 271.414 65.844 270.814 65.844C270.262 65.844 269.834 66.072 269.53 66.528C269.234 66.984 269.086 67.66 269.086 68.556C269.086 69.444 269.226 70.148 269.506 70.668C269.786 71.188 270.222 71.448 270.814 71.448ZM277.179 65.316C277.947 65.292 278.347 65.28 278.379 65.28C279.387 65.28 280.091 65.412 280.491 65.676C280.891 65.932 281.091 66.316 281.091 66.828C281.091 67.212 280.975 67.536 280.743 67.8C280.519 68.056 280.199 68.244 279.783 68.364C280.375 68.412 280.831 68.584 281.151 68.88C281.471 69.176 281.631 69.532 281.631 69.948C281.631 70.628 281.371 71.152 280.851 71.52C280.331 71.88 279.483 72.06 278.307 72.06C278.075 72.06 277.855 72.056 277.647 72.048C277.447 72.04 277.275 72.032 277.131 72.024L276.315 72H275.091V71.412L275.931 71.268V66.096L275.103 65.928V65.34H276.423L277.179 65.316ZM278.319 68.16C278.839 68.16 279.219 68.044 279.459 67.812C279.707 67.58 279.831 67.28 279.831 66.912C279.831 66.592 279.715 66.352 279.483 66.192C279.251 66.024 278.847 65.94 278.271 65.94H277.155V68.16H278.319ZM277.155 71.292C277.235 71.316 277.391 71.34 277.623 71.364C277.855 71.38 278.059 71.388 278.235 71.388C278.971 71.388 279.491 71.288 279.795 71.088C280.099 70.888 280.251 70.556 280.251 70.092C280.251 69.652 280.111 69.324 279.831 69.108C279.551 68.892 279.111 68.784 278.511 68.784H277.155V71.292ZM285.623 72.132C284.655 72.132 283.915 71.816 283.403 71.184C282.899 70.552 282.647 69.708 282.647 68.652C282.647 67.956 282.779 67.344 283.043 66.816C283.307 66.288 283.675 65.88 284.147 65.592C284.627 65.304 285.171 65.16 285.779 65.16C286.523 65.16 287.099 65.368 287.507 65.784C287.923 66.192 288.143 66.78 288.167 67.548C288.167 68.036 288.139 68.408 288.083 68.664H283.955C283.971 69.456 284.155 70.096 284.507 70.584C284.859 71.064 285.359 71.304 286.007 71.304C286.327 71.304 286.659 71.248 287.003 71.136C287.355 71.016 287.627 70.876 287.819 70.716L288.047 71.244C287.815 71.484 287.471 71.692 287.015 71.868C286.559 72.044 286.095 72.132 285.623 72.132ZM286.847 68.028C286.871 67.86 286.883 67.688 286.883 67.512C286.875 66.992 286.763 66.584 286.547 66.288C286.339 65.984 286.007 65.832 285.551 65.832C285.087 65.832 284.715 66 284.435 66.336C284.163 66.672 284.007 67.236 283.967 68.028H286.847ZM292.354 65.34V65.928L291.358 66.096V68.196H294.67V66.096L293.662 65.928V65.34H296.782V65.928L295.906 66.096V71.304L296.83 71.412V72H293.638V71.412L294.67 71.304V68.892H291.358V71.304L292.39 71.412V72H289.21V71.412L290.122 71.304V66.096L289.222 65.928V65.34H292.354ZM301.397 67.968C303.109 67.968 303.965 68.636 303.965 69.972C303.965 70.676 303.733 71.212 303.269 71.58C302.805 71.94 302.145 72.12 301.289 72.12C301.185 72.12 301.017 72.112 300.785 72.096C300.553 72.08 300.369 72.068 300.233 72.06C299.793 72.02 299.465 72 299.249 72H297.773V71.436L298.829 71.304V66.096L297.845 65.94V65.34H301.241V65.94L300.053 66.096V67.98L301.397 67.968ZM300.053 71.376C300.373 71.432 300.725 71.46 301.109 71.46C302.141 71.46 302.657 70.996 302.657 70.068C302.657 69.58 302.525 69.224 302.261 69C301.997 68.776 301.593 68.664 301.049 68.664H300.053V71.376Z" fill="white"/>
<path id="Rectangle 28" d="M383 50C383 38.9543 391.954 30 403 30H409C420.046 30 429 38.9543 429 50V76.6602L383 82V50Z" fill="white"/>
</g>
</svg>
